<?xml version="1.0" encoding="UTF-8"?>
<svg version="1.1" xmlns="http://www.w3.org/2000/svg" width="512" height="512">
<path d="M0 0 C147.84 0 295.68 0 448 0 C448 6.52259024 447.98906009 12.75324527 447.39371586 19.19723606 C447.29539539 20.32610718 447.29539539 20.32610718 447.19508865 21.47778377 C446.97666826 23.97215189 446.75141839 26.46585279 446.52613831 28.95960999 C446.36557167 30.77685246 446.20543012 32.59413254 446.04567474 34.41144651 C445.60728498 39.38437222 445.16288976 44.35674544 444.71748245 49.32904685 C444.23746923 54.69960905 443.76306393 60.07066699 443.28796387 65.44166565 C442.35712175 75.95492416 441.4211737 86.46772215 440.48356313 96.98037893 C439.39164442 109.22574557 438.30511444 121.47158854 437.21888613 133.71746104 C435.28053287 155.56824828 433.33777978 177.41864201 431.39233398 199.26879883 C429.50501803 220.46616388 427.62004128 241.66373493 425.73803711 262.86157227 C425.62210969 264.16730633 425.50618226 265.47304039 425.38674188 266.81834216 C424.92075578 272.06700872 424.45478213 277.31567638 423.98882595 282.5643456 C420.41730313 322.79440872 416.84376823 363.0242949 413.26276398 403.25351524 C412.88721779 407.4725904 412.51191833 411.69168739 412.13684654 415.91080475 C411.70490118 420.7695265 411.27243234 425.62820136 410.8395431 430.48683911 C410.6832147 432.24237996 410.52706726 433.99793693 410.37112135 435.75351179 C409.62306749 444.17348285 408.86556453 452.59109657 408 461 C401.0452322 463.77516064 393.95531523 465.77565547 386.73828125 467.75390625 C385.38923629 468.12668946 384.04029116 468.49983412 382.69143677 468.87330627 C379.77146944 469.68113618 376.85092143 470.48681848 373.92990112 471.29083252 C366.76773582 473.26246648 359.60875901 475.245633 352.44942665 477.2275238 C349.8622943 477.94359757 347.27504451 478.65924596 344.68778992 479.37487793 C323.30442688 485.29158455 301.93851888 491.27082002 280.57204819 497.24818039 C276.40893823 498.41271711 272.24569565 499.57677932 268.08245468 500.74084759 C263.22026094 502.10040671 258.3581743 503.46034864 253.49609375 504.8203125 C252.59683292 505.07180117 251.6975721 505.32328983 250.77106094 505.58239937 C248.24371893 506.28926345 245.71645187 506.99639485 243.18920898 507.70361328 C242.09197242 508.01043958 242.09197242 508.01043958 240.97256947 508.32346439 C240.28463653 508.51603541 239.59670359 508.70860643 238.88792419 508.90701294 C238.23013411 509.08859074 237.57234402 509.27016853 236.8946209 509.45724869 C235.0798443 509.97712703 233.2831831 510.55903165 231.48817444 511.14352417 C224.46440183 512.86812011 218.70384011 511.96878574 211.91943359 509.99414062 C211.14763638 509.7786258 210.37583916 509.56311098 209.58065414 509.34106541 C207.01704762 508.62257743 204.45788221 507.88941278 201.8984375 507.15625 C200.05835893 506.63752724 198.21800948 506.11976453 196.37741089 505.60289001 C191.406591 504.20434281 186.4393872 502.79333401 181.47273254 501.38007736 C176.28957398 499.90752269 171.10321611 498.4463341 165.91699219 496.98461914 C159.48330959 495.17072255 153.04987686 493.3559682 146.61779785 491.53639221 C131.66954566 487.30856284 116.7100495 483.12268324 101.7421875 478.96484375 C99.7267886 478.40466089 97.71139748 477.84445 95.6960144 477.28421021 C87.9735264 475.13785101 80.25088182 472.99206377 72.52703857 470.85058594 C68.05698933 469.61105244 63.58783545 468.36834047 59.11932755 467.12326241 C57.48037413 466.66724367 55.84108392 466.21243349 54.20144272 465.75889397 C51.97751488 465.14364175 49.75474545 464.52437187 47.53222656 463.90405273 C46.28717346 463.55833725 45.04212036 463.21262177 43.75933838 462.85643005 C41 462 41 462 40 461 C39.72025988 458.89650593 39.50587088 456.78432853 39.31520081 454.67089844 C39.25269294 453.99158547 39.19018507 453.31227251 39.12578303 452.61237431 C38.91223522 450.2784179 38.70531742 447.94391834 38.49829102 445.609375 C38.34292831 443.89431073 38.18719671 442.17927985 38.03113365 440.46427917 C37.59061629 435.60858659 37.15617741 430.75236512 36.722718 425.89603806 C36.34066937 421.62341332 35.95535153 417.35108564 35.5701316 413.07874584 C34.17274802 397.57722085 32.78912095 382.07447379 31.40746784 366.57154083 C31.05863427 362.65751913 30.70960028 358.74351533 30.36051118 354.82951641 C26.2676027 308.93931473 22.19425675 263.04739173 18.13599205 217.15411377 C17.78280768 213.16019626 17.42961483 209.16627951 17.07641602 205.17236328 C16.98877631 204.18131088 16.90113661 203.19025848 16.81084116 202.16917419 C15.36948273 185.87101017 13.9239357 169.57322027 12.47681277 153.27556717 C10.97226429 136.33042243 9.47133571 119.38496014 7.97398859 102.43917751 C7.14039035 93.006183 6.30524935 83.57333097 5.46598625 74.14083862 C4.75808106 66.18458026 4.05344913 58.22804066 3.3531177 50.27111191 C2.99702195 46.22640736 2.63938774 42.18185489 2.2775135 38.13766289 C1.94618052 34.43438236 1.61935596 30.73073171 1.29601628 27.02674496 C1.12369802 25.06591456 0.94665829 23.10550082 0.76940769 21.14511013 C0.66697272 19.96158994 0.56453774 18.77806974 0.45899868 17.5586853 C0.36970669 16.55027273 0.2804147 15.54186016 0.1884169 14.50288963 C-0.07126159 9.67516401 0 4.8347045 0 0 Z " fill="#2196F3" transform="translate(32,0)"/>
<path d="M0 0 C93.72 0 187.44 0 284 0 C282.82956582 15.2156443 281.65133138 30.41081273 280.23046875 45.6015625 C280.06748679 47.36119807 279.90470707 49.12085239 279.74211121 50.88052368 C279.40121681 54.56648514 279.05921656 58.25234135 278.71624756 61.93811035 C277.90281203 70.68158047 277.09598199 79.42566152 276.28877258 88.16970825 C276.10944684 90.11203619 275.93005447 92.05435799 275.75059509 93.99667358 C273.76139388 115.52686481 271.83311719 137.06219608 269.92459106 158.59968567 C269.18894795 166.89388176 268.44524134 175.18734023 267.69869423 183.4805603 C267.17627396 189.28431826 266.6544615 195.08813093 266.13266373 200.89194489 C266.00315435 202.33231116 265.87361514 203.77267475 265.74404526 205.21303558 C264.38588669 220.31249822 263.03739599 235.41248763 261.765625 250.51953125 C261.6719313 251.63153397 261.57823761 252.74353668 261.48170471 253.88923645 C261.05112121 259.01177962 260.62480101 264.13463232 260.20483398 269.25805664 C260.05715555 271.03401914 259.90945213 272.80997957 259.76171875 274.5859375 C259.69845398 275.37527176 259.63518921 276.16460602 259.57000732 276.9778595 C259.25714581 280.71385338 258.83799351 284.34321884 258 288 C251.61996261 290.24482797 245.15810377 292.09493455 238.63769531 293.87939453 C232.02656531 295.69591812 225.4507466 297.62228521 218.875 299.5625 C210.90099414 301.9079061 202.91991117 304.08233045 194.84375 306.04296875 C188.29546387 307.67338552 181.80828787 309.52186308 175.31298828 311.35009766 C172.95833752 312.01170631 170.60248409 312.6688341 168.24609375 313.32421875 C167.07880737 313.64894165 167.07880737 313.64894165 165.88793945 313.98022461 C164.35184977 314.40613672 162.81523612 314.83016415 161.27807617 315.25219727 C158.08286582 316.13094195 154.90637954 317.02918623 151.7421875 318.015625 C150.81664062 318.29921875 149.89109375 318.5828125 148.9375 318.875 C148.18339844 319.11992187 147.42929687 319.36484375 146.65234375 319.6171875 C139.82419642 320.6026933 133.07493392 318.67372709 126.5625 316.75 C124.98052318 316.296685 123.39849032 315.84356553 121.81640625 315.390625 C120.61781982 315.04354492 120.61781982 315.04354492 119.39501953 314.68945312 C115.60443358 313.59825896 111.80198589 312.55063082 108 311.5 C106.49213852 311.08090536 104.98432603 310.6616344 103.4765625 310.2421875 C100.55583728 309.43066393 97.63394581 308.62357176 94.7109375 307.8203125 C86.07362663 305.44148328 77.46873882 302.96949383 68.875 300.4375 C62.05003429 298.42813829 55.22763304 296.48739244 48.3125 294.8125 C31.44852941 290.72426471 31.44852941 290.72426471 26 288 C25.11688707 285.3506612 24.78007219 283.3998184 24.56689453 280.65332031 C24.49646942 279.77154617 24.42604431 278.88977203 24.35348511 277.98127747 C24.28066315 277.02323715 24.20784119 276.06519684 24.1328125 275.078125 C24.05346466 274.07766647 23.97411682 273.07720795 23.8923645 272.0464325 C23.72201918 269.89719368 23.55324093 267.7478302 23.38586426 265.59835815 C22.9504017 260.00892012 22.5038752 254.42038131 22.0546875 248.83203125 C21.96582275 247.72610123 21.87695801 246.6201712 21.78540039 245.48072815 C20.93892399 235.05422803 19.95090709 224.64529604 18.86376953 214.24121094 C18.69143799 212.55753418 18.69143799 212.55753418 18.515625 210.83984375 C18.41540039 209.89488037 18.31517578 208.94991699 18.21191406 207.97631836 C17.95201858 204.32610434 18 200.65945461 18 197 C36.81 197 55.62 197 75 197 C75.474375 201.95 75.94875 206.9 76.4375 212 C76.58501709 213.52496094 76.73253418 215.04992187 76.88452148 216.62109375 C77.77997608 226.07264418 78.46499362 235.52137734 79 245 C79.70439209 245.091604 80.40878418 245.18320801 81.13452148 245.27758789 C87.82068804 246.18744875 94.15773977 247.80047833 100.625 249.6875 C101.5013208 249.94305664 102.3776416 250.19861328 103.28051758 250.46191406 C105.16423419 251.01185092 107.04794151 251.56181963 108.93164062 252.11181641 C114.56751994 253.74320795 120.21797042 255.31873929 125.875 256.875 C126.97408691 257.18526123 128.07317383 257.49552246 129.20556641 257.81518555 C130.77056885 258.24311401 130.77056885 258.24311401 132.3671875 258.6796875 C133.74559814 259.06229736 133.74559814 259.06229736 135.15185547 259.45263672 C140.98556768 260.57377359 146.02860344 259.96048606 151.7265625 258.4609375 C153.63103149 257.96509155 153.63103149 257.96509155 155.57397461 257.45922852 C156.92437843 257.09805083 158.27471904 256.73663672 159.625 256.375 C161.01490913 256.00977839 162.40496583 255.64511797 163.79516602 255.28100586 C172.70472053 252.93550514 181.58450378 250.4863921 190.40283203 247.81591797 C195.27982594 246.36672464 199.93344729 245.50146767 205 245 C205.05369751 244.08482101 205.10739502 243.16964203 205.16271973 242.22673035 C205.7177579 233.29726506 206.54098099 224.43756462 207.59375 215.55078125 C207.82112854 213.59920357 207.82112854 213.59920357 208.05310059 211.60820007 C208.37013924 208.88964287 208.68968476 206.17139685 209.01123047 203.45336914 C209.42244102 199.9762287 209.82789603 196.4984453 210.23162079 193.02042866 C210.62045245 189.67606007 211.01347383 186.33218893 211.40625 182.98828125 C211.55106812 181.74355545 211.69588623 180.49882965 211.84509277 179.21638489 C211.98193481 178.06385727 212.11877686 176.91132965 212.25976562 175.72387695 C212.43844177 174.2062249 212.43844177 174.2062249 212.62072754 172.65791321 C213 170 213 170 214 166 C148.33 166 82.66 166 15 166 C10.35714286 127.69642857 10.35714286 127.69642857 10 113 C33.5929771 112.13682712 57.17750077 111.73979317 80.78412628 111.49474788 C85.6313382 111.44372426 90.47850784 111.38894254 95.32568359 111.33460999 C104.44774423 111.23290505 113.5698366 111.13443491 122.69194603 111.03721577 C133.10122493 110.92611439 143.51046159 110.81127162 153.91969681 110.69616115 C175.27975497 110.46003247 196.63986354 110.2289443 218 110 C219.32 91.19 220.64 72.38 222 53 C149.73 53 77.46 53 3 53 C2.67 46.07 2.34 39.14 2 32 C1.67633499 27.90811821 1.34097566 23.83257596 0.9375 19.75 C0.75522002 17.89100276 0.57677727 16.0316249 0.40234375 14.171875 C0.32491943 13.3890918 0.24749512 12.60630859 0.16772461 11.79980469 C-0.06750317 7.87317858 0 3.93366555 0 0 Z " fill="#F9F9F9" transform="translate(114,94)"/>
</svg>
