<?xml version="1.0" encoding="UTF-8"?>
<svg version="1.1" xmlns="http://www.w3.org/2000/svg" width="300" height="368">
<path d="M0 0 C30.03 0 60.06 0 91 0 C92 4 92 4 91 6 C90.01 6 89.02 6 88 6 C88 6.66 88 7.32 88 8 C87.01 8 86.02 8 85 8 C85 8.66 85 9.32 85 10 C83.625 11.625 83.625 11.625 82 13 C81.34 13 80.68 13 80 13 C80 13.66 80 14.32 80 15 C79.34 15 78.68 15 78 15 C77.67 15.99 77.34 16.98 77 18 C76.34 18 75.68 18 75 18 C75 18.66 75 19.32 75 20 C74.34 20 73.68 20 73 20 C72.67 20.99 72.34 21.98 72 23 C69.9375 24.1875 69.9375 24.1875 68 25 C68 25.66 68 26.32 68 27 C66.625 28.625 66.625 28.625 65 30 C64.34 30 63.68 30 63 30 C63 30.66 63 31.32 63 32 C62.34 32 61.68 32 61 32 C61 32.66 61 33.32 61 34 C59.625 35.625 59.625 35.625 58 37 C57.34 37 56.68 37 56 37 C56 37.66 56 38.32 56 39 C54.625 40.625 54.625 40.625 53 42 C52.34 42 51.68 42 51 42 C51 42.66 51 43.32 51 44 C50.34 44 49.68 44 49 44 C48.67 44.99 48.34 45.98 48 47 C47.34 47 46.68 47 46 47 C46 47.66 46 48.32 46 49 C45.34 49 44.68 49 44 49 C44 49.66 44 50.32 44 51 C43.34 51 42.68 51 42 51 C41.67 51.99 41.34 52.98 41 54 C40.34 54 39.68 54 39 54 C39 54.66 39 55.32 39 56 C38.34 56 37.68 56 37 56 C36.67 56.99 36.34 57.98 36 59 C35.34 59 34.68 59 34 59 C34 59.66 34 60.32 34 61 C33.34 61 32.68 61 32 61 C32 61.66 32 62.32 32 63 C30.625 64.625 30.625 64.625 29 66 C28.34 66 27.68 66 27 66 C27 66.66 27 67.32 27 68 C26.34 68 25.68 68 25 68 C25 68.66 25 69.32 25 70 C23.625 71.625 23.625 71.625 22 73 C21.34 73 20.68 73 20 73 C20 73.66 20 74.32 20 75 C18.625 76.625 18.625 76.625 17 78 C16.34 78 15.68 78 15 78 C14.67 78.99 14.34 79.98 14 81 C11.9375 82.1875 11.9375 82.1875 10 83 C10 83.66 10 84.32 10 85 C9.34 85 8.68 85 8 85 C8 85.66 8 86.32 8 87 C6.625 88.625 6.625 88.625 5 90 C4.34 90 3.68 90 3 90 C3 90.66 3 91.32 3 92 C2.34 92 1.68 92 1 92 C0.67 92.99 0.34 93.98 0 95 C-0.66 95 -1.32 95 -2 95 C-2 95.66 -2 96.32 -2 97 C-2.66 97 -3.32 97 -4 97 C-4 97.66 -4 98.32 -4 99 C-5.375 100.625 -5.375 100.625 -7 102 C-7.66 102 -8.32 102 -9 102 C-9 102.66 -9 103.32 -9 104 C-9.66 104 -10.32 104 -11 104 C-11.495 105.485 -11.495 105.485 -12 107 C-12.66 107 -13.32 107 -14 107 C-14 107.66 -14 108.32 -14 109 C-14.66 109 -15.32 109 -16 109 C-16 109.66 -16 110.32 -16 111 C-17.375 112.625 -17.375 112.625 -19 114 C-19.66 114 -20.32 114 -21 114 C-21 114.66 -21 115.32 -21 116 C-22.375 117.625 -22.375 117.625 -24 119 C-24.66 119 -25.32 119 -26 119 C-26.495 120.485 -26.495 120.485 -27 122 C-29.0625 123.1875 -29.0625 123.1875 -31 124 C-31 124.66 -31 125.32 -31 126 C-33.375 128.625 -33.375 128.625 -36 131 C-36.66 131 -37.32 131 -38 131 C-38 131.66 -38 132.32 -38 133 C-39.375 134.625 -39.375 134.625 -41 136 C-41.66 136 -42.32 136 -43 136 C-43 136.66 -43 137.32 -43 138 C-43.66 138 -44.32 138 -45 138 C-45 138.66 -45 139.32 -45 140 C-46.375 141.625 -46.375 141.625 -48 143 C-48.66 143 -49.32 143 -50 143 C-50 143.66 -50 144.32 -50 145 C-50.66 145 -51.32 145 -52 145 C-52 145.99 -52 146.98 -52 148 C-52.99 148 -53.98 148 -55 148 C-55 148.66 -55 149.32 -55 150 C-55.66 150 -56.32 150 -57 150 C-57.33 150.99 -57.66 151.98 -58 153 C-58.66 153 -59.32 153 -60 153 C-60 153.66 -60 154.32 -60 155 C-60.66 155 -61.32 155 -62 155 C-62 155.66 -62 156.32 -62 157 C-63.375 158.625 -63.375 158.625 -65 160 C-65.66 160 -66.32 160 -67 160 C-67 160.66 -67 161.32 -67 162 C-67.66 162 -68.32 162 -69 162 C-69.33 162.99 -69.66 163.98 -70 165 C-70.66 165 -71.32 165 -72 165 C-72 165.66 -72 166.32 -72 167 C-72.66 167 -73.32 167 -74 167 C-74 167.66 -74 168.32 -74 169 C-75.375 170.625 -75.375 170.625 -77 172 C-77.66 172 -78.32 172 -79 172 C-79 172.66 -79 173.32 -79 174 C-80.375 175.625 -80.375 175.625 -82 177 C-82.66 177 -83.32 177 -84 177 C-84 177.66 -84 178.32 -84 179 C-84.66 179 -85.32 179 -86 179 C-86 179.66 -86 180.32 -86 181 C-90.86486486 186.54054054 -90.86486486 186.54054054 -95 187 C-95.33 186.01 -95.66 185.02 -96 184 C-96.66 184 -97.32 184 -98 184 C-99.85999285 182.0324413 -101.53390198 179.94444402 -103.24609375 177.84765625 C-104.96005081 175.75201831 -104.96005081 175.75201831 -108 175 C-109.03013277 173.35178756 -110.03114628 171.68496298 -111 170 C-111.66 169.67 -112.32 169.34 -113 169 C-113 168.34 -113 167.68 -113 167 C-113.66 167 -114.32 167 -115 167 C-116.625 165.625 -116.625 165.625 -118 164 C-118 163.34 -118 162.68 -118 162 C-118.66 162 -119.32 162 -120 162 C-120 161.34 -120 160.68 -120 160 C-120.66 160 -121.32 160 -122 160 C-123.625 158.625 -123.625 158.625 -125 157 C-125 156.34 -125 155.68 -125 155 C-125.66 155 -126.32 155 -127 155 C-127 154.34 -127 153.68 -127 153 C-127.99 152.67 -128.98 152.34 -130 152 C-130 151.34 -130 150.68 -130 150 C-130.66 150 -131.32 150 -132 150 C-133.41693757 147.16612485 -133.1699013 144.71970627 -133.1875 141.5625 C-133.20167969 140.40878906 -133.21585938 139.25507813 -133.23046875 138.06640625 C-133 135 -133 135 -131 132 C-130.34 132 -129.68 132 -129 132 C-129 131.34 -129 130.68 -129 130 C-128.34 130 -127.68 130 -127 130 C-126.67 129.01 -126.34 128.02 -126 127 C-123.9375 125.8125 -123.9375 125.8125 -122 125 C-122 124.34 -122 123.68 -122 123 C-120.625 121.375 -120.625 121.375 -119 120 C-118.34 120 -117.68 120 -117 120 C-117 119.34 -117 118.68 -117 118 C-116.34 118 -115.68 118 -115 118 C-115 117.34 -115 116.68 -115 116 C-113.625 114.375 -113.625 114.375 -112 113 C-111.34 113 -110.68 113 -110 113 C-110 112.34 -110 111.68 -110 111 C-108 109 -108 109 -105 108 C-105 107.34 -105 106.68 -105 106 C-104.34 106 -103.68 106 -103 106 C-103 105.34 -103 104.68 -103 104 C-101.625 102.375 -101.625 102.375 -100 101 C-99.34 101 -98.68 101 -98 101 C-98 100.34 -98 99.68 -98 99 C-96.625 97.375 -96.625 97.375 -95 96 C-94.34 96 -93.68 96 -93 96 C-93 95.34 -93 94.68 -93 94 C-92.34 94 -91.68 94 -91 94 C-90.505 92.515 -90.505 92.515 -90 91 C-89.34 91 -88.68 91 -88 91 C-88 90.34 -88 89.68 -88 89 C-87.34 89 -86.68 89 -86 89 C-85.505 87.515 -85.505 87.515 -85 86 C-82.9375 84.8125 -82.9375 84.8125 -81 84 C-81 83.34 -81 82.68 -81 82 C-80.34 82 -79.68 82 -79 82 C-78.505 80.515 -78.505 80.515 -78 79 C-77.34 79 -76.68 79 -76 79 C-76 78.34 -76 77.68 -76 77 C-75.34 77 -74.68 77 -74 77 C-74 76.34 -74 75.68 -74 75 C-72.625 73.375 -72.625 73.375 -71 72 C-70.34 72 -69.68 72 -69 72 C-69 71.34 -69 70.68 -69 70 C-67.625 68.375 -67.625 68.375 -66 67 C-65.34 67 -64.68 67 -64 67 C-64 66.34 -64 65.68 -64 65 C-61.625 62.375 -61.625 62.375 -59 60 C-58.34 60 -57.68 60 -57 60 C-57 59.34 -57 58.68 -57 58 C-55.625 56.375 -55.625 56.375 -54 55 C-53.34 55 -52.68 55 -52 55 C-52 54.34 -52 53.68 -52 53 C-51.34 53 -50.68 53 -50 53 C-50 52.34 -50 51.68 -50 51 C-48.625 49.375 -48.625 49.375 -47 48 C-46.34 48 -45.68 48 -45 48 C-45 47.34 -45 46.68 -45 46 C-43.625 44.375 -43.625 44.375 -42 43 C-41.34 43 -40.68 43 -40 43 C-40 42.34 -40 41.68 -40 41 C-39.34 41 -38.68 41 -38 41 C-37.67 40.01 -37.34 39.02 -37 38 C-35.66666667 37.33333333 -34.33333333 36.66666667 -33 36 C-32.67 35.01 -32.34 34.02 -32 33 C-29.9375 31.8125 -29.9375 31.8125 -28 31 C-28 30.34 -28 29.68 -28 29 C-27.34 29 -26.68 29 -26 29 C-25.505 27.515 -25.505 27.515 -25 26 C-24.34 26 -23.68 26 -23 26 C-23 25.34 -23 24.68 -23 24 C-22.34 24 -21.68 24 -21 24 C-21 23.34 -21 22.68 -21 22 C-19.625 20.375 -19.625 20.375 -18 19 C-17.34 19 -16.68 19 -16 19 C-16 18.34 -16 17.68 -16 17 C-14.625 15.375 -14.625 15.375 -13 14 C-12.34 14 -11.68 14 -11 14 C-11 13.34 -11 12.68 -11 12 C-10.34 12 -9.68 12 -9 12 C-9 11.34 -9 10.68 -9 10 C-7.625 8.375 -7.625 8.375 -6 7 C-5.34 7 -4.68 7 -4 7 C-4 6.34 -4 5.68 -4 5 C-3.34 5 -2.68 5 -2 5 C-2 4.01 -2 3.02 -2 2 C-1.34 2 -0.68 2 0 2 C0 1.34 0 0.68 0 0 Z " fill="#53C3F4" transform="translate(154,43)"/>
<path d="M0 0 C11.14392023 -0.02315917 22.28783475 -0.04093337 33.43177414 -0.05181217 C38.60621744 -0.05703315 43.78064429 -0.06411662 48.95507812 -0.07543945 C53.94766654 -0.08629614 58.94023913 -0.09228276 63.93283844 -0.09487724 C65.8386383 -0.09672646 67.74443728 -0.10033746 69.65023041 -0.10573006 C72.31729513 -0.11297734 74.98429422 -0.11398937 77.65136719 -0.11352539 C78.4411496 -0.11712067 79.23093201 -0.12071594 80.04464722 -0.12442017 C83.53768172 -0.11783445 86.6396601 0.06283927 90 1 C90.375 3.75 90.375 3.75 90 7 C85.15789474 11 85.15789474 11 82 11 C81.5978125 11.9590625 81.5978125 11.9590625 81.1875 12.9375 C80 15 80 15 77 16 C77 16.66 77 17.32 77 18 C76.34 18 75.68 18 75 18 C75 18.66 75 19.32 75 20 C74.34 20 73.68 20 73 20 C72.67 20.99 72.34 21.98 72 23 C71.34 23 70.68 23 70 23 C69.731875 23.639375 69.46375 24.27875 69.1875 24.9375 C68 27 68 27 65 28 C65 28.66 65 29.32 65 30 C64.34 30 63.68 30 63 30 C62.67 30.99 62.34 31.98 62 33 C60.0625 35.1875 60.0625 35.1875 58 37 C57.34 37 56.68 37 56 37 C55.67 37.99 55.34 38.98 55 40 C54.34 40 53.68 40 53 40 C52.79246094 40.53496094 52.58492187 41.06992188 52.37109375 41.62109375 C50.45543548 44.94484271 47.79459658 47.41486776 45.0625 50.0625 C44.52431641 50.59166016 43.98613281 51.12082031 43.43164062 51.66601562 C41.95794792 53.1142685 40.47917546 54.55734739 39 56 C38.23127563 56.82842407 38.23127563 56.82842407 37.44702148 57.67358398 C36 59 36 59 34 59 C34 59.66 34 60.32 34 61 C32.625 62.625 32.625 62.625 31 64 C30.34 64 29.68 64 29 64 C29 64.66 29 65.32 29 66 C28.34 66 27.68 66 27 66 C26.505 67.485 26.505 67.485 26 69 C25.34 69 24.68 69 24 69 C24 69.66 24 70.32 24 71 C23.34 71 22.68 71 22 71 C21.731875 71.639375 21.46375 72.27875 21.1875 72.9375 C20 75 20 75 17 76 C17 76.66 17 77.32 17 78 C16.34 78 15.68 78 15 78 C15 78.66 15 79.32 15 80 C15.66 80 16.32 80 17 80 C17 80.66 17 81.32 17 82 C17.99 82 18.98 82 20 82 C20 82.99 20 83.98 20 85 C20.66 85 21.32 85 22 85 C22 85.66 22 86.32 22 87 C22.99 87 23.98 87 25 87 C25 87.99 25 88.98 25 90 C25.66 90 26.32 90 27 90 C27 90.66 27 91.32 27 92 C28.65 92.66 30.3 93.32 32 94 C32 94.99 32 95.98 32 97 C32.66 97 33.32 97 34 97 C34 97.66 34 98.32 34 99 C34.99 99 35.98 99 37 99 C37 99.99 37 100.98 37 102 C37.66 102 38.32 102 39 102 C39 102.66 39 103.32 39 104 C39.66 104 40.32 104 41 104 C42.625 105.375 42.625 105.375 44 107 C44 107.66 44 108.32 44 109 C44.99 109 45.98 109 47 109 C47 109.66 47 110.32 47 111 C47.66 111 48.32 111 49 111 C49 111.99 49 112.98 49 114 C49.66 114 50.32 114 51 114 C51 114.66 51 115.32 51 116 C51.99 116 52.98 116 54 116 C54 116.99 54 117.98 54 119 C54.66 119 55.32 119 56 119 C56 119.66 56 120.32 56 121 C56.66 121 57.32 121 58 121 C58 121.66 58 122.32 58 123 C58.99 123.33 59.98 123.66 61 124 C61 124.66 61 125.32 61 126 C61.66 126 62.32 126 63 126 C63 126.66 63 127.32 63 128 C63.99 128.33 64.98 128.66 66 129 C66 129.66 66 130.32 66 131 C66.66 131 67.32 131 68 131 C68 131.66 68 132.32 68 133 C68.99 133 69.98 133 71 133 C71 133.66 71 134.32 71 135 C71.66 135 72.32 135 73 135 C73 135.99 73 136.98 73 138 C73.66 138 74.32 138 75 138 C75 138.66 75 139.32 75 140 C75.99 140 76.98 140 78 140 C78 140.99 78 141.98 78 143 C78.66 143 79.32 143 80 143 C80 143.66 80 144.32 80 145 C80.66 145 81.32 145 82 145 C84 147 84 147 85 150 C86.65 150.33 88.3 150.66 90 151 C89.67 152.32 89.34 153.64 89 155 C58.97 155 28.94 155 -2 155 C-2 154.34 -2 153.68 -2 153 C-2.66 153 -3.32 153 -4 153 C-4 152.34 -4 151.68 -4 151 C-4.66 151 -5.32 151 -6 151 C-7.62109375 149.3203125 -7.62109375 149.3203125 -9.4375 147.125 C-11.58400884 144.53806278 -13.16776562 142.88815626 -16 141 C-16 140.34 -16 139.68 -16 139 C-16.66 139 -17.32 139 -18 139 C-19.4375 137.50390625 -19.4375 137.50390625 -21 135.5625 C-23.14525044 132.84811762 -23.14525044 132.84811762 -26 131 C-26 130.34 -26 129.68 -26 129 C-26.66 129 -27.32 129 -28 129 C-28 128.34 -28 127.68 -28 127 C-28.66 127 -29.32 127 -30 127 C-31.625 125.625 -31.625 125.625 -33 124 C-33 123.34 -33 122.68 -33 122 C-33.66 122 -34.32 122 -35 122 C-36.625 120.625 -36.625 120.625 -38 119 C-38 118.34 -38 117.68 -38 117 C-38.66 117 -39.32 117 -40 117 C-42.625 114.625 -42.625 114.625 -45 112 C-45 111.34 -45 110.68 -45 110 C-45.66 110 -46.32 110 -47 110 C-49.625 107.625 -49.625 107.625 -52 105 C-52 104.34 -52 103.68 -52 103 C-52.66 103 -53.32 103 -54 103 C-55.625 101.625 -55.625 101.625 -57 100 C-57 99.34 -57 98.68 -57 98 C-57.66 98 -58.32 98 -59 98 C-61.625 95.625 -61.625 95.625 -64 93 C-64 92.34 -64 91.68 -64 91 C-64.66 91 -65.32 91 -66 91 C-67.625 89.625 -67.625 89.625 -69 88 C-69 87.34 -69 86.68 -69 86 C-69.66 86 -70.32 86 -71 86 C-71.33 85.34 -71.66 84.68 -72 84 C-72.99 83.67 -73.98 83.34 -75 83 C-76.35439668 80.29120665 -76.06501451 77.99066732 -76 75 C-74.68 75 -73.36 75 -72 75 C-71.5978125 74.0409375 -71.5978125 74.0409375 -71.1875 73.0625 C-70 71 -70 71 -67 70 C-67 69.34 -67 68.68 -67 68 C-66.34 68 -65.68 68 -65 68 C-64.731875 67.360625 -64.46375 66.72125 -64.1875 66.0625 C-63 64 -63 64 -60 63 C-59.67 62.34 -59.34 61.68 -59 61 C-58 59 -58 59 -55 58 C-54.67 57.34 -54.34 56.68 -54 56 C-53 54 -53 54 -50 53 C-49.67 52.34 -49.34 51.68 -49 51 C-48 49 -48 49 -45 48 C-45 47.34 -45 46.68 -45 46 C-44.34 46 -43.68 46 -43 46 C-42.731875 45.360625 -42.46375 44.72125 -42.1875 44.0625 C-41 42 -41 42 -38 41 C-37.505 40.01 -37.505 40.01 -37 39 C-36 37 -36 37 -33 36 C-33 35.34 -33 34.68 -33 34 C-32.34 34 -31.68 34 -31 34 C-30.731875 33.401875 -30.46375 32.80375 -30.1875 32.1875 C-29.00082594 30.00152146 -27.90400887 28.58667406 -26 27 C-25.34 27 -24.68 27 -24 27 C-23.7525 26.4225 -23.505 25.845 -23.25 25.25 C-21.81700012 22.67060021 -20.21575324 20.93878408 -18 19 C-17.34 19 -16.68 19 -16 19 C-16 18.34 -16 17.68 -16 17 C-15.34 17 -14.68 17 -14 17 C-13.731875 16.360625 -13.46375 15.72125 -13.1875 15.0625 C-12 13 -12 13 -9 12 C-8.29848848 10.6846659 -7.63474075 9.34882408 -7 8 C-5.5 6.25 -5.5 6.25 -4 5 C-3.34 5 -2.68 5 -2 5 C-1.34 3.35 -0.68 1.7 0 0 Z " fill="#53C4F5" transform="translate(156,170)"/>
<path d="M0 0 C0 3 0 3 -1.875 5.1875 C-4 7 -4 7 -6 7 C-6.33 7.99 -6.66 8.98 -7 10 C-7.66 10 -8.32 10 -9 10 C-9.20753906 10.53496094 -9.41507812 11.06992188 -9.62890625 11.62109375 C-11.54456452 14.94484271 -14.20540342 17.41486776 -16.9375 20.0625 C-17.47568359 20.59166016 -18.01386719 21.12082031 -18.56835938 21.66601562 C-20.04205208 23.1142685 -21.52082454 24.55734739 -23 26 C-23.51248291 26.55228271 -24.02496582 27.10456543 -24.55297852 27.67358398 C-26 29 -26 29 -28 29 C-28 29.66 -28 30.32 -28 31 C-29.375 32.625 -29.375 32.625 -31 34 C-31.66 34 -32.32 34 -33 34 C-33 34.66 -33 35.32 -33 36 C-33.66 36 -34.32 36 -35 36 C-35.33 36.99 -35.66 37.98 -36 39 C-36.66 39 -37.32 39 -38 39 C-38 39.66 -38 40.32 -38 41 C-38.66 41 -39.32 41 -40 41 C-40.268125 41.639375 -40.53625 42.27875 -40.8125 42.9375 C-42 45 -42 45 -45 46 C-45 46.66 -45 47.32 -45 48 C-45.66 48 -46.32 48 -47 48 C-47 48.66 -47 49.32 -47 50 C-46.34 50 -45.68 50 -45 50 C-45 50.66 -45 51.32 -45 52 C-44.01 52 -43.02 52 -42 52 C-42 52.99 -42 53.98 -42 55 C-41.34 55 -40.68 55 -40 55 C-40 55.66 -40 56.32 -40 57 C-39.01 57 -38.02 57 -37 57 C-37 57.99 -37 58.98 -37 60 C-36.34 60 -35.68 60 -35 60 C-35 60.66 -35 61.32 -35 62 C-33.35 62.66 -31.7 63.32 -30 64 C-30 64.99 -30 65.98 -30 67 C-29.34 67 -28.68 67 -28 67 C-28 67.66 -28 68.32 -28 69 C-27.01 69 -26.02 69 -25 69 C-25 69.99 -25 70.98 -25 72 C-24.34 72 -23.68 72 -23 72 C-23 72.66 -23 73.32 -23 74 C-22.34 74 -21.68 74 -21 74 C-19.375 75.375 -19.375 75.375 -18 77 C-18 77.66 -18 78.32 -18 79 C-17.01 79 -16.02 79 -15 79 C-15 79.66 -15 80.32 -15 81 C-14.34 81 -13.68 81 -13 81 C-13 81.99 -13 82.98 -13 84 C-12.34 84 -11.68 84 -11 84 C-11 84.66 -11 85.32 -11 86 C-10.01 86 -9.02 86 -8 86 C-8 86.99 -8 87.98 -8 89 C-7.34 89 -6.68 89 -6 89 C-6 89.66 -6 90.32 -6 91 C-5.34 91 -4.68 91 -4 91 C-4 91.66 -4 92.32 -4 93 C-2.515 93.495 -2.515 93.495 -1 94 C-1 94.66 -1 95.32 -1 96 C-0.34 96 0.32 96 1 96 C1 96.66 1 97.32 1 98 C2.485 98.495 2.485 98.495 4 99 C4 99.66 4 100.32 4 101 C4.66 101 5.32 101 6 101 C6 101.66 6 102.32 6 103 C6.99 103 7.98 103 9 103 C9 103.66 9 104.32 9 105 C9.66 105 10.32 105 11 105 C11 105.99 11 106.98 11 108 C11.66 108 12.32 108 13 108 C13 108.66 13 109.32 13 110 C13.99 110 14.98 110 16 110 C16 110.99 16 111.98 16 113 C16.66 113 17.32 113 18 113 C18 113.66 18 114.32 18 115 C18.66 115 19.32 115 20 115 C22 117 22 117 23 120 C24.65 120.33 26.3 120.66 28 121 C27.67 122.32 27.34 123.64 27 125 C-3.03 125 -33.06 125 -64 125 C-64 124.34 -64 123.68 -64 123 C-64.66 123 -65.32 123 -66 123 C-66 122.34 -66 121.68 -66 121 C-66.66 121 -67.32 121 -68 121 C-69.62109375 119.3203125 -69.62109375 119.3203125 -71.4375 117.125 C-73.58400884 114.53806278 -75.16776562 112.88815626 -78 111 C-78 110.34 -78 109.68 -78 109 C-78.66 109 -79.32 109 -80 109 C-81.4375 107.50390625 -81.4375 107.50390625 -83 105.5625 C-85.14525044 102.84811762 -85.14525044 102.84811762 -88 101 C-88 100.34 -88 99.68 -88 99 C-88.66 99 -89.32 99 -90 99 C-90 98.34 -90 97.68 -90 97 C-90.66 97 -91.32 97 -92 97 C-93.625 95.625 -93.625 95.625 -95 94 C-95 93.34 -95 92.68 -95 92 C-95.66 92 -96.32 92 -97 92 C-98.625 90.625 -98.625 90.625 -100 89 C-100 88.34 -100 87.68 -100 87 C-100.66 87 -101.32 87 -102 87 C-104.625 84.625 -104.625 84.625 -107 82 C-107 81.34 -107 80.68 -107 80 C-107.66 80 -108.32 80 -109 80 C-111.625 77.625 -111.625 77.625 -114 75 C-114 74.34 -114 73.68 -114 73 C-114.66 73 -115.32 73 -116 73 C-116 72.34 -116 71.68 -116 71 C-113.3125 70.625 -113.3125 70.625 -110 71 C-107.83295905 72.81426684 -106.61874997 74.61948534 -105 77 C-105 77.66 -105 78.32 -105 79 C-103.68 79 -102.36 79 -101 79 C-99.47551369 81.9826906 -98.06059933 84.818202 -97 88 C-94.49552484 89.21869929 -94.49552484 89.21869929 -92 90 C-92 89.34 -92 88.68 -92 88 C-90.51490784 86.53738403 -90.51490784 86.53738403 -88.47094727 84.84423828 C-84.25009582 81.2530576 -80.34650945 77.44356828 -76.46484375 73.4921875 C-75.06458755 72.07929385 -73.6641928 70.6665375 -72.26367188 69.25390625 C-70.09397885 67.05938161 -67.92594408 64.86326653 -65.76049805 62.66455078 C-63.6455828 60.51928934 -61.52436967 58.38041233 -59.40234375 56.2421875 C-58.76360825 55.58999237 -58.12487274 54.93779724 -57.46678162 54.26583862 C-54.49575504 51.27847127 -51.56077551 48.58512662 -48.09985352 46.17236328 C-44.97694161 44.35039474 -44.97694161 44.35039474 -44 42 C-43.01 42 -42.02 42 -41 42 C-40.773125 41.44441406 -40.54625 40.88882813 -40.3125 40.31640625 C-38.62302816 37.33468957 -36.46497875 35.3129083 -34 32.9375 C-31.31789712 30.34506045 -29.07210825 28.10816238 -27 25 C-26.01 25 -25.02 25 -24 25 C-23.773125 24.46375 -23.54625 23.9275 -23.3125 23.375 C-20.74055212 18.72099907 -17.0161826 14.48069159 -13 11 C-12.01 11 -11.02 11 -10 11 C-9.5978125 10.0409375 -9.5978125 10.0409375 -9.1875 9.0625 C-8 7 -8 7 -5 6 C-4.3162955 4.67532254 -3.65035814 3.34136367 -3 2 C-2.01 1.34 -1.02 0.68 0 0 Z " fill="#025699" transform="translate(218,200)"/>
<path d="M0 0 C3.505771 1.50162033 5.78609447 3.52843111 8.4765625 6.2109375 C9.311875 7.04367188 10.1471875 7.87640625 11.0078125 8.734375 C11.87148437 9.60578125 12.73515625 10.4771875 13.625 11.375 C14.49640625 12.23867187 15.3678125 13.10234375 16.265625 13.9921875 C17.51472656 15.24515625 17.51472656 15.24515625 18.7890625 16.5234375 C19.54912598 17.28575684 20.30918945 18.04807617 21.09228516 18.83349609 C22.86490708 20.84658119 23.87271575 22.59534165 25 25 C26.8914839 26.70011823 26.8914839 26.70011823 29.125 28.25 C41.07374101 37.22122302 41.07374101 37.22122302 43 43 C42.51195892 43.41617081 42.02391785 43.83234161 41.52108765 44.26112366 C36.55957952 48.54013576 31.88006339 53.01212048 27.2890625 57.68359375 C25.86601296 59.11926706 24.44283223 60.55481034 23.01953125 61.99023438 C20.80556407 64.22918599 18.59324756 66.4697262 16.38330078 68.71264648 C14.23119197 70.89477043 12.07305801 73.07078648 9.9140625 75.24609375 C8.9172496 76.26309608 8.9172496 76.26309608 7.90029907 77.30064392 C7.2856076 77.91871414 6.67091614 78.53678436 6.03759766 79.17358398 C5.49769196 79.72094711 4.95778625 80.26831024 4.40151978 80.83226013 C3 82 3 82 1 82 C1 82.66 1 83.32 1 84 C-1.7058597 83.32353508 -3.51516936 82.64282657 -5.22265625 80.37890625 C-8 75.59072581 -8 75.59072581 -8 73 C-9.32 73 -10.64 73 -12 73 C-14.1875 70.0625 -14.1875 70.0625 -16 67 C-17.56586008 65.43413992 -19.4251488 65.38905307 -21.5625 64.9375 C-22.38878906 64.76089844 -23.21507813 64.58429688 -24.06640625 64.40234375 C-24.70449219 64.26957031 -25.34257813 64.13679688 -26 64 C-26 63.34 -26 62.68 -26 62 C-26.66 62 -27.32 62 -28 62 C-30.625 59.625 -30.625 59.625 -33 57 C-33 56.34 -33 55.68 -33 55 C-33.66 55 -34.32 55 -35 55 C-36.625 53.625 -36.625 53.625 -38 52 C-38 51.34 -38 50.68 -38 50 C-38.66 50 -39.32 50 -40 50 C-40.33 49.34 -40.66 48.68 -41 48 C-41.99 47.67 -42.98 47.34 -44 47 C-44.495 45.515 -44.495 45.515 -45 44 C-43.68 44.33 -42.36 44.66 -41 45 C-40.814375 43.88625 -40.814375 43.88625 -40.625 42.75 C-40.01985401 40.08735763 -39.50966213 38.2644932 -38 36 C-36.33333333 35 -34.66666667 34 -33 33 C-32.690625 32.37480469 -32.38125 31.74960938 -32.0625 31.10546875 C-30.84717397 28.69715724 -29.56849436 27.52918077 -27.5 25.8125 C-20.77782545 20.11885489 -14.14426064 14.31981094 -8 8 C-5.33333333 5.33333333 -2.66666667 2.66666667 0 0 Z " fill="#2AB6F6" transform="translate(125,206)"/>
<path d="M0 0 C2.6875 -0.375 2.6875 -0.375 6 0 C8.16704095 1.81426684 9.38125003 3.61948534 11 6 C11 6.66 11 7.32 11 8 C12.32 8 13.64 8 15 8 C16.52448631 10.9826906 17.93940067 13.818202 19 17 C19.763125 17.28875 20.52625 17.5775 21.3125 17.875 C24 19 24 19 25.9375 21.5 C28.44549077 24.53998881 30.31541365 24.79686976 34 26 C36.875 28.5 36.875 28.5 39 31 C39 31.66 39 32.32 39 33 C39.598125 33.28875 40.19625 33.5775 40.8125 33.875 C43 35 43 35 46 37 C46 38.32 46 39.64 46 41 C47.32 41.33 48.64 41.66 50 42 C49.34 42 48.68 42 48 42 C50.43851266 46.48769115 50.43851266 46.48769115 54 50 C56.60612891 50.28561941 58.97141307 50.38949651 61.57666016 50.35644531 C62.34602402 50.35848969 63.11538788 50.36053406 63.9080658 50.36264038 C66.45197282 50.36564948 68.99523249 50.34717048 71.5390625 50.328125 C73.30357706 50.32506799 75.06809403 50.32319143 76.83261108 50.32244873 C80.52977741 50.31784515 84.22672598 50.30341514 87.92382812 50.28125 C92.67336448 50.25292619 97.42272952 50.2420345 102.1723423 50.2375679 C105.81476571 50.23342062 109.45715416 50.22360963 113.09955978 50.21169281 C114.85153293 50.20597886 116.60350947 50.2012239 118.35548782 50.19742584 C120.79776231 50.19058572 123.23989829 50.17696528 125.68212891 50.16113281 C126.41252884 50.16001495 127.14292877 50.15889709 127.89546204 50.15774536 C131.23243895 50.41922862 131.23243895 50.41922862 134 49 C133.34 48.67 132.68 48.34 132 48 C132 46.68 132 45.36 132 44 C130.42667972 42.19888419 130.42667972 42.19888419 128.3125 40.625 C124.71388543 37.65278725 121.78754726 34.74576663 119 31 C119 30.34 119 29.68 119 29 C118.401875 28.731875 117.80375 28.46375 117.1875 28.1875 C115.00152146 27.00082594 113.58667406 25.90400887 112 24 C112 23.34 112 22.68 112 22 C113.485 22.495 113.485 22.495 115 23 C115 23.66 115 24.32 115 25 C115.66 25 116.32 25 117 25 C117 25.66 117 26.32 117 27 C118.485 27.495 118.485 27.495 120 28 C120 28.66 120 29.32 120 30 C120.66 30 121.32 30 122 30 C122 30.66 122 31.32 122 32 C122.99 32 123.98 32 125 32 C125 32.66 125 33.32 125 34 C125.66 34 126.32 34 127 34 C127 34.99 127 35.98 127 37 C127.66 37 128.32 37 129 37 C129 37.66 129 38.32 129 39 C129.99 39 130.98 39 132 39 C132 39.99 132 40.98 132 42 C132.66 42 133.32 42 134 42 C134 42.66 134 43.32 134 44 C134.66 44 135.32 44 136 44 C138 46 138 46 139 49 C140.65 49.33 142.3 49.66 144 50 C143.67 51.32 143.34 52.64 143 54 C112.97 54 82.94 54 52 54 C52 53.34 52 52.68 52 52 C51.34 52 50.68 52 50 52 C50 51.34 50 50.68 50 50 C49.34 50 48.68 50 48 50 C46.37890625 48.3203125 46.37890625 48.3203125 44.5625 46.125 C42.41599116 43.53806278 40.83223438 41.88815626 38 40 C38 39.34 38 38.68 38 38 C37.34 38 36.68 38 36 38 C34.5625 36.50390625 34.5625 36.50390625 33 34.5625 C30.85474956 31.84811762 30.85474956 31.84811762 28 30 C28 29.34 28 28.68 28 28 C27.34 28 26.68 28 26 28 C26 27.34 26 26.68 26 26 C25.34 26 24.68 26 24 26 C22.375 24.625 22.375 24.625 21 23 C21 22.34 21 21.68 21 21 C20.34 21 19.68 21 19 21 C17.375 19.625 17.375 19.625 16 18 C16 17.34 16 16.68 16 16 C15.34 16 14.68 16 14 16 C11.375 13.625 11.375 13.625 9 11 C9 10.34 9 9.68 9 9 C8.34 9 7.68 9 7 9 C4.375 6.625 4.375 6.625 2 4 C2 3.34 2 2.68 2 2 C1.34 2 0.68 2 0 2 C0 1.34 0 0.68 0 0 Z " fill="#052F52" transform="translate(102,271)"/>
<path d="M0 0 C11.14392023 -0.02315917 22.28783475 -0.04093337 33.43177414 -0.05181217 C38.60621744 -0.05703315 43.78064429 -0.06411662 48.95507812 -0.07543945 C53.94766654 -0.08629614 58.94023913 -0.09228276 63.93283844 -0.09487724 C65.8386383 -0.09672646 67.74443728 -0.10033746 69.65023041 -0.10573006 C72.31729513 -0.11297734 74.98429422 -0.11398937 77.65136719 -0.11352539 C78.4411496 -0.11712067 79.23093201 -0.12071594 80.04464722 -0.12442017 C83.53768172 -0.11783445 86.6396601 0.06283927 90 1 C90 1.66 90 2.32 90 3 C61.29 2.67 32.58 2.34 3 2 C2.67 2.99 2.34 3.98 2 5 C1.0925 5.53625 0.185 6.0725 -0.75 6.625 C-4.52738605 8.940465 -6.0102077 12.18078969 -7.921875 16.07421875 C-9 18 -9 18 -11 19 C-11.28875 19.61875 -11.5775 20.2375 -11.875 20.875 C-13.21085048 23.39827313 -14.596054 24.49753375 -17 26 C-17.66 26 -18.32 26 -19 26 C-19 25.34 -19 24.68 -19 24 C-19.66 24 -20.32 24 -21 24 C-21.103125 24.598125 -21.20625 25.19625 -21.3125 25.8125 C-22.10494321 28.33391022 -23.11943508 29.19465768 -25 31 C-25.433125 31.99 -25.433125 31.99 -25.875 33 C-27.7238328 36.28681386 -30.81154242 37.49066104 -34.1875 38.9375 C-36.51408768 40.30136174 -36.88792408 41.56733393 -38 44 C-41.34330772 48.75778406 -45.60119404 52.26470108 -50 56 C-50.99193359 56.88171875 -50.99193359 56.88171875 -52.00390625 57.78125 C-52.62136719 58.3278125 -53.23882812 58.874375 -53.875 59.4375 C-54.42929688 59.93121094 -54.98359375 60.42492187 -55.5546875 60.93359375 C-57 62 -57 62 -59 62 C-59.33 62.99 -59.66 63.98 -60 65 C-60.66 65 -61.32 65 -62 65 C-62.103125 65.598125 -62.20625 66.19625 -62.3125 66.8125 C-63.10503854 69.33421352 -63.91591409 70.39685699 -66 72 C-66.99 72 -67.98 72 -69 72 C-69.12375 72.556875 -69.2475 73.11375 -69.375 73.6875 C-70.05976855 76.22114364 -70.99133763 78.57921032 -72 81 C-73.32 80.67 -74.64 80.34 -76 80 C-76 78.35 -76 76.7 -76 75 C-74.68 75 -73.36 75 -72 75 C-71.5978125 74.0409375 -71.5978125 74.0409375 -71.1875 73.0625 C-70 71 -70 71 -67 70 C-67 69.34 -67 68.68 -67 68 C-66.34 68 -65.68 68 -65 68 C-64.731875 67.360625 -64.46375 66.72125 -64.1875 66.0625 C-63 64 -63 64 -60 63 C-59.67 62.34 -59.34 61.68 -59 61 C-58 59 -58 59 -55 58 C-54.67 57.34 -54.34 56.68 -54 56 C-53 54 -53 54 -50 53 C-49.67 52.34 -49.34 51.68 -49 51 C-48 49 -48 49 -45 48 C-45 47.34 -45 46.68 -45 46 C-44.34 46 -43.68 46 -43 46 C-42.731875 45.360625 -42.46375 44.72125 -42.1875 44.0625 C-41 42 -41 42 -38 41 C-37.505 40.01 -37.505 40.01 -37 39 C-36 37 -36 37 -33 36 C-33 35.34 -33 34.68 -33 34 C-32.34 34 -31.68 34 -31 34 C-30.731875 33.401875 -30.46375 32.80375 -30.1875 32.1875 C-29.00082594 30.00152146 -27.90400887 28.58667406 -26 27 C-25.34 27 -24.68 27 -24 27 C-23.7525 26.4225 -23.505 25.845 -23.25 25.25 C-21.81700012 22.67060021 -20.21575324 20.93878408 -18 19 C-17.34 19 -16.68 19 -16 19 C-16 18.34 -16 17.68 -16 17 C-15.34 17 -14.68 17 -14 17 C-13.731875 16.360625 -13.46375 15.72125 -13.1875 15.0625 C-12 13 -12 13 -9 12 C-8.29848848 10.6846659 -7.63474075 9.34882408 -7 8 C-5.5 6.25 -5.5 6.25 -4 5 C-3.34 5 -2.68 5 -2 5 C-1.34 3.35 -0.68 1.7 0 0 Z " fill="#78CDF3" transform="translate(156,170)"/>
<path d="M0 0 C2.6875 -0.375 2.6875 -0.375 6 0 C8.16704095 1.81426684 9.38125003 3.61948534 11 6 C11 6.66 11 7.32 11 8 C12.32 8 13.64 8 15 8 C16.52448631 10.9826906 17.93940067 13.818202 19 17 C19.763125 17.28875 20.52625 17.5775 21.3125 17.875 C24 19 24 19 25.9375 21.5 C28.44549077 24.53998881 30.31541365 24.79686976 34 26 C36.875 28.5 36.875 28.5 39 31 C39 31.66 39 32.32 39 33 C39.598125 33.28875 40.19625 33.5775 40.8125 33.875 C43 35 43 35 46 37 C46 38.32 46 39.64 46 41 C47.32 41.33 48.64 41.66 50 42 C49.34 42 48.68 42 48 42 C49.32 45.3 50.64 48.6 52 52 C51.34 52 50.68 52 50 52 C50 51.34 50 50.68 50 50 C49.34 50 48.68 50 48 50 C46.37890625 48.3203125 46.37890625 48.3203125 44.5625 46.125 C42.41599116 43.53806278 40.83223438 41.88815626 38 40 C38 39.34 38 38.68 38 38 C37.34 38 36.68 38 36 38 C34.5625 36.50390625 34.5625 36.50390625 33 34.5625 C30.85474956 31.84811762 30.85474956 31.84811762 28 30 C28 29.34 28 28.68 28 28 C27.34 28 26.68 28 26 28 C26 27.34 26 26.68 26 26 C25.34 26 24.68 26 24 26 C22.375 24.625 22.375 24.625 21 23 C21 22.34 21 21.68 21 21 C20.34 21 19.68 21 19 21 C17.375 19.625 17.375 19.625 16 18 C16 17.34 16 16.68 16 16 C15.34 16 14.68 16 14 16 C11.375 13.625 11.375 13.625 9 11 C9 10.34 9 9.68 9 9 C8.34 9 7.68 9 7 9 C4.375 6.625 4.375 6.625 2 4 C2 3.34 2 2.68 2 2 C1.34 2 0.68 2 0 2 C0 1.34 0 0.68 0 0 Z " fill="#405E6E" transform="translate(102,271)"/>
<path d="M0 0 C0 3 0 3 -1.875 5.1875 C-4 7 -4 7 -6 7 C-6.33 7.99 -6.66 8.98 -7 10 C-7.66 10 -8.32 10 -9 10 C-9.20753906 10.53496094 -9.41507813 11.06992188 -9.62890625 11.62109375 C-11.54456452 14.94484271 -14.20540342 17.41486776 -16.9375 20.0625 C-17.47568359 20.59166016 -18.01386719 21.12082031 -18.56835938 21.66601562 C-20.04205208 23.1142685 -21.52082454 24.55734739 -23 26 C-23.51248291 26.55228271 -24.02496582 27.10456543 -24.55297852 27.67358398 C-26 29 -26 29 -28 29 C-28 29.66 -28 30.32 -28 31 C-29.375 32.625 -29.375 32.625 -31 34 C-31.66 34 -32.32 34 -33 34 C-33 34.66 -33 35.32 -33 36 C-33.66 36 -34.32 36 -35 36 C-35.33 36.99 -35.66 37.98 -36 39 C-36.66 39 -37.32 39 -38 39 C-38 39.66 -38 40.32 -38 41 C-38.66 41 -39.32 41 -40 41 C-40.268125 41.639375 -40.53625 42.27875 -40.8125 42.9375 C-42 45 -42 45 -45 46 C-45 46.66 -45 47.32 -45 48 C-45.66 48 -46.32 48 -47 48 C-47 48.66 -47 49.32 -47 50 C-46.34 50 -45.68 50 -45 50 C-45 50.66 -45 51.32 -45 52 C-44.01 52 -43.02 52 -42 52 C-42 52.99 -42 53.98 -42 55 C-41.34 55 -40.68 55 -40 55 C-40 55.66 -40 56.32 -40 57 C-39.01 57 -38.02 57 -37 57 C-37 57.99 -37 58.98 -37 60 C-36.34 60 -35.68 60 -35 60 C-35 60.66 -35 61.32 -35 62 C-33.35 62.66 -31.7 63.32 -30 64 C-30 64.99 -30 65.98 -30 67 C-29.34 67 -28.68 67 -28 67 C-28 67.66 -28 68.32 -28 69 C-27.01 69 -26.02 69 -25 69 C-25 69.99 -25 70.98 -25 72 C-24.34 72 -23.68 72 -23 72 C-23 72.66 -23 73.32 -23 74 C-22.34 74 -21.68 74 -21 74 C-19.375 75.375 -19.375 75.375 -18 77 C-18 77.66 -18 78.32 -18 79 C-17.01 79 -16.02 79 -15 79 C-15 79.66 -15 80.32 -15 81 C-14.34 81 -13.68 81 -13 81 C-13 81.99 -13 82.98 -13 84 C-12.34 84 -11.68 84 -11 84 C-11 84.66 -11 85.32 -11 86 C-10.01 86 -9.02 86 -8 86 C-8 86.99 -8 87.98 -8 89 C-7.34 89 -6.68 89 -6 89 C-6 89.66 -6 90.32 -6 91 C-5.34 91 -4.68 91 -4 91 C-4 91.66 -4 92.32 -4 93 C-7 91.5 -7 91.5 -10 90 C-10 89.34 -10 88.68 -10 88 C-10.60070312 87.90203125 -11.20140625 87.8040625 -11.8203125 87.703125 C-14.44437764 86.85665237 -15.21050787 85.91289937 -16.875 83.75 C-19.64894874 80.32459361 -22.56894289 77.75976333 -26 75 C-29.31184665 72.13570019 -30.51257951 70.38678443 -31 66 C-31.66 66 -32.32 66 -33 66 C-33 65.34 -33 64.68 -33 64 C-33.804375 63.731875 -34.60875 63.46375 -35.4375 63.1875 C-36.283125 62.795625 -37.12875 62.40375 -38 62 C-38.495 60.515 -38.495 60.515 -39 59 C-42.73092904 55.08601135 -46.70684048 51.48870112 -52 50 C-50.33333333 48.33333333 -48.66666667 46.66666667 -47 45 C-46.46375 44.401875 -45.9275 43.80375 -45.375 43.1875 C-44 42 -44 42 -41 42 C-40.6596875 41.16662109 -40.6596875 41.16662109 -40.3125 40.31640625 C-38.62302816 37.33468957 -36.46497875 35.3129083 -34 32.9375 C-31.31789712 30.34506045 -29.07210825 28.10816238 -27 25 C-26.01 25 -25.02 25 -24 25 C-23.6596875 24.195625 -23.6596875 24.195625 -23.3125 23.375 C-20.74055212 18.72099907 -17.0161826 14.48069159 -13 11 C-12.01 11 -11.02 11 -10 11 C-9.731875 10.360625 -9.46375 9.72125 -9.1875 9.0625 C-8 7 -8 7 -5 6 C-4.3162955 4.67532254 -3.65035814 3.34136367 -3 2 C-2.01 1.34 -1.02 0.68 0 0 Z " fill="#2E6DA9" transform="translate(218,200)"/>
<path d="M0 0 C10.47473017 -0.02317523 20.94945423 -0.04094155 31.42420483 -0.05181217 C36.28810215 -0.05702964 41.15198192 -0.06410672 46.01586914 -0.07543945 C50.71020492 -0.08630863 55.40452383 -0.0922854 60.09887123 -0.09487724 C61.88941018 -0.09672421 63.67994821 -0.10033086 65.47047997 -0.10573006 C67.9792823 -0.11299393 70.488015 -0.11398868 72.99682617 -0.11352539 C73.73625961 -0.11712067 74.47569305 -0.12071594 75.23753357 -0.12442017 C78.95251263 -0.11700195 82.38789284 0.10969947 86 1 C85.8125 3.3125 85.8125 3.3125 85 6 C80.96551724 9 80.96551724 9 78 9 C77.5978125 9.9590625 77.5978125 9.9590625 77.1875 10.9375 C76 13 76 13 73 14 C73 14.66 73 15.32 73 16 C72.34 16 71.68 16 71 16 C71 16.66 71 17.32 71 18 C70.34 18 69.68 18 69 18 C68.505 19.485 68.505 19.485 68 21 C67.34 21 66.68 21 66 21 C65.731875 21.639375 65.46375 22.27875 65.1875 22.9375 C64 25 64 25 61 26 C61 26.66 61 27.32 61 28 C60.34 27.67 59.68 27.34 59 27 C59.86625 26.01 59.86625 26.01 60.75 25 C63.01106057 21.98525257 64.42221431 19.12224102 65.875 15.671875 C67.34712054 13.48414031 68.49801051 13.54543371 71 13 C72.29660434 10.50965614 72.29660434 10.50965614 73 8 C73.99 8 74.98 8 76 8 C76.33 6.02 76.66 4.04 77 2 C51.59 1.67 26.18 1.34 0 1 C0 0.67 0 0.34 0 0 Z " fill="#67C1EA" transform="translate(160,172)"/>
<path d="M0 0 C-1.36174914 5.60769986 -4.00113745 8.58869286 -7.9375 12.5625 C-11.47103547 16.18067105 -14.59160234 19.49369496 -17 24 C-15.35 23.34 -13.7 22.68 -12 22 C-12.33 22.99 -12.66 23.98 -13 25 C-15.109375 25.94921875 -15.109375 25.94921875 -17.75 26.6875 C-18.61109375 26.93886719 -19.4721875 27.19023437 -20.359375 27.44921875 C-22.98817853 27.99753428 -25.32352338 28.10108994 -28 28 C-24.21666718 18.71363762 -17.55468291 12.09405066 -9 7 C-7.73081178 5.81220261 -6.4982918 4.58356223 -5.3125 3.3125 C-2.2194617 0 -2.2194617 0 0 0 Z " fill="#044779" transform="translate(160,259)"/>
<path d="M0 0 C0 3 0 3 -1.34765625 4.41015625 C-2.16556641 5.19712891 -2.16556641 5.19712891 -3 6 C-3.85484176 7.45510682 -4.66560923 8.93674188 -5.4375 10.4375 C-7.26312 13.81379722 -8.945905 16.57778672 -12 19 C-12.66 19 -13.32 19 -14 19 C-13.88629493 23.74460242 -13.78515416 27.0185573 -10.75 30.8125 C-8.93371046 32.25727577 -7.07887853 33.65501971 -5.1875 35 C-3 37 -3 37 -2.6875 39.75 C-2.790625 40.4925 -2.89375 41.235 -3 42 C-2.34 42 -1.68 42 -1 42 C-1.33 42.66 -1.66 43.32 -2 44 C-2.66 43.67 -3.32 43.34 -4 43 C-4 42.34 -4 41.68 -4 41 C-4.66 41 -5.32 41 -6 41 C-8.625 38.625 -8.625 38.625 -11 36 C-11 35.34 -11 34.68 -11 34 C-11.66 34 -12.32 34 -13 34 C-14.625 32.625 -14.625 32.625 -16 31 C-16 30.34 -16 29.68 -16 29 C-16.66 29 -17.32 29 -18 29 C-18.33 28.34 -18.66 27.68 -19 27 C-19.99 26.67 -20.98 26.34 -22 26 C-22.33 25.01 -22.66 24.02 -23 23 C-21.68 23.33 -20.36 23.66 -19 24 C-18.814375 22.88625 -18.814375 22.88625 -18.625 21.75 C-18.01985401 19.08735763 -17.50966213 17.2644932 -16 15 C-14.33333333 14 -12.66666667 13 -11 12 C-10.70222656 11.38511719 -10.40445313 10.77023438 -10.09765625 10.13671875 C-8.76555368 7.54362229 -7.16578493 6.17681825 -4.9375 4.3125 C-4.22464844 3.71050781 -3.51179688 3.10851562 -2.77734375 2.48828125 C-2.19082031 1.99714844 -1.60429688 1.50601563 -1 1 C-0.67 0.67 -0.34 0.34 0 0 Z " fill="#2FB3ED" transform="translate(103,227)"/>
<path d="M0 0 C0.495 0.99 0.495 0.99 1 2 C-2.38345865 7.63909774 -2.38345865 7.63909774 -5.5625 9.5 C-8.75304395 11.46341166 -9.46178459 13.64389365 -11 17 C-12 18 -13 19 -14 20 C-14 20.99 -14 21.98 -14 23 C-16.90600261 24.25664978 -18.79604584 25 -22 25 C-22.103125 25.639375 -22.20625 26.27875 -22.3125 26.9375 C-22.539375 27.618125 -22.76625 28.29875 -23 29 C-23.99 29.33 -24.98 29.66 -26 30 C-26.33 30.66 -26.66 31.32 -27 32 C-27.33 32.66 -27.66 33.32 -28 34 C-29.485 34.495 -29.485 34.495 -31 35 C-31.433125 35.639375 -31.86625 36.27875 -32.3125 36.9375 C-34.53095674 39.64894713 -36.67469194 40.11325118 -40 41 C-40 40.34 -40 39.68 -40 39 C-39.34 39 -38.68 39 -38 39 C-38 38.34 -38 37.68 -38 37 C-36.625 35.375 -36.625 35.375 -35 34 C-34.34 34 -33.68 34 -33 34 C-33 33.34 -33 32.68 -33 32 C-32.34 32 -31.68 32 -31 32 C-30.67 31.01 -30.34 30.02 -30 29 C-28.66666667 28.33333333 -27.33333333 27.66666667 -26 27 C-25.67 26.01 -25.34 25.02 -25 24 C-22.9375 22.8125 -22.9375 22.8125 -21 22 C-21 21.34 -21 20.68 -21 20 C-20.34 20 -19.68 20 -19 20 C-18.67 19.01 -18.34 18.02 -18 17 C-17.34 17 -16.68 17 -16 17 C-16 16.34 -16 15.68 -16 15 C-15.34 15 -14.68 15 -14 15 C-14 14.34 -14 13.68 -14 13 C-12.625 11.375 -12.625 11.375 -11 10 C-10.34 10 -9.68 10 -9 10 C-9 9.34 -9 8.68 -9 8 C-7.625 6.375 -7.625 6.375 -6 5 C-5.34 5 -4.68 5 -4 5 C-4 4.34 -4 3.68 -4 3 C-3.34 3 -2.68 3 -2 3 C-2 2.34 -2 1.68 -2 1 C-1.34 0.67 -0.68 0.34 0 0 Z " fill="#66C4F1" transform="translate(147,52)"/>
<path d="M0 0 C0.66 0 1.32 0 2 0 C2 0.66 2 1.32 2 2 C1.34 2 0.68 2 0 2 C-0.33 2.99 -0.66 3.98 -1 5 C-3.0625 6.1875 -3.0625 6.1875 -5 7 C-5 7.66 -5 8.32 -5 9 C-5.66 9 -6.32 9 -7 9 C-7 9.66 -7 10.32 -7 11 C-8.375 12.625 -8.375 12.625 -10 14 C-10.66 14 -11.32 14 -12 14 C-12 14.66 -12 15.32 -12 16 C-12.66 16 -13.32 16 -14 16 C-14.495 17.485 -14.495 17.485 -15 19 C-15.66 19 -16.32 19 -17 19 C-17 19.66 -17 20.32 -17 21 C-17.66 21 -18.32 21 -19 21 C-19 21.66 -19 22.32 -19 23 C-20.375 24.625 -20.375 24.625 -22 26 C-22.66 26 -23.32 26 -24 26 C-24 26.66 -24 27.32 -24 28 C-24.66 28 -25.32 28 -26 28 C-26.33 28.99 -26.66 29.98 -27 31 C-27.66 31 -28.32 31 -29 31 C-29 31.66 -29 32.32 -29 33 C-29.66 33 -30.32 33 -31 33 C-31 33.66 -31 34.32 -31 35 C-32.375 36.625 -32.375 36.625 -34 38 C-34.66 38 -35.32 38 -36 38 C-36 38.66 -36 39.32 -36 40 C-37.375 41.625 -37.375 41.625 -39 43 C-39.66 43 -40.32 43 -41 43 C-41.33 43.99 -41.66 44.98 -42 46 C-44.0625 47.1875 -44.0625 47.1875 -46 48 C-46 48.66 -46 49.32 -46 50 C-47.485 50.495 -47.485 50.495 -49 51 C-48.51058824 45.49411765 -48.51058824 45.49411765 -46.0625 43.125 C-44 42 -44 42 -42 42 C-41.67 41.01 -41.34 40.02 -41 39 C-39.35178756 37.96986723 -37.68496298 36.96885372 -36 36 C-35.67 35.34 -35.34 34.68 -35 34 C-34.01 34 -33.02 34 -32 34 C-31.731875 33.360625 -31.46375 32.72125 -31.1875 32.0625 C-30 30 -30 30 -27 29 C-27 28.34 -27 27.68 -27 27 C-26.34 27 -25.68 27 -25 27 C-24.731875 26.360625 -24.46375 25.72125 -24.1875 25.0625 C-23 23 -23 23 -20 22 C-18.78130071 19.49552484 -18.78130071 19.49552484 -18 17 C-17.01 17 -16.02 17 -15 17 C-15 15.35 -15 13.7 -15 12 C-14.01 11.67 -13.02 11.34 -12 11 C-12 10.34 -12 9.68 -12 9 C-11.01 9 -10.02 9 -9 9 C-9 8.34 -9 7.68 -9 7 C-8.01 7 -7.02 7 -6 7 C-6 6.34 -6 5.68 -6 5 C-5.01 5 -4.02 5 -3 5 C-2.690625 4.360625 -2.38125 3.72125 -2.0625 3.0625 C-1 1 -1 1 0 0 Z " fill="#18303E" transform="translate(169,119)"/>
<path d="M0 0 C0 3 0 3 -1.875 5.1875 C-4 7 -4 7 -6 7 C-6.33 7.99 -6.66 8.98 -7 10 C-7.66 10 -8.32 10 -9 10 C-9.20753906 10.53496094 -9.41507813 11.06992188 -9.62890625 11.62109375 C-11.54456452 14.94484271 -14.20540342 17.41486776 -16.9375 20.0625 C-17.47568359 20.59166016 -18.01386719 21.12082031 -18.56835938 21.66601562 C-20.04205208 23.1142685 -21.52082454 24.55734739 -23 26 C-23.51248291 26.55228271 -24.02496582 27.10456543 -24.55297852 27.67358398 C-26 29 -26 29 -28 29 C-28 29.66 -28 30.32 -28 31 C-29.375 32.625 -29.375 32.625 -31 34 C-31.66 34 -32.32 34 -33 34 C-33 34.66 -33 35.32 -33 36 C-33.66 36 -34.32 36 -35 36 C-35.33 36.99 -35.66 37.98 -36 39 C-36.66 39 -37.32 39 -38 39 C-38 39.66 -38 40.32 -38 41 C-38.66 41 -39.32 41 -40 41 C-40.4021875 41.9590625 -40.4021875 41.9590625 -40.8125 42.9375 C-42 45 -42 45 -45 46 C-45 46.66 -45 47.32 -45 48 C-46.485 48.495 -46.485 48.495 -48 49 C-47.44225728 45.76509224 -46.62788492 44.02144994 -44 42 C-43.01 42 -42.02 42 -41 42 C-40.6596875 41.16662109 -40.6596875 41.16662109 -40.3125 40.31640625 C-38.62302816 37.33468957 -36.46497875 35.3129083 -34 32.9375 C-31.31789712 30.34506045 -29.07210825 28.10816238 -27 25 C-26.01 25 -25.02 25 -24 25 C-23.6596875 24.195625 -23.6596875 24.195625 -23.3125 23.375 C-20.74055212 18.72099907 -17.0161826 14.48069159 -13 11 C-12.01 11 -11.02 11 -10 11 C-9.731875 10.360625 -9.46375 9.72125 -9.1875 9.0625 C-8 7 -8 7 -5 6 C-4.3162955 4.67532254 -3.65035814 3.34136367 -3 2 C-2.01 1.34 -1.02 0.68 0 0 Z " fill="#1F4052" transform="translate(218,200)"/>
<path d="M0 0 C4.82034262 0.41317222 6.90992611 2.38019915 10 6 C10 6.66 10 7.32 10 8 C10.8971875 8.433125 10.8971875 8.433125 11.8125 8.875 C14 10 14 10 17 12 C17 13.32 17 14.64 17 16 C18.32 16.33 19.64 16.66 21 17 C20.34 17 19.68 17 19 17 C20.32 20.3 21.64 23.6 23 27 C22.34 27 21.68 27 21 27 C21 26.34 21 25.68 21 25 C20.34 25 19.68 25 19 25 C17.37890625 23.3203125 17.37890625 23.3203125 15.5625 21.125 C13.41599116 18.53806278 11.83223438 16.88815626 9 15 C8.690625 13.906875 8.38125 12.81375 8.0625 11.6875 C6.60503897 6.62925291 3.75266401 3.56503081 0 0 Z " fill="#0F518E" transform="translate(131,296)"/>
<path d="M0 0 C0.66 0 1.32 0 2 0 C2 0.66 2 1.32 2 2 C1.34 2 0.68 2 0 2 C0 2.66 0 3.32 0 4 C-0.66 4 -1.32 4 -2 4 C-2 4.66 -2 5.32 -2 6 C-3.375 7.625 -3.375 7.625 -5 9 C-5.66 9 -6.32 9 -7 9 C-7 9.66 -7 10.32 -7 11 C-7.66 11 -8.32 11 -9 11 C-9 11.99 -9 12.98 -9 14 C-9.99 14 -10.98 14 -12 14 C-12 14.66 -12 15.32 -12 16 C-12.66 16 -13.32 16 -14 16 C-14.33 16.99 -14.66 17.98 -15 19 C-15.66 19 -16.32 19 -17 19 C-17 19.66 -17 20.32 -17 21 C-17.66 21 -18.32 21 -19 21 C-19 21.66 -19 22.32 -19 23 C-20.375 24.625 -20.375 24.625 -22 26 C-22.66 26 -23.32 26 -24 26 C-24 26.66 -24 27.32 -24 28 C-24.66 28 -25.32 28 -26 28 C-26.33 28.99 -26.66 29.98 -27 31 C-27.66 31 -28.32 31 -29 31 C-29 31.66 -29 32.32 -29 33 C-29.66 33 -30.32 33 -31 33 C-31 33.66 -31 34.32 -31 35 C-32.485 35.495 -32.485 35.495 -34 36 C-32.71480435 33.13302508 -31.42870746 31.02392288 -29 29 C-28.34 29 -27.68 29 -27 29 C-27 28.34 -27 27.68 -27 27 C-26.34 27 -25.68 27 -25 27 C-24.773125 25.9275 -24.54625 24.855 -24.3125 23.75 C-22.85894155 19.59697585 -21.70588473 18.25968581 -18 16 C-17.01 16 -16.02 16 -15 16 C-15 15.34 -15 14.68 -15 14 C-14.02149805 12.97895449 -13.02019573 11.9793879 -12 11 C-11.67 10.34 -11.34 9.68 -11 9 C-10.34 9 -9.68 9 -9 9 C-9 8.34 -9 7.68 -9 7 C-8.34 7 -7.68 7 -7 7 C-7 6.01 -7 5.02 -7 4 C-6.030625 3.525625 -5.06125 3.05125 -4.0625 2.5625 C-1.19522563 1.29806053 -1.19522563 1.29806053 0 0 Z " fill="#2A4E60" transform="translate(111,177)"/>
<path d="M0 0 C1.17219543 0.78345715 2.33763668 1.57702836 3.5 2.375 C4.47453125 3.03628906 4.47453125 3.03628906 5.46875 3.7109375 C5.9740625 4.13632813 6.479375 4.56171875 7 5 C7 5.66 7 6.32 7 7 C7.66 7 8.32 7 9 7 C10.34423339 8.65788785 11.67618483 10.32576317 13 12 C13.7425 12.556875 14.485 13.11375 15.25 13.6875 C15.8275 14.120625 16.405 14.55375 17 15 C17 15.66 17 16.32 17 17 C17.66 17 18.32 17 19 17 C19 17.66 19 18.32 19 19 C19.66 19 20.32 19 21 19 C22.4375 20.49609375 22.4375 20.49609375 24 22.4375 C26.14525044 25.15188238 26.14525044 25.15188238 29 27 C29 27.66 29 28.32 29 29 C29.66 29 30.32 29 31 29 C31 29.66 31 30.32 31 31 C30.01 30.67 29.02 30.34 28 30 C28 29.34 28 28.68 28 28 C26.68 28 25.36 28 24 28 C23.1028125 26.576875 23.1028125 26.576875 22.1875 25.125 C19.47992969 21.25704242 17.53319354 20.87176799 13 20 C13 19.34 13 18.68 13 18 C12.34 18 11.68 18 11 18 C10.938125 17.2575 10.87625 16.515 10.8125 15.75 C9.73716473 12.1104037 8.03762847 11.20918434 5 9 C2.1875 6.5 2.1875 6.5 0 4 C0 2.68 0 1.36 0 0 Z " fill="#19AEEB" transform="translate(89,251)"/>
<path d="M0 0 C7.18830831 1.83886957 10.6025544 6.29960755 15 12 C15 11.34 15 10.68 15 10 C16.6037331 9.35309078 18.20800306 8.70751236 19.8125 8.0625 C20.70582031 7.70285156 21.59914063 7.34320313 22.51953125 6.97265625 C24.3270909 6.26386514 26.15807409 5.6139753 28 5 C28 5.66 28 6.32 28 7 C27.34 7 26.68 7 26 7 C26 7.66 26 8.32 26 9 C25.34 9 24.68 9 24 9 C24 9.66 24 10.32 24 11 C19.13513514 16.54054054 19.13513514 16.54054054 15 17 C14.67 16.01 14.34 15.02 14 14 C13.34 14 12.68 14 12 14 C10.14000715 12.0324413 8.46609802 9.94444402 6.75390625 7.84765625 C5.03994919 5.75201831 5.03994919 5.75201831 2 5 C0.8125 2.4375 0.8125 2.4375 0 0 Z " fill="#4C6774" transform="translate(44,213)"/>
<path d="M0 0 C-4.75 4 -4.75 4 -7 4 C-7.268125 4.639375 -7.53625 5.27875 -7.8125 5.9375 C-9 8 -9 8 -12 9 C-12 9.66 -12 10.32 -12 11 C-12.66 11 -13.32 11 -14 11 C-14 11.66 -14 12.32 -14 13 C-14.66 13 -15.32 13 -16 13 C-16.33 13.99 -16.66 14.98 -17 16 C-17.66 16 -18.32 16 -19 16 C-19.268125 16.639375 -19.53625 17.27875 -19.8125 17.9375 C-21 20 -21 20 -24 21 C-24 21.66 -24 22.32 -24 23 C-24.66 22.67 -25.32 22.34 -26 22 C-25.4225 21.34 -24.845 20.68 -24.25 20 C-21.98893943 16.98525257 -20.57778569 14.12224102 -19.125 10.671875 C-17.65287946 8.48414031 -16.50198949 8.54543371 -14 8 C-12.70339566 5.50965614 -12.70339566 5.50965614 -12 3 C-11.01 3 -10.02 3 -9 3 C-9 2.34 -9 1.68 -9 1 C-5.8035914 -0.06546953 -3.34252724 -0.07427838 0 0 Z " fill="#57A4C4" transform="translate(245,177)"/>
<path d="M0 0 C0.66 0 1.32 0 2 0 C2.5775 0.7425 3.155 1.485 3.75 2.25 C5.90350134 5.16802205 5.90350134 5.16802205 9.1875 7.0625 C12 9 12 9 12.875 11.25 C12.936875 12.11625 12.936875 12.11625 13 13 C13.66 13 14.32 13 15 13 C15 13.99 15 14.98 15 16 C16.32 16.33 17.64 16.66 19 17 C19.66 19.31 20.32 21.62 21 24 C21.66 24 22.32 24 23 24 C22.67 24.66 22.34 25.32 22 26 C21.34 25.67 20.68 25.34 20 25 C20 24.34 20 23.68 20 23 C19.34 23 18.68 23 18 23 C16.375 21.625 16.375 21.625 15 20 C15 19.34 15 18.68 15 18 C14.34 18 13.68 18 13 18 C13 17.34 13 16.68 13 16 C12.34 16 11.68 16 11 16 C9.375 14.625 9.375 14.625 8 13 C8 12.34 8 11.68 8 11 C7.34 11 6.68 11 6 11 C6 10.34 6 9.68 6 9 C5.01 8.67 4.02 8.34 3 8 C3 7.34 3 6.68 3 6 C2.34 6 1.68 6 1 6 C0.67 4.02 0.34 2.04 0 0 Z " fill="#547B8E" transform="translate(21,187)"/>
<path d="M0 0 C0.99 0.33 1.98 0.66 3 1 C3 1.66 3 2.32 3 3 C3.66 3 4.32 3 5 3 C5 3.66 5 4.32 5 5 C5.99 5.33 6.98 5.66 8 6 C8 6.66 8 7.32 8 8 C8.66 8 9.32 8 10 8 C10 8.66 10 9.32 10 10 C10.99 10 11.98 10 13 10 C13 10.66 13 11.32 13 12 C13.66 12 14.32 12 15 12 C15 12.99 15 13.98 15 15 C15.66 15 16.32 15 17 15 C17 15.66 17 16.32 17 17 C17.99 17 18.98 17 20 17 C20 17.99 20 18.98 20 20 C20.66 20 21.32 20 22 20 C22 20.66 22 21.32 22 22 C22.66 22 23.32 22 24 22 C26 24 26 24 27 27 C28.65 27.33 30.3 27.66 32 28 C32 28.66 32 29.32 32 30 C29.69 30 27.38 30 25 30 C24.773125 29.2575 24.54625 28.515 24.3125 27.75 C22.72462601 24.42302592 20.93990588 23.18783693 18 21 C14.08987245 17.29039182 10.19440331 13.3580004 7 9 C7 8.34 7 7.68 7 7 C6.401875 6.731875 5.80375 6.46375 5.1875 6.1875 C3.00152146 5.00082594 1.58667406 3.90400887 0 2 C0 1.34 0 0.68 0 0 Z " fill="#4B8ABC" transform="translate(214,293)"/>
<path d="M0 0 C0.33 0.99 0.66 1.98 1 3 C0.38125 3.165 -0.2375 3.33 -0.875 3.5 C-3.46013391 4.95141004 -3.46013391 4.95141004 -3.6875 8.875 C-4.109375 11.046875 -4.109375 11.046875 -5 13 C-7.22218276 14.32641917 -9.43315878 15.12345056 -11.8671875 15.9921875 C-14.36937603 16.94213109 -14.36937603 16.94213109 -16.0625 20.25 C-16.371875 21.1575 -16.68125 22.065 -17 23 C-17.99 23 -18.98 23 -20 23 C-19.67 21.35 -19.34 19.7 -19 18 C-18.01 17.67 -17.02 17.34 -16 17 C-16 16.34 -16 15.68 -16 15 C-15.34 15 -14.68 15 -14 15 C-13.67 14.01 -13.34 13.02 -13 12 C-10.9375 10.8125 -10.9375 10.8125 -9 10 C-9 9.34 -9 8.68 -9 8 C-7.625 6.375 -7.625 6.375 -6 5 C-5.34 5 -4.68 5 -4 5 C-4 4.34 -4 3.68 -4 3 C-3.34 3 -2.68 3 -2 3 C-2 2.34 -2 1.68 -2 1 C-1.34 0.67 -0.68 0.34 0 0 Z " fill="#6AC6F3" transform="translate(41,158)"/>
<path d="M0 0 C0 3.86695678 -1.41909971 6.5088452 -3 10 C-1.35 9.34 0.3 8.68 2 8 C1.67 8.99 1.34 9.98 1 11 C-1.109375 11.94921875 -1.109375 11.94921875 -3.75 12.6875 C-5.04164063 13.06455078 -5.04164063 13.06455078 -6.359375 13.44921875 C-8.98817853 13.99753428 -11.32352338 14.10108994 -14 14 C-10.92307692 7.07692308 -10.92307692 7.07692308 -7 5 C-4.25 4.8125 -4.25 4.8125 -2 5 C-1.855625 4.360625 -1.71125 3.72125 -1.5625 3.0625 C-1 1 -1 1 0 0 Z " fill="#003966" transform="translate(146,273)"/>
<path d="M0 0 C4.84282435 0.44025676 6.84205645 1.33271071 10 5 C12.52024124 7.58486281 14.8661339 9.90480633 17.8125 12 C20 14 20 14 20.3125 16.75 C20.209375 17.4925 20.10625 18.235 20 19 C20.66 19 21.32 19 22 19 C21.67 19.66 21.34 20.32 21 21 C20.34 20.67 19.68 20.34 19 20 C19 19.34 19 18.68 19 18 C18.34 18 17.68 18 17 18 C14.375 15.625 14.375 15.625 12 13 C12 12.34 12 11.68 12 11 C11.34 11 10.68 11 10 11 C8.375 9.625 8.375 9.625 7 8 C7 7.34 7 6.68 7 6 C6.34 6 5.68 6 5 6 C4.67 5.34 4.34 4.68 4 4 C3.01 3.67 2.02 3.34 1 3 C0.67 2.01 0.34 1.02 0 0 Z " fill="#4D839A" transform="translate(80,250)"/>
<path d="M0 0 C2.6875 -0.375 2.6875 -0.375 6 0 C8.16704095 1.81426684 9.38125003 3.61948534 11 6 C11 6.66 11 7.32 11 8 C12.32 8 13.64 8 15 8 C16.52448631 10.9826906 17.93940067 13.818202 19 17 C18.34 17 17.68 17 17 17 C16.566875 16.38125 16.13375 15.7625 15.6875 15.125 C13.68780562 12.60686633 12.01595927 11.97814895 9 11 C9 10.34 9 9.68 9 9 C8.34 9 7.68 9 7 9 C4.375 6.625 4.375 6.625 2 4 C2 3.34 2 2.68 2 2 C1.34 2 0.68 2 0 2 C0 1.34 0 0.68 0 0 Z " fill="#52A7CF" transform="translate(102,271)"/>
<path d="M0 0 C0.97608217 2.92824652 1.08226668 4.95613276 1 8 C0.01 8.33 -0.98 8.66 -2 9 C-2.33 8.67 -2.66 8.34 -3 8 C-6.25479893 8.7394429 -6.25479893 8.7394429 -7.875 11.875 C-10.11755723 15.17287828 -11.61524088 16.06585193 -15 18 C-16.08636719 19.03808421 -17.14800649 20.10248123 -18.1875 21.1875 C-19.115625 22.115625 -20.04375 23.04375 -21 24 C-21.66 24 -22.32 24 -23 24 C-23 23.34 -23 22.68 -23 22 C-22.34 22 -21.68 22 -21 22 C-21 21.34 -21 20.68 -21 20 C-19.625 18.375 -19.625 18.375 -18 17 C-17.34 17 -16.68 17 -16 17 C-16 16.34 -16 15.68 -16 15 C-13.625 12.375 -13.625 12.375 -11 10 C-10.34 10 -9.68 10 -9 10 C-9 9.34 -9 8.68 -9 8 C-7.625 6.375 -7.625 6.375 -6 5 C-5.34 5 -4.68 5 -4 5 C-4 4.34 -4 3.68 -4 3 C-3.34 3 -2.68 3 -2 3 C-2 2.34 -2 1.68 -2 1 C-1.34 0.67 -0.68 0.34 0 0 Z " fill="#C9F0FD" transform="translate(106,93)"/>
<path d="M0 0 C0 4.13122742 -1.4277594 5.81854452 -4 9 C-5.9959722 9.67863055 -7.99568551 10.34641919 -10 11 C-11.12085312 13.3430809 -11.12085312 13.3430809 -12 16 C-14.63043503 18.96767029 -16.21848945 20.73949648 -20 22 C-20 22.66 -20 23.32 -20 24 C-20.99 24 -21.98 24 -23 24 C-23 23.34 -23 22.68 -23 22 C-22.34 22 -21.68 22 -21 22 C-21 21.34 -21 20.68 -21 20 C-20.34 20 -19.68 20 -19 20 C-18.67 19.01 -18.34 18.02 -18 17 C-17.34 17 -16.68 17 -16 17 C-16 16.34 -16 15.68 -16 15 C-15.34 15 -14.68 15 -14 15 C-13.67 14.01 -13.34 13.02 -13 12 C-10.9375 10.8125 -10.9375 10.8125 -9 10 C-9 9.34 -9 8.68 -9 8 C-8.34 8 -7.68 8 -7 8 C-6.67 7.01 -6.34 6.02 -6 5 C-5.34 5 -4.68 5 -4 5 C-4 4.34 -4 3.68 -4 3 C-3.34 3 -2.68 3 -2 3 C-2 2.34 -2 1.68 -2 1 C-1.34 0.67 -0.68 0.34 0 0 Z " fill="#CEF2FD" transform="translate(82,117)"/>
<path d="M0 0 C0.66 0.33 1.32 0.66 2 1 C0.53541993 4.86116565 -1.39605668 6.11222017 -5 8 C-5.721875 8.309375 -6.44375 8.61875 -7.1875 8.9375 C-9.51408768 10.30136174 -9.88792408 11.56733393 -11 14 C-13.60722336 17.68607441 -16.00441695 19.89122006 -20 22 C-19.34 20.02 -18.68 18.04 -18 16 C-17.34 16 -16.68 16 -16 16 C-15.731875 15.360625 -15.46375 14.72125 -15.1875 14.0625 C-14 12 -14 12 -11 11 C-10.67 10.34 -10.34 9.68 -10 9 C-9 7 -9 7 -6 6 C-6 5.34 -6 4.68 -6 4 C-5.195625 3.71125 -4.39125 3.4225 -3.5625 3.125 C-0.8673532 2.26737432 -0.8673532 2.26737432 0 0 Z " fill="#6FC7F2" transform="translate(129,200)"/>
<path d="M0 0 C0.66 0 1.32 0 2 0 C2 0.66 2 1.32 2 2 C1.34 2 0.68 2 0 2 C0 2.66 0 3.32 0 4 C-0.66 4 -1.32 4 -2 4 C-2.33 4.99 -2.66 5.98 -3 7 C-3.66 7 -4.32 7 -5 7 C-5 7.66 -5 8.32 -5 9 C-5.66 9 -6.32 9 -7 9 C-7 9.66 -7 10.32 -7 11 C-7.66 11 -8.32 11 -9 11 C-9.33 11.99 -9.66 12.98 -10 14 C-10.66 14 -11.32 14 -12 14 C-12 14.66 -12 15.32 -12 16 C-12.66 16 -13.32 16 -14 16 C-14.33 16.99 -14.66 17.98 -15 19 C-15.66 19 -16.32 19 -17 19 C-17 19.66 -17 20.32 -17 21 C-17.66 21 -18.32 21 -19 21 C-19 21.66 -19 22.32 -19 23 C-19.99 23.33 -20.98 23.66 -22 24 C-22 23.34 -22 22.68 -22 22 C-21.34 22 -20.68 22 -20 22 C-19.731875 21.360625 -19.46375 20.72125 -19.1875 20.0625 C-18 18 -18 18 -15 17 C-13.94978897 15.15028304 -13.94978897 15.15028304 -13 13 C-12.484375 12.319375 -11.96875 11.63875 -11.4375 10.9375 C-9.81311272 8.95818504 -9.81311272 8.95818504 -9 6 C-7.01753602 4.96567096 -5.01586684 3.96761608 -3 3 C-1.98198643 2.01834406 -0.9753197 1.02408568 0 0 Z " fill="#37677D" transform="translate(205,83)"/>
<path d="M0 0 C0.99 0.33 1.98 0.66 3 1 C-0.80683702 7.00308915 -4.96544966 13.05433247 -11 17 C-13 16 -13 16 -14 14 C-11.6875 11.5 -11.6875 11.5 -9 9 C-8.01 9 -7.02 9 -6 9 C-5.34 7.35 -4.68 5.7 -4 4 C-3.01 4 -2.02 4 -1 4 C-0.67 2.68 -0.34 1.36 0 0 Z " fill="#48BFEF" transform="translate(125,77)"/>
<path d="M0 0 C2 1.375 2 1.375 4 3 C4 3.66 4 4.32 4 5 C4.99 5 5.98 5 7 5 C7 5.99 7 6.98 7 8 C7.66 8 8.32 8 9 8 C9 8.66 9 9.32 9 10 C9.99 10 10.98 10 12 10 C12 10.99 12 11.98 12 13 C12.66 13 13.32 13 14 13 C14 13.66 14 14.32 14 15 C15.65 15.66 17.3 16.32 19 17 C19 17.99 19 18.98 19 20 C19.66 20 20.32 20 21 20 C21 20.66 21 21.32 21 22 C21.99 22 22.98 22 24 22 C23.67 22.99 23.34 23.98 23 25 C21.2925002 23.71937515 19.62626404 22.38232443 18 21 C18 20.34 18 19.68 18 19 C17.34 19 16.68 19 16 19 C16 18.34 16 17.68 16 17 C15.195625 16.731875 14.39125 16.46375 13.5625 16.1875 C12.716875 15.795625 11.87125 15.40375 11 15 C10.67 14.01 10.34 13.02 10 12 C6.26907096 8.08601135 2.29315952 4.48870112 -3 3 C-2.01 2.01 -1.02 1.02 0 0 Z " fill="#4987BA" transform="translate(169,247)"/>
<path d="M0 0 C0.66 0 1.32 0 2 0 C1.67 1.32 1.34 2.64 1 4 C0.34 4 -0.32 4 -1 4 C-1 4.66 -1 5.32 -1 6 C-2.375 7.625 -2.375 7.625 -4 9 C-4.66 9 -5.32 9 -6 9 C-6 9.66 -6 10.32 -6 11 C-6.66 11 -7.32 11 -8 11 C-8.33 11.99 -8.66 12.98 -9 14 C-9.66 14 -10.32 14 -11 14 C-11 14.66 -11 15.32 -11 16 C-11.66 16 -12.32 16 -13 16 C-13.268125 16.639375 -13.53625 17.27875 -13.8125 17.9375 C-15 20 -15 20 -18 21 C-18 21.66 -18 22.32 -18 23 C-18.99 23.33 -19.98 23.66 -21 24 C-20.44225728 20.76509224 -19.62788492 19.02144994 -17 17 C-16.01 17 -15.02 17 -14 17 C-13.773125 16.44441406 -13.54625 15.88882813 -13.3125 15.31640625 C-11.62302816 12.33468957 -9.46497875 10.3129083 -7 7.9375 C-4.31789712 5.34506045 -2.07210825 3.10816238 0 0 Z " fill="#1C3F4F" transform="translate(191,225)"/>
<path d="M0 0 C0.33 1.32 0.66 2.64 1 4 C0.34 4 -0.32 4 -1 4 C-1 4.66 -1 5.32 -1 6 C-2.375 7.625 -2.375 7.625 -4 9 C-4.66 9 -5.32 9 -6 9 C-6.33 9.99 -6.66 10.98 -7 12 C-9.0625 13.1875 -9.0625 13.1875 -11 14 C-11 14.66 -11 15.32 -11 16 C-11.99 16.33 -12.98 16.66 -14 17 C-13.51058824 11.49411765 -13.51058824 11.49411765 -11.0625 9.125 C-9 8 -9 8 -7 8 C-6.67 7.01 -6.34 6.02 -6 5 C-4.35178756 3.96986723 -2.68496298 2.96885372 -1 2 C-0.67 1.34 -0.34 0.68 0 0 Z " fill="#31596E" transform="translate(134,153)"/>
<path d="M0 0 C0.6875 1.8125 0.6875 1.8125 1 4 C-0.1875 5.75 -0.1875 5.75 -2 7 C-3.32 7 -4.64 7 -6 7 C-6.0825 7.61875 -6.165 8.2375 -6.25 8.875 C-7.23825442 11.67505419 -8.40359985 11.74113932 -11 13 C-12.26804566 15.0335948 -12.26804566 15.0335948 -13 17 C-13.99 17 -14.98 17 -16 17 C-16 16.34 -16 15.68 -16 15 C-15.34 15 -14.68 15 -14 15 C-14 14.34 -14 13.68 -14 13 C-12 11 -12 11 -9 10 C-9 9.34 -9 8.68 -9 8 C-8.34 8 -7.68 8 -7 8 C-7 7.34 -7 6.68 -7 6 C-5.625 4.375 -5.625 4.375 -4 3 C-3.34 3 -2.68 3 -2 3 C-2 2.34 -2 1.68 -2 1 C-1.34 0.67 -0.68 0.34 0 0 Z " fill="#A1DFF8" transform="translate(58,141)"/>
<path d="M0 0 C0.99 0 1.98 0 3 0 C2.34 1.32 1.68 2.64 1 4 C0.34 4 -0.32 4 -1 4 C-1.33 5.98 -1.66 7.96 -2 10 C-2.99 10.33 -3.98 10.66 -5 11 C-5.433125 11.639375 -5.86625 12.27875 -6.3125 12.9375 C-8.53095674 15.64894713 -10.67469194 16.11325118 -14 17 C-14 16.34 -14 15.68 -14 15 C-13.34 15 -12.68 15 -12 15 C-12 14.34 -12 13.68 -12 13 C-10.625 11.375 -10.625 11.375 -9 10 C-8.34 10 -7.68 10 -7 10 C-7 9.34 -7 8.68 -7 8 C-6.34 8 -5.68 8 -5 8 C-4.67 7.01 -4.34 6.02 -4 5 C-1.9375 3.8125 -1.9375 3.8125 0 3 C0 2.01 0 1.02 0 0 Z " fill="#B2E4FA" transform="translate(121,76)"/>
<path d="M0 0 C0.33 0.99 0.66 1.98 1 3 C0.01 3.33 -0.98 3.66 -2 4 C-1.67 4.99 -1.34 5.98 -1 7 C-1.33 7.66 -1.66 8.32 -2 9 C-2.66 9 -3.32 9 -4 9 C-4 9.99 -4 10.98 -4 12 C-4.66 11.67 -5.32 11.34 -6 11 C-5.67 10.34 -5.34 9.68 -5 9 C-6.27200971 10.10281127 -7.54255853 11.20730769 -8.8125 12.3125 C-9.52019531 12.92738281 -10.22789062 13.54226563 -10.95703125 14.17578125 C-12.70136739 15.73334335 -14.36778041 17.32658875 -16 19 C-16.66 18.67 -17.32 18.34 -18 18 C-12.06 12.06 -6.12 6.12 0 0 Z " fill="#0B66A2" transform="translate(165,250)"/>
<path d="M0 0 C0.99 0.66 1.98 1.32 3 2 C3 2.66 3 3.32 3 4 C3.99 4.33 4.98 4.66 6 5 C6.33 5.99 6.66 6.98 7 8 C8.49985609 9.66710346 8.49985609 9.66710346 10 11 C9.01 11.495 9.01 11.495 8 12 C5.96855359 11.06553465 3.96466413 10.06775224 2 9 C2 8.34 2 7.68 2 7 C1.34 7 0.68 7 0 7 C-0.66 5.02 -1.32 3.04 -2 1 C-1.34 0.67 -0.68 0.34 0 0 Z " fill="#54C0EC" transform="translate(42,204)"/>
<path d="M0 0 C0 3 0 3 -1 5 C1.31 5 3.62 5 6 5 C1.95001278 8.40198926 -2.63626649 11 -8 11 C-8 7 -8 7 -6.25 5.078125 C-5.5075 4.47484375 -4.765 3.8715625 -4 3.25 C-3.2575 2.63640625 -2.515 2.0228125 -1.75 1.390625 C-1.1725 0.93171875 -0.595 0.4728125 0 0 Z " fill="#074777" transform="translate(134,281)"/>
<path d="M0 0 C0.66 0 1.32 0 2 0 C2 0.66 2 1.32 2 2 C1.34 2 0.68 2 0 2 C-0.33 2.99 -0.66 3.98 -1 5 C-3.0625 6.1875 -3.0625 6.1875 -5 7 C-5 7.66 -5 8.32 -5 9 C-5.66 9 -6.32 9 -7 9 C-7 9.66 -7 10.32 -7 11 C-7.804375 11.28875 -8.60875 11.5775 -9.4375 11.875 C-12.1326468 12.73262568 -12.1326468 12.73262568 -13 15 C-13.66 15 -14.32 15 -15 15 C-14.67 13.68 -14.34 12.36 -14 11 C-13.34 11 -12.68 11 -12 11 C-12 10.34 -12 9.68 -12 9 C-11.01 9 -10.02 9 -9 9 C-9 8.34 -9 7.68 -9 7 C-8.01 7 -7.02 7 -6 7 C-6 6.34 -6 5.68 -6 5 C-5.01 5 -4.02 5 -3 5 C-2.690625 4.360625 -2.38125 3.72125 -2.0625 3.0625 C-1 1 -1 1 0 0 Z " fill="#365F75" transform="translate(169,119)"/>
<path d="M0 0 C1.485 0.99 1.485 0.99 3 2 C3 2.66 3 3.32 3 4 C3.66 4 4.32 4 5 4 C5 4.66 5 5.32 5 6 C5.66 6 6.32 6 7 6 C8.4375 7.49609375 8.4375 7.49609375 10 9.4375 C12.14525044 12.15188238 12.14525044 12.15188238 15 14 C15 14.66 15 15.32 15 16 C15.66 16 16.32 16 17 16 C17 16.66 17 17.32 17 18 C16.01 17.67 15.02 17.34 14 17 C14 16.34 14 15.68 14 15 C12.68 15 11.36 15 10 15 C8.63636792 13.02053408 7.30581356 11.0180755 6 9 C5.113125 8.505 4.22625 8.01 3.3125 7.5 C1 6 1 6 0.1875 2.8125 C0.125625 1.884375 0.06375 0.95625 0 0 Z " fill="#12AEEF" transform="translate(103,264)"/>
<path d="M0 0 C0.99 0.33 1.98 0.66 3 1 C2.1875 3.4375 2.1875 3.4375 1 6 C0.01 6.33 -0.98 6.66 -2 7 C-2 7.66 -2 8.32 -2 9 C-3.65 9 -5.3 9 -7 9 C-5.24476928 5.05073088 -3.91175542 2.07812007 0 0 Z " fill="#002546" transform="translate(139,278)"/>
<path d="M0 0 C0 3 0 3 -1.875 5.1875 C-4 7 -4 7 -6 7 C-6.28875 7.7425 -6.5775 8.485 -6.875 9.25 C-7.82302644 11.56739797 -8.84845911 13.77917115 -10 16 C-10.99 16 -11.98 16 -13 16 C-12.67 14.35 -12.34 12.7 -12 11 C-11.01 10.67 -10.02 10.34 -9 10 C-9 9.34 -9 8.68 -9 8 C-8.34 8 -7.68 8 -7 8 C-6.67 7.01 -6.34 6.02 -6 5 C-3.9375 3.8125 -3.9375 3.8125 -2 3 C-2 2.34 -2 1.68 -2 1 C-1.34 0.67 -0.68 0.34 0 0 Z " fill="#CDF0FE" transform="translate(34,165)"/>
<path d="M0 0 C1.9375 0.3125 1.9375 0.3125 4 1 C4.33 1.99 4.66 2.98 5 4 C5.7425 4.0825 6.485 4.165 7.25 4.25 C10.58676213 5.16002604 11.90015697 6.27798125 14 9 C14 10.32 14 11.64 14 13 C13.34 13 12.68 13 12 13 C10.5625 11.50390625 10.5625 11.50390625 9 9.5625 C6.85474956 6.84811762 6.85474956 6.84811762 4 5 C4 4.34 4 3.68 4 3 C3.34 3 2.68 3 2 3 C2 2.34 2 1.68 2 1 C1.34 0.67 0.68 0.34 0 0 Z " fill="#394855" transform="translate(126,296)"/>
<path d="M0 0 C0.66 0 1.32 0 2 0 C2 0.66 2 1.32 2 2 C1.34 2 0.68 2 0 2 C0 2.66 0 3.32 0 4 C-0.66 4 -1.32 4 -2 4 C-2 4.66 -2 5.32 -2 6 C-4.8125 7.5625 -4.8125 7.5625 -8 9 C-8.99 8.67 -9.98 8.34 -11 8 C-11 7.01 -11 6.02 -11 5 C-9.93458984 4.58427734 -9.93458984 4.58427734 -8.84765625 4.16015625 C-7.46900391 3.61681641 -7.46900391 3.61681641 -6.0625 3.0625 C-5.14597656 2.70285156 -4.22945313 2.34320313 -3.28515625 1.97265625 C-1.07581467 1.2003782 -1.07581467 1.2003782 0 0 Z " fill="#417891" transform="translate(70,218)"/>
<path d="M0 0 C0.886875 0.144375 1.77375 0.28875 2.6875 0.4375 C-0.61265998 4.57687592 -3.48574411 8.02412205 -8.3125 10.4375 C-8.3125 6.58102838 -7.05410258 4.93195653 -4.82421875 1.890625 C-3.3125 0.4375 -3.3125 0.4375 0 0 Z " fill="#21B5F6" transform="translate(120.3125,213.5625)"/>
<path d="M0 0 C0 0.66 0 1.32 0 2 C-0.66 2 -1.32 2 -2 2 C-2.33 2.99 -2.66 3.98 -3 5 C-3.66 5 -4.32 5 -5 5 C-5.061875 5.61875 -5.12375 6.2375 -5.1875 6.875 C-5.455625 7.57625 -5.72375 8.2775 -6 9 C-7.66072849 9.68132451 -9.327767 10.34742127 -11 11 C-12.34410262 13.01735205 -12.34410262 13.01735205 -13 15 C-13.66 15 -14.32 15 -15 15 C-13.71480435 12.13302508 -12.42870746 10.02392288 -10 8 C-9.34 8 -8.68 8 -8 8 C-7.7525 7.4225 -7.505 6.845 -7.25 6.25 C-5.58207452 3.24773413 -3.67725381 0 0 0 Z " fill="#95D7F3" transform="translate(140,189)"/>
<path d="M0 0 C3.08917348 0.3432415 4.77105979 0.82193539 7.25 2.75 C9.17806461 5.22894021 9.6567585 6.91082652 10 10 C10.66 10 11.32 10 12 10 C11.67 10.66 11.34 11.32 11 12 C10.34 11.67 9.68 11.34 9 11 C9 10.34 9 9.68 9 9 C8.34 9 7.68 9 7 9 C4.375 6.625 4.375 6.625 2 4 C2 3.34 2 2.68 2 2 C1.34 2 0.68 2 0 2 C0 1.34 0 0.68 0 0 Z " fill="#3B5666" transform="translate(102,271)"/>
<path d="M0 0 C1.32 0 2.64 0 4 0 C2.65517146 4.5368641 0.97747455 6.05087942 -3.125 8.3125 C-4.03507813 8.82425781 -4.94515625 9.33601562 -5.8828125 9.86328125 C-6.58148438 10.23839844 -7.28015625 10.61351562 -8 11 C-6.25 7.1171875 -6.25 7.1171875 -4 6.0625 C-1.25013332 4.60163333 -0.91166696 2.88694538 0 0 Z " fill="#94D8F8" transform="translate(156,170)"/>
<path d="M0 0 C0.99 0 1.98 0 3 0 C3 0.66 3 1.32 3 2 C3.66 2 4.32 2 5 2 C5 2.99 5 3.98 5 5 C5.66 5 6.32 5 7 5 C7 5.66 7 6.32 7 7 C7.99 7 8.98 7 10 7 C10 7.99 10 8.98 10 10 C10.66 10 11.32 10 12 10 C12 10.66 12 11.32 12 12 C12.66 12 13.32 12 14 12 C14 12.66 14 13.32 14 14 C7.50650984 11.35450401 3.82364428 5.57159595 0 0 Z " fill="#4D89BD" transform="translate(200,279)"/>
<path d="M0 0 C1.32 0.33 2.64 0.66 4 1 C3.01 1 2.02 1 1 1 C0.87625 1.556875 0.7525 2.11375 0.625 2.6875 C-0.05976855 5.22114364 -0.99133763 7.57921032 -2 10 C-3.32 9.67 -4.64 9.34 -6 9 C-6 7.35 -6 5.7 -6 4 C-4.68 4 -3.36 4 -2 4 C-1.34 2.68 -0.68 1.36 0 0 Z " fill="#8CC8E1" transform="translate(86,241)"/>
<path d="M0 0 C0.99 0.33 1.98 0.66 3 1 C2.21625 1.763125 1.4325 2.52625 0.625 3.3125 C-2.07257717 5.90891805 -2.07257717 5.90891805 -4 9 C-4.99 9 -5.98 9 -7 9 C-7.66 10.32 -8.32 11.64 -9 13 C-9.33 12.01 -9.66 11.02 -10 10 C-9.34 10 -8.68 10 -8 10 C-8 8.68 -8 7.36 -8 6 C-6.68 6 -5.36 6 -4 6 C-3.34 4.68 -2.68 3.36 -2 2 C-1.34 2 -0.68 2 0 2 C0 1.34 0 0.68 0 0 Z " fill="#58A7CD" transform="translate(212,202)"/>
<path d="M0 0 C6.88016529 1.98760331 6.88016529 1.98760331 9 5 C9.6875 7.6875 9.6875 7.6875 10 10 C10.66 10 11.32 10 12 10 C11.67 10.66 11.34 11.32 11 12 C10.34 11.67 9.68 11.34 9 11 C9 10.34 9 9.68 9 9 C8.34 9 7.68 9 7 9 C5.375 7.625 5.375 7.625 4 6 C4 5.34 4 4.68 4 4 C3.34 4 2.68 4 2 4 C2 3.34 2 2.68 2 2 C1.34 2 0.68 2 0 2 C0 1.34 0 0.68 0 0 Z " fill="#3C545D" transform="translate(32,201)"/>
<path d="M0 0 C3.1875 -0.3125 3.1875 -0.3125 6 0 C1.25 4 1.25 4 -1 4 C-1.268125 4.639375 -1.53625 5.27875 -1.8125 5.9375 C-3 8 -3 8 -6 9 C-6 9.66 -6 10.32 -6 11 C-6.66 11 -7.32 11 -8 11 C-8 11.66 -8 12.32 -8 13 C-8.66 13 -9.32 13 -10 13 C-8.90078577 10.20200015 -7.95533848 8.96449982 -5.5625 7.0625 C-2.85108818 5.16158856 -2.85108818 5.16158856 -1.5625 2.25 C-1.046875 1.5075 -0.53125 0.765 0 0 Z " fill="#1B3849" transform="translate(239,177)"/>
<path d="M0 0 C0 3 0 3 -1.171875 4.5703125 C-1.69265625 5.08335937 -2.2134375 5.59640625 -2.75 6.125 C-3.26046875 6.64320313 -3.7709375 7.16140625 -4.296875 7.6953125 C-6.190097 9.14562476 -7.67158052 9.58493392 -10 10 C-8.46757679 6.55204777 -6.55468299 3.7800962 -4 1 C-1.75 0.1875 -1.75 0.1875 0 0 Z " fill="#1EB0F0" transform="translate(109,225)"/>
<path d="M0 0 C-1.875 6.875 -1.875 6.875 -3 8 C-4.99958364 8.04080783 -7.00045254 8.04254356 -9 8 C-7.47364599 4.11473526 -4.49771687 0 0 0 Z " fill="#29B1EB" transform="translate(127,206)"/>
<path d="M0 0 C0.66 0 1.32 0 2 0 C2 0.66 2 1.32 2 2 C1.34 2 0.68 2 0 2 C0 2.66 0 3.32 0 4 C-0.66 4 -1.32 4 -2 4 C-2 4.66 -2 5.32 -2 6 C-3.375 7.625 -3.375 7.625 -5 9 C-5.66 9 -6.32 9 -7 9 C-7 9.66 -7 10.32 -7 11 C-7.99 11.33 -8.98 11.66 -10 12 C-9.67 10.02 -9.34 8.04 -9 6 C-7.576875 5.87625 -7.576875 5.87625 -6.125 5.75 C-2.90618118 5.35476069 -2.90618118 5.35476069 -1.6875 3 C-1.460625 2.34 -1.23375 1.68 -1 1 C-0.67 0.67 -0.34 0.34 0 0 Z " fill="#2D5062" transform="translate(217,71)"/>
<path d="M0 0 C3 1 3 1 4 3 C11.92 3.33 19.84 3.66 28 4 C28 4.33 28 4.66 28 5 C19.42 5 10.84 5 2 5 C1.34 3.35 0.68 1.7 0 0 Z " fill="#286595" transform="translate(152,318)"/>
<path d="M0 0 C2.375 0.25 2.375 0.25 5 1 C6.125 3 6.125 3 7 5 C7.99 5.33 8.98 5.66 10 6 C9.34 6 8.68 6 8 6 C8 6.66 8 7.32 8 8 C4.11137013 6.73882275 2.10624401 5.54735833 0 2 C0 1.34 0 0.68 0 0 Z " fill="#1FB0F0" transform="translate(118,282)"/>
<path d="M0 0 C0.33 0.66 0.66 1.32 1 2 C-1.75155386 6.65647576 -4.17454764 9.2725704 -9 12 C-9.66 12 -10.32 12 -11 12 C-11 11.34 -11 10.68 -11 10 C-10.34 10 -9.68 10 -9 10 C-9 9.34 -9 8.68 -9 8 C-7.625 6.375 -7.625 6.375 -6 5 C-5.34 5 -4.68 5 -4 5 C-4 4.34 -4 3.68 -4 3 C-3.34 3 -2.68 3 -2 3 C-2 2.34 -2 1.68 -2 1 C-1.34 0.67 -0.68 0.34 0 0 Z " fill="#B1E6FA" transform="translate(147,52)"/>
<path d="M0 0 C0.99 0.33 1.98 0.66 3 1 C2.34 1 1.68 1 1 1 C1 1.66 1 2.32 1 3 C0.34 3 -0.32 3 -1 3 C-1 3.66 -1 4.32 -1 5 C-2.375 6.625 -2.375 6.625 -4 8 C-4.66 8 -5.32 8 -6 8 C-6 8.66 -6 9.32 -6 10 C-6.99 10.33 -7.98 10.66 -9 11 C-8.6875 8.625 -8.6875 8.625 -8 6 C-5 4 -5 4 -2 4 C-1.34 2.68 -0.68 1.36 0 0 Z " fill="#2A4B5C" transform="translate(180,108)"/>
<path d="M0 0 C0.33 0.66 0.66 1.32 1 2 C0.34 2 -0.32 2 -1 2 C-1.20625 2.721875 -1.4125 3.44375 -1.625 4.1875 C-3.47528988 7.97218384 -5.60240438 9.52258653 -9 12 C-9.66 12 -10.32 12 -11 12 C-11 11.34 -11 10.68 -11 10 C-10.34 10 -9.68 10 -9 10 C-9 9.34 -9 8.68 -9 8 C-8.34 8 -7.68 8 -7 8 C-6.67 7.01 -6.34 6.02 -6 5 C-5.34 5 -4.68 5 -4 5 C-4 4.34 -4 3.68 -4 3 C-3.34 3 -2.68 3 -2 3 C-2 2.34 -2 1.68 -2 1 C-1.34 0.67 -0.68 0.34 0 0 Z " fill="#C1E9FB" transform="translate(135,64)"/>
<path d="M0 0 C0.66 0.33 1.32 0.66 2 1 C1.06692579 2.44037669 0.12834923 3.87718985 -0.8125 5.3125 C-1.33457031 6.11300781 -1.85664063 6.91351563 -2.39453125 7.73828125 C-3.82534781 9.75395713 -5.082346 11.4447373 -7 13 C-7.99 13 -8.98 13 -10 13 C-9.25 11.0625 -9.25 11.0625 -8 9 C-6.66666667 8.66666667 -5.33333333 8.33333333 -4 8 C-2.79996657 6.18398635 -2.79996657 6.18398635 -2 4 C-1.33333333 2.66666667 -0.66666667 1.33333333 0 0 Z " fill="#5AC1EB" transform="translate(148,52)"/>
<path d="M0 0 C-0.33 0.66 -0.66 1.32 -1 2 C-1.99 2 -2.98 2 -4 2 C-4.33 2.99 -4.66 3.98 -5 5 C-7.5625 6.6875 -7.5625 6.6875 -10 8 C-10 6.68 -10 5.36 -10 4 C-9.34 3.67 -8.68 3.34 -8 3 C-7.67 2.01 -7.34 1.02 -7 0 C-2.25 -1.125 -2.25 -1.125 0 0 Z " fill="#58AFD8" transform="translate(178,240)"/>
<path d="M0 0 C0.66 0.33 1.32 0.66 2 1 C-0.80804268 3.96404505 -3.18315774 6.44499019 -7 8 C-7 8.66 -7 9.32 -7 10 C-7.99 10 -8.98 10 -10 10 C-10 9.34 -10 8.68 -10 8 C-9.34 8 -8.68 8 -8 8 C-8 7.34 -8 6.68 -8 6 C-7.34 6 -6.68 6 -6 6 C-5.67 5.01 -5.34 4.02 -5 3 C-4.34 3 -3.68 3 -3 3 C-3 2.34 -3 1.68 -3 1 C-2.01 0.67 -1.02 0.34 0 0 Z " fill="#AEE4F9" transform="translate(69,131)"/>
<path d="M0 0 C0.97608217 2.92824652 1.08226668 4.95613276 1 8 C0.01 8.33 -0.98 8.66 -2 9 C-2.33 8.67 -2.66 8.34 -3 8 C-3.66 7.67 -4.32 7.34 -5 7 C-4.67 5.68 -4.34 4.36 -4 3 C-3.34 3 -2.68 3 -2 3 C-2 2.34 -2 1.68 -2 1 C-1.34 0.67 -0.68 0.34 0 0 Z " fill="#8BD6F8" transform="translate(106,93)"/>
<path d="M0 0 C0.66 0 1.32 0 2 0 C1.67 0.99 1.34 1.98 1 3 C0.34 3 -0.32 3 -1 3 C-1 3.66 -1 4.32 -1 5 C-1.66 5 -2.32 5 -3 5 C-3.33 5.99 -3.66 6.98 -4 8 C-4.66 8 -5.32 8 -6 8 C-6 8.66 -6 9.32 -6 10 C-6.66 10 -7.32 10 -8 10 C-8 10.66 -8 11.32 -8 12 C-8.99 12.33 -9.98 12.66 -11 13 C-11 12.34 -11 11.68 -11 11 C-10.34 11 -9.68 11 -9 11 C-8.731875 10.360625 -8.46375 9.72125 -8.1875 9.0625 C-7 7 -7 7 -4 6 C-2.90833725 4.06669397 -2.90833725 4.06669397 -2 2 C-1.34 1.34 -0.68 0.68 0 0 Z " fill="#1A3340" transform="translate(194,94)"/>
<path d="M0 0 C0.99 0.33 1.98 0.66 3 1 C3 1.66 3 2.32 3 3 C3.66 3 4.32 3 5 3 C5 3.66 5 4.32 5 5 C5.99 5.33 6.98 5.66 8 6 C8 6.66 8 7.32 8 8 C8.66 8 9.32 8 10 8 C10 8.66 10 9.32 10 10 C10.99 10.33 11.98 10.66 13 11 C12.01 11.495 12.01 11.495 11 12 C9 10.625 9 10.625 7 9 C7 8.34 7 7.68 7 7 C6.401875 6.731875 5.80375 6.46375 5.1875 6.1875 C3.00152146 5.00082594 1.58667406 3.90400887 0 2 C0 1.34 0 0.68 0 0 Z " fill="#4E8BBE" transform="translate(214,293)"/>
<path d="M0 0 C0.66 0.33 1.32 0.66 2 1 C-5.74297753 7.27808989 -5.74297753 7.27808989 -12 7 C-10.38070456 3.76140913 -7.25333589 3.32339087 -4 2 C-3.236875 1.5875 -2.47375 1.175 -1.6875 0.75 C-1.130625 0.5025 -0.57375 0.255 0 0 Z " fill="#044F89" transform="translate(152,280)"/>
<path d="M0 0 C1.34313399 0.64669414 2.67391178 1.31903578 4 2 C4.86625 2.4125 5.7325 2.825 6.625 3.25 C9.65208055 5.4804804 10.12347684 7.41422344 11 11 C10.34 11 9.68 11 9 11 C9 10.34 9 9.68 9 9 C8.34 9 7.68 9 7 9 C5.2734375 7.28515625 5.2734375 7.28515625 3.375 5.0625 C2.74335938 4.33160156 2.11171875 3.60070312 1.4609375 2.84765625 C0 1 0 1 0 0 Z " fill="#323F4A" transform="translate(143,312)"/>
<path d="M0 0 C0.66 0 1.32 0 2 0 C0.94124926 3.40312738 -0.00902154 6.01353231 -2 9 C-3.32 9 -4.64 9 -6 9 C-6 8.34 -6 7.68 -6 7 C-5.34 7 -4.68 7 -4 7 C-4 6.34 -4 5.68 -4 5 C-3.34 5 -2.68 5 -2 5 C-2 4.01 -2 3.02 -2 2 C-1.34 2 -0.68 2 0 2 C0 1.34 0 0.68 0 0 Z " fill="#BCEAFB" transform="translate(154,43)"/>
<path d="M0 0 C7.48291572 6.15034169 7.48291572 6.15034169 10 10 C6.66666667 8.33333333 3.33333333 6.66666667 0 5 C0 3.35 0 1.7 0 0 Z " fill="#506C83" transform="translate(140,306)"/>
<path d="M0 0 C0.99 0 1.98 0 3 0 C3.66 0.99 4.32 1.98 5 3 C8.08365871 3.2502157 8.08365871 3.2502157 11 3 C10.01 4.32 9.02 5.64 8 7 C6.68 6.67 5.36 6.34 4 6 C4 5.34 4 4.68 4 4 C3.34 4 2.68 4 2 4 C1.34 2.68 0.68 1.36 0 0 Z " fill="#23343B" transform="translate(54,223)"/>
<path d="M0 0 C2.75 0.125 2.75 0.125 6 1 C8.375 4.0625 8.375 4.0625 10 7 C9.67 7.66 9.34 8.32 9 9 C8.34 8.67 7.68 8.34 7 8 C7 7.34 7 6.68 7 6 C6.34 6 5.68 6 5 6 C4.67 5.34 4.34 4.68 4 4 C3.01 3.67 2.02 3.34 1 3 C0.67 2.01 0.34 1.02 0 0 Z " fill="#374852" transform="translate(80,250)"/>
<path d="M0 0 C0.66 0.33 1.32 0.66 2 1 C-0.97 3.97 -3.94 6.94 -7 10 C-7.66 9.67 -8.32 9.34 -9 9 C-8.06725891 7.87105124 -7.12859878 6.74699124 -6.1875 5.625 C-5.66542969 4.99851563 -5.14335937 4.37203125 -4.60546875 3.7265625 C-3 2 -3 2 0 0 Z " fill="#132F3F" transform="translate(202,216)"/>
<path d="M0 0 C0.66 0 1.32 0 2 0 C1.67 0.99 1.34 1.98 1 3 C0.34 3 -0.32 3 -1 3 C-1.268125 3.639375 -1.53625 4.27875 -1.8125 4.9375 C-3 7 -3 7 -6 8 C-6 8.66 -6 9.32 -6 10 C-6.66 9.67 -7.32 9.34 -8 9 C-6.85459775 7.68712379 -5.70866567 6.37470979 -4.5625 5.0625 C-3.92441406 4.33160156 -3.28632813 3.60070312 -2.62890625 2.84765625 C-1.77458541 1.87860647 -0.91348825 0.91348825 0 0 Z " fill="#1D3949" transform="translate(227,190)"/>
<path d="M0 0 C1.32 0 2.64 0 4 0 C4 0.66 4 1.32 4 2 C3.34 2 2.68 2 2 2 C2 2.66 2 3.32 2 4 C0.37446717 5.70680947 -1.29115995 7.37660195 -3 9 C-3.66 8.67 -4.32 8.34 -5 8 C-4.67 7.01 -4.34 6.02 -4 5 C-3.34 5 -2.68 5 -2 5 C-1.34 3.35 -0.68 1.7 0 0 Z " fill="#5AA1C2" transform="translate(140,144)"/>
<path d="M0 0 C1.32 0 2.64 0 4 0 C4 1.32 4 2.64 4 4 C1.35261084 5.4606285 0.10551666 6 -3 6 C-3 5.34 -3 4.68 -3 4 C-2.34 3.67 -1.68 3.34 -1 3 C-0.67 2.01 -0.34 1.02 0 0 Z " fill="#034885" transform="translate(166,250)"/>
<path d="M0 0 C0.66 0 1.32 0 2 0 C1.67 1.32 1.34 2.64 1 4 C0.34 4 -0.32 4 -1 4 C-1 4.66 -1 5.32 -1 6 C-2.62626404 7.38232443 -4.2925002 8.71937515 -6 10 C-6.66 9.67 -7.32 9.34 -8 9 C-6.71520959 7.49410612 -5.42195918 5.99542625 -4.125 4.5 C-3.04605469 3.24703125 -3.04605469 3.24703125 -1.9453125 1.96875 C-1.30335938 1.3190625 -0.66140625 0.669375 0 0 Z " fill="#224657" transform="translate(191,225)"/>
<path d="M0 0 C0.99 0.33 1.98 0.66 3 1 C2.34 1 1.68 1 1 1 C0.67 1.99 0.34 2.98 0 4 C-2.0625 5.1875 -2.0625 5.1875 -4 6 C-4 6.66 -4 7.32 -4 8 C-4.99 8.33 -5.98 8.66 -7 9 C-5.44499019 5.18315774 -2.96404505 2.80804268 0 0 Z " fill="#1D3C46" transform="translate(226,62)"/>
<path d="M0 0 C1.65 0 3.3 0 5 0 C5 1.32 5 2.64 5 4 C3.02 4 1.04 4 -1 4 C-0.67 2.68 -0.34 1.36 0 0 Z " fill="#689AB3" transform="translate(241,173)"/>
<path d="M0 0 C-1.65167557 3.5786304 -3.78286492 6.74820188 -6 10 C-6.66 9.67 -7.32 9.34 -8 9 C-7.67 7.68 -7.34 6.36 -7 5 C-6.34 5 -5.68 5 -5 5 C-5 4.34 -5 3.68 -5 3 C-2.46153846 0 -2.46153846 0 0 0 Z " fill="#B5E5FA" transform="translate(102,98)"/>
<path d="M0 0 C2.31 0.66 4.62 1.32 7 2 C7 2.66 7 3.32 7 4 C4.69 4 2.38 4 0 4 C0 2.68 0 1.36 0 0 Z " fill="#4880AE" transform="translate(239,319)"/>
<path d="M0 0 C1.65 1.65 3.3 3.3 5 5 C4.67 5.99 4.34 6.98 4 8 C3.67 7.01 3.34 6.02 3 5 C1.68352881 4.30062468 0.34977849 3.63270867 -1 3 C-1.33 2.34 -1.66 1.68 -2 1 C-1.34 0.67 -0.68 0.34 0 0 Z " fill="#145491" transform="translate(152,314)"/>
<path d="M0 0 C0.66 0 1.32 0 2 0 C2 0.66 2 1.32 2 2 C1.34 2 0.68 2 0 2 C-0.103125 2.61875 -0.20625 3.2375 -0.3125 3.875 C-1 6 -1 6 -4 8 C-4 4.06830895 -2.60580385 2.83572772 0 0 Z " fill="#1BB1ED" transform="translate(116,216)"/>
<path d="M0 0 C0.99 0 1.98 0 3 0 C2.34 1.98 1.68 3.96 1 6 C0.01 6 -0.98 6 -2 6 C-1.125 1.125 -1.125 1.125 0 0 Z " fill="#A1DAF3" transform="translate(23,175)"/>
<path d="M0 0 C0.66 0 1.32 0 2 0 C2 0.66 2 1.32 2 2 C1.34 2 0.68 2 0 2 C0 2.66 0 3.32 0 4 C-0.66 4 -1.32 4 -2 4 C-2.33 4.99 -2.66 5.98 -3 7 C-5.0625 7.6875 -5.0625 7.6875 -7 8 C-6.67 7.01 -6.34 6.02 -6 5 C-5.01 5 -4.02 5 -3 5 C-3 4.34 -3 3.68 -3 3 C-2.34 3 -1.68 3 -1 3 C-0.67 2.01 -0.34 1.02 0 0 Z " fill="#223E4D" transform="translate(157,131)"/>
<path d="M0 0 C0 3.99904969 -1.72586967 5.80200422 -4 9 C-4.66 8.67 -5.32 8.34 -6 8 C-5.34 6.35 -4.68 4.7 -4 3 C-3.34 3 -2.68 3 -2 3 C-2 2.34 -2 1.68 -2 1 C-1.34 0.67 -0.68 0.34 0 0 Z " fill="#A6DEF7" transform="translate(82,117)"/>
<path d="M0 0 C0.99 0.33 1.98 0.66 3 1 C1.1875 4 1.1875 4 -1 7 C-1.99 7 -2.98 7 -4 7 C-4 6.34 -4 5.68 -4 5 C-3.34 5 -2.68 5 -2 5 C-2 4.34 -2 3.68 -2 3 C-1.34 2.34 -0.68 1.68 0 1 C0 0.67 0 0.34 0 0 Z " fill="#BEEAFB" transform="translate(46,151)"/>
<path d="M0 0 C0.33 0.66 0.66 1.32 1 2 C0.34 2 -0.32 2 -1 2 C-1.66 3.65 -2.32 5.3 -3 7 C-3.99 7 -4.98 7 -6 7 C-5.67 5.68 -5.34 4.36 -5 3 C-4.01 3 -3.02 3 -2 3 C-2 2.34 -2 1.68 -2 1 C-1.34 0.67 -0.68 0.34 0 0 Z " fill="#5CC0E9" transform="translate(64,138)"/>
<path d="M0 0 C0 0.33 0 0.66 0 1 C-1.65 1 -3.3 1 -5 1 C-5 1.66 -5 2.32 -5 3 C-6.5 4.625 -6.5 4.625 -8 6 C-8.66 5.67 -9.32 5.34 -10 5 C-9.6875 3.0625 -9.6875 3.0625 -9 1 C-5.8035914 -0.06546953 -3.34252724 -0.07427838 0 0 Z " fill="#5B9DB8" transform="translate(246,46)"/>
<path d="M0 0 C2.475 0.495 2.475 0.495 5 1 C5.33 2.65 5.66 4.3 6 6 C3.37812506 4.95125002 2.20628639 4.35068687 0.75 1.875 C0.5025 1.25625 0.255 0.6375 0 0 Z " fill="#3C7DB0" transform="translate(224,304)"/>
<path d="M0 0 C0 3.25811062 -0.5522078 5.10441559 -2 8 C-2.99 8.33 -3.98 8.66 -5 9 C-4.67 7.68 -4.34 6.36 -4 5 C-3.34 5 -2.68 5 -2 5 C-1.7834375 4.0409375 -1.7834375 4.0409375 -1.5625 3.0625 C-1 1 -1 1 0 0 Z " fill="#01345B" transform="translate(146,273)"/>
<path d="M0 0 C2.475 0.495 2.475 0.495 5 1 C5 2.32 5 3.64 5 5 C5.66 5 6.32 5 7 5 C6.67 5.66 6.34 6.32 6 7 C5.34 6.67 4.68 6.34 4 6 C4 5.34 4 4.68 4 4 C3.34 4 2.68 4 2 4 C1.34 2.68 0.68 1.36 0 0 Z " fill="#314655" transform="translate(95,264)"/>
<path d="M0 0 C2.375 0.6875 2.375 0.6875 5 2 C6.3125 4.625 6.3125 4.625 7 7 C5.68 6.34 4.36 5.68 3 5 C3 4.34 3 3.68 3 3 C2.34 3 1.68 3 1 3 C0.67 2.01 0.34 1.02 0 0 Z " fill="#70A6BD" transform="translate(41,208)"/>
<path d="M0 0 C0.99 0.33 1.98 0.66 3 1 C-1.75 5.875 -1.75 5.875 -4 7 C-3.6875 5.0625 -3.6875 5.0625 -3 3 C-2.01 2.67 -1.02 2.34 0 2 C0 1.34 0 0.68 0 0 Z " fill="#589FBE" transform="translate(212,202)"/>
<path d="M0 0 C0 0.66 0 1.32 0 2 C-0.66 2 -1.32 2 -2 2 C-2.33 2.99 -2.66 3.98 -3 5 C-3.66 5 -4.32 5 -5 5 C-5 5.66 -5 6.32 -5 7 C-5.99 6.67 -6.98 6.34 -8 6 C-7.0479279 4.99403703 -6.08812654 3.99538437 -5.125 3 C-4.59132812 2.443125 -4.05765625 1.88625 -3.5078125 1.3125 C-2 0 -2 0 0 0 Z " fill="#A8DEF8" transform="translate(140,189)"/>
<path d="M0 0 C0.99 0.33 1.98 0.66 3 1 C2.01 2.485 2.01 2.485 1 4 C0.34 4 -0.32 4 -1 4 C-1 4.66 -1 5.32 -1 6 C-1.99 6.33 -2.98 6.66 -4 7 C-2.92598892 4.08482708 -2.22189824 2.22189824 0 0 Z " fill="#224454" transform="translate(117,170)"/>
<path d="M0 0 C0.33 0.99 0.66 1.98 1 3 C-0.98 4.32 -2.96 5.64 -5 7 C-5.33 6.34 -5.66 5.68 -6 5 C-5.34 5 -4.68 5 -4 5 C-4 4.34 -4 3.68 -4 3 C-3.34 3 -2.68 3 -2 3 C-2 2.34 -2 1.68 -2 1 C-1.34 0.67 -0.68 0.34 0 0 Z " fill="#BDECFC" transform="translate(41,158)"/>
<path d="M0 0 C1.32 0 2.64 0 4 0 C4.33 1.98 4.66 3.96 5 6 C4.34 6 3.68 6 3 6 C0 2.53846154 0 2.53846154 0 0 Z " fill="#2DB0ED" transform="translate(118,282)"/>
<path d="M0 0 C0.66 0 1.32 0 2 0 C2.433125 1.2065625 2.433125 1.2065625 2.875 2.4375 C3.73262568 5.1326468 3.73262568 5.1326468 6 6 C4.68 6 3.36 6 2 6 C2 5.34 2 4.68 2 4 C1.34 4 0.68 4 0 4 C0 2.68 0 1.36 0 0 Z " fill="#5AA8CC" transform="translate(100,265)"/>
<path d="M0 0 C0.33 0.99 0.66 1.98 1 3 C1.99 2.67 2.98 2.34 4 2 C4.33 3.65 4.66 5.3 5 7 C4.01 6.67 3.02 6.34 2 6 C2 5.34 2 4.68 2 4 C1.34 4 0.68 4 0 4 C0 2.68 0 1.36 0 0 Z " fill="#35B2E5" transform="translate(84,247)"/>
<path d="M0 0 C0.66 0.33 1.32 0.66 2 1 C-0.46153846 5.8 -0.46153846 5.8 -3.1875 6.8125 C-3.785625 6.874375 -4.38375 6.93625 -5 7 C-5 6.34 -5 5.68 -5 5 C-4.34 5 -3.68 5 -3 5 C-2.5359375 4.0409375 -2.5359375 4.0409375 -2.0625 3.0625 C-1 1 -1 1 0 0 Z " fill="#AAE2F8" transform="translate(145,182)"/>
<path d="M0 0 C0.66 0 1.32 0 2 0 C1.1875 2.4375 1.1875 2.4375 0 5 C-0.99 5.33 -1.98 5.66 -3 6 C-3 4.68 -3 3.36 -3 2 C-2.01 2 -1.02 2 0 2 C0 1.34 0 0.68 0 0 Z " fill="#549BB8" transform="translate(236,178)"/>
<path d="M0 0 C0.33 0.66 0.66 1.32 1 2 C-0.65 3.65 -2.3 5.3 -4 7 C-4.66 6.67 -5.32 6.34 -6 6 C-2.25 1.125 -2.25 1.125 0 0 Z " fill="#44C3EF" transform="translate(41,163)"/>
<path d="M0 0 C0.66 0 1.32 0 2 0 C1.75 1.875 1.75 1.875 1 4 C-1.0625 5.25 -1.0625 5.25 -3 6 C-2.42655063 3.13275314 -2.1385485 2.1385485 0 0 Z " fill="#4EBEED" transform="translate(109,93)"/>
<path d="M0 0 C0 0.66 0 1.32 0 2 C-0.66 2 -1.32 2 -2 2 C-2 2.66 -2 3.32 -2 4 C-2.66 4 -3.32 4 -4 4 C-4.33 4.99 -4.66 5.98 -5 7 C-5.66 7 -6.32 7 -7 7 C-3.86206897 0 -3.86206897 0 0 0 Z " fill="#1E3744" transform="translate(207,83)"/>
<path d="M0 0 C1.65 0 3.3 0 5 0 C5.33 0.99 5.66 1.98 6 3 C4.02 3 2.04 3 0 3 C0 2.01 0 1.02 0 0 Z " fill="#80CBEB" transform="translate(240,43)"/>
<path d="" fill="#6AA2CF" transform="translate(0,0)"/>
<path d="" fill="#5F96C3" transform="translate(0,0)"/>
<path d="" fill="#5D95C4" transform="translate(0,0)"/>
</svg>
