<?xml version="1.0" encoding="UTF-8"?>
<svg version="1.1" xmlns="http://www.w3.org/2000/svg" width="512" height="512">
<path d="M0 0 C147.84 0 295.68 0 448 0 C448 6.52259024 447.98906009 12.75324527 447.39371586 19.19723606 C447.29539539 20.32610718 447.29539539 20.32610718 447.19508865 21.47778377 C446.97666826 23.97215189 446.75141839 26.46585279 446.52613831 28.95960999 C446.36557167 30.77685246 446.20543012 32.59413254 446.04567474 34.41144651 C445.60728498 39.38437222 445.16288976 44.35674544 444.71748245 49.32904685 C444.23746923 54.69960905 443.76306393 60.07066699 443.28796387 65.44166565 C442.35712175 75.95492416 441.4211737 86.46772215 440.48356313 96.98037893 C439.39164442 109.22574557 438.30511444 121.47158854 437.21888613 133.71746104 C435.28053287 155.56824828 433.33777978 177.41864201 431.39233398 199.26879883 C429.50501803 220.46616388 427.62004128 241.66373493 425.73803711 262.86157227 C425.62210969 264.16730633 425.50618226 265.47304039 425.38674188 266.81834216 C424.92075578 272.06700872 424.45478213 277.31567638 423.98882595 282.5643456 C420.41730313 322.79440872 416.84376823 363.0242949 413.26276398 403.25351524 C412.88721779 407.4725904 412.51191833 411.69168739 412.13684654 415.91080475 C411.70490118 420.7695265 411.27243234 425.62820136 410.8395431 430.48683911 C410.6832147 432.24237996 410.52706726 433.99793693 410.37112135 435.75351179 C409.62306749 444.17348285 408.86556453 452.59109657 408 461 C401.0452322 463.77516064 393.95531523 465.77565547 386.73828125 467.75390625 C385.38923629 468.12668946 384.04029116 468.49983412 382.69143677 468.87330627 C379.77146944 469.68113618 376.85092143 470.48681848 373.92990112 471.29083252 C366.76773582 473.26246648 359.60875901 475.245633 352.44942665 477.2275238 C349.8622943 477.94359757 347.27504451 478.65924596 344.68778992 479.37487793 C323.30442688 485.29158455 301.93851888 491.27082002 280.57204819 497.24818039 C276.40893823 498.41271711 272.24569565 499.57677932 268.08245468 500.74084759 C263.22026094 502.10040671 258.3581743 503.46034864 253.49609375 504.8203125 C252.59683292 505.07180117 251.6975721 505.32328983 250.77106094 505.58239937 C248.24371893 506.28926345 245.71645187 506.99639485 243.18920898 507.70361328 C242.09197242 508.01043958 242.09197242 508.01043958 240.97256947 508.32346439 C240.28463653 508.51603541 239.59670359 508.70860643 238.88792419 508.90701294 C238.23013411 509.08859074 237.57234402 509.27016853 236.8946209 509.45724869 C235.0798443 509.97712703 233.2831831 510.55903165 231.48817444 511.14352417 C224.46440183 512.86812011 218.70384011 511.96878574 211.91943359 509.99414062 C211.14763638 509.7786258 210.37583916 509.56311098 209.58065414 509.34106541 C207.01704762 508.62257743 204.45788221 507.88941278 201.8984375 507.15625 C200.05835893 506.63752724 198.21800948 506.11976453 196.37741089 505.60289001 C191.406591 504.20434281 186.4393872 502.79333401 181.47273254 501.38007736 C176.28957398 499.90752269 171.10321611 498.4463341 165.91699219 496.98461914 C159.48330959 495.17072255 153.04987686 493.3559682 146.61779785 491.53639221 C131.66954566 487.30856284 116.7100495 483.12268324 101.7421875 478.96484375 C99.7267886 478.40466089 97.71139748 477.84445 95.6960144 477.28421021 C87.9735264 475.13785101 80.25088182 472.99206377 72.52703857 470.85058594 C68.05698933 469.61105244 63.58783545 468.36834047 59.11932755 467.12326241 C57.48037413 466.66724367 55.84108392 466.21243349 54.20144272 465.75889397 C51.97751488 465.14364175 49.75474545 464.52437187 47.53222656 463.90405273 C46.28717346 463.55833725 45.04212036 463.21262177 43.75933838 462.85643005 C41 462 41 462 40 461 C39.72025988 458.89650593 39.50587088 456.78432853 39.31520081 454.67089844 C39.25269294 453.99158547 39.19018507 453.31227251 39.12578303 452.61237431 C38.91223522 450.2784179 38.70531742 447.94391834 38.49829102 445.609375 C38.34292831 443.89431073 38.18719671 442.17927985 38.03113365 440.46427917 C37.59061629 435.60858659 37.15617741 430.75236512 36.722718 425.89603806 C36.34066937 421.62341332 35.95535153 417.35108564 35.5701316 413.07874584 C34.17274802 397.57722085 32.78912095 382.07447379 31.40746784 366.57154083 C31.05863427 362.65751913 30.70960028 358.74351533 30.36051118 354.82951641 C26.2676027 308.93931473 22.19425675 263.04739173 18.13599205 217.15411377 C17.78280768 213.16019626 17.42961483 209.16627951 17.07641602 205.17236328 C16.98877631 204.18131088 16.90113661 203.19025848 16.81084116 202.16917419 C15.36948273 185.87101017 13.9239357 169.57322027 12.47681277 153.27556717 C10.97226429 136.33042243 9.47133571 119.38496014 7.97398859 102.43917751 C7.14039035 93.006183 6.30524935 83.57333097 5.46598625 74.14083862 C4.75808106 66.18458026 4.05344913 58.22804066 3.3531177 50.27111191 C2.99702195 46.22640736 2.63938774 42.18185489 2.2775135 38.13766289 C1.94618052 34.43438236 1.61935596 30.73073171 1.29601628 27.02674496 C1.12369802 25.06591456 0.94665829 23.10550082 0.76940769 21.14511013 C0.66697272 19.96158994 0.56453774 18.77806974 0.45899868 17.5586853 C0.36970669 16.55027273 0.2804147 15.54186016 0.1884169 14.50288963 C-0.07126159 9.67516401 0 4.8347045 0 0 Z " fill="#FE5722" transform="translate(32,0)"/>
<path d="M0 0 C92.4 0 184.8 0 280 0 C280 19.04672617 277.65001058 38.02487832 276 57 C205.05 57 134.1 57 61 57 C61.66 62.28 62.32 67.56 63 73 C63.40280684 76.77196282 63.7864304 80.53550632 64.125 84.3125 C64.25455078 85.6109082 64.25455078 85.6109082 64.38671875 86.93554688 C65.23408462 96.37089855 65 105.39525696 65 115 C132.65 115 200.3 115 270 115 C269.40592058 127.47566784 268.78315595 139.80792981 267.58203125 152.21484375 C267.44232643 153.69859807 267.30312704 155.18240005 267.16438293 156.66624451 C266.87039798 159.80278202 266.57381801 162.93905704 266.27496338 166.07513428 C265.47762894 174.44612912 264.69782326 182.81876796 263.91796875 191.19140625 C263.83817276 192.04660858 263.75837677 192.90181091 263.67616272 193.78292847 C262.47858016 206.63093041 261.33461156 219.48281281 260.23828125 232.33984375 C260.16904512 233.15156729 260.099809 233.96329082 260.02847481 234.79961205 C259.36341262 242.60677802 258.70476797 250.41447307 258.05190945 258.22266865 C257.81323992 261.07271999 257.57284386 263.92262427 257.33218956 266.77250862 C257.1693082 268.7110069 257.00926652 270.64974313 256.84931946 272.58848572 C256.75160751 273.74699539 256.65389557 274.90550507 256.55322266 276.09912109 C256.46996735 277.10010834 256.38671204 278.10109558 256.30093384 279.13241577 C255.98787582 282.11553077 255.52235543 285.04695019 255 288 C248.28154333 290.67599545 241.55505023 292.68051846 234.52368164 294.36279297 C229.09895429 295.67989492 223.77267197 297.23494615 218.4375 298.875 C211.16774497 301.10372513 203.8669133 303.11774841 196.5 305 C189.28001464 306.84572862 182.12434969 308.8139822 175 311 C167.62980199 313.23986727 160.24212227 315.40257459 152.8125 317.4375 C151.39614258 317.84452148 151.39614258 317.84452148 149.95117188 318.25976562 C139.62177069 321.03142701 131.57867276 318.82287442 121.5 315.875 C119.28000244 315.23939287 117.05994871 314.60398188 114.83984375 313.96875 C113.7091748 313.64261719 112.57850586 313.31648438 111.41357422 312.98046875 C105.97106236 311.41723548 100.51659849 309.89721068 95.0625 308.375 C92.97002854 307.7891466 90.87758005 307.20321111 88.78515625 306.6171875 C83.85838416 305.23894572 78.92979697 303.86737655 74 302.5 C71.83018544 301.89749754 69.66043223 301.29477495 67.49072266 300.69189453 C65.66497001 300.18472113 63.83910805 299.67794121 62.01318359 299.17138672 C29.02601858 290.01300929 29.02601858 290.01300929 25 288 C24.54020691 285.80810547 24.54020691 285.80810547 24.24291992 282.8671875 C24.1278157 281.76697266 24.01271149 280.66675781 23.89411926 279.53320312 C23.77823959 278.32599609 23.66235992 277.11878906 23.54296875 275.875 C23.41633347 274.62396484 23.28969818 273.37292969 23.15922546 272.08398438 C21.85895189 259.03419413 20.72557093 245.96890641 19.63745117 232.89990234 C19.36123752 229.58492344 19.08172721 226.27025868 18.80032063 222.95571899 C18.52779628 219.7414675 18.25807743 216.52698147 17.98828125 213.3125 C17.88832352 212.13042969 17.78836578 210.94835937 17.68537903 209.73046875 C17.59495834 208.63992188 17.50453766 207.549375 17.41137695 206.42578125 C17.3316011 205.47098877 17.25182526 204.51619629 17.16963196 203.5324707 C17.02405463 201.35911657 17 199.17822426 17 197 C35.48 197 53.96 197 73 197 C76.45101351 223.45777027 76.45101351 223.45777027 77.1875 233.4375 C77.26935547 234.47841797 77.35121094 235.51933594 77.43554688 236.59179688 C77.62897457 239.06084455 77.81727837 241.53014149 78 244 C91.76654775 248.05169298 105.60299007 251.75795044 119.51196289 255.28320312 C120.78547607 255.60740234 122.05898926 255.93160156 123.37109375 256.265625 C124.50474365 256.55211914 125.63839355 256.83861328 126.80639648 257.13378906 C128.96412409 257.71903618 131.1042283 258.37287261 133.22241211 259.08813477 C140.91576752 261.61381662 148.35572176 258.84554023 155.875 256.8125 C157.07866211 256.49369873 158.28232422 256.17489746 159.52246094 255.84643555 C167.30879613 253.76934868 175.05885499 251.59312764 182.765625 249.23828125 C186.74104541 248.04360432 190.75287674 246.98701898 194.76464844 245.92260742 C195.46097382 245.73741295 196.15729919 245.55221848 196.87472534 245.36141205 C198.58302684 244.90714375 200.29149667 244.45350858 202 244 C202.07294785 243.14444519 202.14589569 242.28889038 202.22105408 241.40740967 C202.90915791 233.34392596 203.60037742 225.28071671 204.2950964 217.21780014 C204.65214621 213.07259124 205.00799121 208.92728627 205.36108398 204.78173828 C205.70189304 200.78093352 206.04586531 196.78041218 206.39203072 192.78006744 C206.52353121 191.25395624 206.6538924 189.72774642 206.78309441 188.2014389 C206.96427718 186.0633822 207.14951058 183.92571223 207.33569336 181.78808594 C207.4400621 180.5711908 207.54443085 179.35429565 207.65196228 178.1005249 C208 175 208 175 209 171 C144.65 171 80.3 171 14 171 C12.68 154.83 11.36 138.66 10 122 C9.07212424 111.2644775 8.14036158 100.52985271 7.18238068 89.79706192 C6.86391093 86.22252046 6.54810467 82.64774342 6.23193359 79.07299805 C5.17593522 67.14323344 4.11347211 55.21409463 3.02813721 43.28695679 C2.64608557 39.08821628 2.26642504 34.88926077 1.88671875 30.69030762 C1.63334344 27.90424286 1.37543147 25.11862479 1.1171875 22.33300781 C0.96594147 20.66603415 0.81488693 18.99904311 0.6640625 17.33203125 C0.59563141 16.61024185 0.52720032 15.88845245 0.45669556 15.14479065 C0.00098588 10.03490217 0 5.18337659 0 0 Z " fill="#FAF9F8" transform="translate(116,94)"/>
</svg>
