<?xml version="1.0" encoding="UTF-8"?>
<svg version="1.1" xmlns="http://www.w3.org/2000/svg" width="512" height="512">
<path d="M0 0 C141.24 0 282.48 0 428 0 C428 17.27413067 428 17.27413067 427.37890625 24.26953125 C427.31468979 25.04262131 427.25047333 25.81571136 427.18431091 26.61222839 C427.05026596 28.20926904 426.91325084 29.8060633 426.77319336 31.40258789 C426.55883986 33.85436473 426.35597075 36.30691626 426.15429688 38.75976562 C426.02149468 40.32557707 425.8880561 41.89133469 425.75390625 43.45703125 C425.6934462 44.18710892 425.63298615 44.91718658 425.57069397 45.66938782 C425.11561506 50.76876988 425.11561506 50.76876988 424 53 C423.79990826 54.77413448 423.65427616 56.55453347 423.53515625 58.3359375 C423.45837646 59.45049316 423.38159668 60.56504883 423.30249023 61.71337891 C423.22329346 62.92171387 423.14409668 64.13004883 423.0625 65.375 C422.97750244 66.61040527 422.89250488 67.84581055 422.80493164 69.11865234 C422.53256602 73.07883352 422.26546348 77.03935185 422 81 C421.65088638 86.208687 421.29582173 91.41693797 420.9375 96.625 C420.85830322 97.83333496 420.77910645 99.04166992 420.69750977 100.28662109 C420.62072998 101.40117676 420.5439502 102.51573242 420.46484375 103.6640625 C420.399021 104.64842285 420.33319824 105.6327832 420.26538086 106.64697266 C420 109 420 109 419 111 C418.80016744 112.73818248 418.6543969 114.48270766 418.53515625 116.22827148 C418.45837646 117.3195787 418.38159668 118.41088593 418.30249023 119.53526306 C418.22329346 120.71858719 418.14409668 121.90191132 418.0625 123.12109375 C417.97750244 124.3319313 417.89250488 125.54276886 417.80493164 126.79029846 C417.5325836 130.67243038 417.26569776 134.5549076 417 138.4375 C416.65029801 143.54068725 416.29540731 148.64347623 415.9375 153.74609375 C415.85830322 154.92739365 415.77910645 156.10869354 415.69750977 157.32579041 C415.62072998 158.42024979 415.5439502 159.51470917 415.46484375 160.64233398 C415.399021 161.60670883 415.33319824 162.57108368 415.26538086 163.56468201 C415 166 415 166 414 169 C413.80644843 170.72078611 413.65756202 172.44676688 413.53515625 174.17407227 C413.45837646 175.22849014 413.38159668 176.28290802 413.30249023 177.36927795 C413.22329346 178.50683029 413.14409668 179.64438263 413.0625 180.81640625 C412.97750244 181.98380844 412.89250488 183.15121063 412.80493164 184.35398865 C412.44055879 189.35886635 412.08512539 194.36436781 411.72949219 199.36987305 C411.46892669 203.01897435 411.2033779 206.6676888 410.9375 210.31640625 C410.85830322 211.45598282 410.77910645 212.59555939 410.69750977 213.76966858 C410.62072998 214.8209343 410.5439502 215.87220001 410.46484375 216.95532227 C410.399021 217.88337173 410.33319824 218.8114212 410.26538086 219.76759338 C410 222 410 222 409 224 C408.80085642 225.65682374 408.65472115 227.32015907 408.53515625 228.98461914 C408.45837646 230.02231949 408.38159668 231.06001984 408.30249023 232.12916565 C408.22329346 233.25314255 408.14409668 234.37711945 408.0625 235.53515625 C407.97750244 236.68414902 407.89250488 237.83314178 407.80493164 239.01695251 C407.44003974 243.95005063 407.08490717 248.88383829 406.72949219 253.81762695 C406.46920454 257.41125285 406.20353138 261.00445175 405.9375 264.59765625 C405.85830322 265.72365738 405.77910645 266.84965851 405.69750977 268.00978088 C405.58234009 269.56160316 405.58234009 269.56160316 405.46484375 271.14477539 C405.399021 272.06029678 405.33319824 272.97581818 405.26538086 273.91908264 C405 276 405 276 404 277 C403.79385893 278.71009856 403.651554 280.42794348 403.53515625 282.14648438 C403.45837646 283.24432251 403.38159668 284.34216064 403.30249023 285.4732666 C403.22329346 286.66802612 403.14409668 287.86278564 403.0625 289.09375 C402.97750244 290.31074585 402.89250488 291.5277417 402.80493164 292.78161621 C402.53224776 296.68745599 402.26543745 300.59366145 402 304.5 C401.65102062 309.63579216 401.29614797 314.77112501 400.9375 319.90625 C400.85830322 321.10100952 400.77910645 322.29576904 400.69750977 323.5267334 C400.62072998 324.62457153 400.5439502 325.72240967 400.46484375 326.85351562 C400.399021 327.8253479 400.33319824 328.79718018 400.26538086 329.79846191 C400 332 400 332 399 333 C398.79371817 334.7407757 398.65149646 336.48919086 398.53515625 338.23828125 C398.45837646 339.35614014 398.38159668 340.47399902 398.30249023 341.62573242 C398.22329346 342.84236572 398.14409668 344.05899902 398.0625 345.3125 C397.97750244 346.55169189 397.89250488 347.79088379 397.80493164 349.06762695 C397.53224112 353.04480193 397.26524222 357.02232332 397 361 C396.65127938 366.22955149 396.29615489 371.45861772 395.9375 376.6875 C395.85830322 377.9041333 395.77910645 379.1207666 395.69750977 380.37426758 C395.62072998 381.49212646 395.5439502 382.60998535 395.46484375 383.76171875 C395.399021 384.75131592 395.33319824 385.74091309 395.26538086 386.76049805 C395 389 395 389 394 390 C393.70866681 392.88187251 393.47585088 395.74784271 393.28125 398.63671875 C393.21844849 399.50891556 393.15564697 400.38111237 393.09094238 401.27973938 C392.88961976 404.08203707 392.69435485 406.88471106 392.5 409.6875 C392.30505079 412.47238562 392.10873748 415.25715169 391.90905762 418.04170227 C391.78481433 419.77667529 391.6633505 421.51185021 391.54504395 423.24723816 C390.92735452 431.92234425 390.92735452 431.92234425 390 436 C388.171875 437.35546875 388.171875 437.35546875 385.75 438.1875 C384.39068359 438.65736328 384.39068359 438.65736328 383.00390625 439.13671875 C378.80914882 440.34223421 374.58106019 441.30637803 370.31640625 442.23046875 C367.18907722 442.95612696 364.1813796 443.83397531 361.125 444.8125 C354.79791246 446.81011855 348.41363142 448.55186236 342 450.25 C340.99598145 450.52046143 339.99196289 450.79092285 338.95751953 451.06958008 C338.00216309 451.3198999 337.04680664 451.57021973 336.0625 451.828125 C335.20785156 452.0540332 334.35320312 452.27994141 333.47265625 452.51269531 C330.91947383 453.01586989 328.59538635 453.08705455 326 453 C326 453.66 326 454.32 326 455 C324.91460937 455.26554687 323.82921875 455.53109375 322.7109375 455.8046875 C321.26559353 456.16133082 319.82028278 456.5181088 318.375 456.875 C317.30572266 457.13603516 317.30572266 457.13603516 316.21484375 457.40234375 C312.07012074 458.42901826 308.04194922 459.61220628 304 461 C299.62275018 462.28230465 295.60306925 463.28769183 291 463 C291 463.66 291 464.32 291 465 C289.87722656 465.25394531 288.75445312 465.50789063 287.59765625 465.76953125 C278.22108979 467.84125166 278.22108979 467.84125166 269.0625 470.6875 C264.47198846 472.34368456 259.84638569 472.70658625 255 473 C255 473.66 255 474.32 255 475 C253.91460937 475.26554687 252.82921875 475.53109375 251.7109375 475.8046875 C250.26559353 476.16133082 248.82028278 476.5181088 247.375 476.875 C246.66214844 477.04902344 245.94929687 477.22304688 245.21484375 477.40234375 C241.068742 478.42935978 237.05070612 479.63683488 233 481 C229.97566441 481.77846476 226.94114503 482.49913683 223.90234375 483.21875 C221.00564973 483.92695065 221.00564973 483.92695065 218.39453125 485.10546875 C212.55700638 487.28620806 206.19508208 484.89556503 200.5703125 482.88671875 C192.09011364 479.96117902 183.34663346 477.76827696 174.62109375 475.7109375 C172 475 172 475 169.5859375 474.015625 C166.49846552 472.80302271 163.42423902 472.09427534 160.1875 471.375 C158.44533203 470.98441406 158.44533203 470.98441406 156.66796875 470.5859375 C155.34732422 470.29589844 155.34732422 470.29589844 154 470 C154 469.34 154 468.68 154 468 C152.700625 467.87625 151.40125 467.7525 150.0625 467.625 C145.28150048 467.10136672 140.66885899 466.13686165 136 465 C136 464.34 136 463.68 136 463 C134.865625 462.87625 133.73125 462.7525 132.5625 462.625 C125.64802435 461.74851717 119.13923975 460.1172378 112.55859375 457.84765625 C103.50871041 454.84945063 94.2346503 452.51702466 85.0234375 450.07421875 C80.46828627 448.86172114 75.92008538 447.624668 71.375 446.375 C70.61670898 446.16883057 69.85841797 445.96266113 69.07714844 445.75024414 C66.104156 444.92903993 63.23828487 444.09609405 60.375 442.94140625 C57.50091329 441.80217122 54.64917207 441.19822263 51.625 440.5625 C42.0149063 438.37244463 42.0149063 438.37244463 38 436 C36.81333396 432.01851837 36.73547714 427.89593606 36.5 423.765625 C36.41671472 422.37369504 36.33337997 420.98176804 36.25 419.58984375 C36.12357071 417.4084446 35.99869398 415.2269661 35.875 413.04541016 C35.75388296 410.93106626 35.62720633 408.8171099 35.5 406.703125 C35.39171875 404.81062012 35.39171875 404.81062012 35.28125 402.87988281 C35.31810236 400.10642588 35.31810236 400.10642588 34 399 C33.79400489 397.3205808 33.6516138 395.63330553 33.53515625 393.9453125 C33.45837646 392.86749512 33.38159668 391.78967773 33.30249023 390.67919922 C33.22329346 389.50631348 33.14409668 388.33342773 33.0625 387.125 C32.97750244 385.9302002 32.89250488 384.73540039 32.80493164 383.50439453 C32.43962794 378.3673322 32.08510294 373.2295378 31.72949219 368.09179688 C31.46916805 364.35259563 31.20347686 360.61380269 30.9375 356.875 C30.85830322 355.70211426 30.77910645 354.52922852 30.69750977 353.32080078 C30.62072998 352.2429834 30.5439502 351.16516602 30.46484375 350.0546875 C30.399021 349.10062012 30.33319824 348.14655273 30.26538086 347.16357422 C30.22819477 345.02294167 30.22819477 345.02294167 29 344 C28.79400489 342.3205808 28.6516138 340.63330553 28.53515625 338.9453125 C28.45837646 337.86749512 28.38159668 336.78967773 28.30249023 335.67919922 C28.22329346 334.50631348 28.14409668 333.33342773 28.0625 332.125 C27.97750244 330.9302002 27.89250488 329.73540039 27.80493164 328.50439453 C27.43962794 323.3673322 27.08510294 318.2295378 26.72949219 313.09179688 C26.46916805 309.35259563 26.20347686 305.61380269 25.9375 301.875 C25.85830322 300.70211426 25.77910645 299.52922852 25.69750977 298.32080078 C25.62072998 297.2429834 25.5439502 296.16516602 25.46484375 295.0546875 C25.399021 294.10062012 25.33319824 293.14655273 25.26538086 292.16357422 C25.22819477 290.02294167 25.22819477 290.02294167 24 289 C23.79371817 287.2592243 23.65149646 285.51080914 23.53515625 283.76171875 C23.45837646 282.64385986 23.38159668 281.52600098 23.30249023 280.37426758 C23.22329346 279.15763428 23.14409668 277.94100098 23.0625 276.6875 C22.97750244 275.44830811 22.89250488 274.20911621 22.80493164 272.93237305 C22.48584878 268.27856855 22.17499145 263.62424059 21.86462402 258.96984863 C21.56059135 254.41704862 21.24974363 249.8647458 20.9375 245.3125 C20.85830322 244.0958667 20.77910645 242.8792334 20.69750977 241.62573242 C20.62072998 240.50787354 20.5439502 239.39001465 20.46484375 238.23828125 C20.399021 237.24868408 20.33319824 236.25908691 20.26538086 235.23950195 C20.2380378 233.03170985 20.2380378 233.03170985 19 232 C18.69548458 229.15059204 18.45061776 226.31807336 18.24609375 223.4609375 C18.18092056 222.58788971 18.11574738 221.71484192 18.04859924 220.81533813 C17.91103558 218.95420944 17.77585218 217.09290356 17.64282227 215.23144531 C17.4418087 212.43494273 17.23027867 209.63938473 17.01757812 206.84375 C16.2555984 196.53891424 15.79355259 186.33433852 16 176 C15.34 176 14.68 176 14 176 C13.95210831 175.30064835 13.90421661 174.60129669 13.85487366 173.88075256 C13.40358293 167.30262163 12.94789198 160.72481223 12.48720646 154.14733219 C12.25049798 150.76545857 12.0155164 147.38348309 11.78442383 144.0012207 C11.51891495 140.11633892 11.24599844 136.23199508 10.97265625 132.34765625 C10.89032242 131.12788589 10.80798859 129.90811554 10.72315979 128.65138245 C10.64315231 127.53029587 10.56314484 126.40920929 10.48071289 125.25415039 C10.41187393 124.26153702 10.34303497 123.26892365 10.27210999 122.24623108 C10.23831029 120.0326646 10.23831029 120.0326646 9 119 C8.80523777 117.56625032 8.67297909 116.12393161 8.56689453 114.6809082 C8.49646439 113.75572891 8.42603424 112.83054962 8.35346985 111.87733459 C8.28065292 110.86207199 8.207836 109.84680939 8.1328125 108.80078125 C8.05350998 107.75059311 7.97420746 106.70040497 7.89250183 105.61839294 C7.72192742 103.35872588 7.55321094 101.09891797 7.38613892 98.83898926 C6.11480742 81.67059119 4.79524783 64.51708287 2.95166016 47.3996582 C2.18695427 40.24640295 1.66391626 33.11242345 1.27026367 25.93066406 C1.32520315 23.11214124 1.32520315 23.11214124 0 22 C0 14.74 0 7.48 0 0 Z " fill="#D6BA32" transform="translate(42,18)"/>
<path d="M0 0 C57.42 0 114.84 0 174 0 C174 10.09622869 174 10.09622869 173.41625977 14.88330078 C173.29145737 15.95305145 173.16665497 17.02280212 173.03807068 18.12496948 C172.90304642 19.26193268 172.76802216 20.39889587 172.62890625 21.5703125 C170.85341476 37.30664755 169.86370929 53.07188106 168.9375 68.875 C168.69705983 72.96552029 168.45461354 77.05588676 168.20375061 81.14578247 C168.05029363 83.65658844 167.90178805 86.16770467 167.75950623 88.6791687 C167.32471885 95.7958941 166.5230684 102.77392001 165.46046448 109.82369995 C164.88166131 113.81630441 164.50977158 117.79820057 164.21875 121.8203125 C164.09767123 123.36067826 163.97657703 124.90104281 163.85546875 126.44140625 C163.67643491 128.78846628 163.49919912 131.13565416 163.32275391 133.48291016 C162.68523769 141.88589793 161.92505776 150.13604881 160.42382812 158.43847656 C159.82184145 162.07675089 159.64582845 165.62668583 159.5 169.3125 C159.29591041 174.44025086 158.82621826 179.39945371 158.09765625 184.48046875 C156.56285308 195.6074451 155.80656131 206.80517236 154.9375 218 C154.67756158 221.32248125 154.41642443 224.64485607 154.15272522 227.96704102 C153.99010313 230.01812686 153.82968769 232.06938929 153.67185974 234.12084961 C153.27758458 239.11721508 152.73015601 244.03944398 152 249 C151.81126598 251.1622497 151.64487122 253.32655673 151.5 255.4921875 C151.4175 256.69230469 151.335 257.89242188 151.25 259.12890625 C151.1675 260.36511719 151.085 261.60132813 151 262.875 C150.07475276 276.65250963 150.07475276 276.65250963 149.5 281.3515625 C149.0068248 285.50598564 148.74572509 289.66876308 148.5 293.84375 C148.45875 294.54452667 148.4175 295.24530334 148.375 295.96731567 C148.20485065 298.89371008 148.03781266 301.82025829 147.875 304.74707031 C147.7540374 306.90455161 147.62740177 309.06164079 147.5 311.21875 C147.4278125 312.49685547 147.355625 313.77496094 147.28125 315.09179688 C147 318 147 318 146 319 C145.72049505 321.78836276 145.49979938 324.56029573 145.31640625 327.35546875 C145.25597641 328.20869217 145.19554657 329.06191559 145.13328552 329.94099426 C144.87442533 333.59650279 144.62598312 337.25269643 144.37768555 340.90893555 C143.63930499 351.68733571 142.75137286 362.3297022 141 373 C131.5 376 131.5 376 127 376 C127 376.66 127 377.32 127 378 C126.32122803 378.16081055 125.64245605 378.32162109 124.94311523 378.48730469 C108.62898818 382.35906197 92.42950215 386.42542005 76.31640625 391.0703125 C72.33462704 392.18652387 68.32885935 393.17352378 64.3125 394.15625 C59.4991427 395.38229384 54.72450549 396.74075134 49.94360352 398.08691406 C43.44715866 399.90408227 36.91529841 401.53405186 30.35546875 403.10546875 C27.42723562 403.88610366 24.79648899 404.85418583 22 406 C19.67560478 406.7371346 17.3413916 407.44377615 15 408.125 C13.80375 408.47820312 12.6075 408.83140625 11.375 409.1953125 C8.4102198 409.90219296 6.02287733 410.17175439 3 410 C3 410.66 3 411.32 3 412 C2.01 412 1.02 412 0 412 C0 276.04 0 140.08 0 0 Z " fill="#FED93F" transform="translate(256,56)"/>
<path d="M0 0 C44.88 0 89.76 0 136 0 C136 17.05220742 133.83280268 34.04657521 132 51 C102.3 51 72.6 51 42 51 C42 75.42 42 99.84 42 125 C68.94219217 123.41344211 68.94219217 123.41344211 95.55957031 119.34960938 C105.27909374 117.37551262 115.10753178 117.16771796 125 117 C124.88118872 121.4475913 124.75690603 125.89498695 124.62768555 130.34228516 C124.58453646 131.85331126 124.54284844 133.36437986 124.50268555 134.87548828 C124.44449437 137.05514294 124.38094448 139.23458763 124.31640625 141.4140625 C124.27974854 142.7232666 124.24309082 144.0324707 124.20532227 145.38134766 C124 149 124 149 123.52734375 151.74023438 C122.72259561 156.71477012 122.52636931 161.7143143 122.24609375 166.7421875 C122.18092056 167.86569611 122.11574738 168.98920471 122.04859924 170.14675903 C121.84186302 173.72267221 121.63962128 177.2988233 121.4375 180.875 C121.29782274 183.30470457 121.15785213 185.7343923 121.01757812 188.1640625 C120.67498572 194.10918399 120.33607957 200.05450697 120 206 C119.34 206 118.68 206 118 206 C118.02320313 206.95132813 118.04640625 207.90265625 118.0703125 208.8828125 C118.30646169 223.97053174 117.11833594 238.96492501 116 254 C110.17542782 256.3499136 104.53362722 257.87476475 98.375 259.0625 C96.7363028 259.38328271 95.09825989 259.70742854 93.4609375 260.03515625 C92.74728027 260.1731665 92.03362305 260.31117676 91.29833984 260.45336914 C88.883259 260.99200148 88.883259 260.99200148 86.13183594 261.95678711 C82.92136176 263.02619435 79.71820057 263.8605884 76.4296875 264.65625 C75.20378906 264.95660156 73.97789062 265.25695312 72.71484375 265.56640625 C70.14757084 266.1905957 67.57985877 266.81298155 65.01171875 267.43359375 C63.17673828 267.88412109 63.17673828 267.88412109 61.3046875 268.34375 C60.19077637 268.61380859 59.07686523 268.88386719 57.92919922 269.16210938 C55.38154659 269.89085948 53.33672784 270.79230936 51 272 C48.51814669 272.51387634 46.06106693 272.96707071 43.5625 273.375 C37.23193075 274.48047458 31.22820069 276.02949182 25.109375 278.0234375 C21.00281737 279.3131855 16.84629169 280.3106187 12.65625 281.2890625 C9.97771741 281.9380019 9.97771741 281.9380019 7.46875 283.0859375 C5 284 5 284 0 284 C0 267.5 0 251 0 234 C3.74434426 232.75188525 7.29649357 231.61361319 11.09765625 230.66796875 C12.05422119 230.42925049 13.01078613 230.19053223 13.99633789 229.94458008 C15.00817139 229.69474365 16.02000488 229.44490723 17.0625 229.1875 C18.63922485 228.79437622 18.63922485 228.79437622 20.24780273 228.39331055 C25.4901852 227.0918648 30.73752746 225.81933918 36 224.6015625 C36.93835693 224.38346924 37.87671387 224.16537598 38.84350586 223.94067383 C40.60596948 223.53348887 42.36974586 223.13192882 44.13500977 222.73706055 C49.05587122 221.60109705 53.39997629 220.08055595 58 218 C62.80780064 216.4210544 67.58718317 215.73685694 72.62890625 215.44140625 C75.87838647 214.92604159 75.87838647 214.92604159 82 212 C82.99 198.14 83.98 184.28 85 170 C76.585 171.98 76.585 171.98 68 174 C64.40278843 174.58418328 60.85978486 175.12526656 57.25 175.5625 C50.36156452 176.47004495 43.67201104 177.63370969 36.921875 179.3125 C32.87593689 180.26448544 28.79599311 180.88907213 24.69140625 181.53125 C22.43589337 181.92408243 20.32014966 182.42865636 18.125 183.0625 C12.20000764 184.40908917 6.06064613 184.5670967 0 185 C0 123.95 0 62.9 0 0 Z " fill="#FFFEFB" transform="translate(273,112)"/>
<path d="M0 0 C13.86 0 27.72 0 42 0 C42 94.05 42 188.1 42 285 C38.65164607 284.16291152 35.37080306 283.22845569 32.0625 282.25 C25.99503751 280.5047382 19.89797959 278.99585048 13.75 277.5625 C6.96377405 275.97527545 0.21437707 274.30689327 -6.5 272.4375 C-7.16805664 272.25195557 -7.83611328 272.06641113 -8.52441406 271.87524414 C-12.75682738 270.6801795 -16.95940906 269.39952889 -21.16015625 268.09765625 C-28.05836488 265.96549175 -34.99157112 263.97025794 -41.9375 262 C-44.27994792 261.33333333 -46.62239583 260.66666667 -48.96484375 260 C-50.1235498 259.67128906 -51.28225586 259.34257812 -52.47607422 259.00390625 C-54.84376493 258.32939162 -57.20996407 257.64962111 -59.57470703 256.96484375 C-60.74759277 256.62582031 -61.92047852 256.28679687 -63.12890625 255.9375 C-64.16217041 255.63714844 -65.19543457 255.33679688 -66.26000977 255.02734375 C-71.48225399 253.59283734 -76.74601387 252.31349653 -82 251 C-82 234.5 -82 218 -82 201 C-77.61138039 201.62694566 -73.74359343 202.22560353 -69.53125 203.33984375 C-68.05591797 203.7275293 -68.05591797 203.7275293 -66.55078125 204.12304688 C-65.54402344 204.39181641 -64.53726563 204.66058594 -63.5 204.9375 C-62.49324219 205.20240234 -61.48648438 205.46730469 -60.44921875 205.74023438 C-55.28233687 207.10475167 -50.13413261 208.51751921 -45 210 C-43.1675992 210.50340681 -41.33432571 211.00365304 -39.5 211.5 C-35.32372092 212.63485845 -31.16123274 213.81107636 -27 215 C-26.06414062 215.24878906 -25.12828125 215.49757813 -24.1640625 215.75390625 C-23.16117188 216.02074219 -22.15828125 216.28757812 -21.125 216.5625 C-20.17882812 216.81128906 -19.23265625 217.06007813 -18.2578125 217.31640625 C-16 218 -16 218 -15 219 C-13.04878907 219.37276865 -11.0885087 219.69864615 -9.125 220 C-5.93709107 220.49162933 -3.06282827 220.97905724 0 222 C0 148.74 0 75.48 0 0 Z " fill="#EAEAE7" transform="translate(197,112)"/>
<path d="M0 0 C-1.91345327 0.53251766 -3.8309295 1.05059483 -5.75 1.5625 C-6.81734375 1.85253906 -7.8846875 2.14257812 -8.984375 2.44140625 C-11.84335927 2.97098494 -13.31597383 2.98370862 -16 2 C-13.04655319 0.03103546 -11.94214163 -0.33984715 -8.5625 -0.6875 C-7.41974609 -0.81705078 -7.41974609 -0.81705078 -6.25390625 -0.94921875 C-3.96788208 -1.00072363 -2.17903015 -0.66016176 0 0 Z " fill="#FFE67F" transform="translate(324,334)"/>
</svg>
