<?xml version="1.0" encoding="UTF-8"?>
<svg version="1.1" xmlns="http://www.w3.org/2000/svg" width="518" height="518">
<path d="M0 0 C1.56814453 -0.02416992 1.56814453 -0.02416992 3.16796875 -0.04882812 C10.75393321 -0.0536233 15.71125867 0.76775154 21.75 5.625 C24.12276305 8.62584738 24.61178471 10.53974754 24.875 14.3125 C25.535 14.3125 26.195 14.3125 26.875 14.3125 C26.875 33.4525 26.875 52.5925 26.875 72.3125 C22.255 72.3125 17.635 72.3125 12.875 72.3125 C12.545 70.6625 12.215 69.0125 11.875 67.3125 C10.885 67.9725 9.895 68.6325 8.875 69.3125 C7.885 69.3125 6.895 69.3125 5.875 69.3125 C5.875 69.9725 5.875 70.6325 5.875 71.3125 C-3.54744066 74.21171251 -12.70255934 74.21171251 -22.125 71.3125 C-22.125 70.6525 -22.125 69.9925 -22.125 69.3125 C-23.0840625 68.94125 -23.0840625 68.94125 -24.0625 68.5625 C-26.125 67.3125 -26.125 67.3125 -26.875 65.1875 C-26.9575 64.56875 -27.04 63.95 -27.125 63.3125 C-27.785 63.3125 -28.445 63.3125 -29.125 63.3125 C-30.14845486 59.93347444 -30.2588035 56.83389987 -30.25 53.3125 C-30.25386719 51.765625 -30.25386719 51.765625 -30.2578125 50.1875 C-30.14363671 47.71592991 -29.83850656 45.6682042 -29.125 43.3125 C-28.465 43.3125 -27.805 43.3125 -27.125 43.3125 C-27.063125 42.755625 -27.00125 42.19875 -26.9375 41.625 C-25.18961389 36.65024723 -20.66576072 33.64109524 -16.125 31.3125 C-12.52069299 29.99092076 -8.92780908 30.23936906 -5.125 30.3125 C-5.125 29.6525 -5.125 28.9925 -5.125 28.3125 C-0.175 28.3125 4.775 28.3125 9.875 28.3125 C9.6275 26.37375 9.38 24.435 9.125 22.4375 C8.98578125 21.34695313 8.8465625 20.25640625 8.703125 19.1328125 C8.16564565 16.18471871 8.16564565 16.18471871 5.796875 14.9296875 C5.16265625 14.72601563 4.5284375 14.52234375 3.875 14.3125 C3.875 13.6525 3.875 12.9925 3.875 12.3125 C-1.405 12.3125 -6.685 12.3125 -12.125 12.3125 C-12.125 12.9725 -12.125 13.6325 -12.125 14.3125 C-13.54038717 14.65122513 -14.95737963 14.98324624 -16.375 15.3125 C-17.16390625 15.498125 -17.9528125 15.68375 -18.765625 15.875 C-21.125 16.3125 -21.125 16.3125 -25.125 16.3125 C-25.455 12.6825 -25.785 9.0525 -26.125 5.3125 C-24.475 4.9825 -22.825 4.6525 -21.125 4.3125 C-21.125 3.6525 -21.125 2.9925 -21.125 2.3125 C-13.98415375 0.44156847 -7.36684228 -0.02287839 0 0 Z M-10.125 42.3125 C-12.74617594 45.17941119 -13.0864047 46.95227723 -13.5 50.8125 C-13.10349722 54.51319257 -12.47258985 56.44322352 -10.125 59.3125 C-9.135 59.3125 -8.145 59.3125 -7.125 59.3125 C-7.125 59.9725 -7.125 60.6325 -7.125 61.3125 C-5.145 61.3125 -3.165 61.3125 -1.125 61.3125 C-1.125 60.6525 -1.125 59.9925 -1.125 59.3125 C-0.49851562 59.20292969 0.12796875 59.09335937 0.7734375 58.98046875 C1.59070313 58.82191406 2.40796875 58.66335938 3.25 58.5 C4.06210937 58.34917969 4.87421875 58.19835937 5.7109375 58.04296875 C8.23320641 57.43705058 8.23320641 57.43705058 9.875 54.3125 C10.11770825 50.87942835 10.11770825 50.87942835 10 47.125 C9.98195313 45.85269531 9.96390625 44.58039063 9.9453125 43.26953125 C9.92210937 42.29371094 9.89890625 41.31789063 9.875 40.3125 C-0.31830214 39.95902802 -0.31830214 39.95902802 -10.125 42.3125 Z " fill="#E11D20" transform="translate(339.125,382.6875)"/>
<path d="M0 0 C1.05380859 -0.00773437 2.10761719 -0.01546875 3.19335938 -0.0234375 C8.44796192 -0.01019339 12.90863256 0.11567428 17.8125 2.25 C17.8125 2.91 17.8125 3.57 17.8125 4.25 C19.1325 4.58 20.4525 4.91 21.8125 5.25 C21.8125 6.24 21.8125 7.23 21.8125 8.25 C22.8025 8.58 23.7925 8.91 24.8125 9.25 C26.68581924 16.84350771 27.08049755 24.02060429 27.0078125 31.8203125 C27.0049826 32.98255341 27.00215271 34.14479431 26.99923706 35.34225464 C26.98812659 39.01994537 26.963039 42.69738405 26.9375 46.375 C26.9274584 48.88280896 26.91833462 51.39062177 26.91015625 53.8984375 C26.88821718 60.01572072 26.85375084 66.13281776 26.8125 72.25 C22.5225 72.25 18.2325 72.25 13.8125 72.25 C13.8125 70.93 13.8125 69.61 13.8125 68.25 C10.84184491 68.59227572 10.84184491 68.59227572 7.8125 69.25 C7.4825 69.91 7.1525 70.57 6.8125 71.25 C-2.0934956 74.39329256 -12.35575543 74.63237026 -21.1875 71.25 C-21.1875 70.59 -21.1875 69.93 -21.1875 69.25 C-21.765 69.20875 -22.3425 69.1675 -22.9375 69.125 C-26.49326995 67.74220058 -27.4094481 65.57001392 -29.1875 62.25 C-29.69937963 59.18791344 -29.65847605 56.22149034 -29.5625 53.125 C-29.56121094 52.32707031 -29.55992187 51.52914062 -29.55859375 50.70703125 C-29.45182843 43.60120608 -29.45182843 43.60120608 -27.1875 40.25 C-26.5275 40.25 -25.8675 40.25 -25.1875 40.25 C-25.10371094 39.64542969 -25.01992187 39.04085937 -24.93359375 38.41796875 C-23.7064893 34.85229876 -21.02998317 33.97130147 -17.8203125 32.2890625 C-13.68344231 30.65641047 -9.60296077 30.35139889 -5.1875 30.25 C-5.1875 29.59 -5.1875 28.93 -5.1875 28.25 C0.0925 28.25 5.3725 28.25 10.8125 28.25 C10.503125 26.661875 10.19375 25.07375 9.875 23.4375 C9.70097656 22.54417969 9.52695313 21.65085937 9.34765625 20.73046875 C8.83508847 18.13602829 8.83508847 18.13602829 7.8125 15.25 C5.3375 14.755 5.3375 14.755 2.8125 14.25 C2.8125 13.59 2.8125 12.93 2.8125 12.25 C0.60362243 12.36498267 -1.60460787 12.49243505 -3.8125 12.625 C-5.65714844 12.72941406 -5.65714844 12.72941406 -7.5390625 12.8359375 C-11.04062981 13.23333165 -13.88622034 14.06302304 -17.1875 15.25 C-19.51444964 15.62531446 -21.84726685 15.96917202 -24.1875 16.25 C-25.6658226 13.29335481 -25.24782783 10.50770263 -25.1875 7.25 C-25.8475 7.25 -26.5075 7.25 -27.1875 7.25 C-27.1875 6.59 -27.1875 5.93 -27.1875 5.25 C-25.2075 4.92 -23.2275 4.59 -21.1875 4.25 C-21.1875 3.59 -21.1875 2.93 -21.1875 2.25 C-14.01670766 0.36176628 -7.39815047 -0.05490279 0 0 Z M-11.625 43.75 C-14.02656439 47.59250302 -14.18629868 51.85087934 -13.1875 56.25 C-10.68032345 58.70937022 -9.75158485 59.25 -6.1875 59.25 C-6.1875 59.91 -6.1875 60.57 -6.1875 61.25 C-4.5375 61.25 -2.8875 61.25 -1.1875 61.25 C-1.1875 60.59 -1.1875 59.93 -1.1875 59.25 C0.111875 59.12625 0.111875 59.12625 1.4375 59 C5.76745076 58.03778872 7.73820983 57.54388232 10.8125 54.25 C11.33461828 49.54549678 11.15280832 44.96390039 10.8125 40.25 C-0.90591268 39.7102016 -0.90591268 39.7102016 -11.625 43.75 Z " fill="#E11D20" transform="translate(210.1875,382.75)"/>
<path d="M0 0 C0.99 0 1.98 0 3 0 C6 5.75 6 5.75 6 8 C6.66 8 7.32 8 8 8 C11.38560652 18.36841996 10.92697773 29.57264184 8 40 C7.34 40 6.68 40 6 40 C5.938125 41.010625 5.87625 42.02125 5.8125 43.0625 C5.27870679 46.99026201 3.60431918 49.37602149 1.15625 52.421875 C-0.20838363 54.11581691 -0.20838363 54.11581691 -1 57 C-2.64429829 58.68873879 -4.31384218 60.35305515 -6 62 C-6.721875 62.928125 -7.44375 63.85625 -8.1875 64.8125 C-8.785625 65.534375 -9.38375 66.25625 -10 67 C-10.66 67 -11.32 67 -12 67 C-12.66 68.32 -13.32 69.64 -14 71 C-14.66 71 -15.32 71 -16 71 C-16.268125 71.639375 -16.53625 72.27875 -16.8125 72.9375 C-18 75 -18 75 -21 76 C-22.23726072 77.49773666 -23.47228309 78.9976233 -24.6796875 80.51953125 C-26.49238109 82.55210779 -28.65045106 83.64900936 -31 85 C-32.71108689 86.62102968 -34.37253306 88.29503463 -36 90 C-36.59425781 90.57363281 -37.18851563 91.14726562 -37.80078125 91.73828125 C-38.73470703 92.64126953 -38.73470703 92.64126953 -39.6875 93.5625 C-40.55955078 94.39974609 -40.55955078 94.39974609 -41.44921875 95.25390625 C-43.05965861 97.06717229 -44.01929484 98.79220564 -45 101 C-45.66 101 -46.32 101 -47 101 C-47.144375 101.5775 -47.28875 102.155 -47.4375 102.75 C-47.95833333 104.83333333 -48.47916667 106.91666667 -49 109 C-49.66 109 -50.32 109 -51 109 C-51 114.94 -51 120.88 -51 127 C-50.34 127 -49.68 127 -49 127 C-48.34 129.97 -47.68 132.94 -47 136 C-46.34 136 -45.68 136 -45 136 C-43.5393715 138.64738916 -43 139.89448334 -43 143 C-42.01 143.33 -41.02 143.66 -40 144 C-38.94228261 145.63064764 -37.94726954 147.30280873 -37 149 C-36.443125 149.70125 -35.88625 150.4025 -35.3125 151.125 C-34 153 -34 153 -34 156 C-33.01 156.33 -32.02 156.66 -31 157 C-29.5522078 159.89558441 -29 161.74188938 -29 165 C-28.34 165 -27.68 165 -27 165 C-27 165.66 -27 166.32 -27 167 C-28.65 166.67 -30.3 166.34 -32 166 C-32.33 165.01 -32.66 164.02 -33 163 C-34.6635479 162.32558869 -36.33066942 161.6599679 -38 161 C-40.3125 159 -40.3125 159 -42 157 C-42 156.34 -42 155.68 -42 155 C-42.8353125 154.6596875 -42.8353125 154.6596875 -43.6875 154.3125 C-46.66159588 152.62449964 -48.72008865 150.53323483 -51 148 C-51 147.34 -51 146.68 -51 146 C-51.66 146 -52.32 146 -53 146 C-53.2475 145.401875 -53.495 144.80375 -53.75 144.1875 C-54.87980389 141.86706787 -54.87980389 141.86706787 -57.125 140.4375 C-57.74375 139.963125 -58.3625 139.48875 -59 139 C-59 138.01 -59 137.02 -59 136 C-59.99 135.67 -60.98 135.34 -62 135 C-63.64820195 132.39757586 -64 131.13751221 -64 128 C-64.66 128 -65.32 128 -66 128 C-67.60355101 124.49223216 -68.22036864 121.85645121 -68 118 C-68.66 118 -69.32 118 -70 118 C-70 113.38 -70 108.76 -70 104 C-69.34 104 -68.68 104 -68 104 C-67.855625 103.05125 -67.71125 102.1025 -67.5625 101.125 C-67 98 -67 98 -66 96 C-65.34 96 -64.68 96 -64 96 C-63.731875 95.195625 -63.46375 94.39125 -63.1875 93.5625 C-62.5996875 92.2940625 -62.5996875 92.2940625 -62 91 C-60.515 90.505 -60.515 90.505 -59 90 C-58.835 89.34 -58.67 88.68 -58.5 88 C-58.335 87.34 -58.17 86.68 -58 86 C-56.515 85.505 -56.515 85.505 -55 85 C-54.67 84.01 -54.34 83.02 -54 82 C-53.360625 81.855625 -52.72125 81.71125 -52.0625 81.5625 C-49.79688294 81.19895007 -49.79688294 81.19895007 -48.75 78.9375 C-48.5025 78.298125 -48.255 77.65875 -48 77 C-47.34 77 -46.68 77 -46 77 C-45.505 75.515 -45.505 75.515 -45 74 C-43.6846659 73.29848848 -42.34882408 72.63474075 -41 72 C-39.97803008 71.02246356 -38.98020375 70.0194119 -38 69 C-33.61445783 65.28915663 -33.61445783 65.28915663 -30.875 64 C-28.82191988 63.0784627 -28.82191988 63.0784627 -27.4375 60.875 C-26.963125 60.25625 -26.48875 59.6375 -26 59 C-25.01 59 -24.02 59 -23 59 C-22.67 58.01 -22.34 57.02 -22 56 C-20.546875 54.60546875 -20.546875 54.60546875 -18.75 53.1875 C-15.3527968 50.38898425 -12.74620994 47.43276243 -10 44 C-9.46375 43.525625 -8.9275 43.05125 -8.375 42.5625 C-6.16522967 40.05139736 -5.22698267 37.09667054 -4 34 C-3.34 34 -2.68 34 -2 34 C-1.86722656 33.21753906 -1.73445313 32.43507812 -1.59765625 31.62890625 C-1.42105469 30.61699219 -1.24445313 29.60507813 -1.0625 28.5625 C-0.88847656 27.55316406 -0.71445312 26.54382813 -0.53515625 25.50390625 C0 23 0 23 1 22 C1.09975032 19.48863896 1.13882183 17.01096585 1.125 14.5 C1.12886719 13.79746094 1.13273437 13.09492187 1.13671875 12.37109375 C1.44390931 8.89571192 1.44390931 8.89571192 0 6 C-0.04080783 4.00041636 -0.04254356 1.99954746 0 0 Z " fill="#E11D1F" transform="translate(288,38)"/>
<path d="M0 0 C1.58206057 0.00667536 3.16410534 0.0186375 4.74609375 0.03515625 C5.55240234 0.03966797 6.35871094 0.04417969 7.18945312 0.04882812 C9.18753131 0.06065107 11.18557158 0.07858711 13.18359375 0.09765625 C13.84359375 1.41765625 14.50359375 2.73765625 15.18359375 4.09765625 C10.56359375 4.42765625 5.94359375 4.75765625 1.18359375 5.09765625 C1.18359375 5.75765625 1.18359375 6.41765625 1.18359375 7.09765625 C0.508125 7.29101562 -0.16734375 7.484375 -0.86328125 7.68359375 C-1.7553125 7.94398438 -2.64734375 8.204375 -3.56640625 8.47265625 C-4.448125 8.72789062 -5.32984375 8.983125 -6.23828125 9.24609375 C-8.57721197 10.01864965 -10.65083187 10.93391301 -12.81640625 12.09765625 C-12.81640625 13.08765625 -12.81640625 14.07765625 -12.81640625 15.09765625 C-9.51640625 15.75765625 -6.21640625 16.41765625 -2.81640625 17.09765625 C-2.81640625 17.75765625 -2.81640625 18.41765625 -2.81640625 19.09765625 C3.37189868 19.62277533 9.56086556 20.13137413 15.75390625 20.59765625 C16.83414063 20.68015625 17.914375 20.76265625 19.02734375 20.84765625 C21.25368277 21.01728208 23.48025667 21.18384754 25.70703125 21.34765625 C27.30804688 21.47140625 27.30804688 21.47140625 28.94140625 21.59765625 C29.90191895 21.66984375 30.86243164 21.74203125 31.85205078 21.81640625 C34.18359375 22.09765625 34.18359375 22.09765625 36.18359375 23.09765625 C38.08798058 23.19393943 39.99576918 23.22561749 41.90258789 23.22705078 C43.10045425 23.23020294 44.29832062 23.2333551 45.53248596 23.23660278 C46.83145309 23.23457855 48.13042023 23.23255432 49.46875 23.23046875 C50.80871091 23.23114207 52.14867171 23.23211233 53.4886322 23.23336792 C56.29720218 23.23484306 59.10574036 23.23269588 61.91430664 23.22802734 C65.52156377 23.22232465 69.1287466 23.22561361 72.73600101 23.23159981 C75.50256413 23.23520568 78.2691095 23.23406681 81.03567314 23.23147202 C83.01499861 23.23047692 84.99432475 23.23352313 86.97364807 23.23660278 C88.16836227 23.23345062 89.36307648 23.23029846 90.59399414 23.22705078 C91.65163467 23.22625519 92.70927521 23.22545959 93.79896545 23.22463989 C96.13753322 23.36655196 96.13753322 23.36655196 97.18359375 22.09765625 C100.04201384 21.79378817 102.88398162 21.54888906 105.75 21.34375 C107.05118019 21.24599022 107.05118019 21.24599022 108.37864685 21.14625549 C110.22207634 21.00879506 112.0656763 20.87360513 113.90942383 20.74047852 C116.71025192 20.53775053 119.51039637 20.32709356 122.31054688 20.11523438 C124.10282927 19.98259487 125.89514606 19.85041911 127.6875 19.71875 C128.93328575 19.62502357 128.93328575 19.62502357 130.20423889 19.52940369 C135.21209541 19.1722895 140.16293275 19.04044382 145.18359375 19.09765625 C145.18359375 18.43765625 145.18359375 17.77765625 145.18359375 17.09765625 C150.46359375 16.43765625 155.74359375 15.77765625 161.18359375 15.09765625 C161.18359375 14.43765625 161.18359375 13.77765625 161.18359375 13.09765625 C164.15359375 12.10765625 167.12359375 11.11765625 170.18359375 10.09765625 C169.52359375 7.78765625 168.86359375 5.47765625 168.18359375 3.09765625 C173.93359375 3.84765625 173.93359375 3.84765625 176.18359375 6.09765625 C176.30859375 9.72265625 176.30859375 9.72265625 176.18359375 13.09765625 C175.19359375 13.42765625 174.20359375 13.75765625 173.18359375 14.09765625 C172.85359375 15.08765625 172.52359375 16.07765625 172.18359375 17.09765625 C170.53359375 17.42765625 168.88359375 17.75765625 167.18359375 18.09765625 C167.18359375 18.75765625 167.18359375 19.41765625 167.18359375 20.09765625 C165.76962473 20.60523487 164.35227646 21.1034055 162.93359375 21.59765625 C161.75023437 22.0153125 161.75023437 22.0153125 160.54296875 22.44140625 C158.18359375 23.09765625 158.18359375 23.09765625 154.18359375 23.09765625 C154.18359375 23.75765625 154.18359375 24.41765625 154.18359375 25.09765625 C148.42277534 26.39586885 143.0961972 27.35472597 137.18359375 27.09765625 C137.18359375 27.75765625 137.18359375 28.41765625 137.18359375 29.09765625 C128.4952238 30.30497317 119.98064467 31.47829788 111.18359375 31.09765625 C111.18359375 31.75765625 111.18359375 32.41765625 111.18359375 33.09765625 C101.26990169 33.94278196 91.45307228 34.24700719 81.50390625 34.23046875 C80.0376687 34.23114541 78.57143126 34.23211842 77.10519409 34.23336792 C74.05465613 34.23482884 71.00414776 34.23274335 67.95361328 34.22802734 C64.0925923 34.22234131 60.23164105 34.22561232 56.37062263 34.23159981 C53.34869893 34.23525801 50.32679104 34.23404287 47.30486679 34.23147202 C45.88347235 34.23081666 44.46207636 34.23158091 43.04068375 34.23395157 C35.42942591 34.24386382 27.84704502 34.09677569 20.24951172 33.65185547 C19.55625353 33.61313387 18.86299534 33.57441227 18.14872932 33.53451729 C13.30619142 33.22025392 13.30619142 33.22025392 12.18359375 32.09765625 C9.96963497 31.79737219 7.74739323 31.55777084 5.5234375 31.34375 C4.8589711 31.27857681 4.1945047 31.21340363 3.50990295 31.14625549 C1.3806808 30.93838428 -0.74907745 30.73670751 -2.87890625 30.53515625 C-4.3197009 30.39558887 -5.76045674 30.25562015 -7.20117188 30.11523438 C-10.73914419 29.77137782 -14.27762294 29.43307548 -17.81640625 29.09765625 C-17.81640625 28.43765625 -17.81640625 27.77765625 -17.81640625 27.09765625 C-19.08097656 27.00677734 -19.08097656 27.00677734 -20.37109375 26.9140625 C-22.01464844 26.78837891 -22.01464844 26.78837891 -23.69140625 26.66015625 C-24.78195313 26.57894531 -25.8725 26.49773437 -26.99609375 26.4140625 C-29.81640625 26.09765625 -29.81640625 26.09765625 -31.81640625 25.09765625 C-31.81640625 24.43765625 -31.81640625 23.77765625 -31.81640625 23.09765625 C-32.80640625 22.76765625 -33.79640625 22.43765625 -34.81640625 22.09765625 C-35.25343393 17.63997392 -35.33085738 15.75114823 -32.50390625 12.16015625 C-29.81640625 10.09765625 -29.81640625 10.09765625 -26.81640625 10.09765625 C-26.81640625 9.43765625 -26.81640625 8.77765625 -26.81640625 8.09765625 C-23.44543242 6.59944566 -21.61198506 6.09765625 -17.81640625 6.09765625 C-17.81640625 5.43765625 -17.81640625 4.77765625 -17.81640625 4.09765625 C-16.42615234 3.79021484 -16.42615234 3.79021484 -15.0078125 3.4765625 C-13.81027344 3.20714844 -12.61273438 2.93773437 -11.37890625 2.66015625 C-9.58646484 2.25990234 -9.58646484 2.25990234 -7.7578125 1.8515625 C-0.59304762 0.01517522 -0.59304762 0.01517522 0 0 Z " fill="#096EB7" transform="translate(181.81640625,292.90234375)"/>
<path d="M0 0 C5.94 0 11.88 0 18 0 C20 7 20 7 20 11 C20.66 11 21.32 11 22 11 C22.18175781 11.7734375 22.36351562 12.546875 22.55078125 13.34375 C24.23171905 20.37698576 24.23171905 20.37698576 26.625 27.1875 C28.30402346 31.3630819 28.70034722 35.53620691 29 40 C29.66 40 30.32 40 31 40 C32.17571451 43.67410785 32.07366746 47.16929183 32 51 C32.66 51 33.32 51 34 51 C34.144375 49.783125 34.28875 48.56625 34.4375 47.3125 C34.82780953 44.17329623 35.32351856 41.0924866 36 38 C36.66 38 37.32 38 38 38 C38.185625 36.1128125 38.185625 36.1128125 38.375 34.1875 C39.2615785 26.25824158 40.80946102 18.66688643 43 11 C43.72666447 7.3417919 44.36468754 3.67573635 45 0 C50.61 0 56.22 0 62 0 C62 8.97524752 62 8.97524752 60.625 13.9375 C59.4715591 18.23176588 58.42390507 22.51246111 57.52734375 26.8671875 C56.84214655 29.6384295 55.92442619 32.29909643 55 35 C54.16569583 37.47884603 53.33238236 39.95800953 52.5 42.4375 C52.28730469 43.06720703 52.07460938 43.69691406 51.85546875 44.34570312 C50.45126784 48.53676902 49.18625678 52.74375459 48 57 C47.34 57 46.68 57 46 57 C45.855625 57.928125 45.71125 58.85625 45.5625 59.8125 C45 63 45 63 44 66 C43.34 66 42.68 66 42 66 C41.67 67.65 41.34 69.3 41 71 C34.4 71 27.8 71 21 71 C21 69.68 21 68.36 21 67 C20.34 67 19.68 67 19 67 C18.49453964 64.91798472 17.99583165 62.83432933 17.5 60.75 C17.2215625 59.58984375 16.943125 58.4296875 16.65625 57.234375 C16 54 16 54 16 50 C15.34 50 14.68 50 14 50 C11.71428571 41.57142857 11.71428571 41.57142857 12 37 C11.34 37 10.68 37 10 37 C9.81824219 36.31035156 9.63648438 35.62070312 9.44921875 34.91015625 C8.22190263 30.32188216 6.9639933 25.78986043 5.375 21.3125 C3.95954623 17.20694299 3.39270354 13.3197389 3 9 C2.34 9 1.68 9 1 9 C0.67 6.03 0.34 3.06 0 0 Z " fill="#E11D20" transform="translate(243,384)"/>
<path d="M0 0 C5.94 0 11.88 0 18 0 C18 28.71 18 57.42 18 87 C17.34 87 16.68 87 16 87 C16.05220703 88.051875 16.05220703 88.051875 16.10546875 89.125 C16.35674827 97.93174872 15.20058441 104.42362259 9 111 C5.48275862 114 5.48275862 114 3 114 C3 114.66 3 115.32 3 116 C-0.465 116.99 -0.465 116.99 -4 118 C-4 118.66 -4 119.32 -4 120 C-8 120 -8 120 -9.703125 118.64453125 C-13.91644512 113.65451323 -13.91644512 113.65451323 -14.375 110.0625 C-14.25125 109.381875 -14.1275 108.70125 -14 108 C-13.40574219 107.7421875 -12.81148437 107.484375 -12.19921875 107.21875 C-9.822493 105.90163023 -8.53214427 104.58656066 -6.8125 102.5 C-6.30332031 101.8915625 -5.79414063 101.283125 -5.26953125 100.65625 C-3.92882362 99.01530467 -3.92882362 99.01530467 -3 97 C-2.34 97 -1.68 97 -1 97 C-0.67 64.99 -0.34 32.98 0 0 Z " fill="#E01D20" transform="translate(155,360)"/>
<path d="M0 0 C0.66 0 1.32 0 2 0 C2 1.32 2 2.64 2 4 C0.35546875 5.44921875 0.35546875 5.44921875 -1.8125 6.6875 C-2.52019531 7.10386719 -3.22789062 7.52023438 -3.95703125 7.94921875 C-6 9 -6 9 -9 10 C-9.433125 10.474375 -9.86625 10.94875 -10.3125 11.4375 C-12.61015902 13.56496206 -15.02750796 14.14128008 -18 15 C-18 15.66 -18 16.32 -18 17 C-18.969375 17.268125 -19.93875 17.53625 -20.9375 17.8125 C-21.948125 18.204375 -22.95875 18.59625 -24 19 C-24.495 20.485 -24.495 20.485 -25 22 C-26.39672589 22.96440597 -27.80012334 23.92121183 -29.2421875 24.81640625 C-31.86608987 26.58316718 -34.14808181 28.70230867 -36.484375 30.828125 C-38 32 -38 32 -40 32 C-40.103125 32.5775 -40.20625 33.155 -40.3125 33.75 C-41.10477948 36.34291468 -42.36966495 37.84795774 -44 40 C-47.17135993 46.17580617 -46.0839626 52.36072908 -45 59 C-43.515 59.495 -43.515 59.495 -42 60 C-40.8125 63.0625 -40.8125 63.0625 -40 66 C-39.34 66 -38.68 66 -38 66 C-36.52734375 67.828125 -36.52734375 67.828125 -34.9375 70.25 C-34.41027344 71.03890625 -33.88304687 71.8278125 -33.33984375 72.640625 C-29.57017441 79.27875993 -30.17007971 88.15752933 -31.42578125 95.484375 C-32.89478879 100.13473017 -35.42750252 102.68409713 -39.2421875 105.62890625 C-41.2201448 107.1025276 -41.2201448 107.1025276 -43.5 109.625 C-47.58087236 113.50182874 -51.20026843 116 -57 116 C-57 115.34 -57 114.68 -57 114 C-56.34 114 -55.68 114 -55 114 C-55 113.34 -55 112.68 -55 112 C-54.34 112 -53.68 112 -53 112 C-52.690625 111.05125 -52.38125 110.1025 -52.0625 109.125 C-51 106 -51 106 -50 104 C-49.34 104 -48.68 104 -48 104 C-48 100.04 -48 96.08 -48 92 C-48.66 92 -49.32 92 -50 92 C-51.4606285 89.35261084 -52 88.10551666 -52 85 C-52.639375 84.7525 -53.27875 84.505 -53.9375 84.25 C-56 83 -56 83 -56.5625 80.9375 C-56.706875 80.298125 -56.85125 79.65875 -57 79 C-57.99 78.67 -58.98 78.34 -60 78 C-60.495 75.03 -60.495 75.03 -61 72 C-61.66 72 -62.32 72 -63 72 C-67.37986703 60.68534352 -67.37986703 49.31465648 -63 38 C-62.34 38 -61.68 38 -61 38 C-60.34 36.35 -59.68 34.7 -59 33 C-58.34 33 -57.68 33 -57 33 C-56.773125 32.443125 -56.54625 31.88625 -56.3125 31.3125 C-54.62449964 28.33840412 -52.53323483 26.27991135 -50 24 C-49.34 24 -48.68 24 -48 24 C-48 23.34 -48 22.68 -48 22 C-46.02 21.34 -44.04 20.68 -42 20 C-42 19.34 -42 18.68 -42 18 C-39.35261084 16.5393715 -38.10551666 16 -35 16 C-35 15.34 -35 14.68 -35 14 C-28.375 11 -28.375 11 -25 11 C-25 10.34 -25 9.68 -25 9 C-22.03 8.34 -19.06 7.68 -16 7 C-16 6.34 -16 5.68 -16 5 C-14.08487728 4.49411853 -12.16783078 3.99551609 -10.25 3.5 C-9.18265625 3.2215625 -8.1153125 2.943125 -7.015625 2.65625 C-4 2 -4 2 0 2 C0 1.34 0 0.68 0 0 Z " fill="#E11D20" transform="translate(325,99)"/>
<path d="M0 0 C0 0.66 0 1.32 0 2 C-0.99 2 -1.98 2 -3 2 C-3 2.66 -3 3.32 -3 4 C-4.41538717 4.33872513 -5.83237963 4.67074624 -7.25 5 C-8.03890625 5.185625 -8.8278125 5.37125 -9.640625 5.5625 C-12 6 -12 6 -16 6 C-16 6.66 -16 7.32 -16 8 C-17.60256108 8.50512244 -19.20711792 9.00391627 -20.8125 9.5 C-21.70582031 9.7784375 -22.59914062 10.056875 -23.51953125 10.34375 C-26 11 -26 11 -29 11 C-29.33 12.65 -29.66 14.3 -30 16 C-20.1 16.66 -10.2 17.32 0 18 C0 18.66 0 19.32 0 20 C4.29 20 8.58 20 13 20 C13 19.34 13 18.68 13 18 C13.79994385 17.97494385 14.5998877 17.9498877 15.42407227 17.92407227 C19.13697188 17.80623213 22.84977037 17.68556185 26.5625 17.5625 C27.22893524 17.54043488 27.89537048 17.51836975 28.58200073 17.49563599 C37.03378529 17.21218381 45.45052162 16.8224019 53.8828125 16.1875 C58.92189514 15.88439728 63.95426298 15.91543458 69 16 C69 15.34 69 14.68 69 14 C83.355 12.515 83.355 12.515 98 11 C98 11.99 98 12.98 98 14 C96.35 14.33 94.7 14.66 93 15 C93 15.66 93 16.32 93 17 C83.23117885 22.77749694 73.25915321 24.44153542 62 24 C62 24.66 62 25.32 62 26 C44.98129532 27.67799482 28.10321678 28.31784197 11.00512695 28.26074219 C7.17318085 28.24995971 3.34169827 28.26074656 -0.49023438 28.2734375 C-11.46189142 28.2808537 -22.39350617 28.19562727 -33.32421875 27.171875 C-34.09901077 27.10276917 -34.8738028 27.03366333 -35.67207336 26.96246338 C-42.26541386 26.24011872 -48.14917555 24.16919658 -54 21 C-54 20.34 -54 19.68 -54 19 C-54.66 19 -55.32 19 -56 19 C-56 18.01 -56 17.02 -56 16 C-55.34 16 -54.68 16 -54 16 C-54 15.01 -54 14.02 -54 13 C-52.35 12.67 -50.7 12.34 -49 12 C-49 11.34 -49 10.68 -49 10 C-47.56445975 9.49440092 -46.1264798 8.9957251 -44.6875 8.5 C-43.88699219 8.2215625 -43.08648437 7.943125 -42.26171875 7.65625 C-40 7 -40 7 -37 7 C-37 6.34 -37 5.68 -37 5 C-27.58997722 2.70387244 -27.58997722 2.70387244 -23 3 C-23 2.34 -23 1.68 -23 1 C-15.34916042 -0.24911667 -7.72559014 -0.09053426 0 0 Z " fill="#096EB6" transform="translate(226,204)"/>
<path d="M0 0 C-0.33 1.65 -0.66 3.3 -1 5 C-1.66 5 -2.32 5 -3 5 C-3 5.99 -3 6.98 -3 8 C-0.03821227 9.67110042 2.37071192 10.32682752 5.75 10.625 C6.54921875 10.69976562 7.3484375 10.77453125 8.171875 10.8515625 C8.77515625 10.90054688 9.3784375 10.94953125 10 11 C10 11.66 10 12.32 10 13 C29.84968635 13.1532128 29.84968635 13.1532128 49.6875 12.5625 C50.52313477 12.52326416 51.35876953 12.48402832 52.21972656 12.44360352 C55.91771138 12.56074451 55.91771138 12.56074451 59 11 C63.0589681 10.29457347 67.16014058 9.86523842 71.25 9.375 C72.39597656 9.22804687 73.54195313 9.08109375 74.72265625 8.9296875 C75.82996094 8.795625 76.93726563 8.6615625 78.078125 8.5234375 C79.09293945 8.39888184 80.10775391 8.27432617 81.15332031 8.14599609 C85.66055309 7.91483613 89.07682171 8.82045651 93 11 C93 11.66 93 12.32 93 13 C94.175625 13.2165625 94.175625 13.2165625 95.375 13.4375 C98 14 98 14 100 15 C100 15.99 100 16.98 100 18 C98.10614563 18.50744423 96.20981334 19.00564574 94.3125 19.5 C93.25675781 19.7784375 92.20101562 20.056875 91.11328125 20.34375 C88.28857328 20.9391715 85.87163292 21.12786492 83 21 C83 21.66 83 22.32 83 23 C73.29046527 24.28846906 63.81996112 25.34057669 54 25 C54 25.66 54 26.32 54 27 C48.46411467 27.02464775 42.928261 27.04283496 37.39233398 27.05493164 C35.5075627 27.05997244 33.62279535 27.06680498 31.73803711 27.07543945 C29.03498364 27.08751617 26.33198169 27.09323068 23.62890625 27.09765625 C22.78099014 27.10281754 21.93307404 27.10797882 21.0594635 27.11329651 C19.03928932 27.11349195 17.01922066 27.06206211 15 27 C14.67 26.67 14.34 26.34 14 26 C11.58235747 25.6226119 9.17806712 25.29264839 6.75 25 C2.4669717 24.47184237 -1.77885143 23.91621829 -6 23 C-6 22.34 -6 21.68 -6 21 C-7.5778125 20.87625 -7.5778125 20.87625 -9.1875 20.75 C-13.38519926 19.9242231 -15.201983 19.22195897 -18 16 C-18.3125 12.25 -18.3125 12.25 -18 9 C-17.01 8.67 -16.02 8.34 -15 8 C-14.67 7.01 -14.34 6.02 -14 5 C-12.35 4.67 -10.7 4.34 -9 4 C-9 3.34 -9 2.68 -9 2 C-2.25 0 -2.25 0 0 0 Z " fill="#096EB6" transform="translate(213,238)"/>
<path d="M0 0 C1.65 0.33 3.3 0.66 5 1 C4.01 2.65 3.02 4.3 2 6 C4.97 6.66 7.94 7.32 11 8 C11 8.66 11 9.32 11 10 C26.51 10 42.02 10 58 10 C58 9.34 58 8.68 58 8 C73.86046512 5.95348837 73.86046512 5.95348837 80 8 C80 8.66 80 9.32 80 10 C80.71027344 10.17015625 81.42054688 10.3403125 82.15234375 10.515625 C83.07144531 10.75796875 83.99054688 11.0003125 84.9375 11.25 C85.85402344 11.48203125 86.77054687 11.7140625 87.71484375 11.953125 C90 13 90 13 90.81640625 15.109375 C90.87699219 15.73328125 90.93757813 16.3571875 91 17 C89.35 17.33 87.7 17.66 86 18 C86 18.66 86 19.32 86 20 C79.88595404 21.85743168 74.41481258 23.42765417 68 23 C68 23.66 68 24.32 68 25 C48.39570276 28.13668756 27.55798307 28.72533011 8 25 C8 24.34 8 23.68 8 23 C7.443125 22.97421875 6.88625 22.9484375 6.3125 22.921875 C-0.94418904 22.38252649 -6.00487353 19.99675098 -12 16 C-12.29296875 13.8359375 -12.29296875 13.8359375 -12.1875 11.375 C-12.16042969 10.55773437 -12.13335937 9.74046875 -12.10546875 8.8984375 C-12.07066406 8.27195312 -12.03585938 7.64546875 -12 7 C-11.01 6.67 -10.02 6.34 -9 6 C-9 5.34 -9 4.68 -9 4 C-5.62902617 2.50178941 -3.79557881 2 0 2 C0 1.34 0 0.68 0 0 Z " fill="#096EB6" transform="translate(216,271)"/>
<path d="M0 0 C0 1.98 0 3.96 0 6 C-0.99 6.33 -1.98 6.66 -3 7 C-3.165 7.66 -3.33 8.32 -3.5 9 C-3.665 9.66 -3.83 10.32 -4 11 C-4.99 11.33 -5.98 11.66 -7 12 C-7.66 12.99 -8.32 13.98 -9 15 C-12.35282349 16.67641174 -14.16119422 17 -18 17 C-18 17.66 -18 18.32 -18 19 C-22.1196377 20.29243536 -25.66831683 21.26252625 -30 21 C-30 21.66 -30 22.32 -30 23 C-50.53191489 26.57446809 -50.53191489 26.57446809 -60 26 C-60 26.66 -60 27.32 -60 28 C-70.23794213 28.88491383 -80.39176557 29.14875548 -90.66015625 29.1328125 C-92.22326167 29.13348874 -93.78636698 29.1344614 -95.34947205 29.13571167 C-98.60091163 29.13717319 -101.85232345 29.13508413 -105.10375977 29.13037109 C-109.23411547 29.12466998 -113.36440622 29.12796517 -117.49475956 29.13394356 C-120.71472142 29.13758718 -123.93466831 29.13639336 -127.15463066 29.13381577 C-128.67619268 29.13315722 -130.19775615 29.13393656 -131.71931648 29.13629532 C-140.85465384 29.14735764 -149.89686083 28.86127118 -159 28 C-159 27.34 -159 26.68 -159 26 C-160.010625 26.061875 -161.02125 26.12375 -162.0625 26.1875 C-168.80544776 26.22408019 -175.44330348 24.43427736 -182 23 C-182 22.34 -182 21.68 -182 21 C-182.66 21 -183.32 21 -184 21 C-184 20.34 -184 19.68 -184 19 C-176.6094524 18.85284308 -169.35575165 19.29223008 -162 20 C-162 20.66 -162 21.32 -162 22 C-135.27 22 -108.54 22 -81 22 C-81 21.34 -81 20.68 -81 20 C-80.12674072 19.91435791 -79.25348145 19.82871582 -78.35375977 19.74047852 C-75.12374066 19.42158922 -71.8941483 19.09874986 -68.66479492 18.77319336 C-67.26521427 18.63292648 -65.86547331 18.49424998 -64.46557617 18.35717773 C-62.45710788 18.1602412 -60.44924418 17.95716886 -58.44140625 17.75390625 C-57.23170166 17.63345947 -56.02199707 17.5130127 -54.77563477 17.38891602 C-52.09688517 17.29760059 -52.09688517 17.29760059 -51 16 C-49.64951065 15.70464998 -48.28719604 15.46277687 -46.921875 15.24609375 C-45.67470703 15.04790039 -45.67470703 15.04790039 -44.40234375 14.84570312 C-43.52707031 14.71099609 -42.65179688 14.57628906 -41.75 14.4375 C-40.46029297 14.22963867 -40.46029297 14.22963867 -39.14453125 14.01757812 C-35.06508637 13.37957557 -31.14378229 12.80308473 -27 13 C-27 12.34 -27 11.68 -27 11 C-26.39414062 10.84144531 -25.78828125 10.68289063 -25.1640625 10.51953125 C-17.53058905 8.39390249 -10.77565129 5.28112265 -4 1.1875 C-2 0 -2 0 0 0 Z " fill="#096EB6" transform="translate(371,312)"/>
<path d="M0 0 C0.75990234 -0.01160156 1.51980469 -0.02320313 2.30273438 -0.03515625 C8.90681985 -0.00131807 14.12907001 1.57494069 19.8125 5.0625 C24.89583087 10.28703451 26.34179025 15.01984906 26.625 22.3125 C26.40126844 29.51819916 24.7328784 34.81473295 19.5 39.890625 C18.05285976 41.0917514 16.55919112 42.23621328 15.0625 43.375 C14.5675 44.1175 14.0725 44.86 13.5625 45.625 C11.39427574 48.15459497 9.27766687 48.08920739 6.0625 48.375 C5.7325 49.365 5.4025 50.355 5.0625 51.375 C2.5875 51.87 2.5875 51.87 0.0625 52.375 C0.0625 53.035 0.0625 53.695 0.0625 54.375 C-1.35146902 54.88257862 -2.76881729 55.38074925 -4.1875 55.875 C-4.97640625 56.1534375 -5.7653125 56.431875 -6.578125 56.71875 C-8.9375 57.375 -8.9375 57.375 -12.9375 57.375 C-12.9375 58.035 -12.9375 58.695 -12.9375 59.375 C-18.3825 59.87 -18.3825 59.87 -23.9375 60.375 C-23.6075 59.385 -23.2775 58.395 -22.9375 57.375 C-21.9475 57.375 -20.9575 57.375 -19.9375 57.375 C-19.6075 56.385 -19.2775 55.395 -18.9375 54.375 C-16.4625 53.88 -16.4625 53.88 -13.9375 53.375 C-13.6075 52.385 -13.2775 51.395 -12.9375 50.375 C-11.37890625 49.27734375 -11.37890625 49.27734375 -9.5 48.3125 C-7.19600235 47.11480602 -5.80597183 46.24347183 -3.9375 44.375 C-2.9475 44.375 -1.9575 44.375 -0.9375 44.375 C-0.6075 43.385 -0.2775 42.395 0.0625 41.375 C1.04100195 40.35395449 2.04230427 39.3543879 3.0625 38.375 C3.7225 37.385 4.3825 36.395 5.0625 35.375 C5.7225 35.375 6.3825 35.375 7.0625 35.375 C7.7225 33.065 8.3825 30.755 9.0625 28.375 C9.7225 28.375 10.3825 28.375 11.0625 28.375 C11.0625 24.415 11.0625 20.455 11.0625 16.375 C10.4025 16.375 9.7425 16.375 9.0625 16.375 C8.03638051 14.72428604 7.03941857 13.05529994 6.0625 11.375 C3.88479774 8.72388421 2.39041935 8.03463847 -0.9375 7.375 C-2.30550819 7.29791277 -3.67673592 7.26696391 -5.046875 7.27734375 C-6.17802734 7.28217773 -6.17802734 7.28217773 -7.33203125 7.28710938 C-8.10933594 7.29548828 -8.88664062 7.30386719 -9.6875 7.3125 C-10.48027344 7.31701172 -11.27304687 7.32152344 -12.08984375 7.32617188 C-14.03909508 7.33791435 -15.98830738 7.35584854 -17.9375 7.375 C-16.92117222 4.10016603 -15.91581635 3.36279086 -12.87109375 1.6484375 C-8.59597636 0.0180305 -4.5307904 -0.06882213 0 0 Z " fill="#096EB6" transform="translate(344.9375,201.625)"/>
<path d="M0 0 C3.96 0 7.92 0 12 0 C12 2.64 12 5.28 12 8 C8.37 8 4.74 8 1 8 C0.67 5.36 0.34 2.72 0 0 Z " fill="#E21A1E" transform="translate(365,382)"/>
</svg>
