<?xml version="1.0" encoding="UTF-8"?>
<svg version="1.1" xmlns="http://www.w3.org/2000/svg" width="256" height="256">
<path d="M0 0 C2.12464655 1.24799776 4.24965936 2.49537214 6.375 3.7421875 C7.46554688 4.3825293 8.55609375 5.02287109 9.6796875 5.68261719 C15.10471301 8.85625711 20.55264479 11.9898963 26 15.125 C34.65309626 20.11249892 43.30241712 25.10636563 51.9375 30.125 C53.36545898 30.95161133 53.36545898 30.95161133 54.82226562 31.79492188 C57.55864223 33.38808398 60.28267214 34.99957311 63 36.625 C63.98758301 37.21410156 64.97516602 37.80320313 65.99267578 38.41015625 C66.96575684 39.00699219 67.93883789 39.60382812 68.94140625 40.21875 C69.81611572 40.75177734 70.6908252 41.28480469 71.59204102 41.83398438 C76.57468851 45.54002737 78.85832923 49.5920272 80 55.625 C80.28076725 59.15394823 80.28367641 62.66802222 80.2746582 66.20678711 C80.27976913 67.24834457 80.28488007 68.28990204 80.29014587 69.36302185 C80.30400232 72.79285489 80.30308814 76.22248611 80.30078125 79.65234375 C80.30467013 82.04456151 80.30900519 84.43677857 80.31376648 86.82899475 C80.32122005 91.83808635 80.32094347 96.84710745 80.31567383 101.85620117 C80.30987813 108.2663396 80.3268171 114.67618919 80.3500185 121.08627987 C80.36476907 126.02516865 80.36562576 130.96398807 80.36250877 135.90289497 C80.36302124 138.26592138 80.36824495 140.62895173 80.37832069 142.99195671 C80.39069413 146.29943354 80.38388768 149.60635011 80.37231445 152.91381836 C80.37995819 153.8839386 80.38760193 154.85405884 80.39547729 155.85357666 C80.33333253 163.91245415 78.80788465 170.63364549 73 176.625 C70.58764648 178.31567383 70.58764648 178.31567383 67.87109375 179.83203125 C66.85015625 180.41017578 65.82921875 180.98832031 64.77734375 181.58398438 C63.12412109 182.50147461 63.12412109 182.50147461 61.4375 183.4375 C59.67501444 184.43144831 57.91483524 185.4293965 56.15481567 186.42770386 C54.93674374 187.11851058 53.71804567 187.80821436 52.49874878 188.49685669 C46.10915747 192.110963 39.80380862 195.86362925 33.5 199.625 C22.30091706 206.28798243 11.04601371 212.8435092 -0.26171875 219.3203125 C-3.68220054 221.28077132 -7.08425796 223.26329274 -10.45703125 225.3046875 C-11.41162231 225.87509766 -11.41162231 225.87509766 -12.38549805 226.45703125 C-13.95282684 227.3967686 -15.51209534 228.34991783 -17.0703125 229.3046875 C-23.35357996 232.1363467 -28.27510154 232.10817479 -34.58984375 229.72119141 C-39.26249009 227.59597037 -43.61944997 224.97773797 -48 222.3125 C-48.93328125 221.75626953 -49.8665625 221.20003906 -50.828125 220.62695312 C-53.56767779 218.98360407 -56.2869512 217.31169168 -59 215.625 C-59.88816406 215.08053223 -60.77632813 214.53606445 -61.69140625 213.97509766 C-62.51511719 213.45351074 -63.33882813 212.93192383 -64.1875 212.39453125 C-64.92355469 211.93280518 -65.65960938 211.4710791 -66.41796875 210.99536133 C-66.94003906 210.54314209 -67.46210937 210.09092285 -68 209.625 C-68 208.635 -68 207.645 -68 206.625 C-65.63531059 205.39151061 -63.26193848 204.18899932 -60.875 203 C-60.20984375 202.649375 -59.5446875 202.29875 -58.859375 201.9375 C-55.60019306 200.33986179 -53.7246171 199.51775667 -50.0703125 200.05859375 C-45.02185507 202.63420626 -40.33570478 205.74572773 -35.6328125 208.90039062 C-34.86710937 209.39087891 -34.10140625 209.88136719 -33.3125 210.38671875 C-32.62800781 210.84006592 -31.94351563 211.29341309 -31.23828125 211.76049805 C-28.11119272 212.96828824 -26.21347415 212.48369836 -23 211.625 C-20.25950847 210.38180231 -20.25950847 210.38180231 -17.5703125 208.73828125 C-16.54035156 208.13693359 -15.51039063 207.53558594 -14.44921875 206.91601562 C-13.35222656 206.26310547 -12.25523437 205.61019531 -11.125 204.9375 C-9.96276591 204.25496236 -8.79999622 203.57333598 -7.63671875 202.89257812 C-5.24746496 201.49258818 -2.86124379 200.08763956 -0.47753906 198.67822266 C3.69892249 196.20971027 7.89017282 193.76678759 12.08227539 191.32495117 C14.03029985 190.1899755 15.97740127 189.0534141 17.92358398 187.9152832 C23.25816606 184.79650275 28.6038612 181.69816884 33.96484375 178.625 C34.54835602 178.29008545 35.13186829 177.9551709 35.73306274 177.61010742 C38.54846702 175.99418008 41.36539838 174.38107477 44.18554688 172.7734375 C45.71598633 171.89558594 45.71598633 171.89558594 47.27734375 171 C48.16671631 170.49210938 49.05608887 169.98421875 49.97241211 169.4609375 C50.97151611 168.85507813 51.97062012 168.24921875 53 167.625 C53.7354026 167.25350012 54.47080521 166.88200024 55.22849274 166.49924278 C60.02955961 163.87795345 60.02955961 163.87795345 62.81834507 159.38527298 C63.10916709 156.62413087 63.11433894 153.98849209 63.02172852 151.21337891 C63.02304276 150.17862427 63.02435699 149.14386963 63.02571106 148.07775879 C63.01945475 144.66728093 62.94952854 141.26126397 62.87890625 137.8515625 C62.86211497 135.48361631 62.84930626 133.1156388 62.84031677 130.74765015 C62.80599442 124.52269784 62.71762168 118.29964323 62.61798096 112.07543945 C62.52582335 105.72112704 62.48478948 99.36650718 62.43945312 93.01171875 C62.34300309 80.54864652 62.18944854 68.08698121 62 55.625 C61.08138184 55.33399414 60.16276367 55.04298828 59.21630859 54.74316406 C55.37823852 53.40884184 52.07789038 51.47462376 48.625 49.375 C47.10847527 48.46807686 45.59152326 47.56186795 44.07421875 46.65625 C43.25872559 46.16769531 42.44323242 45.67914063 41.60302734 45.17578125 C36.90121839 42.37462851 32.16755098 39.62809587 27.4375 36.875 C25.38537383 35.67845889 23.33329105 34.48184334 21.28125 33.28515625 C17.07394522 30.83286484 12.86542457 28.3826742 8.65625 25.93359375 C7.62242187 25.33135986 6.58859375 24.72912598 5.5234375 24.10864258 C3.48570484 22.92259834 1.44666547 21.73879595 -0.59375 20.55737305 C-4.97588988 18.01265801 -9.32794863 15.44702553 -13.59375 12.7109375 C-14.27493896 12.27950439 -14.95612793 11.84807129 -15.65795898 11.40356445 C-17.40832985 10.28593886 -19.1443747 9.14595942 -20.87890625 8.00390625 C-24.83394321 6.25656201 -26.80216155 6.73438053 -31 7.625 C-34.03630565 8.9476787 -34.03630565 8.9476787 -36.96484375 10.73046875 C-38.08181641 11.37693359 -39.19878906 12.02339844 -40.34960938 12.68945312 C-41.54568876 13.39693961 -42.74164929 14.10462706 -43.9375 14.8125 C-45.19145206 15.54335711 -46.44601913 16.27315997 -47.70117188 17.00195312 C-50.87808813 18.84991146 -54.04739361 20.71049077 -57.21453857 22.57513428 C-59.86954399 24.13629888 -62.53040263 25.68736825 -65.19140625 27.23828125 C-68.08749592 28.92629884 -70.98308597 30.61509854 -73.87597656 32.30859375 C-83.15368885 37.73582311 -92.48591717 43.06616826 -101.82617188 48.38476562 C-102.94958984 49.02478516 -104.07300781 49.66480469 -105.23046875 50.32421875 C-106.22457764 50.88971436 -107.21868652 51.45520996 -108.24291992 52.0378418 C-110.09305869 53.10290441 -111.92426328 54.20149943 -113.7355957 55.33129883 C-116 56.625 -116 56.625 -118 56.625 C-118 91.605 -118 126.585 -118 162.625 C-116.35 163.285 -114.7 163.945 -113 164.625 C-111.3247433 165.52344956 -109.66622776 166.45363297 -108.0234375 167.41015625 C-107.105625 167.94060547 -106.1878125 168.47105469 -105.2421875 169.01757812 C-104.29601562 169.56865234 -103.34984375 170.11972656 -102.375 170.6875 C-100.48841919 171.78503113 -98.60045807 172.88019401 -96.7109375 173.97265625 C-95.87868652 174.45742432 -95.04643555 174.94219238 -94.18896484 175.44165039 C-90.98925047 177.17140899 -88.21936212 177.84052318 -84.625 178 C-83.49964844 178.07347656 -83.49964844 178.07347656 -82.3515625 178.1484375 C-78.61323966 177.31631913 -77.32144666 175.64373758 -75 172.625 C-74.27709128 169.21345614 -74.36067511 165.86633604 -74.41992188 162.39038086 C-74.41746964 161.36219742 -74.4150174 160.33401398 -74.41249084 159.27467346 C-74.41032031 157.04571352 -74.41959225 154.81671962 -74.4389801 152.58784294 C-74.46898991 149.06165461 -74.46802463 145.53668138 -74.4588623 142.01039124 C-74.44493225 134.52760735 -74.46971044 127.04521854 -74.5 119.5625 C-74.53509371 110.88852705 -74.55442526 102.21514037 -74.53187561 93.54110909 C-74.53125655 90.06410956 -74.5604784 86.58816153 -74.59069824 83.11131287 C-74.58862428 80.98428151 -74.58515979 78.8572509 -74.58007812 76.73022461 C-74.59655899 75.76128265 -74.61303986 74.7923407 -74.63002014 73.79403687 C-74.57082013 67.25715058 -74.57082013 67.25715058 -71.6517334 64.02442932 C-68.50186327 62.36211266 -66.42388565 62.12079162 -62.875 62.1875 C-61.84117188 62.18878906 -60.80734375 62.19007812 -59.7421875 62.19140625 C-56.60282088 62.68780183 -55.90729189 63.16448078 -54 65.625 C-53.62247658 67.63447571 -53.62247658 67.63447571 -53.61904907 69.97387695 C-53.6105896 70.86241867 -53.60213013 71.75096039 -53.59341431 72.66642761 C-53.599487 73.63888931 -53.60555969 74.61135101 -53.61181641 75.61328125 C-53.60655945 76.63968216 -53.60130249 77.66608307 -53.59588623 78.72358704 C-53.58264796 82.1283781 -53.59144325 85.53270387 -53.6015625 88.9375 C-53.59954163 91.30582774 -53.59663008 93.67415486 -53.59286499 96.04248047 C-53.58843542 101.01584779 -53.59488856 105.98905375 -53.60888672 110.96240234 C-53.62590427 117.3163299 -53.61618851 123.66987521 -53.59816933 130.02378845 C-53.58728488 134.92078484 -53.59080047 139.81769196 -53.5985527 144.71469116 C-53.60054572 147.05569504 -53.59812719 149.39670719 -53.59111404 151.73770142 C-53.58343137 155.02587029 -53.5952024 158.31343797 -53.61181641 161.6015625 C-53.60574371 162.55783035 -53.59967102 163.51409821 -53.59341431 164.49934387 C-53.68655363 174.53061585 -55.47403096 183.43546028 -62.63671875 190.7421875 C-68.89095591 195.72490206 -76.33502162 197.38226782 -84.2265625 196.984375 C-99.30050154 195.0311322 -122.94117539 183.73363017 -132.47143555 171.77929688 C-135.11605219 167.31498989 -136.11698992 163.26528502 -136.15390015 158.1491394 C-136.16250061 157.25777786 -136.17110107 156.36641632 -136.17996216 155.44804382 C-136.18422211 154.47760635 -136.18848206 153.50716888 -136.19287109 152.50732422 C-136.20104858 151.47917099 -136.20922607 150.45101776 -136.21765137 149.39170837 C-136.2424709 145.98770729 -136.25901406 142.58374786 -136.2734375 139.1796875 C-136.27876118 138.01535313 -136.28408485 136.85101875 -136.28956985 135.65140152 C-136.31628846 129.48668323 -136.33566619 123.3219851 -136.35009766 117.15722656 C-136.36342852 112.06296806 -136.39126815 106.96911088 -136.43212891 101.875 C-136.48151958 95.71710635 -136.50622694 89.55957634 -136.51332474 83.40149307 C-136.52002557 81.05962276 -136.53521696 78.71776019 -136.55921555 76.37600327 C-136.59096619 73.0899236 -136.59088821 69.80523686 -136.58349609 66.51904297 C-136.59990143 65.56075089 -136.61630676 64.6024588 -136.63320923 63.61512756 C-136.56170846 55.80808382 -134.33396947 48.97368977 -128.73291016 43.34790039 C-127.96769043 42.87344482 -127.2024707 42.39898926 -126.4140625 41.91015625 C-125.10550293 41.08281982 -125.10550293 41.08281982 -123.77050781 40.23876953 C-122.85624023 39.70622559 -121.94197266 39.17368164 -121 38.625 C-120.08831055 38.08858887 -119.17662109 37.55217773 -118.23730469 36.99951172 C-115.30266486 35.31615709 -112.34392164 33.68456566 -109.375 32.0625 C-100.92095167 27.38675181 -92.51882401 22.6412033 -84.1875 17.75 C-75.21657924 12.48994505 -66.2155083 7.28622302 -57.1875 2.125 C-56.6050351 1.79147522 -56.02257019 1.45795044 -55.42245483 1.11431885 C-51.62195517 -1.0612665 -47.81426209 -3.22363957 -44 -5.375 C-42.9682666 -5.95765625 -41.9365332 -6.5403125 -40.87353516 -7.140625 C-39.90077637 -7.68203125 -38.92801758 -8.2234375 -37.92578125 -8.78125 C-37.07024658 -9.25884766 -36.21471191 -9.73644531 -35.33325195 -10.22851562 C-22.90088856 -16.33737599 -10.4243553 -6.16366243 0 0 Z " fill="#82CD28" transform="translate(155,18.375)"/>
<path d="M0 0 C1.66772461 -0.02416992 1.66772461 -0.02416992 3.36914062 -0.04882812 C15.12314334 -0.05570583 26.86112175 2.32601002 35.875 10.3125 C40.82016763 15.5752472 44.38106564 23.14996091 44.625 30.4375 C44.1875 33.3125 44.1875 33.3125 42.1875 35.3125 C39.25390625 35.578125 39.25390625 35.578125 35.75 35.5625 C34.01943359 35.57023437 34.01943359 35.57023437 32.25390625 35.578125 C29.1875 35.3125 29.1875 35.3125 26.1875 33.3125 C25.4140625 31.54296875 25.4140625 31.54296875 24.8125 29.5 C23.38295341 25.41875559 21.63681461 23.03986504 18.1875 20.3125 C12.4382698 17.67820642 6.57160564 17.98105014 0.375 18 C-0.66720703 17.98388672 -1.70941406 17.96777344 -2.78320312 17.95117188 C-9.34361177 17.9470536 -14.74945995 18.77253886 -20.8125 21.3125 C-21.0618357 22.91365576 -21.28628648 24.51870159 -21.5 26.125 C-21.69142578 27.46498047 -21.69142578 27.46498047 -21.88671875 28.83203125 C-22.05104345 31.30606598 -22.05104345 31.30606598 -20.64379883 32.86987305 C-13.99086058 38.11080254 -1.96496559 38.16999295 6.1875 39.3125 C33.77484978 43.17866066 33.77484978 43.17866066 43.0625 52.0625 C47.49004854 58.83404483 49.30751264 65.63776928 47.71875 73.6875 C45.56989699 82.07825938 41.81910923 87.89662308 34.5 92.625 C17.83979713 101.85836545 -3.85272215 101.19646993 -21.8125 96.3125 C-31.22980323 92.75810929 -38.32786606 87.4679225 -42.8125 78.3125 C-44.45735042 73.76998564 -45.37366767 69.13854192 -44.8125 64.3125 C-43.703125 62.6640625 -43.703125 62.6640625 -41.8125 61.3125 C-38.74609375 60.94921875 -38.74609375 60.94921875 -35.25 61 C-34.09371094 61.00386719 -32.93742187 61.00773437 -31.74609375 61.01171875 C-28.8125 61.3125 -28.8125 61.3125 -26.8125 63.3125 C-26.32568262 64.9023949 -25.89472495 66.50977582 -25.5 68.125 C-24.13137191 72.78101908 -22.90383636 75.43985957 -18.8125 78.3125 C-11.70450881 81.21219826 -4.91692812 81.77863163 2.6875 81.6875 C4.13962891 81.70490234 4.13962891 81.70490234 5.62109375 81.72265625 C12.40015625 81.69535801 20.51251046 81.4229005 25.92602539 76.84106445 C27.5559125 74.86608416 27.813779 73.40313775 28.125 70.875 C28.29322266 69.73224609 28.29322266 69.73224609 28.46484375 68.56640625 C28.35050675 66.18806471 28.35050675 66.18806471 26.68359375 64.15625 C23.42994306 61.75292742 20.20452584 61.01661757 16.3125 60.25 C15.53237549 60.085 14.75225098 59.92 13.94848633 59.75 C7.62731984 58.46749851 1.27143078 57.61864358 -5.125 56.8125 C-28.98171916 53.76048524 -28.98171916 53.76048524 -36.8125 45.3125 C-40.86446338 39.1753157 -42.67125097 32.67322263 -41.8125 25.3125 C-40.00194921 17.721275 -37.18385169 11.96055276 -30.8125 7.3125 C-20.78476525 1.17807825 -11.55722199 -0.03315325 0 0 Z " fill="#83CD28" transform="translate(152.8125,79.6875)"/>
<path d="M0 0 C1.03115279 3.26913624 0.9638984 5.86041348 0.5625 9.25 C0.46066406 10.14203125 0.35882813 11.0340625 0.25390625 11.953125 C0.17011719 12.62859375 0.08632812 13.3040625 0 14 C-1.65 14.33 -3.3 14.66 -5 15 C-5.08107583 13.06318839 -5.13922475 11.1254066 -5.1875 9.1875 C-5.22230469 8.10855469 -5.25710937 7.02960938 -5.29296875 5.91796875 C-5 3 -5 3 -3.61328125 1.11328125 C-2 0 -2 0 0 0 Z " fill="#88C63A" transform="translate(86,82)"/>
<path d="M0 0 C1.13732426 3.40401948 0.83989957 5.77456664 0.0625 9.25 C-0.13214844 10.14203125 -0.32679687 11.0340625 -0.52734375 11.953125 C-0.68332031 12.62859375 -0.83929688 13.3040625 -1 14 C-1.66 14 -2.32 14 -3 14 C-3.08114106 12.22992286 -3.13925505 10.45877902 -3.1875 8.6875 C-3.22230469 7.70136719 -3.25710937 6.71523437 -3.29296875 5.69921875 C-3 3 -3 3 -1.48828125 1.14453125 C-0.99714844 0.76683594 -0.50601563 0.38914062 0 0 Z " fill="#8EBF4F" transform="translate(84,82)"/>
<path d="M0 0 C1.95825873 -0.02694851 3.91662226 -0.04637218 5.875 -0.0625 C6.96554688 -0.07410156 8.05609375 -0.08570312 9.1796875 -0.09765625 C12 0 12 0 14 1 C14 1.66 14 2.32 14 3 C13.2575 2.79375 12.515 2.5875 11.75 2.375 C8.67669159 1.95591249 7.57213134 2.38050989 5 4 C3.35 2.68 1.7 1.36 0 0 Z " fill="#8BC341" transform="translate(86,81)"/>
<path d="M0 0 C6.93 0 13.86 0 21 0 C21 0.33 21 0.66 21 1 C14.07 1 7.14 1 0 1 C0 0.67 0 0.34 0 0 Z " fill="#8BC347" transform="translate(145,160)"/>
<path d="M0 0 C3.63 0 7.26 0 11 0 C11 0.33 11 0.66 11 1 C7.37 1 3.74 1 0 1 C0 0.67 0 0.34 0 0 Z " fill="#86CB29" transform="translate(150,180)"/>
<path d="M0 0 C3.63 0 7.26 0 11 0 C11 0.33 11 0.66 11 1 C7.37 1 3.74 1 0 1 C0 0.67 0 0.34 0 0 Z " fill="#88C43E" transform="translate(154,78)"/>
<path d="M0 0 C3.3 0 6.6 0 10 0 C10 0.33 10 0.66 10 1 C6.7 1 3.4 1 0 1 C0 0.67 0 0.34 0 0 Z " fill="#88C440" transform="translate(141,78)"/>
<path d="M0 0 C2.97 0 5.94 0 9 0 C9 0.33 9 0.66 9 1 C6.03 1 3.06 1 0 1 C0 0.67 0 0.34 0 0 Z " fill="#87C930" transform="translate(69,216)"/>
<path d="M0 0 C2.97 0 5.94 0 9 0 C9 0.33 9 0.66 9 1 C6.03 1 3.06 1 0 1 C0 0.67 0 0.34 0 0 Z " fill="#85CB29" transform="translate(66,195)"/>
<path d="M0 0 C2.31 0 4.62 0 7 0 C7 0.33 7 0.66 7 1 C4.69 1 2.38 1 0 1 C0 0.67 0 0.34 0 0 Z " fill="#85CA2D" transform="translate(151,138)"/>
<path d="M0 0 C1.98 0 3.96 0 6 0 C6 0.33 6 0.66 6 1 C4.02 1 2.04 1 0 1 C0 0.67 0 0.34 0 0 Z " fill="#88C447" transform="translate(140,179)"/>
<path d="M0 0 C1.98 0 3.96 0 6 0 C6 0.33 6 0.66 6 1 C4.02 1 2.04 1 0 1 C0 0.67 0 0.34 0 0 Z " fill="#86C63F" transform="translate(143,137)"/>
<path d="M0 0 C0.33 0 0.66 0 1 0 C1 1.98 1 3.96 1 6 C0.67 6 0.34 6 0 6 C0 4.02 0 2.04 0 0 Z " fill="#8FC33A" transform="translate(198,107)"/>
<path d="M0 0 C1.98 0 3.96 0 6 0 C6 0.33 6 0.66 6 1 C4.02 1 2.04 1 0 1 C0 0.67 0 0.34 0 0 Z " fill="#88CA2A" transform="translate(158,98)"/>
<path d="M0 0 C1.65 0 3.3 0 5 0 C5 0.33 5 0.66 5 1 C3.35 1 1.7 1 0 1 C0 0.67 0 0.34 0 0 Z " fill="#86C440" transform="translate(165,179)"/>
<path d="M0 0 C1.65 0 3.3 0 5 0 C5 0.33 5 0.66 5 1 C3.35 1 1.7 1 0 1 C0 0.67 0 0.34 0 0 Z " fill="#86C545" transform="translate(160,139)"/>
<path d="M0 0 C1.65 0 3.3 0 5 0 C5 0.33 5 0.66 5 1 C3.35 1 1.7 1 0 1 C0 0.67 0 0.34 0 0 Z " fill="#85CA31" transform="translate(167,119)"/>
<path d="M0 0 C1.65 0 3.3 0 5 0 C5 0.33 5 0.66 5 1 C3.35 1 1.7 1 0 1 C0 0.67 0 0.34 0 0 Z " fill="#86C346" transform="translate(161,118)"/>
<path d="M0 0 C1.65 0 3.3 0 5 0 C5 0.33 5 0.66 5 1 C3.35 1 1.7 1 0 1 C0 0.67 0 0.34 0 0 Z " fill="#86C82E" transform="translate(154,117)"/>
<path d="M0 0 C1.65 0 3.3 0 5 0 C5 0.33 5 0.66 5 1 C3.35 1 1.7 1 0 1 C0 0.67 0 0.34 0 0 Z " fill="#87C741" transform="translate(147,116)"/>
<path d="M0 0 C0.33 0 0.66 0 1 0 C1 1.65 1 3.3 1 5 C0.67 5 0.34 5 0 5 C0 3.35 0 1.7 0 0 Z " fill="#80C93A" transform="translate(131,106)"/>
<path d="M0 0 C1.65 0 3.3 0 5 0 C5 0.33 5 0.66 5 1 C3.35 1 1.7 1 0 1 C0 0.67 0 0.34 0 0 Z " fill="#8DC82B" transform="translate(142,98)"/>
<path d="M0 0 C4 1 4 1 4 1 Z " fill="#87C63E" transform="translate(126,230)"/>
<path d="M0 0 C1 4 1 4 1 4 Z " fill="#89C639" transform="translate(101,192)"/>
<path d="M0 0 C1 4 1 4 1 4 Z " fill="#82CA2C" transform="translate(79,187)"/>
<path d="M0 0 C4 1 4 1 4 1 Z " fill="#89CA24" transform="translate(135,178)"/>
<path d="M0 0 C4 1 4 1 4 1 Z " fill="#81CA31" transform="translate(168,159)"/>
<path d="M0 0 C1 4 1 4 1 4 Z " fill="#87C640" transform="translate(201,152)"/>
<path d="M0 0 C1 4 1 4 1 4 Z " fill="#83CC2A" transform="translate(107,150)"/>
<path d="M0 0 C1 4 1 4 1 4 Z " fill="#85CB2D" transform="translate(180,147)"/>
<path d="M0 0 C1 4 1 4 1 4 Z " fill="#8DBF53" transform="translate(106,144)"/>
<path d="M0 0 C4 1 4 1 4 1 Z " fill="#87C930" transform="translate(166,140)"/>
<path d="M0 0 C4 1 4 1 4 1 Z " fill="#85C933" transform="translate(137,136)"/>
<path d="M0 0 C1 4 1 4 1 4 Z " fill="#88C829" transform="translate(109,107)"/>
<path d="M0 0 C4 1 4 1 4 1 Z " fill="#82CC2F" transform="translate(136,79)"/>
<path d="M0 0 C3 1 3 1 3 1 Z " fill="#89CA29" transform="translate(131,250)"/>
<path d="M0 0 C3 1 3 1 3 1 Z " fill="#87C82D" transform="translate(123,250)"/>
<path d="M0 0 C3 1 3 1 3 1 Z " fill="#85C645" transform="translate(80,215)"/>
<path d="M0 0 C3 1 3 1 3 1 Z " fill="#8DC246" transform="translate(64,215)"/>
<path d="" fill="#8BC638" transform="translate(0,0)"/>
<path d="" fill="#8BC43F" transform="translate(0,0)"/>
<path d="M0 0 C3 1 3 1 3 1 Z " fill="#89C631" transform="translate(172,178)"/>
<path d="M0 0 C3 1 3 1 3 1 Z " fill="#8BC242" transform="translate(176,177)"/>
<path d="M0 0 C3 1 3 1 3 1 Z " fill="#7FCD2F" transform="translate(140,159)"/>
<path d="M0 0 C3 1 3 1 3 1 Z " fill="#84CA2F" transform="translate(172,158)"/>
<path d="M0 0 C3 1 3 1 3 1 Z " fill="#84CB36" transform="translate(136,158)"/>
<path d="M0 0 C0.66 0.66 1.32 1.32 2 2 C1.34 2 0.68 2 0 2 C0 1.34 0 0.68 0 0 Z " fill="#89CA2C" transform="translate(131,154)"/>
<path d="" fill="#8ACB29" transform="translate(0,0)"/>
<path d="" fill="#88C82D" transform="translate(0,0)"/>
<path d="" fill="#8CBF50" transform="translate(0,0)"/>
<path d="M0 0 C3 1 3 1 3 1 Z " fill="#84CA35" transform="translate(174,142)"/>
<path d="" fill="#87C24A" transform="translate(0,0)"/>
<path d="M0 0 C3 1 3 1 3 1 Z " fill="#86C73D" transform="translate(171,141)"/>
<path d="M0 0 C3 1 3 1 3 1 Z " fill="#89C348" transform="translate(133,135)"/>
<path d="M0 0 C3 1 3 1 3 1 Z " fill="#8AC82D" transform="translate(177,121)"/>
<path d="M0 0 C3 1 3 1 3 1 Z " fill="#8AC249" transform="translate(173,120)"/>
<path d="M0 0 C3 1 3 1 3 1 Z " fill="#8ACB28" transform="translate(142,115)"/>
<path d="" fill="#89C349" transform="translate(0,0)"/>
<path d="M0 0 C3 1 3 1 3 1 Z " fill="#87C449" transform="translate(137,114)"/>
<path d="M0 0 C3 1 3 1 3 1 Z " fill="#8DC53C" transform="translate(134,113)"/>
<path d="M0 0 C0.66 0.66 1.32 1.32 2 2 C1.34 2 0.68 2 0 2 C0 1.34 0 0.68 0 0 Z " fill="#88CB28" transform="translate(132,111)"/>
<path d="" fill="#83CD28" transform="translate(0,0)"/>
<path d="" fill="#8FC146" transform="translate(0,0)"/>
<path d="" fill="#8CC044" transform="translate(0,0)"/>
<path d="M0 0 C3 1 3 1 3 1 Z " fill="#86C936" transform="translate(171,80)"/>
<path d="M0 0 C3 1 3 1 3 1 Z " fill="#85CA29" transform="translate(167,79)"/>
<path d="" fill="#8FC23F" transform="translate(0,0)"/>
<path d="" fill="#8EC33D" transform="translate(0,0)"/>
<path d="M0 0 C3 1 3 1 3 1 Z " fill="#88C82A" transform="translate(131,5)"/>
<path d="M0 0 C3 1 3 1 3 1 Z " fill="#86CA2F" transform="translate(122,5)"/>
<path d="M0 0 C2 1 2 1 2 1 Z " fill="#83C93D" transform="translate(135,249)"/>
<path d="M0 0 C2 1 2 1 2 1 Z " fill="#86C541" transform="translate(120,249)"/>
<path d="M0 0 C2 1 2 1 2 1 Z " fill="#80CF26" transform="translate(137,248)"/>
<path d="M0 0 C2 1 2 1 2 1 Z " fill="#84C93A" transform="translate(118,248)"/>
<path d="M0 0 C2 1 2 1 2 1 Z " fill="#88CB31" transform="translate(142,245)"/>
<path d="M0 0 C2 1 2 1 2 1 Z " fill="#8AC934" transform="translate(113,245)"/>
<path d="M0 0 C2 1 2 1 2 1 Z " fill="#89C73E" transform="translate(144,244)"/>
<path d="M0 0 C2 1 2 1 2 1 Z " fill="#85CB31" transform="translate(111,244)"/>
<path d="M0 0 C2 1 2 1 2 1 Z " fill="#85CD2B" transform="translate(147,242)"/>
<path d="M0 0 C2 1 2 1 2 1 Z " fill="#85C934" transform="translate(108,242)"/>
<path d="M0 0 C2 1 2 1 2 1 Z " fill="#85CA30" transform="translate(149,241)"/>
<path d="M0 0 C2 1 2 1 2 1 Z " fill="#8BC348" transform="translate(106,241)"/>
<path d="M0 0 C2 1 2 1 2 1 Z " fill="#86C73B" transform="translate(103,239)"/>
<path d="M0 0 C2 1 2 1 2 1 Z " fill="#88C92E" transform="translate(154,238)"/>
<path d="M0 0 C2 1 2 1 2 1 Z " fill="#87C543" transform="translate(101,238)"/>
<path d="M0 0 C2 1 2 1 2 1 Z " fill="#87C932" transform="translate(156,237)"/>
<path d="M0 0 C2 1 2 1 2 1 Z " fill="#81CA31" transform="translate(159,235)"/>
<path d="M0 0 C2 1 2 1 2 1 Z " fill="#8BC730" transform="translate(96,235)"/>
<path d="M0 0 C2 1 2 1 2 1 Z " fill="#84CC28" transform="translate(161,234)"/>
<path d="M0 0 C2 1 2 1 2 1 Z " fill="#85CA31" transform="translate(91,232)"/>
<path d="M0 0 C2 1 2 1 2 1 Z " fill="#82CB31" transform="translate(166,231)"/>
<path d="M0 0 C2 1 2 1 2 1 Z " fill="#85CA2E" transform="translate(168,230)"/>
<path d="M0 0 C2 1 2 1 2 1 Z " fill="#89C92C" transform="translate(130,229)"/>
<path d="M0 0 C2 1 2 1 2 1 Z " fill="#8AC53C" transform="translate(124,229)"/>
<path d="M0 0 C2 1 2 1 2 1 Z " fill="#8AC735" transform="translate(132,228)"/>
<path d="M0 0 C2 1 2 1 2 1 Z " fill="#8BC930" transform="translate(173,227)"/>
<path d="M0 0 C2 1 2 1 2 1 Z " fill="#89CA28" transform="translate(121,227)"/>
<path d="M0 0 C2 1 2 1 2 1 Z " fill="#8AC82D" transform="translate(135,226)"/>
<path d="M0 0 C2 1 2 1 2 1 Z " fill="#84CA32" transform="translate(119,226)"/>
<path d="M0 0 C2 1 2 1 2 1 Z " fill="#86C934" transform="translate(137,225)"/>
<path d="M0 0 C2 1 2 1 2 1 Z " fill="#86C935" transform="translate(178,224)"/>
<path d="M0 0 C2 1 2 1 2 1 Z " fill="#82CB33" transform="translate(116,224)"/>
<path d="M0 0 C2 1 2 1 2 1 Z " fill="#85CB2E" transform="translate(180,223)"/>
<path d="M0 0 C2 1 2 1 2 1 Z " fill="#82CC2D" transform="translate(114,223)"/>
<path d="M0 0 C2 1 2 1 2 1 Z " fill="#85C83A" transform="translate(142,222)"/>
<path d="M0 0 C2 1 2 1 2 1 Z " fill="#8AC63A" transform="translate(89,222)"/>
<path d="M0 0 C2 1 2 1 2 1 Z " fill="#88C742" transform="translate(144,221)"/>
<path d="M0 0 C2 1 2 1 2 1 Z " fill="#8AC82F" transform="translate(111,221)"/>
<path d="M0 0 C2 1 2 1 2 1 Z " fill="#85CC25" transform="translate(92,221)"/>
<path d="M0 0 C2 1 2 1 2 1 Z " fill="#85CB2E" transform="translate(185,220)"/>
<path d="M0 0 C2 1 2 1 2 1 Z " fill="#8CC537" transform="translate(109,220)"/>
<path d="M0 0 C2 1 2 1 2 1 Z " fill="#83CB32" transform="translate(94,220)"/>
<path d="M0 0 C2 1 2 1 2 1 Z " fill="#87C73A" transform="translate(96,219)"/>
<path d="M0 0 C2 1 2 1 2 1 Z " fill="#88CA35" transform="translate(149,218)"/>
<path d="M0 0 C2 1 2 1 2 1 Z " fill="#89C638" transform="translate(106,218)"/>
<path d="M0 0 C2 1 2 1 2 1 Z " fill="#8BC539" transform="translate(98,218)"/>
<path d="M0 0 C2 1 2 1 2 1 Z " fill="#83CB34" transform="translate(190,217)"/>
<path d="M0 0 C2 1 2 1 2 1 Z " fill="#89C739" transform="translate(104,217)"/>
<path d="M0 0 C2 1 2 1 2 1 Z " fill="#8EC43A" transform="translate(100,217)"/>
<path d="M0 0 C2 1 2 1 2 1 Z " fill="#84CA35" transform="translate(192,216)"/>
<path d="M0 0 C2 1 2 1 2 1 Z " fill="#8DC43C" transform="translate(102,216)"/>
<path d="M0 0 C2 1 2 1 2 1 Z " fill="#86CA2C" transform="translate(154,215)"/>
<path d="M0 0 C2 1 2 1 2 1 Z " fill="#84C93B" transform="translate(156,214)"/>
<path d="M0 0 C2 1 2 1 2 1 Z " fill="#8AC444" transform="translate(84,214)"/>
<path d="M0 0 C2 1 2 1 2 1 Z " fill="#8BC441" transform="translate(61,214)"/>
<path d="M0 0 C2 1 2 1 2 1 Z " fill="#86C73D" transform="translate(197,213)"/>
<path d="M0 0 C2 1 2 1 2 1 Z " fill="#88C73B" transform="translate(86,213)"/>
<path d="M0 0 C2 1 2 1 2 1 Z " fill="#8BC53D" transform="translate(58,213)"/>
<path d="M0 0 C2 1 2 1 2 1 Z " fill="#85CA2E" transform="translate(88,212)"/>
<path d="M0 0 C2 1 2 1 2 1 Z " fill="#8BC732" transform="translate(56,212)"/>
<path d="M0 0 C2 1 2 1 2 1 Z " fill="#88C92B" transform="translate(161,211)"/>
<path d="M0 0 C2 1 2 1 2 1 Z " fill="#86CA2E" transform="translate(54,211)"/>
<path d="M0 0 C2 1 2 1 2 1 Z " fill="#85CB2D" transform="translate(202,210)"/>
<path d="M0 0 C2 1 2 1 2 1 Z " fill="#8EC438" transform="translate(163,210)"/>
<path d="M0 0 C2 1 2 1 2 1 Z " fill="#86C930" transform="translate(52,210)"/>
<path d="M0 0 C2 1 2 1 2 1 Z " fill="#8AC441" transform="translate(204,209)"/>
<path d="M0 0 C2 1 2 1 2 1 Z " fill="#89C545" transform="translate(50,209)"/>
<path d="M0 0 C2 1 2 1 2 1 Z " fill="#85C734" transform="translate(168,207)"/>
<path d="" fill="#85CC32" transform="translate(0,0)"/>
<path d="M0 0 C2 1 2 1 2 1 Z " fill="#84CC2C" transform="translate(209,206)"/>
<path d="M0 0 C2 1 2 1 2 1 Z " fill="#81D028" transform="translate(45,206)"/>
<path d="M0 0 C2 1 2 1 2 1 Z " fill="#8CC63E" transform="translate(43,205)"/>
<path d="M0 0 C2 1 2 1 2 1 Z " fill="#85C834" transform="translate(173,204)"/>
<path d="M0 0 C2 1 2 1 2 1 Z " fill="#89C830" transform="translate(214,203)"/>
<path d="M0 0 C2 1 2 1 2 1 Z " fill="#84CB2B" transform="translate(175,203)"/>
<path d="M0 0 C2 1 2 1 2 1 Z " fill="#83CD27" transform="translate(216,202)"/>
<path d="M0 0 C2 1 2 1 2 1 Z " fill="#86C837" transform="translate(38,202)"/>
<path d="M0 0 C2 1 2 1 2 1 Z " fill="#85C738" transform="translate(36,201)"/>
<path d="M0 0 C2 1 2 1 2 1 Z " fill="#85C937" transform="translate(180,200)"/>
<path d="M0 0 C2 1 2 1 2 1 Z " fill="#86CA30" transform="translate(221,199)"/>
<path d="M0 0 C2 1 2 1 2 1 Z " fill="#7FCD32" transform="translate(182,199)"/>
<path d="" fill="#83CB33" transform="translate(0,0)"/>
<path d="M0 0 C2 1 2 1 2 1 Z " fill="#86C83A" transform="translate(31,198)"/>
<path d="M0 0 C2 1 2 1 2 1 Z " fill="#85CA31" transform="translate(185,197)"/>
<path d="M0 0 C2 1 2 1 2 1 Z " fill="#8AC637" transform="translate(29,197)"/>
<path d="M0 0 C2 1 2 1 2 1 Z " fill="#8FC53A" transform="translate(226,196)"/>
<path d="M0 0 C2 1 2 1 2 1 Z " fill="#87C930" transform="translate(187,196)"/>
<path d="M0 0 C2 1 2 1 2 1 Z " fill="#8AC737" transform="translate(26,195)"/>
<path d="M0 0 C2 1 2 1 2 1 Z " fill="#88C92D" transform="translate(63,194)"/>
<path d="M0 0 C2 1 2 1 2 1 Z " fill="#91C239" transform="translate(192,193)"/>
<path d="M0 0 C2 1 2 1 2 1 Z " fill="#89CA28" transform="translate(61,193)"/>
<path d="M0 0 C2 1 2 1 2 1 Z " fill="#90C531" transform="translate(194,192)"/>
<path d="" fill="#83CB2E" transform="translate(0,0)"/>
<path d="" fill="#86CB2C" transform="translate(0,0)"/>
<path d="M0 0 C2 1 2 1 2 1 Z " fill="#85CC32" transform="translate(56,190)"/>
<path d="M0 0 C2 1 2 1 2 1 Z " fill="#88C92E" transform="translate(199,189)"/>
<path d="M0 0 C2 1 2 1 2 1 Z " fill="#89C83C" transform="translate(54,189)"/>
<path d="" fill="#84CC2C" transform="translate(0,0)"/>
<path d="" fill="#86C935" transform="translate(0,0)"/>
<path d="M0 0 C2 1 2 1 2 1 Z " fill="#89C63C" transform="translate(204,186)"/>
<path d="M0 0 C2 1 2 1 2 1 Z " fill="#8BC838" transform="translate(49,186)"/>
<path d="" fill="#85CC2A" transform="translate(0,0)"/>
<path d="M0 0 C2 1 2 1 2 1 Z " fill="#85CA32" transform="translate(206,185)"/>
<path d="M0 0 C2 1 2 1 2 1 Z " fill="#86CA34" transform="translate(47,185)"/>
<path d="M0 0 C2 1 2 1 2 1 Z " fill="#87CA2F" transform="translate(44,183)"/>
<path d="M0 0 C2 1 2 1 2 1 Z " fill="#84C939" transform="translate(211,182)"/>
<path d="M0 0 C2 1 2 1 2 1 Z " fill="#86C839" transform="translate(42,182)"/>
<path d="M0 0 C2 1 2 1 2 1 Z " fill="#83CA38" transform="translate(213,181)"/>
<path d="M0 0 C2 1 2 1 2 1 Z " fill="#8AC24C" transform="translate(132,177)"/>
<path d="M0 0 C2 1 2 1 2 1 Z " fill="#89C92C" transform="translate(179,176)"/>
<path d="M0 0 C2 1 2 1 2 1 Z " fill="#8AC34B" transform="translate(129,176)"/>
<path d="M0 0 C2 1 2 1 2 1 Z " fill="#86C838" transform="translate(182,175)"/>
<path d="M0 0 C2 1 2 1 2 1 Z " fill="#87C835" transform="translate(184,174)"/>
<path d="M0 0 C2 1 2 1 2 1 Z " fill="#89C83E" transform="translate(124,174)"/>
<path d="M0 0 C2 1 2 1 2 1 Z " fill="#8AC730" transform="translate(186,173)"/>
<path d="M0 0 C2 1 2 1 2 1 Z " fill="#89C934" transform="translate(118,170)"/>
<path d="" fill="#8DC62F" transform="translate(0,0)"/>
<path d="" fill="#8AC638" transform="translate(0,0)"/>
<path d="" fill="#85C83A" transform="translate(0,0)"/>
<path d="" fill="#7ECC36" transform="translate(0,0)"/>
<path d="" fill="#83CC2E" transform="translate(0,0)"/>
<path d="M0 0 C2 1 2 1 2 1 Z " fill="#80D022" transform="translate(175,157)"/>
<path d="M0 0 C2 1 2 1 2 1 Z " fill="#86CD29" transform="translate(134,157)"/>
<path d="" fill="#83CA37" transform="translate(0,0)"/>
<path d="" fill="#82CB33" transform="translate(0,0)"/>
<path d="" fill="#89CC27" transform="translate(0,0)"/>
<path d="M0 0 C2 1 2 1 2 1 Z " fill="#8EC636" transform="translate(177,143)"/>
<path d="" fill="#87CB30" transform="translate(0,0)"/>
<path d="M0 0 C2 1 2 1 2 1 Z " fill="#8AC546" transform="translate(109,140)"/>
<path d="" fill="#85C742" transform="translate(0,0)"/>
<path d="" fill="#8CC537" transform="translate(0,0)"/>
<path d="M0 0 C2 1 2 1 2 1 Z " fill="#8CC341" transform="translate(130,134)"/>
<path d="M0 0 C2 1 2 1 2 1 Z " fill="#88C833" transform="translate(127,133)"/>
<path d="M0 0 C2 1 2 1 2 1 Z " fill="#85CB30" transform="translate(118,128)"/>
<path d="M0 0 C2 1 2 1 2 1 Z " fill="#88C835" transform="translate(190,126)"/>
<path d="M0 0 C2 1 2 1 2 1 Z " fill="#8DC72D" transform="translate(188,125)"/>
<path d="M0 0 C2 1 2 1 2 1 Z " fill="#88CA28" transform="translate(186,124)"/>
<path d="" fill="#8DC33F" transform="translate(0,0)"/>
<path d="M0 0 C2 1 2 1 2 1 Z " fill="#85CC25" transform="translate(184,123)"/>
<path d="M0 0 C2 1 2 1 2 1 Z " fill="#89C53F" transform="translate(181,122)"/>
<path d="" fill="#87C544" transform="translate(0,0)"/>
<path d="" fill="#8AC443" transform="translate(0,0)"/>
<path d="" fill="#84C531" transform="translate(0,0)"/>
<path d="" fill="#8AC929" transform="translate(0,0)"/>
<path d="" fill="#87CD28" transform="translate(0,0)"/>
<path d="" fill="#8BC82E" transform="translate(0,0)"/>
<path d="M0 0 C2 1 2 1 2 1 Z " fill="#8FC434" transform="translate(171,101)"/>
<path d="M0 0 C2 1 2 1 2 1 Z " fill="#90C432" transform="translate(169,100)"/>
<path d="M0 0 C2 1 2 1 2 1 Z " fill="#8CC92E" transform="translate(135,100)"/>
<path d="" fill="#84CA34" transform="translate(0,0)"/>
<path d="M0 0 C2 1 2 1 2 1 Z " fill="#89C348" transform="translate(166,99)"/>
<path d="M0 0 C2 1 2 1 2 1 Z " fill="#8BC738" transform="translate(138,99)"/>
<path d="" fill="#89C829" transform="translate(0,0)"/>
<path d="" fill="#88C63F" transform="translate(0,0)"/>
<path d="" fill="#84CA33" transform="translate(0,0)"/>
<path d="" fill="#8CC342" transform="translate(0,0)"/>
<path d="" fill="#8DC531" transform="translate(0,0)"/>
<path d="" fill="#8DC43B" transform="translate(0,0)"/>
<path d="M0 0 C2 1 2 1 2 1 Z " fill="#88C930" transform="translate(187,88)"/>
<path d="M0 0 C2 1 2 1 2 1 Z " fill="#8DC247" transform="translate(118,88)"/>
<path d="M0 0 C2 1 2 1 2 1 Z " fill="#87C930" transform="translate(183,85)"/>
<path d="M0 0 C2 1 2 1 2 1 Z " fill="#90C339" transform="translate(180,83)"/>
<path d="M0 0 C2 1 2 1 2 1 Z " fill="#87CA2B" transform="translate(125,83)"/>
<path d="" fill="#8EBD5A" transform="translate(0,0)"/>
<path d="M0 0 C2 1 2 1 2 1 Z " fill="#88C832" transform="translate(127,82)"/>
<path d="M0 0 C2 1 2 1 2 1 Z " fill="#87C932" transform="translate(175,81)"/>
<path d="M0 0 C2 1 2 1 2 1 Z " fill="#84CD27" transform="translate(130,81)"/>
<path d="M0 0 C2 1 2 1 2 1 Z " fill="#8BC643" transform="translate(133,80)"/>
<path d="M0 0 C2 1 2 1 2 1 Z " fill="#93BC52" transform="translate(84,80)"/>
<path d="M0 0 C2 1 2 1 2 1 Z " fill="#87CC32" transform="translate(39,75)"/>
<path d="M0 0 C2 1 2 1 2 1 Z " fill="#83CD27" transform="translate(213,74)"/>
<path d="M0 0 C2 1 2 1 2 1 Z " fill="#83CB32" transform="translate(211,73)"/>
<path d="M0 0 C2 1 2 1 2 1 Z " fill="#87CA2C" transform="translate(44,72)"/>
<path d="M0 0 C2 1 2 1 2 1 Z " fill="#87CA38" transform="translate(208,71)"/>
<path d="M0 0 C2 1 2 1 2 1 Z " fill="#85CB36" transform="translate(46,71)"/>
<path d="M0 0 C2 1 2 1 2 1 Z " fill="#8BC63D" transform="translate(206,70)"/>
<path d="M0 0 C2 1 2 1 2 1 Z " fill="#85CD2C" transform="translate(49,69)"/>
<path d="M0 0 C2 1 2 1 2 1 Z " fill="#88CC25" transform="translate(51,68)"/>
<path d="M0 0 C2 1 2 1 2 1 Z " fill="#8CCA2D" transform="translate(201,67)"/>
<path d="M0 0 C2 1 2 1 2 1 Z " fill="#87CC24" transform="translate(199,66)"/>
<path d="" fill="#83CD2A" transform="translate(0,0)"/>
<path d="M0 0 C2 1 2 1 2 1 Z " fill="#82CA33" transform="translate(56,65)"/>
<path d="M0 0 C2 1 2 1 2 1 Z " fill="#87C832" transform="translate(196,64)"/>
<path d="M0 0 C2 1 2 1 2 1 Z " fill="#83C92F" transform="translate(58,64)"/>
<path d="M0 0 C2 1 2 1 2 1 Z " fill="#8CC23C" transform="translate(194,63)"/>
<path d="M0 0 C2 1 2 1 2 1 Z " fill="#87CA32" transform="translate(63,61)"/>
<path d="M0 0 C2 1 2 1 2 1 Z " fill="#8DC62E" transform="translate(189,60)"/>
<path d="M0 0 C2 1 2 1 2 1 Z " fill="#84CF21" transform="translate(65,60)"/>
<path d="M0 0 C2 1 2 1 2 1 Z " fill="#8BCA2B" transform="translate(226,59)"/>
<path d="M0 0 C2 1 2 1 2 1 Z " fill="#8AC92A" transform="translate(187,59)"/>
<path d="M0 0 C2 1 2 1 2 1 Z " fill="#8AC63A" transform="translate(29,58)"/>
<path d="M0 0 C2 1 2 1 2 1 Z " fill="#87C83A" transform="translate(223,57)"/>
<path d="M0 0 C2 1 2 1 2 1 Z " fill="#86C837" transform="translate(184,57)"/>
<path d="M0 0 C2 1 2 1 2 1 Z " fill="#89C73C" transform="translate(70,57)"/>
<path d="M0 0 C2 1 2 1 2 1 Z " fill="#86CA31" transform="translate(221,56)"/>
<path d="M0 0 C2 1 2 1 2 1 Z " fill="#86C838" transform="translate(182,56)"/>
<path d="M0 0 C2 1 2 1 2 1 Z " fill="#86C930" transform="translate(72,56)"/>
<path d="M0 0 C2 1 2 1 2 1 Z " fill="#85CA32" transform="translate(34,55)"/>
<path d="M0 0 C2 1 2 1 2 1 Z " fill="#85C936" transform="translate(36,54)"/>
<path d="M0 0 C2 1 2 1 2 1 Z " fill="#87C92C" transform="translate(216,53)"/>
<path d="M0 0 C2 1 2 1 2 1 Z " fill="#85C937" transform="translate(177,53)"/>
<path d="M0 0 C2 1 2 1 2 1 Z " fill="#86CA32" transform="translate(77,53)"/>
<path d="M0 0 C2 1 2 1 2 1 Z " fill="#8CC82F" transform="translate(214,52)"/>
<path d="M0 0 C2 1 2 1 2 1 Z " fill="#84CB2E" transform="translate(175,52)"/>
<path d="M0 0 C2 1 2 1 2 1 Z " fill="#84CA31" transform="translate(79,52)"/>
<path d="M0 0 C2 1 2 1 2 1 Z " fill="#8BCB22" transform="translate(41,51)"/>
<path d="M0 0 C2 1 2 1 2 1 Z " fill="#92C536" transform="translate(211,50)"/>
<path d="M0 0 C2 1 2 1 2 1 Z " fill="#85CB2C" transform="translate(82,50)"/>
<path d="M0 0 C2 1 2 1 2 1 Z " fill="#91C14C" transform="translate(209,49)"/>
<path d="M0 0 C2 1 2 1 2 1 Z " fill="#89C73E" transform="translate(170,49)"/>
<path d="M0 0 C2 1 2 1 2 1 Z " fill="#8AC732" transform="translate(84,49)"/>
<path d="M0 0 C2 1 2 1 2 1 Z " fill="#8BC73B" transform="translate(46,48)"/>
<path d="M0 0 C2 1 2 1 2 1 Z " fill="#8BC14D" transform="translate(48,47)"/>
<path d="M0 0 C2 1 2 1 2 1 Z " fill="#85C939" transform="translate(204,46)"/>
<path d="M0 0 C2 1 2 1 2 1 Z " fill="#85C933" transform="translate(165,46)"/>
<path d="M0 0 C2 1 2 1 2 1 Z " fill="#85C83B" transform="translate(89,46)"/>
<path d="M0 0 C2 1 2 1 2 1 Z " fill="#84C938" transform="translate(202,45)"/>
<path d="M0 0 C2 1 2 1 2 1 Z " fill="#8CC72F" transform="translate(163,45)"/>
<path d="M0 0 C2 1 2 1 2 1 Z " fill="#88C738" transform="translate(91,45)"/>
<path d="M0 0 C2 1 2 1 2 1 Z " fill="#84CA37" transform="translate(53,44)"/>
<path d="M0 0 C2 1 2 1 2 1 Z " fill="#84CC29" transform="translate(55,43)"/>
<path d="M0 0 C2 1 2 1 2 1 Z " fill="#89C63D" transform="translate(197,42)"/>
<path d="M0 0 C2 1 2 1 2 1 Z " fill="#84CB29" transform="translate(158,42)"/>
<path d="M0 0 C2 1 2 1 2 1 Z " fill="#86CA2B" transform="translate(96,42)"/>
<path d="M0 0 C2 1 2 1 2 1 Z " fill="#88C835" transform="translate(98,41)"/>
<path d="M0 0 C2 1 2 1 2 1 Z " fill="#89C92C" transform="translate(60,40)"/>
<path d="M0 0 C2 1 2 1 2 1 Z " fill="#85CB30" transform="translate(192,39)"/>
<path d="M0 0 C2 1 2 1 2 1 Z " fill="#87C834" transform="translate(153,39)"/>
<path d="M0 0 C2 1 2 1 2 1 Z " fill="#86CB2A" transform="translate(62,39)"/>
<path d="M0 0 C2 1 2 1 2 1 Z " fill="#85CB2F" transform="translate(190,38)"/>
<path d="M0 0 C2 1 2 1 2 1 Z " fill="#85CC2B" transform="translate(151,38)"/>
<path d="M0 0 C2 1 2 1 2 1 Z " fill="#86CB28" transform="translate(103,38)"/>
<path d="M0 0 C2 1 2 1 2 1 Z " fill="#88C833" transform="translate(105,37)"/>
<path d="M0 0 C2 1 2 1 2 1 Z " fill="#8CC632" transform="translate(67,36)"/>
<path d="M0 0 C2 1 2 1 2 1 Z " fill="#8AC926" transform="translate(185,35)"/>
<path d="M0 0 C2 1 2 1 2 1 Z " fill="#86CA2D" transform="translate(146,35)"/>
<path d="M0 0 C2 1 2 1 2 1 Z " fill="#8CC72F" transform="translate(69,35)"/>
<path d="M0 0 C2 1 2 1 2 1 Z " fill="#8EC33C" transform="translate(183,34)"/>
<path d="M0 0 C2 1 2 1 2 1 Z " fill="#83CB30" transform="translate(110,34)"/>
<path d="M0 0 C2 1 2 1 2 1 Z " fill="#86CA39" transform="translate(112,33)"/>
<path d="M0 0 C2 1 2 1 2 1 Z " fill="#8DC438" transform="translate(180,32)"/>
<path d="M0 0 C2 1 2 1 2 1 Z " fill="#83CE2F" transform="translate(141,32)"/>
<path d="M0 0 C2 1 2 1 2 1 Z " fill="#89C63D" transform="translate(74,32)"/>
<path d="M0 0 C2 1 2 1 2 1 Z " fill="#89C832" transform="translate(178,31)"/>
<path d="M0 0 C2 1 2 1 2 1 Z " fill="#85C934" transform="translate(139,31)"/>
<path d="M0 0 C2 1 2 1 2 1 Z " fill="#86C735" transform="translate(76,31)"/>
<path d="M0 0 C2 1 2 1 2 1 Z " fill="#8EC630" transform="translate(117,30)"/>
<path d="M0 0 C2 1 2 1 2 1 Z " fill="#90C435" transform="translate(119,29)"/>
<path d="M0 0 C2 1 2 1 2 1 Z " fill="#8DC72C" transform="translate(173,28)"/>
<path d="M0 0 C2 1 2 1 2 1 Z " fill="#87C92F" transform="translate(134,28)"/>
<path d="M0 0 C2 1 2 1 2 1 Z " fill="#87C831" transform="translate(81,28)"/>
<path d="M0 0 C2 1 2 1 2 1 Z " fill="#8DC924" transform="translate(171,27)"/>
<path d="M0 0 C2 1 2 1 2 1 Z " fill="#8AC837" transform="translate(122,27)"/>
<path d="M0 0 C2 1 2 1 2 1 Z " fill="#84CB28" transform="translate(83,27)"/>
<path d="M0 0 C2 1 2 1 2 1 Z " fill="#86CA2D" transform="translate(124,26)"/>
<path d="M0 0 C2 1 2 1 2 1 Z " fill="#87C837" transform="translate(129,25)"/>
<path d="M0 0 C2 1 2 1 2 1 Z " fill="#83CC2E" transform="translate(126,25)"/>
<path d="M0 0 C2 1 2 1 2 1 Z " fill="#86C838" transform="translate(166,24)"/>
<path d="M0 0 C2 1 2 1 2 1 Z " fill="#86C934" transform="translate(88,24)"/>
<path d="M0 0 C2 1 2 1 2 1 Z " fill="#86CC24" transform="translate(161,21)"/>
<path d="M0 0 C2 1 2 1 2 1 Z " fill="#83CB32" transform="translate(93,21)"/>
<path d="M0 0 C2 1 2 1 2 1 Z " fill="#86C935" transform="translate(159,20)"/>
<path d="M0 0 C2 1 2 1 2 1 Z " fill="#82CC34" transform="translate(95,20)"/>
<path d="M0 0 C2 1 2 1 2 1 Z " fill="#93BC53" transform="translate(154,17)"/>
<path d="M0 0 C2 1 2 1 2 1 Z " fill="#92C33C" transform="translate(100,17)"/>
<path d="M0 0 C2 1 2 1 2 1 Z " fill="#8FC04C" transform="translate(152,16)"/>
<path d="M0 0 C2 1 2 1 2 1 Z " fill="#91BF55" transform="translate(102,16)"/>
<path d="M0 0 C2 1 2 1 2 1 Z " fill="#8BC53C" transform="translate(149,14)"/>
<path d="M0 0 C2 1 2 1 2 1 Z " fill="#87CB25" transform="translate(147,13)"/>
<path d="M0 0 C2 1 2 1 2 1 Z " fill="#89C825" transform="translate(107,13)"/>
<path d="M0 0 C2 1 2 1 2 1 Z " fill="#85CA2D" transform="translate(109,12)"/>
<path d="M0 0 C2 1 2 1 2 1 Z " fill="#85C839" transform="translate(142,10)"/>
<path d="M0 0 C2 1 2 1 2 1 Z " fill="#83CA33" transform="translate(140,9)"/>
<path d="M0 0 C2 1 2 1 2 1 Z " fill="#8CC737" transform="translate(114,9)"/>
<path d="M0 0 C2 1 2 1 2 1 Z " fill="#8ACA2D" transform="translate(116,8)"/>
<path d="M0 0 C2 1 2 1 2 1 Z " fill="#85C639" transform="translate(135,6)"/>
<path d="M0 0 C2 1 2 1 2 1 Z " fill="#85C938" transform="translate(120,6)"/>
<path d="" fill="#85CD2C" transform="translate(0,0)"/>
<path d="" fill="#87C931" transform="translate(0,0)"/>
<path d="" fill="#85CC32" transform="translate(0,0)"/>
<path d="" fill="#8DC738" transform="translate(0,0)"/>
<path d="" fill="#87C840" transform="translate(0,0)"/>
<path d="" fill="#83CC31" transform="translate(0,0)"/>
<path d="" fill="#87CB34" transform="translate(0,0)"/>
<path d="" fill="#8AC643" transform="translate(0,0)"/>
<path d="" fill="#86CA31" transform="translate(0,0)"/>
<path d="" fill="#89C447" transform="translate(0,0)"/>
<path d="" fill="#84CD27" transform="translate(0,0)"/>
<path d="" fill="#8EC535" transform="translate(0,0)"/>
<path d="" fill="#86CC27" transform="translate(0,0)"/>
<path d="" fill="#84CC29" transform="translate(0,0)"/>
<path d="" fill="#84C93B" transform="translate(0,0)"/>
<path d="" fill="#83CB33" transform="translate(0,0)"/>
<path d="" fill="#86CB2D" transform="translate(0,0)"/>
<path d="" fill="#87C73D" transform="translate(0,0)"/>
<path d="" fill="#86CA33" transform="translate(0,0)"/>
<path d="" fill="#89C737" transform="translate(0,0)"/>
<path d="" fill="#8ACC26" transform="translate(0,0)"/>
<path d="" fill="#89C92D" transform="translate(0,0)"/>
<path d="" fill="#8EC62F" transform="translate(0,0)"/>
<path d="" fill="#8EC537" transform="translate(0,0)"/>
<path d="" fill="#8CC930" transform="translate(0,0)"/>
<path d="" fill="#93BF49" transform="translate(0,0)"/>
<path d="" fill="#8BC53D" transform="translate(0,0)"/>
<path d="" fill="#83CC31" transform="translate(0,0)"/>
<path d="" fill="#87C73D" transform="translate(0,0)"/>
<path d="" fill="#86CC29" transform="translate(0,0)"/>
<path d="" fill="#89C737" transform="translate(0,0)"/>
<path d="" fill="#84CC2B" transform="translate(0,0)"/>
<path d="" fill="#86CB2D" transform="translate(0,0)"/>
<path d="" fill="#87C63F" transform="translate(0,0)"/>
<path d="" fill="#8AC83A" transform="translate(0,0)"/>
<path d="" fill="#84CC2D" transform="translate(0,0)"/>
<path d="" fill="#8AC932" transform="translate(0,0)"/>
<path d="" fill="#8CC635" transform="translate(0,0)"/>
<path d="" fill="#84C939" transform="translate(0,0)"/>
<path d="" fill="#86CA31" transform="translate(0,0)"/>
<path d="" fill="#84CC29" transform="translate(0,0)"/>
<path d="" fill="#86CA33" transform="translate(0,0)"/>
<path d="" fill="#89C63F" transform="translate(0,0)"/>
<path d="" fill="#83C932" transform="translate(0,0)"/>
<path d="" fill="#83CB35" transform="translate(0,0)"/>
<path d="" fill="#83CC2D" transform="translate(0,0)"/>
<path d="" fill="#81CE2B" transform="translate(0,0)"/>
<path d="" fill="#87CA2F" transform="translate(0,0)"/>
<path d="" fill="#87C835" transform="translate(0,0)"/>
<path d="" fill="#93BF47" transform="translate(0,0)"/>
<path d="" fill="#8CC637" transform="translate(0,0)"/>
<path d="" fill="#89C83E" transform="translate(0,0)"/>
<path d="" fill="#8EC149" transform="translate(0,0)"/>
<path d="" fill="#88C730" transform="translate(0,0)"/>
<path d="" fill="#8DC648" transform="translate(0,0)"/>
<path d="" fill="#83CC31" transform="translate(0,0)"/>
<path d="" fill="#84CB2F" transform="translate(0,0)"/>
<path d="" fill="#89C632" transform="translate(0,0)"/>
<path d="" fill="#87CA2B" transform="translate(0,0)"/>
<path d="" fill="#88C82E" transform="translate(0,0)"/>
<path d="" fill="#87C839" transform="translate(0,0)"/>
<path d="" fill="#8CC635" transform="translate(0,0)"/>
<path d="" fill="#89C63F" transform="translate(0,0)"/>
<path d="" fill="#8FC53A" transform="translate(0,0)"/>
<path d="" fill="#8BC733" transform="translate(0,0)"/>
<path d="" fill="#86C937" transform="translate(0,0)"/>
<path d="" fill="#87C933" transform="translate(0,0)"/>
<path d="" fill="#87CA2F" transform="translate(0,0)"/>
<path d="" fill="#89C63D" transform="translate(0,0)"/>
<path d="" fill="#8BC82D" transform="translate(0,0)"/>
<path d="" fill="#86C935" transform="translate(0,0)"/>
<path d="" fill="#85CA28" transform="translate(0,0)"/>
<path d="" fill="#86C937" transform="translate(0,0)"/>
<path d="" fill="#83CC2F" transform="translate(0,0)"/>
<path d="" fill="#81CC33" transform="translate(0,0)"/>
<path d="" fill="#89C83E" transform="translate(0,0)"/>
<path d="" fill="#8BC82D" transform="translate(0,0)"/>
<path d="" fill="#8FC638" transform="translate(0,0)"/>
<path d="" fill="#87CB29" transform="translate(0,0)"/>
<path d="" fill="#8CC836" transform="translate(0,0)"/>
<path d="" fill="#8BC735" transform="translate(0,0)"/>
<path d="" fill="#87CB29" transform="translate(0,0)"/>
<path d="" fill="#87C931" transform="translate(0,0)"/>
<path d="" fill="#89C938" transform="translate(0,0)"/>
<path d="" fill="#87CB27" transform="translate(0,0)"/>
<path d="" fill="#84CC2B" transform="translate(0,0)"/>
<path d="" fill="#86CA33" transform="translate(0,0)"/>
<path d="" fill="#8CC635" transform="translate(0,0)"/>
<path d="" fill="#84CC2B" transform="translate(0,0)"/>
<path d="" fill="#8CC72F" transform="translate(0,0)"/>
<path d="" fill="#87CC2C" transform="translate(0,0)"/>
<path d="" fill="#86CA31" transform="translate(0,0)"/>
<path d="" fill="#87CA2D" transform="translate(0,0)"/>
<path d="" fill="#87C837" transform="translate(0,0)"/>
<path d="" fill="#84CD27" transform="translate(0,0)"/>
<path d="" fill="#8BC637" transform="translate(0,0)"/>
<path d="" fill="#8CC838" transform="translate(0,0)"/>
<path d="" fill="#8CC731" transform="translate(0,0)"/>
<path d="" fill="#8CC930" transform="translate(0,0)"/>
<path d="" fill="#84CB31" transform="translate(0,0)"/>
<path d="" fill="#84CB31" transform="translate(0,0)"/>
<path d="" fill="#86CA33" transform="translate(0,0)"/>
<path d="" fill="#88C638" transform="translate(0,0)"/>
<path d="" fill="#84CA37" transform="translate(0,0)"/>
<path d="" fill="#89C831" transform="translate(0,0)"/>
<path d="" fill="#8AC83A" transform="translate(0,0)"/>
<path d="" fill="#8CC836" transform="translate(0,0)"/>
<path d="" fill="#8CC73A" transform="translate(0,0)"/>
<path d="" fill="#8ACC26" transform="translate(0,0)"/>
<path d="" fill="#8DC92C" transform="translate(0,0)"/>
<path d="" fill="#85CD2E" transform="translate(0,0)"/>
<path d="" fill="#8AC932" transform="translate(0,0)"/>
<path d="" fill="#84CC34" transform="translate(0,0)"/>
<path d="" fill="#84CA35" transform="translate(0,0)"/>
<path d="" fill="#89C833" transform="translate(0,0)"/>
<path d="" fill="#84CA35" transform="translate(0,0)"/>
<path d="" fill="#89C833" transform="translate(0,0)"/>
<path d="" fill="#86CA31" transform="translate(0,0)"/>
<path d="" fill="#8BC82F" transform="translate(0,0)"/>
<path d="" fill="#89C831" transform="translate(0,0)"/>
<path d="" fill="#8BC82F" transform="translate(0,0)"/>
<path d="" fill="#8BC735" transform="translate(0,0)"/>
<path d="" fill="#8EC72D" transform="translate(0,0)"/>
<path d="" fill="#84CB2F" transform="translate(0,0)"/>
<path d="" fill="#83CB33" transform="translate(0,0)"/>
<path d="" fill="#7ECE33" transform="translate(0,0)"/>
<path d="" fill="#84CE2A" transform="translate(0,0)"/>
<path d="" fill="#8ACB2C" transform="translate(0,0)"/>
<path d="" fill="#89CB2E" transform="translate(0,0)"/>
<path d="" fill="#86CB2D" transform="translate(0,0)"/>
<path d="" fill="#8CC056" transform="translate(0,0)"/>
<path d="" fill="#8EC341" transform="translate(0,0)"/>
<path d="" fill="#84CC38" transform="translate(0,0)"/>
<path d="" fill="#91C141" transform="translate(0,0)"/>
<path d="" fill="#89C63F" transform="translate(0,0)"/>
<path d="" fill="#8EC631" transform="translate(0,0)"/>
<path d="" fill="#86CA33" transform="translate(0,0)"/>
<path d="" fill="#8CC72F" transform="translate(0,0)"/>
<path d="" fill="#86C937" transform="translate(0,0)"/>
<path d="" fill="#89C92D" transform="translate(0,0)"/>
<path d="" fill="#84CA33" transform="translate(0,0)"/>
<path d="" fill="#86CB2B" transform="translate(0,0)"/>
<path d="" fill="#84CB31" transform="translate(0,0)"/>
<path d="" fill="#83CC2F" transform="translate(0,0)"/>
<path d="" fill="#84CB31" transform="translate(0,0)"/>
<path d="" fill="#87CA2D" transform="translate(0,0)"/>
<path d="" fill="#8BC82F" transform="translate(0,0)"/>
<path d="" fill="#8FC33B" transform="translate(0,0)"/>
<path d="" fill="#89C543" transform="translate(0,0)"/>
<path d="" fill="#8EC149" transform="translate(0,0)"/>
<path d="" fill="#8EC243" transform="translate(0,0)"/>
<path d="" fill="#89CB25" transform="translate(0,0)"/>
<path d="" fill="#8FC23F" transform="translate(0,0)"/>
<path d="" fill="#84CC2D" transform="translate(0,0)"/>
<path d="" fill="#87CB27" transform="translate(0,0)"/>
<path d="" fill="#8CC635" transform="translate(0,0)"/>
<path d="" fill="#89CC2A" transform="translate(0,0)"/>
<path d="" fill="#8CCA2C" transform="translate(0,0)"/>
<path d="" fill="#83CD2B" transform="translate(0,0)"/>
<path d="" fill="#87C835" transform="translate(0,0)"/>
<path d="" fill="#8EC43D" transform="translate(0,0)"/>
<path d="" fill="#89C831" transform="translate(0,0)"/>
<path d="" fill="#8EC439" transform="translate(0,0)"/>
<path d="" fill="#8EC537" transform="translate(0,0)"/>
<path d="" fill="#8FC243" transform="translate(0,0)"/>
<path d="" fill="#84CE23" transform="translate(0,0)"/>
<path d="" fill="#8CC441" transform="translate(0,0)"/>
<path d="" fill="#84CC2D" transform="translate(0,0)"/>
<path d="" fill="#8BC53F" transform="translate(0,0)"/>
<path d="" fill="#87C839" transform="translate(0,0)"/>
<path d="" fill="#8CC637" transform="translate(0,0)"/>
<path d="" fill="#84CC2B" transform="translate(0,0)"/>
<path d="" fill="#96B76A" transform="translate(0,0)"/>
<path d="" fill="#8EC537" transform="translate(0,0)"/>
<path d="" fill="#8EBE58" transform="translate(0,0)"/>
<path d="" fill="#94BC51" transform="translate(0,0)"/>
<path d="" fill="#8EBD5E" transform="translate(0,0)"/>
<path d="" fill="#85CD2C" transform="translate(0,0)"/>
<path d="" fill="#84CC2B" transform="translate(0,0)"/>
<path d="" fill="#86CA33" transform="translate(0,0)"/>
<path d="" fill="#89C835" transform="translate(0,0)"/>
<path d="" fill="#84CA33" transform="translate(0,0)"/>
<path d="" fill="#85CC30" transform="translate(0,0)"/>
<path d="" fill="#8FC838" transform="translate(0,0)"/>
<path d="" fill="#8BC639" transform="translate(0,0)"/>
<path d="" fill="#8CC539" transform="translate(0,0)"/>
<path d="" fill="#90C932" transform="translate(0,0)"/>
<path d="" fill="#89CC28" transform="translate(0,0)"/>
<path d="" fill="#86C937" transform="translate(0,0)"/>
<path d="" fill="#87C73D" transform="translate(0,0)"/>
<path d="" fill="#89CA29" transform="translate(0,0)"/>
<path d="" fill="#86CB2D" transform="translate(0,0)"/>
<path d="" fill="#87C547" transform="translate(0,0)"/>
<path d="" fill="#83CD2B" transform="translate(0,0)"/>
<path d="" fill="#8AC549" transform="translate(0,0)"/>
<path d="" fill="#86CA31" transform="translate(0,0)"/>
<path d="" fill="#83CC2D" transform="translate(0,0)"/>
<path d="" fill="#8CC643" transform="translate(0,0)"/>
<path d="" fill="#8FC533" transform="translate(0,0)"/>
<path d="" fill="#84CC29" transform="translate(0,0)"/>
<path d="" fill="#84CC2D" transform="translate(0,0)"/>
<path d="" fill="#8DC92A" transform="translate(0,0)"/>
<path d="" fill="#8FC147" transform="translate(0,0)"/>
<path d="" fill="#87CA2D" transform="translate(0,0)"/>
<path d="" fill="#8DCB22" transform="translate(0,0)"/>
<path d="" fill="#8BC63B" transform="translate(0,0)"/>
<path d="" fill="#81D028" transform="translate(0,0)"/>
<path d="" fill="#8CC539" transform="translate(0,0)"/>
<path d="" fill="#8AC934" transform="translate(0,0)"/>
<path d="" fill="#89C92F" transform="translate(0,0)"/>
<path d="" fill="#85CA3A" transform="translate(0,0)"/>
<path d="" fill="#87C73D" transform="translate(0,0)"/>
<path d="" fill="#84C939" transform="translate(0,0)"/>
<path d="" fill="#87CA2B" transform="translate(0,0)"/>
<path d="" fill="#87CA2F" transform="translate(0,0)"/>
<path d="" fill="#89CA29" transform="translate(0,0)"/>
<path d="" fill="#87CA2B" transform="translate(0,0)"/>
<path d="" fill="#89C835" transform="translate(0,0)"/>
<path d="" fill="#89C92F" transform="translate(0,0)"/>
<path d="" fill="#83CB35" transform="translate(0,0)"/>
<path d="" fill="#83CD29" transform="translate(0,0)"/>
<path d="" fill="#91C634" transform="translate(0,0)"/>
<path d="" fill="#83CE27" transform="translate(0,0)"/>
<path d="" fill="#84CA35" transform="translate(0,0)"/>
<path d="" fill="#87C931" transform="translate(0,0)"/>
<path d="" fill="#91C634" transform="translate(0,0)"/>
<path d="" fill="#8DC63A" transform="translate(0,0)"/>
<path d="" fill="#8CC056" transform="translate(0,0)"/>
<path d="" fill="#87CA38" transform="translate(0,0)"/>
<path d="" fill="#89CA36" transform="translate(0,0)"/>
<path d="" fill="#81CD2F" transform="translate(0,0)"/>
<path d="" fill="#83C838" transform="translate(0,0)"/>
<path d="" fill="#84C939" transform="translate(0,0)"/>
<path d="" fill="#8EBF53" transform="translate(0,0)"/>
<path d="" fill="#87C545" transform="translate(0,0)"/>
<path d="" fill="#83CB33" transform="translate(0,0)"/>
<path d="" fill="#8EC631" transform="translate(0,0)"/>
<path d="" fill="#84CC29" transform="translate(0,0)"/>
<path d="" fill="#86C937" transform="translate(0,0)"/>
<path d="" fill="#89C833" transform="translate(0,0)"/>
<path d="" fill="#84CA33" transform="translate(0,0)"/>
<path d="" fill="#87C837" transform="translate(0,0)"/>
<path d="" fill="#8BC63B" transform="translate(0,0)"/>
<path d="" fill="#88C82A" transform="translate(0,0)"/>
<path d="" fill="#8BC733" transform="translate(0,0)"/>
<path d="" fill="#86CA2F" transform="translate(0,0)"/>
<path d="" fill="#8BC82F" transform="translate(0,0)"/>
<path d="" fill="#8CC82B" transform="translate(0,0)"/>
<path d="" fill="#87C835" transform="translate(0,0)"/>
<path d="" fill="#89C833" transform="translate(0,0)"/>
<path d="" fill="#89C92B" transform="translate(0,0)"/>
<path d="" fill="#83CC31" transform="translate(0,0)"/>
<path d="" fill="#8BC929" transform="translate(0,0)"/>
<path d="" fill="#87CC23" transform="translate(0,0)"/>
<path d="" fill="#86CB2B" transform="translate(0,0)"/>
<path d="" fill="#87C835" transform="translate(0,0)"/>
<path d="" fill="#86C83B" transform="translate(0,0)"/>
<path d="" fill="#86CC29" transform="translate(0,0)"/>
<path d="" fill="#8CC53B" transform="translate(0,0)"/>
<path d="" fill="#91C141" transform="translate(0,0)"/>
<path d="" fill="#84C93B" transform="translate(0,0)"/>
<path d="" fill="#89C835" transform="translate(0,0)"/>
<path d="" fill="#88CD32" transform="translate(0,0)"/>
<path d="" fill="#8CC72F" transform="translate(0,0)"/>
<path d="" fill="#87C73B" transform="translate(0,0)"/>
<path d="" fill="#86C839" transform="translate(0,0)"/>
<path d="" fill="#86C638" transform="translate(0,0)"/>
<path d="" fill="#87C931" transform="translate(0,0)"/>
<path d="" fill="#87C73D" transform="translate(0,0)"/>
<path d="" fill="#86C832" transform="translate(0,0)"/>
<path d="" fill="#8EC537" transform="translate(0,0)"/>
<path d="" fill="#87CA2F" transform="translate(0,0)"/>
<path d="" fill="#89C92F" transform="translate(0,0)"/>
<path d="" fill="#8CC82B" transform="translate(0,0)"/>
<path d="" fill="#84CA35" transform="translate(0,0)"/>
<path d="" fill="#84C939" transform="translate(0,0)"/>
<path d="" fill="#83C838" transform="translate(0,0)"/>
<path d="" fill="#89C833" transform="translate(0,0)"/>
<path d="" fill="#8BC735" transform="translate(0,0)"/>
<path d="" fill="#89CB25" transform="translate(0,0)"/>
<path d="" fill="#87C931" transform="translate(0,0)"/>
<path d="" fill="#89C833" transform="translate(0,0)"/>
<path d="" fill="#89CB30" transform="translate(0,0)"/>
<path d="" fill="#8FC439" transform="translate(0,0)"/>
<path d="" fill="#8FC732" transform="translate(0,0)"/>
<path d="" fill="#8EC14B" transform="translate(0,0)"/>
<path d="" fill="#89C541" transform="translate(0,0)"/>
<path d="" fill="#89C92D" transform="translate(0,0)"/>
<path d="" fill="#89C831" transform="translate(0,0)"/>
<path d="" fill="#8AC934" transform="translate(0,0)"/>
<path d="" fill="#86CA31" transform="translate(0,0)"/>
<path d="" fill="#87C933" transform="translate(0,0)"/>
<path d="" fill="#84CC2D" transform="translate(0,0)"/>
<path d="" fill="#82CC28" transform="translate(0,0)"/>
<path d="" fill="#86CB2D" transform="translate(0,0)"/>
</svg>
