<?xml version="1.0" encoding="UTF-8"?>
<svg version="1.1" xmlns="http://www.w3.org/2000/svg" width="565" height="565">
<path d="M0 0 C7.59468981 -0.10218396 15.18919958 -0.17179205 22.78442383 -0.21972656 C25.36326726 -0.23972885 27.942066 -0.26693956 30.52075195 -0.30175781 C34.24702039 -0.35077817 37.97268447 -0.37308374 41.69921875 -0.390625 C43.40316048 -0.42159271 43.40316048 -0.42159271 45.14152527 -0.45318604 C57.45702624 -0.4565681 67.88897861 3.01725042 78 10 C79.12728516 10.77150391 79.12728516 10.77150391 80.27734375 11.55859375 C81.13005859 12.27208984 81.13005859 12.27208984 82 13 C82 13.66 82 14.32 82 15 C82.99 15.33 83.98 15.66 85 16 C88 19.44444444 88 19.44444444 88 22 C88.66 22 89.32 22 90 22 C115.04577254 65.09907052 119.89610557 122.37218683 107.64453125 170.0859375 C105.61172732 177.6233004 102.99222118 184.79894023 100 192 C99.61328125 193.02609375 99.2265625 194.0521875 98.828125 195.109375 C92.71894517 210.92629264 83.8053496 225.23003998 68.48046875 233.33203125 C56.58668731 238.46230531 43.91181261 238.28448151 31.20605469 238.22705078 C29.44076036 238.22648557 27.67546556 238.22680538 25.91017151 238.22793579 C21.15272742 238.228506 16.39538566 238.21680576 11.6379652 238.20278788 C6.65320044 238.19022488 1.66843294 238.18910565 -3.31634521 238.18673706 C-12.74015692 238.18053858 -22.16392183 238.16415 -31.587713 238.14403808 C-42.32296789 238.12162809 -53.05822509 238.11067286 -63.79349756 238.10064721 C-85.86235776 238.07978222 -107.93117592 238.04463819 -130 238 C-130 242.29 -130 246.58 -130 251 C-91.39 251 -52.78 251 -13 251 C-13 316.95070132 -13 316.95070132 -28.3671875 333.484375 C-54.98604214 358.91841415 -100.53255693 366.03188008 -135.89453125 365.25 C-153.25037615 364.56413377 -170.29827882 361.6970441 -187 357 C-187.7739209 356.78504883 -188.5478418 356.57009766 -189.34521484 356.34863281 C-210.62193948 350.2825221 -230.96311658 340.23052381 -243 321 C-248.13189156 310.8831923 -249.14974731 302.19811704 -249.14526367 291.00292969 C-249.14862228 289.79892014 -249.1519809 288.59491058 -249.15544128 287.35441589 C-249.16329728 284.06287253 -249.16661795 280.77136709 -249.16725707 277.47981548 C-249.16796974 275.4189979 -249.17010821 273.35818686 -249.17275429 271.29737091 C-249.18199706 264.09521569 -249.18609064 256.89307893 -249.18530273 249.69091797 C-249.1847027 242.99834334 -249.19524264 236.30584951 -249.2110464 229.61329532 C-249.2241644 223.85085383 -249.22948483 218.08843861 -249.22884732 212.32598233 C-249.22859352 208.89175907 -249.23137889 205.45760762 -249.24202538 202.02339935 C-249.25185908 198.18708154 -249.24893359 194.3509698 -249.24291992 190.51464844 C-249.24853943 189.39118515 -249.25415894 188.26772186 -249.25994873 187.11021423 C-249.18815165 169.02019343 -243.01193382 154.69252419 -230.8125 141.3125 C-222.31601882 133.29767875 -212.20300048 128.78893261 -201 126 C-200.39667847 125.82358664 -199.79335693 125.64717327 -199.17175293 125.46541405 C-196.55921868 124.90553906 -194.14751957 124.86896732 -191.47460938 124.86196899 C-189.78850807 124.85378899 -189.78850807 124.85378899 -188.06834412 124.84544373 C-186.22467003 124.84388023 -186.22467003 124.84388023 -184.34375 124.84228516 C-182.35108387 124.83448557 -180.35841774 124.82668195 -178.36575222 124.81872725 C-176.22464059 124.8110182 -174.08353321 124.80563256 -171.94241333 124.80076981 C-167.46930041 124.79006189 -162.9962624 124.76980687 -158.52319336 124.74765015 C-145.8034206 124.68582862 -133.08365159 124.63182421 -120.36376953 124.59863281 C-113.33771715 124.58021875 -106.31178985 124.55119475 -99.28582954 124.5106281 C-95.57317122 124.489664 -91.86066982 124.47411608 -88.14794922 124.47182083 C-83.99559457 124.46925088 -79.84367293 124.44367394 -75.69140625 124.41650391 C-74.47848404 124.41951004 -73.26556183 124.42251617 -72.0158844 124.4256134 C-61.20950108 124.32106749 -51.40595494 122.28887441 -41.8125 117.25 C-41.13179443 116.89929443 -40.45108887 116.54858887 -39.74975586 116.18725586 C-34.34406692 113.32997235 -29.53140254 110.12665591 -25 106 C-24.24332031 105.32324219 -23.48664063 104.64648438 -22.70703125 103.94921875 C-9.05509597 91.07478063 -1.26137406 73.55068229 -0.56762695 54.83276367 C-0.52685553 52.27802045 -0.5009465 49.72300589 -0.48828125 47.16796875 C-0.47138221 45.79647778 -0.45322524 44.42500179 -0.43388367 43.05354309 C-0.38694294 39.49124851 -0.35677589 35.92901465 -0.33044434 32.36651611 C-0.30035181 28.71232094 -0.25392244 25.0583343 -0.20898438 21.40429688 C-0.1235904 14.26965172 -0.05596579 7.13494182 0 0 Z " fill="#FFD045" transform="translate(413,161)"/>
<path d="M0 0 C0.74732391 0.05876312 1.49464783 0.11752625 2.26461792 0.17807007 C25.95113269 2.0841068 47.49223404 6.29587655 66.3125 21.6875 C67.05628906 22.20957031 67.80007813 22.73164062 68.56640625 23.26953125 C69.14261719 23.73746094 69.71882813 24.20539062 70.3125 24.6875 C70.3125 25.3475 70.3125 26.0075 70.3125 26.6875 C70.9725 26.6875 71.6325 26.6875 72.3125 26.6875 C82.58032758 39.02912527 86.77214351 51.78427879 86.73242188 67.68603516 C86.74089142 68.94926605 86.74936096 70.21249695 86.75808716 71.51400757 C86.78014389 74.95245647 86.78324162 78.3906646 86.78133965 81.82917452 C86.78121913 84.71614072 86.78981688 87.60305741 86.79811716 90.49000967 C86.81729702 97.31319824 86.82025607 104.13626452 86.81347656 110.95947266 C86.80685084 117.95665769 86.82965286 124.95331358 86.86679029 131.95039141 C86.89767417 137.99243717 86.90882695 144.03431443 86.90495348 150.07643735 C86.90290388 153.66965734 86.90808209 157.26246593 86.93284607 160.85560989 C87.08102515 184.22643271 85.4212626 201.69188237 68.9375 219.5625 C61.89822048 226.11406963 53.39407684 230.67458693 44.3125 233.6875 C43.3736647 234.02890518 42.43482941 234.37031036 41.46754456 234.72206116 C35.87719564 236.29480718 30.10791853 235.97084229 24.34741211 235.95874023 C22.35901951 235.96676393 20.37062692 235.97479002 18.38223469 235.98290551 C16.25443016 235.98974115 14.1266686 235.99175937 11.99885368 235.99246025 C7.545925 235.99441143 3.09314978 236.01252437 -1.35972595 236.03321838 C-12.42422257 236.08227461 -23.48876087 236.11320312 -34.55334473 236.13452148 C-43.14747137 236.15110854 -51.74146591 236.17411314 -60.33550447 236.21754223 C-64.748125 236.23913994 -69.16049351 236.24739322 -73.57316315 236.24514949 C-76.98772857 236.24723085 -80.4021342 236.26863996 -83.81665039 236.28686523 C-85.01766891 236.28228806 -86.21868744 236.27771088 -87.45610046 236.272995 C-100.04928348 236.37910208 -111.53667513 238.76626017 -122.6875 244.6875 C-123.52925781 245.12964844 -124.37101563 245.57179688 -125.23828125 246.02734375 C-143.02689818 256.01442106 -154.49414293 271.89089333 -160.14453125 291.2734375 C-161.8956546 299.05900751 -161.90149843 306.76014118 -162.00390625 314.71484375 C-162.02450907 316.07248011 -162.04550634 317.43011053 -162.06687927 318.78773499 C-162.12175665 322.34025226 -162.17131552 325.89282408 -162.21972656 329.44543457 C-162.27019427 333.0789061 -162.32574768 336.71229959 -162.38085938 340.34570312 C-162.48802017 347.45956757 -162.58955639 354.57350219 -162.6875 361.6875 C-168.87645323 361.73734907 -175.06528672 361.77343015 -181.25439453 361.79736328 C-183.35500121 361.80735236 -185.45559423 361.82094825 -187.55615234 361.83837891 C-208.94961597 362.01131703 -228.75752784 360.93497415 -245.3125 345.5625 C-270.87772039 317.97897273 -277.00973233 272.39580937 -275.82373047 236.24853516 C-274.17186258 205.19460291 -269.58277345 170.95151035 -248.6875 146.6875 C-248.10613281 146.01074219 -247.52476562 145.33398438 -246.92578125 144.63671875 C-235.39351811 132.18574282 -217.95441583 124.34246174 -201.03036118 123.50695419 C-196.60802658 123.4163831 -192.18612653 123.43971828 -187.76318359 123.46044922 C-186.06714891 123.46101421 -184.37111374 123.46069505 -182.67507935 123.45956421 C-178.09726165 123.45899314 -173.51954992 123.47070743 -168.94175673 123.48471212 C-164.14783237 123.49726067 -159.35390528 123.49839322 -154.55996704 123.50076294 C-145.49378915 123.50696562 -136.42765981 123.52335998 -127.36150324 123.54346192 C-117.03499338 123.56585872 -106.70848113 123.57682384 -96.381953 123.58685279 C-75.1504409 123.60772733 -53.91897523 123.6432851 -32.6875 123.6875 C-32.6875 119.3975 -32.6875 115.1075 -32.6875 110.6875 C-71.2975 110.6875 -109.9075 110.6875 -149.6875 110.6875 C-149.6875 35.89080227 -149.6875 35.89080227 -137.02734375 22.90234375 C-104.90097853 -7.50775488 -40.6454064 -3.28524802 0 0 Z " fill="#3671A2" transform="translate(313.6875,37.3125)"/>
<path d="M0 0 C0 0.66 0 1.32 0 2 C0.721875 2.185625 1.44375 2.37125 2.1875 2.5625 C6.00662263 4.51449601 7.95661532 7.27475254 10 11 C11.85774867 16.77440352 12.17700416 23.16808059 9.8359375 28.80078125 C6.3696381 34.80014559 2.51067052 39.31056639 -4 42 C-10.69300093 42.86683947 -17.17994378 43.14441193 -23.0625 39.5 C-27.98354244 35.64197604 -31.03598225 30.89205324 -33 25 C-33.74124967 18.15863013 -33.14880003 12.61308239 -29 7 C-21.54125027 -1.20300675 -10.46968687 -5.40370935 0 0 Z " fill="#FFFEFB" transform="translate(359,444)"/>
<path d="M0 0 C5.83452342 3.25386883 10.79428209 6.98725321 12.80859375 13.6640625 C14.21417918 20.50540749 13.6742933 26.67238787 10.25 32.8125 C7.05200821 37.34298838 3.60754562 41.04671717 -1.75 42.8125 C-9.41815628 43.7172972 -16.46593918 43.06626723 -22.9375 38.625 C-28.51846764 33.04403236 -30.40244289 28.3784899 -30.8515625 20.59375 C-30.65127858 15.10905184 -28.86917439 10.78224692 -26.1875 6.0625 C-18.51199758 -1.02257916 -9.9211026 -3.14168249 0 0 Z " fill="#FCFCFD" transform="translate(224.75,74.1875)"/>
</svg>
