<?xml version="1.0" encoding="UTF-8"?>
<svg version="1.1" xmlns="http://www.w3.org/2000/svg" width="1000" height="1000">
<path d="M0 0 C0.7852002 0.3604541 1.57040039 0.7209082 2.37939453 1.09228516 C22.28350282 10.3151549 40.98017532 22.02764443 58.21044922 35.59130859 C60.00782138 37.0061568 61.81687684 38.40477153 63.62890625 39.80078125 C74.93888913 48.55152591 85.76821433 57.77759032 96.26953125 67.48046875 C98.66548038 69.6913231 101.06808644 71.89130915 103.5 74.0625 C104.0878125 74.58972656 104.675625 75.11695313 105.28125 75.66015625 C107.09580328 77.07468301 108.91279864 78.04336604 111 79 C111.72703125 78.25556641 111.72703125 78.25556641 112.46875 77.49609375 C116.47655996 73.4343325 120.5615434 69.54866526 124.890625 65.83203125 C127.17629546 63.84688413 129.39701378 61.7996017 131.625 59.75 C137.25988158 54.66654414 143.2081253 50.03775544 149.20751953 45.3984375 C150.93222544 44.0528756 152.63860543 42.68756294 154.33984375 41.3125 C193.58876033 9.6956372 243.36568013 -19.74934184 295.546875 -15.7265625 C319.66015487 -12.83515111 339.91254309 -0.92835692 355 18 C365.64811423 33.22243781 372.27381852 50.30245571 376.1875 68.375 C376.34234863 69.08027832 376.49719727 69.78555664 376.65673828 70.51220703 C379.82821122 86.05207932 380.4082011 101.56341851 380.375 117.375 C380.37368576 118.91385361 380.37368576 118.91385361 380.37234497 120.48379517 C380.27044768 156.92529713 374.80279109 192.90091556 365 228 C365.92981689 228.20399414 366.85963379 228.40798828 367.81762695 228.61816406 C426.92816468 241.8937322 499.93143577 274.12993813 533.640625 327.0703125 C541.13071794 339.27347685 547.37017099 353.54017576 548 368 C548.0515625 368.98871094 548.103125 369.97742188 548.15625 370.99609375 C548.86114253 396.87152373 539.01848918 419.78011421 522 439 C521.17113281 439.95003906 520.34226562 440.90007812 519.48828125 441.87890625 C480.81223982 485.41166345 420.3506972 507.22333306 366 523 C366.21914063 524.0003125 366.43828125 525.000625 366.6640625 526.03125 C371.73636826 549.488957 376.49909826 573.11294673 379 597 C379.0942627 597.8252417 379.18852539 598.6504834 379.28564453 599.50073242 C380.2627307 609.21653465 380.22169891 618.96735275 380.24023438 628.72241211 C380.24985842 631.76770212 380.28092635 634.81229171 380.3125 637.85742188 C380.51386282 675.12951109 372.98194814 714.6941102 346.45361328 742.53564453 C342.90666119 746.10880857 339.15173799 749.16169764 335 752 C334.1234375 752.60199219 333.246875 753.20398438 332.34375 753.82421875 C308.7946651 768.73648268 281.13250092 769.11501614 254.69995117 763.20727539 C211.39819701 752.89360427 173.42965852 726.1495274 140.09375 697.62109375 C137.21490237 695.16491982 134.26878215 692.80003447 131.3125 690.4375 C126.65800201 686.6595425 122.4453903 682.57790531 118.2890625 678.26171875 C115.98150775 675.98172865 113.56600849 673.98117617 111 672 C107.60655558 673.48848812 105.21770033 675.4326862 102.5 677.9375 C101.62214844 678.74058594 100.74429687 679.54367187 99.83984375 680.37109375 C98.4071004 681.69741599 96.97438859 683.02377405 95.54345703 684.35205078 C88.55614594 690.8358135 81.44201316 697.0344981 74 703 C72.92737117 703.88679547 71.85580343 704.77487555 70.78515625 705.6640625 C30.97316657 738.48053293 -21.11342961 770.96993479 -74.875 766.4375 C-97.972444 764.01282095 -118.10078108 753.42706674 -132.91137695 735.43139648 C-152.56797374 710.49493326 -160.04813909 676.98299922 -160.203125 645.7265625 C-160.21018463 644.77351227 -160.21724426 643.82046204 -160.22451782 642.83853149 C-160.34343824 622.03590794 -160.22416806 601.59790877 -157 581 C-156.89582764 580.32406799 -156.79165527 579.64813599 -156.68432617 578.95172119 C-154.06838567 562.00773458 -151.14272869 545.17719978 -146.8828125 528.55859375 C-145.91973985 525.28755055 -145.91973985 525.28755055 -146 523 C-146.73710205 522.77973145 -147.4742041 522.55946289 -148.23364258 522.33251953 C-210.38442351 503.65896289 -285.11288066 476.65365651 -318 416 C-328.60032406 394.38979391 -331.07025048 371.58934311 -323.93359375 348.55859375 C-306.89585737 301.83133654 -261.90442932 274.24056444 -219.05825806 254.10432434 C-201.91744276 246.14102204 -184.14683038 239.94673179 -166.25 233.9375 C-165.52977661 233.69512604 -164.80955322 233.45275208 -164.06750488 233.20303345 C-162.01043199 232.5136174 -159.95110142 231.83151171 -157.890625 231.15234375 C-156.70500977 230.76038818 -155.51939453 230.36843262 -154.29785156 229.96459961 C-151.19895418 229.05819277 -148.19330712 228.4542361 -145 228 C-145.24814453 227.11151367 -145.49628906 226.22302734 -145.75195312 225.30761719 C-155.38757633 190.10193885 -160.31578115 154.22241765 -160.4375 117.75 C-160.44385468 116.78283051 -160.45020935 115.81566101 -160.45675659 114.81918335 C-160.53213969 96.43530155 -159.19619095 77.84665299 -154.25 60.0625 C-153.86702759 58.64650513 -153.86702759 58.64650513 -153.47631836 57.2019043 C-146.56412319 32.62822586 -132.73699995 8.75587838 -110.125 -4.3125 C-101.01185472 -9.36633502 -91.32093968 -13.33782619 -81 -15 C-80.33226562 -15.11085938 -79.66453125 -15.22171875 -78.9765625 -15.3359375 C-51.60624404 -19.10062814 -24.6069954 -11.46827998 0 0 Z M-98.7578125 35.6328125 C-109.90828091 47.40490981 -115.75048541 61.21503154 -119 77 C-119.14953125 77.6801416 -119.2990625 78.3602832 -119.453125 79.06103516 C-125.25284497 106.52845896 -123.26998626 137.48049126 -119 165 C-118.81775879 166.18625977 -118.63551758 167.37251953 -118.44775391 168.59472656 C-115.54332133 193.94563594 -115.54332133 193.94563594 -108 218 C-102.88906909 217.40507682 -97.89367983 216.64413095 -92.84765625 215.6171875 C-91.44142247 215.33658525 -90.03499952 215.05692988 -88.62841797 214.77807617 C-87.88734802 214.63099213 -87.14627808 214.48390808 -86.38275146 214.33236694 C-70.11468314 211.1256125 -53.79060517 208.51663653 -37.375 206.1875 C-36.34899689 206.04092957 -35.32299377 205.89435913 -34.26589966 205.74334717 C-23.19965271 204.16965926 -12.1441435 202.68022977 -1.00473022 201.72441101 C6.00059307 201.10445383 6.00059307 201.10445383 11.64648438 197.29858398 C12.12408203 196.62126221 12.60167969 195.94394043 13.09375 195.24609375 C13.64232666 194.48272705 14.19090332 193.71936035 14.75610352 192.93286133 C15.33158936 192.10939209 15.9070752 191.28592285 16.5 190.4375 C17.74738762 188.69957962 18.99611362 186.96261918 20.24609375 185.2265625 C20.87370605 184.3490332 21.50131836 183.47150391 22.14794922 182.56738281 C24.8895246 178.76690737 27.71273123 175.03225774 30.5625 171.3125 C31.09133789 170.62196533 31.62017578 169.93143066 32.16503906 169.2199707 C37.50014832 162.29293368 43.01033598 155.51143468 48.56005859 148.75585938 C49.84365701 147.19064408 51.11963072 145.619183 52.39453125 144.046875 C62.18428203 131.98166864 72.37827839 120.33736952 83 109 C78.72551709 103.84411208 74.22025681 99.1776096 69.3125 94.625 C68.60552979 93.96653076 67.89855957 93.30806152 67.17016602 92.62963867 C61.63100808 87.5075082 55.91844606 82.67893794 50 78 C48.86197028 77.07191772 47.72533581 76.14212284 46.58984375 75.2109375 C13.41786207 48.12255203 -57.89512024 -4.1854659 -98.7578125 35.6328125 Z M161 86 C160.26652344 86.63292969 159.53304688 87.26585937 158.77734375 87.91796875 C154.7164137 91.42854689 150.72816515 95.02117288 146.75 98.625 C146.24194824 99.08076416 145.73389648 99.53652832 145.21044922 100.00610352 C142.14918035 102.79648604 139.50159366 105.70027884 137 109 C137.49628906 109.4846875 137.99257813 109.969375 138.50390625 110.46875 C143.23588842 115.13787851 147.68097778 119.95006633 152 125 C152.90572194 126.04212585 153.81201803 127.08375285 154.71875 128.125 C160.24755332 134.49595094 165.61916133 140.95448888 170.79077148 147.61889648 C173.70062249 151.36471535 176.67056214 155.05174002 179.68676758 158.71240234 C185.07166809 165.25450253 190.23558929 171.91936202 195.25 178.75 C195.84401611 179.55066895 196.43803223 180.35133789 197.05004883 181.17626953 C199.61675987 184.6537953 202.11971251 188.12186366 204.390625 191.80078125 C207.99379629 197.61092346 207.99379629 197.61092346 213.74829102 200.82519531 C214.80201904 200.92928711 215.85574707 201.03337891 216.94140625 201.140625 C218.18615723 201.27992432 219.4309082 201.41922363 220.71337891 201.56274414 C221.39901917 201.63131622 222.08465942 201.69988831 222.79107666 201.77053833 C226.88875298 202.19620256 230.97205833 202.74142784 235.05859375 203.26171875 C236.90882123 203.49269563 238.75908255 203.72340159 240.609375 203.95385742 C257.98251348 206.13341334 275.27212721 208.54801419 292.5 211.6875 C293.29276337 211.83166351 294.08552673 211.97582703 294.90231323 212.12435913 C303.69660574 213.73399537 312.44268108 215.4811412 321.16210938 217.46020508 C324.17346247 218.12457311 324.17346247 218.12457311 328 218 C330.76914524 208.06173773 333.12958709 198.13954212 335.0625 188 C335.19006683 187.33656586 335.31763367 186.67313171 335.44906616 185.98959351 C337.79871525 173.72522749 339.71503948 161.42403566 341 149 C341.0942627 148.12835205 341.18852539 147.2567041 341.28564453 146.35864258 C342.19749259 136.93920318 342.24234358 127.51772562 342.25 118.0625 C342.25100708 117.19794189 342.25201416 116.33338379 342.25305176 115.44262695 C342.2427959 102.41527617 341.7715764 89.77518787 339 77 C338.86609863 76.33291016 338.73219727 75.66582031 338.59423828 74.97851562 C334.85536483 56.76000497 326.77730549 40.60791053 311.5625 29.5 C262.92249808 0.21232567 195.4083936 55.79757389 161 86 Z M107.37109375 138.36328125 C102.68620913 143.08602352 98.43982808 148.03556039 94.27734375 153.22265625 C92.13509649 155.83524253 89.91359429 158.32809016 87.625 160.8125 C83.12269516 165.75957326 79.0230886 170.96222448 74.9296875 176.24609375 C72.86258882 178.91096737 70.76021467 181.54317182 68.6328125 184.16015625 C68.07891846 184.84311768 67.52502441 185.5260791 66.9543457 186.22973633 C65.87585038 187.55680678 64.79375941 188.88096471 63.70776367 190.2019043 C60.93925186 193.21740539 60.93925186 193.21740539 60 197 C93 197 126 197 160 197 C158.13438614 193.26877228 155.9860612 190.19595204 153.4375 186.9375 C152.99204834 186.36386719 152.54659668 185.79023438 152.08764648 185.19921875 C144.79427692 175.84549492 137.17001952 166.76854957 129.48095703 157.73974609 C128.4600514 156.54044284 127.44026076 155.34018984 126.42138672 154.13916016 C124.8248818 152.25747877 123.22532819 150.37843022 121.625 148.5 C121.13733154 147.92467529 120.64966309 147.34935059 120.1472168 146.7565918 C117.23911263 143.35272558 114.29805913 140.03738779 111 137 C108.90160154 136.78606302 108.90160154 136.78606302 107.37109375 138.36328125 Z M48.6875 234.890625 C47.91248138 234.92945549 47.13746277 234.96828598 46.33895874 235.00829315 C44.16661296 235.12020218 41.9955092 235.24532766 39.82421875 235.37597656 C37.98476685 235.48356293 37.98476685 235.48356293 36.1081543 235.59332275 C31.6377274 236.17824253 29.74863842 237.03518499 26.984375 240.59765625 C26.2294649 241.74601598 25.48556105 242.90165149 24.75 244.0625 C24.12025269 245.03304321 24.12025269 245.03304321 23.4777832 246.02319336 C22.5199978 247.50349958 21.56695566 248.98688134 20.61767578 250.47265625 C18.83969604 253.25044772 17.04331699 256.01587298 15.24609375 258.78125 C6.4772977 272.32224536 -1.92410156 286.03591047 -10 300 C-10.49419434 300.84949219 -10.98838867 301.69898438 -11.49755859 302.57421875 C-18.70038336 314.96393115 -25.68809214 327.46924676 -32.33984375 340.1640625 C-34.52348862 344.31772829 -36.79936979 348.37861783 -39.22392273 352.39352417 C-47.80149589 365.37885789 -47.80149589 365.37885789 -49.3984375 379.96875 C-47.74888837 384.11474493 -45.31367623 387.67335439 -42.76220703 391.31396484 C-39.63215432 396.08493186 -37.23393959 401.25412415 -34.69915771 406.35717773 C-19.74626016 436.1764343 -2.47862477 465.24527433 15.875 493.1015625 C17.95245004 496.27155103 19.79051819 499.45431693 21.5 502.8359375 C25.4359461 510.34968638 25.4359461 510.34968638 32.33007812 514.84130859 C37.92424671 516.00450411 43.47334628 516.05858707 49.16552734 515.98852539 C53.05488173 516.00016423 56.91488856 516.1603084 60.79878235 516.34857178 C76.14975995 517.09068827 91.49323401 517.19805646 106.85873032 517.18867874 C109.02761741 517.1874848 111.19649972 517.1880371 113.36538696 517.18869019 C131.15568754 517.18754118 148.91789501 517.0143201 166.6875 516.0625 C167.49952881 516.01902435 168.31155762 515.97554871 169.14819336 515.93075562 C173.76998286 515.67442017 178.3881734 515.40075637 183 515 C184.82374146 514.89884888 184.82374146 514.89884888 186.68432617 514.7956543 C190.96402723 513.7686647 191.82018369 512.39865672 194.1640625 508.734375 C194.51836838 508.19368881 194.87267426 507.65300262 195.23771667 507.09593201 C196.38890271 505.32714225 197.50683842 503.53981365 198.625 501.75 C199.42102815 500.5110047 200.2188172 499.27313908 201.01831055 498.03637695 C203.00893405 494.94384029 204.97175135 491.83483892 206.92340088 488.71759033 C208.47501006 486.24217597 210.04188238 483.77645497 211.60546875 481.30859375 C214.79406091 476.23981859 217.91015054 471.12944485 221 466 C221.51836426 465.14196777 222.03672852 464.28393555 222.57080078 463.39990234 C234.74774061 443.18730452 246.20415713 422.5732103 257.0625 401.625 C257.6694873 400.45573975 258.27647461 399.28647949 258.90185547 398.08178711 C260.06120871 395.82827614 261.19721199 393.56257702 262.30786133 391.28466797 C264 388 264 388 266.05737305 384.90673828 C269.46104354 379.3303202 269.46104354 379.3303202 269.6100769 372.95697021 C267.70217668 367.16141027 264.66686143 361.92260353 261.6875 356.625 C260.78108635 354.93027365 259.87884559 353.2333091 258.98071289 351.53417969 C256.77525737 347.39205413 254.51436061 343.28419531 252.22338867 339.18884277 C251.12688796 337.22702336 250.04003449 335.26040128 248.95898438 333.29003906 C245.83930007 327.61494122 242.64347897 321.99100171 239.38183594 316.39648438 C237.62829147 313.35535495 235.94419541 310.27913928 234.26318359 307.19750977 C223.51456894 287.52522826 211.39934195 268.66285184 199 250 C198.26547607 248.8872168 198.26547607 248.8872168 197.51611328 247.75195312 C196.27034253 245.8696146 195.01360188 243.99539822 193.75 242.125 C192.75226563 240.64386719 192.75226563 240.64386719 191.734375 239.1328125 C190.10213284 236.73597398 190.10213284 236.73597398 187 236 C181.80504752 235.49145286 176.58649216 235.24135963 171.375 234.953125 C170.58257904 234.90875557 169.79015808 234.86438614 168.97372437 234.81867218 C151.05930754 233.83916741 133.1647914 233.69191738 115.22753906 233.73925781 C110.87230136 233.75065097 106.51730828 233.74385263 102.16207886 233.73238373 C84.31438195 233.69253719 66.51246316 233.9457681 48.6875 234.890625 Z M240 242 C241.36268456 245.68636374 243.03806271 248.86962789 245.1328125 252.19140625 C245.76582275 253.20380371 246.39883301 254.21620117 247.05102539 255.25927734 C248.07764282 256.89437256 248.07764282 256.89437256 249.125 258.5625 C263.39896235 281.49937917 276.38555937 305.12031543 289 329 C289.66 329 290.32 329 291 329 C299.92957053 307.97982896 307.62336454 286.60661771 315 265 C315.38470459 263.93305908 315.76940918 262.86611816 316.16577148 261.7668457 C317.19244864 258.84336051 317.19244864 258.84336051 317 255 C301.42243097 251.44995801 285.81820581 248.3290158 270.0625 245.6875 C269.30658569 245.55889587 268.55067139 245.43029175 267.77185059 245.29779053 C258.52579352 243.73181658 249.37678091 242.5192886 240 242 Z M-32.96484375 243.1015625 C-33.74301956 243.21856003 -34.52119537 243.33555756 -35.32295227 243.45610046 C-37.8619604 243.84053102 -40.399807 244.23198681 -42.9375 244.625 C-43.80105103 244.75772308 -44.66460205 244.89044617 -45.55432129 245.02719116 C-71.59890201 248.60640192 -71.59890201 248.60640192 -97 255 C-96.42644275 259.806684 -95.4503784 264.12262068 -93.8828125 268.69921875 C-93.66978485 269.32416229 -93.4567572 269.94910583 -93.23727417 270.59298706 C-92.54055832 272.62711914 -91.83353597 274.6574575 -91.125 276.6875 C-90.88378418 277.38487274 -90.64256836 278.08224548 -90.39404297 278.80075073 C-84.5263899 295.74920009 -78.17162864 312.55715408 -71 329 C-70.34 329 -69.68 329 -69 329 C-68.7097998 328.42894531 -68.41959961 327.85789062 -68.12060547 327.26953125 C-60.75310945 312.8272874 -52.9090484 298.74998915 -44.64892578 284.80126953 C-43.11105021 282.1886571 -41.59466969 279.5653498 -40.08984375 276.93359375 C-34.8593325 267.78623355 -29.44516448 258.80361267 -23.70654297 249.96362305 C-22.97975342 248.83500854 -22.97975342 248.83500854 -22.23828125 247.68359375 C-21.80555908 247.01900146 -21.37283691 246.35440918 -20.92700195 245.66967773 C-19.83819863 244.02686219 -19.83819863 244.02686219 -20 242 C-24.40179001 241.84863983 -28.62737827 242.43681878 -32.96484375 243.1015625 Z M355 265 C352.58743061 270.72233985 350.44211754 276.51234818 348.4765625 282.40234375 C348.2520491 283.07474594 348.02753571 283.74714813 347.79621887 284.43992615 C347.32124032 285.86323109 346.84629097 287.28654577 346.37136841 288.70986938 C342.20642403 301.140671 337.80578229 313.45334915 332.93597412 325.62634277 C332.35320703 327.08490973 331.77414818 328.54496374 331.1987915 330.00646973 C328.09710221 337.88263991 324.81794147 345.53120201 320.87109375 353.0234375 C313.374202 366.46960241 313.374202 366.46960241 313.03125 381.28515625 C314.94379774 386.50200386 317.55105074 391.26332294 320.34521484 396.0546875 C323.08947491 400.93913032 325.17333842 406.07905979 327.3125 411.25 C327.76085205 412.3033252 328.2092041 413.35665039 328.67114258 414.44189453 C337.44050252 435.22455842 344.85366081 456.7049657 351.64135742 478.20947266 C351.92857666 479.10327637 352.2157959 479.99708008 352.51171875 480.91796875 C352.75365967 481.68906982 352.99560059 482.4601709 353.24487305 483.25463867 C353.86449188 485.20029313 353.86449188 485.20029313 356 486 C358.23416778 485.53119806 358.23416778 485.53119806 360.78515625 484.6640625 C362.27354004 484.18803589 362.27354004 484.18803589 363.79199219 483.70239258 C364.87125977 483.34685303 365.95052734 482.99131348 367.0625 482.625 C368.18430664 482.25850342 369.30611328 481.89200684 370.46191406 481.5144043 C373.97911555 480.35600775 377.49034658 479.18105282 381 478 C382.04333496 477.65114746 383.08666992 477.30229492 384.16162109 476.94287109 C421.30542302 464.41034574 458.61738813 447.6493225 487 420 C487.72445312 419.34902344 488.44890625 418.69804688 489.1953125 418.02734375 C500.23097242 407.83558724 508.67667266 393.04521396 510 378 C510.09804405 369.68804363 508.37054967 362.56185007 505 355 C504.62359375 354.14019531 504.2471875 353.28039062 503.859375 352.39453125 C483.03038451 309.92095727 424.49280206 287.51114385 383.01953125 273.32244873 C369.22055934 267.70406423 369.22055934 267.70406423 355 265 Z M-144.2890625 267.17578125 C-145.01601822 267.41620651 -145.74297394 267.65663177 -146.49195862 267.90434265 C-148.87335831 268.69641652 -151.24940473 269.50319574 -153.625 270.3125 C-154.43788483 270.58698975 -155.25076965 270.86147949 -156.08828735 271.14428711 C-201.2420311 286.40840117 -260.87365503 307.98345633 -284.43481445 353.3581543 C-290.322978 365.42896665 -291.63563321 377.70682317 -287.375 390.5625 C-282.60053896 402.28626554 -275.72416121 411.07206276 -267 420 C-266.35417969 420.70769531 -265.70835937 421.41539062 -265.04296875 422.14453125 C-255.51481354 432.33695871 -243.00733595 440.09278 -231 447 C-229.88238281 447.650896 -229.88238281 447.650896 -228.7421875 448.31494141 C-199.45893174 465.25158636 -167.61674452 477.25418522 -135 486 C-131.98406606 478.77055544 -129.46470435 471.45231849 -127.0625 464 C-118.92764182 439.26651819 -109.30516843 415.1484801 -98.77734375 391.34375 C-98.30844727 390.25586182 -97.83955078 389.16797363 -97.35644531 388.04711914 C-96.49489928 386.11174189 -95.57758445 384.19952983 -94.58886719 382.32592773 C-92.84913704 378.81926262 -91.73290268 376.36673292 -92.4987793 372.44775391 C-93.6183179 369.53860737 -94.94197819 366.83071783 -96.375 364.0625 C-97.42950455 361.85457337 -98.4773107 359.6434391 -99.51953125 357.4296875 C-100.3695874 355.64643066 -100.3695874 355.64643066 -101.23681641 353.82714844 C-104.47241751 346.90683788 -107.24507846 339.78542615 -110.0625 332.6875 C-110.50733231 331.5715596 -110.50733231 331.5715596 -110.96115112 330.43307495 C-117.49624246 314.01794715 -123.65226194 297.46015688 -129.0625 280.63671875 C-129.38162354 279.64978027 -129.70074707 278.6628418 -130.02954102 277.64599609 C-130.61775329 275.81034358 -131.19452 273.97096802 -131.75756836 272.12744141 C-132.41674788 270.05477862 -133.19701657 268.02130311 -134 266 C-137.9567853 264.68107157 -140.50081192 265.88563605 -144.2890625 267.17578125 Z M-71 422 C-77.29287512 436.89213773 -83.15514577 451.86842255 -88.5 467.125 C-88.75471069 467.85193054 -89.00942139 468.57886108 -89.27185059 469.32781982 C-90.45866172 472.72226096 -91.63784906 476.11914811 -92.8046875 479.52050781 C-93.53015716 481.63231205 -94.26260567 483.74175923 -95.0078125 485.84667969 C-96.26673482 489.45431572 -97 492.13631479 -97 496 C-77.5022825 500.05679535 -58.01309611 504.049544 -38.3125 507 C-37.61544952 507.10541107 -36.91839905 507.21082214 -36.20022583 507.31942749 C-27.63884452 508.66136723 -27.63884452 508.66136723 -19 509 C-22.32853686 503.18057132 -25.71311949 497.41439904 -29.30664062 491.75537109 C-40.88896749 473.50514983 -51.36887323 454.57228821 -61.62158203 435.55126953 C-64.06641235 431.02621165 -66.53408644 426.51359357 -69 422 C-69.66 422 -70.32 422 -71 422 Z M289 422 C288.58862793 422.78310547 288.17725586 423.56621094 287.75341797 424.37304688 C278.56471442 441.82827191 269.10396592 459.05237687 259 476 C257.91378548 477.83577362 256.82784375 479.67170867 255.7421875 481.5078125 C250.81097865 489.8166556 245.80696205 498.01833768 240.328125 505.98046875 C238.90842199 507.73640072 238.90842199 507.73640072 239 509 C248.92358941 508.38707596 258.639071 506.92322485 268.4375 505.3125 C269.23682953 505.18260681 270.03615906 505.05271362 270.85971069 504.91888428 C286.33975351 502.39615929 301.68031108 499.363518 317 496 C316.41209726 490.97482176 315.33620582 486.52997215 313.69921875 481.71484375 C313.35028061 480.68520508 313.35028061 480.68520508 312.99429321 479.63476562 C312.23304108 477.39962779 311.46114981 475.16837447 310.6875 472.9375 C310.42488373 472.17398224 310.16226746 471.41046448 309.89169312 470.62380981 C301.49675955 445.88470071 301.49675955 445.88470071 291 422 C290.34 422 289.68 422 289 422 Z M-108 532 C-113.32172293 552.13470735 -116.90519473 572.42546681 -120 593 C-120.14985352 593.96147949 -120.29970703 594.92295898 -120.45410156 595.91357422 C-125.68180168 630.54883008 -126.30781156 676.87119761 -106 707 C-97.72523733 717.93009696 -87.71134408 725.6617385 -74 728 C-30.18142859 732.14512257 12.4647594 703.63315059 44.72265625 676.96875 C46.85645095 675.17249073 48.96840543 673.35236657 51.07421875 671.5234375 C53.93833734 669.05318301 56.86165224 666.67802228 59.8125 664.3125 C63.8206655 661.05368718 67.49127643 657.62718146 71.08203125 653.91796875 C73.70053116 651.29946884 76.4998618 648.92143064 79.3359375 646.54296875 C81.23084911 644.90611667 81.23084911 644.90611667 83 642 C82.09378906 641.04480469 81.18757812 640.08960938 80.25390625 639.10546875 C74.02514403 632.50723275 67.93240858 625.89084852 62.265625 618.796875 C59.62064765 615.53169606 56.87714151 612.36224192 54.125 609.1875 C48.64551459 602.83880688 43.42299625 596.31785131 38.29833984 589.68066406 C37.0641499 588.08304023 35.82326962 586.4905914 34.58203125 584.8984375 C28.86858625 577.53527021 23.32406796 570.05574332 17.82104492 562.53442383 C12.80334321 554.30868328 12.80334321 554.30868328 5.13719177 549.69906616 C3.99698326 549.5741832 3.99698326 549.5741832 2.83374023 549.44677734 C1.96366837 549.34904526 1.0935965 549.25131317 0.19715881 549.15061951 C-1.23268089 548.99485191 -1.23268089 548.99485191 -2.69140625 548.8359375 C-4.75219529 548.60283307 -6.81290149 548.36899542 -8.87353516 548.13452148 C-9.96402161 548.01116425 -11.05450806 547.88780701 -12.17803955 547.76071167 C-44.41038738 544.08733658 -76.32609923 539.0494733 -108 532 Z M320.765625 533.3203125 C305.58463901 536.55969859 290.38233124 539.61311622 275.0625 542.125 C274.31762329 542.24738037 273.57274658 542.36976074 272.80529785 542.49584961 C263.32198395 544.03428889 253.82687768 545.2924029 244.27734375 546.34375 C243.29435806 546.45274628 242.31137238 546.56174255 241.29859924 546.67404175 C236.48409849 547.20325499 231.6687158 547.70805306 226.84790039 548.17626953 C225.09648501 548.3593955 223.34509995 548.54281185 221.59375 548.7265625 C220.39787514 548.83103699 220.39787514 548.83103699 219.17784119 548.93762207 C214.32129227 549.46535676 211.57751062 550.42705624 208 554 C206.39355907 556.06025354 204.90123866 558.09517777 203.4375 560.25 C202.55890361 561.50893899 201.67862661 562.76670639 200.796875 564.0234375 C200.11141602 565.00328613 200.11141602 565.00328613 199.41210938 566.00292969 C191.54558942 577.12812561 183.05402412 587.75158606 174.40869141 598.27539062 C172.55982915 600.53888507 170.74809255 602.83083305 168.9375 605.125 C161.63939558 614.27072579 153.90739981 623.07058488 146.046875 631.734375 C142.98882715 635.11923712 139.99153574 638.55636722 137 642 C142.3582202 648.69777525 148.60692475 654.31969082 155 660 C155.57427734 660.51369141 156.14855469 661.02738281 156.74023438 661.55664062 C165.76476879 669.60823294 175.10106971 677.14800277 184.80419922 684.36621094 C186.27265265 685.45881605 187.73781451 686.55585848 189.19970703 687.65722656 C200.32104841 696.02464179 211.76191583 703.37081632 224 710 C224.68803711 710.37495605 225.37607422 710.74991211 226.08496094 711.13623047 C248.52975642 723.23495014 275.53396711 733.47251138 301.1875 726.4375 C307.17833941 724.23646715 312.10548467 721.06140634 317 717 C317.93585938 716.24976563 317.93585938 716.24976563 318.890625 715.484375 C335.41388701 700.74741159 340.11708349 673.9131839 342 653 C342.14469746 650.10619408 342.18597901 647.21743564 342.203125 644.3203125 C342.21013931 643.51853073 342.21715363 642.71674896 342.22438049 641.89067078 C342.24183667 639.30205616 342.24823825 636.71367143 342.25 634.125 C342.25067474 633.23428802 342.25134949 632.34357605 342.25204468 631.4258728 C342.23365907 616.08866378 341.34421324 601.17844069 339 586 C338.82307617 584.82969238 338.64615234 583.65938477 338.46386719 582.45361328 C335.83816307 565.41828075 332.28880206 548.69101371 328 532 C325.60940381 532 323.07667649 532.82230072 320.765625 533.3203125 Z M60 554 C61.97272999 557.94545998 64.32967161 561.14518488 67.0625 564.5625 C67.55564697 565.18382812 68.04879395 565.80515625 68.55688477 566.4453125 C70.0330582 568.30082846 71.5151923 570.15138891 73 572 C73.76054687 572.94746094 74.52109375 573.89492188 75.3046875 574.87109375 C80.87910426 581.74212394 86.63665603 588.45161502 92.41210938 595.15332031 C94.05541266 597.06444363 95.69254773 598.98069924 97.328125 600.8984375 C98.14059692 601.85012817 98.14059692 601.85012817 98.96948242 602.82104492 C100.00696992 604.03661457 101.04363353 605.25288805 102.0793457 606.4699707 C104.303154 609.07184547 106.52043998 611.6373216 109 614 C112.96828023 612.43673809 115.41597223 609.67893988 118.1875 606.5625 C118.67162354 606.02608887 119.15574707 605.48967773 119.65454102 604.93701172 C123.45119134 600.69688869 127.06972886 596.32560355 130.63671875 591.890625 C132.79409511 589.25185062 135.00387546 586.67531754 137.24291992 584.10644531 C142.40362607 578.17744353 147.34006503 572.11197973 152.125 565.875 C152.9598291 564.790979 152.9598291 564.790979 153.81152344 563.68505859 C154.58931152 562.6614624 154.58931152 562.6614624 155.3828125 561.6171875 C156.06947998 560.71395752 156.06947998 560.71395752 156.77001953 559.79248047 C158.2596855 557.7094853 158.2596855 557.7094853 160 554 C127 554 94 554 60 554 Z " fill="#61DAFB" transform="translate(390,109)"/>
<path d="M0 0 C14.37050651 14.93261816 21.51084684 34.72781577 21.984375 55.26171875 C21.46198388 76.86145607 13.23645407 95.96820918 -1.390625 111.69921875 C-19.28724987 128.33994012 -39.36664176 134.41914355 -63.35546875 134.0078125 C-80.37235443 133.3677205 -95.52084007 126.76271808 -108.390625 115.69921875 C-109.04160156 115.20292969 -109.69257813 114.70664062 -110.36328125 114.1953125 C-125.98622554 101.80255948 -134.01382808 81.98703091 -136.390625 62.69921875 C-137.68967959 40.94005439 -132.03366804 19.82813917 -117.58496094 3.04541016 C-103.50134748 -12.58590782 -84.32039284 -22.86379331 -63.09375 -24.26953125 C-38.48922617 -24.55397661 -17.8093052 -17.14000125 0 0 Z " fill="#61DAFB" transform="translate(557.390625,429.30078125)"/>
</svg>
