<?xml version="1.0" encoding="utf-8"?>
<!-- Generator: Adobe Illustrator 27.5.0, SVG Export Plug-In . SVG Version: 6.00 Build 0)  -->
<svg version="1.1" xmlns="http://www.w3.org/2000/svg" xmlns:xlink="http://www.w3.org/1999/xlink" x="0px" y="0px"
	 viewBox="0 0 3710 3710" style="enable-background:new 0 0 3710 3710;" xml:space="preserve">
<g id="Background">
	<g>
		<g>
			<rect style="fill:#FFFFFF;" width="3710" height="3710"/>
		</g>
	</g>
</g>
<g id="Illustration">
	<g>
		<linearGradient id="SVGID_1_" gradientUnits="userSpaceOnUse" x1="3465.9238" y1="3687.5776" x2="1515.3925" y2="1611.2061">
			<stop  offset="0" style="stop-color:#DAE3FE"/>
			<stop  offset="1" style="stop-color:#E9EFFD"/>
		</linearGradient>
		<path style="fill:url(#SVGID_1_);" d="M2880.279,2854.546c-72.006,74.221-136.434,117.85-185.762,150.788
			c-481.09,321.228-1031.029,228.643-1201.057,196.997c-274.318-51.056-505.881-87.074-704.835-266.821
			c-452.083-408.439-430.094-1260.473-84.648-1788.271c40.96-62.582,385.883-573.865,937.012-645.91
			c13.48-1.762,23.538-2.766,32.347-3.698c85.258-9.027,613.588-56.669,1044.388,304.255
			c61.667,51.664,160.907,144.854,252.934,286.983C3307.153,1608.558,3308.219,2413.441,2880.279,2854.546z"/>
		<g>
			<path style="fill:#91B3FA;" d="M1092.473,468.725c211.974,177.172,1403.436,1258.583,589.485,2558.911
				c0,0-967.652-510.014-627.541-2544.902C1057.392,464.933,1078.624,457.15,1092.473,468.725z"/>
			<path style="fill:#FFFFFF;" d="M1156.834,738.848c0,0,60.833,117.636,144.972,297.499c10.451,22.513,21.339,45.963,32.608,70.234
				c11.084,24.355,22.545,49.534,34.326,75.42c11.61,25.963,23.7,52.562,35.664,79.924c6.025,13.663,12.112,27.474,18.26,41.419
				c6.054,13.984,12.168,28.102,18.331,42.339c24.707,56.927,49.471,116.082,74.31,176.326
				c12.204,30.212,24.506,60.663,36.857,91.234c11.975,30.721,24.342,61.429,36.083,92.382
				c11.734,30.956,23.754,61.804,34.995,92.809c5.7,15.473,11.39,30.915,17.06,46.312c5.647,15.408,10.998,30.871,16.481,46.218
				c5.433,15.364,10.848,30.667,16.233,45.895c5.195,15.295,10.365,30.513,15.502,45.641c10.456,30.193,20.066,60.262,29.606,89.811
				c19.027,59.114,36.268,116.639,51.687,171.46c15.361,54.836,28.942,106.965,40.25,155.396
				c6.053,24.118,10.85,47.474,15.58,69.647c2.365,11.086,4.668,21.889,6.908,32.39c2.114,10.526,3.866,20.818,5.728,30.754
				c3.538,19.909,7.289,38.463,9.967,55.761c2.583,17.32,4.954,33.226,7.095,47.595c1.056,7.188,2.054,13.988,2.995,20.389
				c0.709,6.435,1.374,12.469,1.992,18.08c1.238,11.227,2.289,20.776,3.141,28.518c1.705,15.485,2.614,23.744,2.614,23.744
				c0.487,4.415-2.697,8.386-7.111,8.874c-4.415,0.485-8.386-2.699-8.872-7.114l-0.005-0.033l-0.035-0.34
				c0,0-0.868-8.187-2.491-23.537c-0.811-7.674-1.813-17.141-2.988-28.27c-0.588-5.564-1.22-11.545-1.895-17.926
				c-0.906-6.356-1.868-13.11-2.885-20.246c-2.063-14.271-4.346-30.072-6.833-47.273c-2.585-17.188-6.236-35.654-9.665-55.455
				c-1.807-9.883-3.503-20.116-5.558-30.596c-2.183-10.456-4.429-21.212-6.733-32.252c-4.609-22.083-9.277-45.336-15.202-69.382
				c-11.047-48.266-24.349-100.26-39.419-154.987c-15.13-54.715-32.071-112.156-50.797-171.211
				c-9.388-29.521-18.845-59.563-29.148-89.743c-5.061-15.119-10.153-30.329-15.271-45.615
				c-5.31-15.223-10.645-30.521-16.003-45.881c-5.406-15.344-10.679-30.802-16.248-46.208c-5.595-15.397-11.208-30.84-16.831-46.313
				c-11.087-31.004-22.955-61.862-34.537-92.824c-11.59-30.961-23.807-61.685-35.634-92.419
				c-12.201-30.589-24.354-61.058-36.414-91.288c-24.549-60.286-49.03-119.492-73.463-176.475
				c-6.097-14.25-12.141-28.383-18.132-42.38c-6.08-13.959-12.102-27.785-18.061-41.463c-11.836-27.391-23.798-54.022-35.285-80.014
				c-11.66-25.917-23.001-51.127-33.972-75.513c-11.155-24.301-21.931-47.782-32.276-70.323
				c-20.844-45.014-40.18-86.17-57.573-122.527c-17.339-36.384-32.71-67.98-45.426-93.971
				c-25.496-51.961-40.544-81.378-40.544-81.378c-0.858-1.675-0.194-3.727,1.481-4.584
				C1153.929,736.517,1155.978,737.173,1156.834,738.848z"/>
		</g>
		<g>
			<path style="fill:#BDD0FB;" d="M481.497,839.005c243.949,94.244,1641.195,700.664,1307.655,2114.034
				c0,0-1022.629-162.435-1337.498-2089.888C448.899,846.289,465.56,832.848,481.497,839.005z"/>
			<path style="fill:#FFFFFF;" d="M621.876,1061.074c0,0,90.395,86.884,220.65,222.426c32.578,33.87,67.623,70.8,104.406,110.129
				c36.718,39.389,75.325,81.039,114.671,124.666c39.5,43.487,79.736,88.954,120.371,135.374
				c20.15,23.357,40.462,46.898,60.854,70.531c20.101,23.883,40.55,47.634,60.514,71.797c19.958,24.166,40.139,48.15,59.67,72.512
				c9.827,12.13,19.635,24.238,29.415,36.308c9.652,12.174,19.277,24.312,28.865,36.4c9.557,12.114,19.075,24.181,28.547,36.186
				c9.322,12.125,18.595,24.191,27.814,36.182c18.579,23.875,36.364,47.899,53.929,71.474
				c35.084,47.185,68.083,93.492,98.626,137.934c30.496,44.473,58.573,87.065,83.483,127.037
				c12.784,19.776,24.21,39.25,35.215,57.688c5.502,9.222,10.864,18.202,16.075,26.934c5.107,8.795,9.817,17.49,14.518,25.832
				c9.248,16.772,18.27,32.264,25.953,46.961c7.601,14.744,14.581,28.286,20.884,40.518c3.141,6.124,6.112,11.92,8.907,17.372
				c2.599,5.556,5.038,10.765,7.305,15.61c4.536,9.691,8.393,17.936,11.52,24.619c6.255,13.37,9.591,20.5,9.591,20.5
				c2.122,4.532,0.164,9.925-4.366,12.045c-4.533,2.122-9.927,0.166-12.045-4.366l-0.02-0.042l-0.162-0.349
				c0,0-3.263-7.069-9.382-20.323c-3.06-6.628-6.832-14.802-11.268-24.412c-2.22-4.806-4.602-9.971-7.146-15.48
				c-2.741-5.418-5.657-11.177-8.737-17.26c-6.186-12.156-13.035-25.615-20.492-40.27c-7.538-14.614-16.424-30.047-25.514-46.744
				c-4.623-8.306-9.253-16.958-14.281-25.723c-5.135-8.704-10.417-17.658-15.838-26.851c-10.843-18.383-22.095-37.799-34.715-57.545
				c-24.573-39.889-52.304-82.438-82.45-126.898c-30.197-44.433-62.845-90.76-97.587-137.992
				c-17.393-23.603-35.003-47.653-53.415-71.568c-9.133-12.011-18.322-24.096-27.558-36.241
				c-9.39-12.028-18.824-24.118-28.297-36.255c-9.505-12.113-19.047-24.275-28.616-36.474c-9.699-12.098-19.425-24.232-29.171-36.39
				c-19.366-24.418-39.389-48.465-59.187-72.695c-19.803-24.226-40.099-48.048-60.045-72c-20.24-23.707-40.402-47.321-60.402-70.75
				c-40.341-46.569-80.291-92.192-119.523-135.838c-39.075-43.785-77.428-85.593-113.906-125.136
				c-36.543-39.484-71.366-76.564-103.739-110.574c-129.441-136.109-219.261-223.345-219.261-223.345
				c-1.522-1.476-1.556-3.907-0.08-5.428C617.929,1059.647,620.354,1059.613,621.876,1061.074z"/>
		</g>
		<g>
			
				<linearGradient id="SVGID_00000030482506507112480590000005598088938627918475_" gradientUnits="userSpaceOnUse" x1="2763.5037" y1="1857.6351" x2="2768.0188" y2="1430.9586">
				<stop  offset="0" style="stop-color:#09005D"/>
				<stop  offset="1" style="stop-color:#1A0F91"/>
			</linearGradient>
			<path style="fill:url(#SVGID_00000030482506507112480590000005598088938627918475_);" d="M2917.635,1979.061
				c-0.55-6.82-7.516-12.723-19.311-17.455c12.819-7.069,19.91-14.645,19.311-22.076c-1.813-22.484-73.018-35.089-159.042-28.153
				c-86.022,6.937-154.289,30.786-152.476,53.27c0.551,6.82,7.517,12.723,19.312,17.456c-12.819,7.069-19.91,14.645-19.312,22.075
				c0.551,6.82,7.517,12.723,19.312,17.455c-12.819,7.069-19.91,14.645-19.312,22.075c0.551,6.82,7.517,12.723,19.312,17.455
				c-12.819,7.069-19.91,14.645-19.312,22.076c0.803,9.943,15.195,17.951,38.422,23.194c-0.301,7.348-0.133,15.403,0.589,24.294
				c3.365,41.432,49.968,73.917,111.606,73.917c61.639,0,114.988-44.292,115.594-85.857c0.149-10.186-0.284-19.152-1.207-27.119
				c29.492-9.849,47.454-21.879,46.513-33.548c-0.55-6.819-7.516-12.723-19.311-17.455c12.819-7.069,19.91-14.646,19.311-22.076
				c-0.55-6.82-7.516-12.723-19.311-17.455C2911.143,1994.069,2918.234,1986.491,2917.635,1979.061z"/>
			<g>
				
					<linearGradient id="SVGID_00000072272777725373306290000012963733452200168085_" gradientUnits="userSpaceOnUse" x1="2684.9758" y1="1413.1807" x2="2707.5515" y2="1632.1627">
					<stop  offset="0" style="stop-color:#4F52FF"/>
					<stop  offset="1" style="stop-color:#4042E2"/>
				</linearGradient>
				<path style="fill:url(#SVGID_00000072272777725373306290000012963733452200168085_);" d="M2718.79,2115.382
					c-25.548,0-48.924-1.88-68.239-5.579c-1.121-0.214-1.855-1.296-1.641-2.417c0.214-1.119,1.292-1.854,2.417-1.639
					c30.223,5.786,70.59,7.061,113.665,3.588c35.248-2.843,68.212-8.527,95.326-16.442c1.098-0.319,2.242,0.309,2.563,1.405
					c0.32,1.096-0.309,2.243-1.405,2.562c-27.38,7.991-60.629,13.729-96.151,16.593
					C2749.325,2114.742,2733.689,2115.382,2718.79,2115.382z"/>
				
					<linearGradient id="SVGID_00000116924252620809251930000003829394770534064009_" gradientUnits="userSpaceOnUse" x1="2697.1082" y1="1411.9297" x2="2719.6836" y2="1630.9125">
					<stop  offset="0" style="stop-color:#4F52FF"/>
					<stop  offset="1" style="stop-color:#4042E2"/>
				</linearGradient>
				<path style="fill:url(#SVGID_00000116924252620809251930000003829394770534064009_);" d="M2719.219,2075.815
					c-33.194,0-62.857-3.122-83.781-9.081c-1.098-0.313-1.733-1.456-1.421-2.553c0.313-1.098,1.451-1.732,2.554-1.421
					c29.814,8.49,77.823,11.122,128.422,7.043c50.053-4.037,96.733-14.192,124.87-27.17c1.037-0.476,2.264-0.025,2.742,1.011
					c0.477,1.035,0.026,2.263-1.01,2.742c-28.555,13.169-75.758,23.463-126.268,27.535
					C2749.563,2075.193,2734.038,2075.815,2719.219,2075.815z"/>
				
					<linearGradient id="SVGID_00000074404921685353997860000007383642259897851522_" gradientUnits="userSpaceOnUse" x1="2698.8047" y1="1411.7531" x2="2721.3801" y2="1630.7357">
					<stop  offset="0" style="stop-color:#4F52FF"/>
					<stop  offset="1" style="stop-color:#4042E2"/>
				</linearGradient>
				<path style="fill:url(#SVGID_00000074404921685353997860000007383642259897851522_);" d="M2718.794,2036.314
					c-35.839,0-67.202-3.667-88.312-10.628c-1.084-0.357-1.673-1.525-1.315-2.609c0.357-1.084,1.521-1.674,2.608-1.315
					c29.377,9.686,79.178,12.866,133.218,8.511c50.049-4.035,96.729-14.193,124.87-27.17c1.037-0.475,2.264-0.024,2.742,1.01
					c0.477,1.035,0.026,2.263-1.01,2.741c-28.559,13.171-75.762,23.465-126.268,27.537
					C2749.32,2035.683,2733.67,2036.314,2718.794,2036.314z"/>
				
					<linearGradient id="SVGID_00000123413393013483913500000008079946866174249134_" gradientUnits="userSpaceOnUse" x1="2709.2349" y1="1410.6796" x2="2731.8105" y2="1629.6626">
					<stop  offset="0" style="stop-color:#4F52FF"/>
					<stop  offset="1" style="stop-color:#4042E2"/>
				</linearGradient>
				<path style="fill:url(#SVGID_00000123413393013483913500000008079946866174249134_);" d="M2719.07,1996.764
					c-28.43,0-54.287-2.299-74.389-6.765c-1.114-0.247-1.817-1.351-1.569-2.464c0.247-1.116,1.355-1.818,2.465-1.569
					c30.229,6.717,73.755,8.457,119.416,4.775c49.604-4,96.046-14.046,124.233-26.877c1.037-0.475,2.263-0.015,2.736,1.024
					c0.473,1.038,0.014,2.263-1.025,2.736c-28.598,13.018-75.556,23.199-125.61,27.235
					C2749.51,1996.135,2733.937,1996.764,2719.07,1996.764z"/>
			</g>
			
				<linearGradient id="SVGID_00000156582545374189419960000004066634107905848202_" gradientUnits="userSpaceOnUse" x1="2789.7134" y1="1997.7554" x2="2749.0774" y2="914.1358">
				<stop  offset="0" style="stop-color:#FF928E"/>
				<stop  offset="1" style="stop-color:#FE7062"/>
			</linearGradient>
			<path style="fill:url(#SVGID_00000156582545374189419960000004066634107905848202_);" d="M2548.381,1779.516
				c-10.448-37.005-28.194-71.589-52.094-101.711c-51.21-64.541-134.755-195.799-145.038-374.943
				c-14.958-260.573,216.14-391.03,427.022-373.32c210.88,17.709,418.967,174.727,396.188,417.14
				c-14.016,149.156-97.502,262.294-159.66,327.268c-39.473,41.258-67.627,91.794-82.868,146.82
				c-18.654,67.351-63.047,151.284-168.564,156.4C2626.83,1983.791,2570.123,1856.524,2548.381,1779.516z"/>
			
				<linearGradient id="SVGID_00000026123055393571360950000014136311990314703280_" gradientUnits="userSpaceOnUse" x1="2800.4941" y1="65.7418" x2="2820.8108" y2="832.706">
				<stop  offset="0" style="stop-color:#E1473D"/>
				<stop  offset="1" style="stop-color:#E9605A"/>
			</linearGradient>
			<path style="fill:url(#SVGID_00000026123055393571360950000014136311990314703280_);" d="M2798.243,1925.207l73.787-479.918
				c1.524-9.914,6.404-16.574,10.898-14.873c4.495,1.702,6.902,11.119,5.379,21.034c-0.041,0.263-0.095,0.59-0.141,0.85
				l-84.049,475.458c-0.633,3.576-2.447,5.834-4.056,5.043C2798.502,1932.036,2797.714,1928.669,2798.243,1925.207z"/>
			
				<linearGradient id="SVGID_00000156562905053806783520000004752756612995424165_" gradientUnits="userSpaceOnUse" x1="2633.5513" y1="70.1626" x2="2653.8679" y2="837.1265">
				<stop  offset="0" style="stop-color:#E1473D"/>
				<stop  offset="1" style="stop-color:#E9605A"/>
			</linearGradient>
			<path style="fill:url(#SVGID_00000156562905053806783520000004752756612995424165_);" d="M2721.649,1929.018l-73.787-479.918
				c-1.525-9.914-6.404-16.572-10.899-14.871c-4.494,1.701-6.902,11.117-5.377,21.032c0.04,0.264,0.095,0.59,0.14,0.851
				l84.05,475.458c0.631,3.576,2.447,5.834,4.055,5.043C2721.39,1935.847,2722.179,1932.48,2721.649,1929.018z"/>
			<path style="fill:#FFFFFF;" d="M2871.5,1404.083c-1.873-3.013-6.209-4.139-9.686-2.514l-41.086,19.198l-14.261-40.636
				c-0.755-2.121-2.503-4-4.996-5.028c-4.727-1.948-10.379-0.205-12.625,3.892l-0.072,0.131l-33.79,61.608l-31.354-87.701
				l-0.052-0.146c-0.767-2.139-2.386-4.062-4.746-5.351c-5.257-2.87-12.203-1.503-15.514,3.056l-47.238,65.028
				c-1.921,2.665-1.26,6.235,1.665,8.206c3.121,2.103,7.619,1.614,10.045-1.092l41.591-46.396l37.447,83.429l0.028,0.064
				c0.601,1.335,1.73,2.5,3.3,3.234c3.513,1.646,7.9,0.511,9.799-2.535l36.138-57.99l13.601,29.331l0.119,0.261
				c0.099,0.21,0.211,0.418,0.338,0.623c1.872,3.011,6.204,4.136,9.677,2.513l48.77-22.788
				C2872.076,1410.856,2873.375,1407.097,2871.5,1404.083z"/>
			<path style="fill:#FFFFFF;" d="M3016.403,1612.083c-1.942,0-3.9-0.598-5.576-1.848c-4.154-3.079-5.022-8.946-1.94-13.105
				c12.566-16.923,24.083-34.419,34.231-51.989c2.588-4.476,8.312-6.013,12.794-3.427c4.479,2.586,6.016,8.312,3.427,12.794
				c-10.504,18.192-22.417,36.291-35.407,53.794C3022.094,1610.778,3019.267,1612.083,3016.403,1612.083z"/>
			<path style="fill:#FFFFFF;" d="M3077.104,1507.904c-1.244,0-2.509-0.25-3.726-0.774c-4.745-2.061-6.922-7.58-4.861-12.325
				c77.971-179.561,10.727-330.277,10.041-331.777c-2.159-4.702-0.094-10.264,4.611-12.416c4.714-2.153,10.267-0.092,12.417,4.61
				c2.955,6.44,71.385,159.888-9.883,347.048C3084.169,1505.8,3080.723,1507.904,3077.104,1507.904z"/>
		</g>
		<g>
			
				<linearGradient id="SVGID_00000017498598240370764780000013812048500394660264_" gradientUnits="userSpaceOnUse" x1="984.7262" y1="1460.0001" x2="1007.3017" y2="1114.595">
				<stop  offset="0" style="stop-color:#09005D"/>
				<stop  offset="1" style="stop-color:#1A0F91"/>
			</linearGradient>
			<path style="fill:url(#SVGID_00000017498598240370764780000013812048500394660264_);" d="M1118.08,1544.737
				c-0.497-6.165-6.794-11.501-17.457-15.779c11.588-6.39,17.998-13.239,17.457-19.956c-1.639-20.325-66.007-31.72-143.77-25.45
				c-77.762,6.271-139.473,27.83-137.835,48.155c0.498,6.165,6.795,11.501,17.458,15.78c-11.588,6.39-17.998,13.238-17.458,19.955
				c0.498,6.165,6.795,11.501,17.458,15.779c-11.588,6.39-17.998,13.239-17.458,19.955c0.498,6.165,6.795,11.501,17.458,15.779
				c-11.588,6.39-17.998,13.239-17.458,19.956c0.726,8.989,13.736,16.227,34.732,20.967c-0.272,6.643-0.12,13.924,0.533,21.962
				c3.042,37.454,45.17,66.819,100.889,66.819c55.72,0,103.947-40.039,104.494-77.612c0.134-9.208-0.257-17.313-1.091-24.515
				c26.66-8.903,42.897-19.778,42.047-30.327c-0.497-6.165-6.794-11.501-17.457-15.779c11.588-6.39,17.998-13.239,17.457-19.956
				c-0.497-6.165-6.794-11.501-17.457-15.779C1112.211,1558.303,1118.621,1551.453,1118.08,1544.737z"/>
			<g>
				
					<linearGradient id="SVGID_00000063631362922570973000000006140638573073949344_" gradientUnits="userSpaceOnUse" x1="950.3094" y1="1234.3942" x2="963.8547" y2="1498.526">
					<stop  offset="0" style="stop-color:#4F52FF"/>
					<stop  offset="1" style="stop-color:#4042E2"/>
				</linearGradient>
				<path style="fill:url(#SVGID_00000063631362922570973000000006140638573073949344_);" d="M938.329,1667.967
					c-23.095,0-44.226-1.699-61.686-5.043c-1.013-0.193-1.677-1.171-1.483-2.185c0.194-1.012,1.167-1.676,2.185-1.482
					c27.321,5.231,63.811,6.383,102.751,3.243c31.863-2.57,61.662-7.708,86.172-14.863c0.992-0.288,2.027,0.28,2.317,1.27
					c0.289,0.991-0.279,2.027-1.27,2.316c-24.751,7.224-54.807,12.411-86.918,15
					C965.932,1667.389,951.797,1667.967,938.329,1667.967z"/>
				
					<linearGradient id="SVGID_00000173143242764854252260000009057394732731749284_" gradientUnits="userSpaceOnUse" x1="959.1826" y1="1233.9377" x2="972.728" y2="1498.0703">
					<stop  offset="0" style="stop-color:#4F52FF"/>
					<stop  offset="1" style="stop-color:#4042E2"/>
				</linearGradient>
				<path style="fill:url(#SVGID_00000173143242764854252260000009057394732731749284_);" d="M938.717,1632.2
					c-30.007,0-56.821-2.823-75.736-8.208c-0.992-0.283-1.567-1.316-1.285-2.308c0.283-0.992,1.312-1.566,2.308-1.285
					c26.951,7.675,70.35,10.054,116.091,6.367c45.247-3.649,87.444-12.83,112.879-24.561c0.938-0.43,2.047-0.023,2.479,0.914
					c0.431,0.936,0.023,2.046-0.913,2.479c-25.813,11.904-68.484,21.21-114.143,24.891
					C966.147,1631.637,952.112,1632.2,938.717,1632.2z"/>
				
					<linearGradient id="SVGID_00000089546026446801610960000015581045662776594090_" gradientUnits="userSpaceOnUse" x1="958.8472" y1="1233.9551" x2="972.3926" y2="1498.087">
					<stop  offset="0" style="stop-color:#4F52FF"/>
					<stop  offset="1" style="stop-color:#4042E2"/>
				</linearGradient>
				<path style="fill:url(#SVGID_00000089546026446801610960000015581045662776594090_);" d="M938.332,1596.492
					c-32.398,0-60.749-3.315-79.832-9.607c-0.98-0.322-1.512-1.379-1.188-2.359c0.322-0.98,1.375-1.513,2.357-1.189
					c26.556,8.755,71.575,11.63,120.425,7.694c45.243-3.648,87.441-12.83,112.879-24.561c0.938-0.43,2.047-0.022,2.479,0.913
					c0.431,0.936,0.023,2.046-0.913,2.478c-25.816,11.906-68.487,21.212-114.143,24.893
					C965.927,1595.921,951.78,1596.492,938.332,1596.492z"/>
				
					<linearGradient id="SVGID_00000146475508684445877520000011216744130653933733_" gradientUnits="userSpaceOnUse" x1="966.5999" y1="1233.557" x2="980.1453" y2="1497.6895">
					<stop  offset="0" style="stop-color:#4F52FF"/>
					<stop  offset="1" style="stop-color:#4042E2"/>
				</linearGradient>
				<path style="fill:url(#SVGID_00000146475508684445877520000011216744130653933733_);" d="M938.582,1560.74
					c-25.701,0-49.074-2.078-67.246-6.115c-1.007-0.224-1.643-1.221-1.419-2.227c0.224-1.009,1.225-1.644,2.228-1.419
					c27.326,6.072,66.673,7.645,107.949,4.317c44.84-3.616,86.823-12.698,112.303-24.296c0.938-0.43,2.046-0.014,2.473,0.926
					c0.428,0.939,0.012,2.046-0.927,2.474c-25.852,11.768-68.301,20.972-113.548,24.619
					C966.099,1560.171,952.022,1560.74,938.582,1560.74z"/>
			</g>
			
				<linearGradient id="SVGID_00000018927251943152393720000016666475258469334941_" gradientUnits="userSpaceOnUse" x1="1024.1609" y1="1623.5852" x2="956.4345" y2="587.3714">
				<stop  offset="0" style="stop-color:#FF928E"/>
				<stop  offset="1" style="stop-color:#FE7062"/>
			</linearGradient>
			<path style="fill:url(#SVGID_00000018927251943152393720000016666475258469334941_);" d="M784.283,1364.353
				c-9.445-33.451-25.487-64.715-47.092-91.944c-46.293-58.344-121.815-176.998-131.11-338.94
				c-13.522-235.552,195.386-353.482,386.017-337.472c190.631,16.009,378.736,157.949,358.144,377.084
				c-12.67,134.833-88.14,237.107-144.329,295.842c-35.682,37.297-61.133,82.979-74.911,132.722
				c-16.862,60.884-56.993,136.757-152.378,141.382C855.2,1549.012,803.937,1433.966,784.283,1364.353z"/>
			
				<linearGradient id="SVGID_00000037663509859429221270000002988950232066348459_" gradientUnits="userSpaceOnUse" x1="1020.075" y1="112.9034" x2="1040.3918" y2="879.869">
				<stop  offset="0" style="stop-color:#E1473D"/>
				<stop  offset="1" style="stop-color:#E9605A"/>
			</linearGradient>
			<path style="fill:url(#SVGID_00000037663509859429221270000002988950232066348459_);" d="M1010.153,1496.054l66.702-433.834
				c1.377-8.962,5.789-14.982,9.851-13.444c4.063,1.539,6.24,10.051,4.862,19.014c-0.037,0.238-0.086,0.533-0.128,0.769
				l-75.978,429.802c-0.572,3.232-2.212,5.274-3.667,4.559C1010.387,1502.228,1009.675,1499.183,1010.153,1496.054z"/>
			
				<linearGradient id="SVGID_00000036968325689267515630000001632645293753798302_" gradientUnits="userSpaceOnUse" x1="869.1627" y1="116.9035" x2="889.4795" y2="883.8688">
				<stop  offset="0" style="stop-color:#E1473D"/>
				<stop  offset="1" style="stop-color:#E9605A"/>
			</linearGradient>
			<path style="fill:url(#SVGID_00000036968325689267515630000001632645293753798302_);" d="M940.914,1499.499l-66.701-433.834
				c-1.379-8.962-5.789-14.981-9.852-13.443c-4.063,1.538-6.24,10.05-4.861,19.013c0.036,0.238,0.086,0.533,0.127,0.769
				l75.979,429.802c0.571,3.232,2.212,5.274,3.666,4.559C940.68,1505.672,941.393,1502.629,940.914,1499.499z"/>
			<path style="fill:#FFFFFF;" d="M1076.375,1024.971c-1.693-2.724-5.613-3.742-8.756-2.273l-37.141,17.354l-12.892-36.734
				c-0.682-1.917-2.262-3.616-4.517-4.545c-4.273-1.761-9.382-0.186-11.413,3.518l-0.065,0.119l-30.545,55.692l-28.344-79.279
				l-0.047-0.132c-0.694-1.934-2.157-3.672-4.29-4.837c-4.753-2.594-11.031-1.358-14.024,2.763l-42.702,58.784
				c-1.737,2.409-1.139,5.637,1.505,7.418c2.821,1.901,6.888,1.459,9.081-0.987l37.598-41.94l33.851,75.418l0.025,0.058
				c0.544,1.206,1.564,2.26,2.983,2.923c3.176,1.487,7.141,0.462,8.858-2.292l32.668-52.422l12.295,26.515l0.108,0.236
				c0.089,0.19,0.191,0.378,0.306,0.563c1.692,2.722,5.608,3.739,8.748,2.272l44.087-20.6
				C1076.895,1031.093,1078.07,1027.695,1076.375,1024.971z"/>
			<path style="fill:#FFFFFF;" d="M1207.364,1212.998c-1.756,0-3.525-0.54-5.041-1.67c-3.755-2.784-4.54-8.087-1.753-11.847
				c11.359-15.298,21.77-31.114,30.944-46.997c2.34-4.046,7.514-5.436,11.566-3.098c4.049,2.338,5.438,7.514,3.098,11.566
				c-9.496,16.445-20.265,32.807-32.007,48.629C1212.508,1211.818,1209.952,1212.998,1207.364,1212.998z"/>
			<path style="fill:#FFFFFF;" d="M1262.236,1118.822c-1.125,0-2.268-0.226-3.368-0.7c-4.289-1.864-6.257-6.853-4.394-11.141
				c70.484-162.319,9.697-298.563,9.077-299.919c-1.952-4.251-0.085-9.278,4.168-11.224c4.262-1.946,9.281-0.083,11.224,4.168
				c2.671,5.821,64.53,144.535-8.933,313.722C1268.623,1116.921,1265.508,1118.822,1262.236,1118.822z"/>
		</g>
		<g>
			<g>
				<g style="opacity:0.3;">
					<path style="fill:#91B3FA;" d="M2375.531,824.24c-4.127,0.019-7.688-3.083-8.146-7.276c-1.005-9.17-1.625-18.52-1.845-27.789
						c-0.107-4.51,3.461-8.253,7.969-8.36c0.054,0,0.107,0,0.159-0.001c4.437-0.021,8.094,3.516,8.199,7.971
						c0.209,8.807,0.799,17.688,1.752,26.398c0.492,4.483-2.745,8.517-7.229,9.007
						C2376.103,824.225,2375.815,824.239,2375.531,824.24z M2375.724,753.096c-0.319,0.002-0.643-0.016-0.968-0.053
						c-4.481-0.509-7.703-4.554-7.195-9.036c1.046-9.205,2.496-18.456,4.31-27.495c0.887-4.422,5.172-7.278,9.614-6.403
						c4.422,0.888,7.286,5.194,6.399,9.613c-1.724,8.592-3.101,17.381-4.093,26.129
						C2383.32,750.008,2379.806,753.077,2375.724,753.096z M2391.577,683.765c-0.909,0.004-1.835-0.145-2.742-0.462
						c-4.255-1.495-6.495-6.155-5.002-10.411c3.06-8.723,6.539-17.423,10.341-25.855c1.856-4.111,6.692-5.936,10.801-4.089
						c4.111,1.853,5.942,6.69,4.089,10.801c-3.61,8.008-6.913,16.267-9.82,24.552
						C2398.07,681.648,2394.933,683.749,2391.577,683.765z M2422.542,619.705c-1.502,0.007-3.024-0.401-4.389-1.262
						c-3.814-2.406-4.954-7.451-2.547-11.264c4.94-7.823,10.276-15.526,15.86-22.896c2.725-3.589,7.845-4.295,11.441-1.575
						c3.594,2.723,4.299,7.846,1.575,11.441c-5.304,6.998-10.374,14.314-15.064,21.75
						C2427.871,618.347,2425.239,619.692,2422.542,619.705z M2467.013,564.16c-2.107,0.01-4.216-0.791-5.82-2.4
						c-3.186-3.194-3.178-8.365,0.016-11.548c6.534-6.516,13.441-12.845,20.527-18.805c3.449-2.906,8.601-2.465,11.506,0.989
						c2.903,3.451,2.46,8.602-0.991,11.508c-6.736,5.665-13.3,11.681-19.51,17.873
						C2471.156,563.356,2469.086,564.15,2467.013,564.16z M2522.66,519.839c-2.729,0.013-5.402-1.34-6.961-3.821
						c-2.399-3.82-1.249-8.859,2.569-11.26c7.826-4.917,15.962-9.562,24.181-13.798c4.011-2.067,8.934-0.492,11.001,3.518
						c2.067,4.006,0.492,8.933-3.516,11c-7.809,4.027-15.539,8.437-22.975,13.11C2525.62,519.43,2524.132,519.832,2522.66,519.839z
						 M2821.811,498.993c-1.131,0.005-2.279-0.225-3.377-0.718c-8.004-3.593-16.274-6.884-24.578-9.78
						c-4.258-1.486-6.506-6.142-5.021-10.398c1.484-4.259,6.14-6.508,10.4-5.022c8.745,3.05,17.456,6.515,25.886,10.297
						c4.115,1.847,5.954,6.681,4.107,10.795C2827.874,497.185,2824.914,498.979,2821.811,498.993z M2586.704,488.972
						c-3.388,0.016-6.564-2.094-7.745-5.47c-1.49-4.258,0.753-8.916,5.009-10.407c8.725-3.055,17.689-5.767,26.643-8.062
						c4.373-1.099,8.819,1.512,9.939,5.883c1.119,4.368-1.515,8.818-5.885,9.939c-8.504,2.177-17.016,4.753-25.301,7.654
						C2588.483,488.817,2587.586,488.968,2586.704,488.972z M2754.037,477.37c-0.539,0.003-1.086-0.046-1.636-0.155
						c-8.611-1.711-17.411-3.07-26.153-4.046c-4.483-0.502-7.711-4.542-7.21-9.023c0.502-4.481,4.538-7.731,9.023-7.21
						c9.198,1.029,18.458,2.459,27.519,4.257c4.424,0.879,7.299,5.178,6.42,9.601C2761.232,474.667,2757.84,477.353,2754.037,477.37
						z M2656.037,473.185c-4.121,0.019-7.678-3.074-8.145-7.261c-0.5-4.483,2.729-8.521,7.212-9.023
						c9.177-1.022,18.523-1.663,27.776-1.897c0.057-0.004,0.116-0.004,0.174-0.004c4.431-0.021,8.084,3.506,8.199,7.956
						c0.115,4.51-3.445,8.259-7.955,8.373c-8.789,0.226-17.666,0.835-26.385,1.808
						C2656.619,473.167,2656.326,473.184,2656.037,473.185z"/>
					<path style="fill:#91B3FA;" d="M2871.789,527.108c-1.608,0.008-3.236-0.457-4.661-1.439c-3.468-2.389-7.043-4.742-10.627-7.003
						c-3.815-2.403-4.96-7.448-2.555-11.262c2.403-3.817,7.449-4.967,11.263-2.554c3.771,2.375,7.53,4.852,11.18,7.364
						c3.714,2.557,4.654,7.644,2.097,11.356C2876.909,525.862,2874.373,527.096,2871.789,527.108z"/>
				</g>
				<g style="opacity:0.3;">
					<path style="fill:#91B3FA;" d="M3005.442,737.167c-3.941,0.018-7.424-2.823-8.087-6.836c-0.685-4.154-1.468-8.364-2.33-12.51
						c-0.917-4.417,1.919-8.74,6.335-9.657c4.435-0.92,8.74,1.921,9.657,6.335c0.906,4.366,1.732,8.799,2.454,13.173
						c0.734,4.45-2.278,8.652-6.728,9.388C3006.306,737.131,3005.871,737.165,3005.442,737.167z"/>
					<path style="fill:#91B3FA;" d="M2693.481,1107.248c-3.757,0.018-7.53-0.029-11.315-0.138c-4.508-0.132-8.057-3.892-7.927-8.4
						c0.131-4.508,3.913-8.073,8.399-7.928c8.737,0.253,17.464,0.151,26.038-0.31c4.508-0.235,8.351,3.211,8.594,7.714
						c0.242,4.506-3.213,8.354-7.717,8.595C2704.25,1107.066,2698.842,1107.223,2693.481,1107.248z M2639.255,1102.918
						c-0.456,0.002-0.92-0.034-1.386-0.112c-8.989-1.492-18.014-3.383-26.824-5.62c-4.371-1.109-7.016-5.552-5.907-9.922
						c1.11-4.372,5.562-7.028,9.925-5.906c8.368,2.124,16.941,3.918,25.483,5.339c4.448,0.738,7.456,4.945,6.717,9.391
						C2646.601,1100.073,2643.161,1102.9,2639.255,1102.918z M2752.203,1101.502c-3.85,0.018-7.291-2.7-8.047-6.616
						c-0.855-4.43,2.042-8.712,6.47-9.569c8.471-1.635,16.987-3.656,25.314-6.011c4.343-1.22,8.854,1.298,10.08,5.637
						c1.226,4.342-1.299,8.855-5.639,10.081c-8.769,2.478-17.739,4.606-26.66,6.329
						C2753.212,1101.452,2752.703,1101.499,2752.203,1101.502z M2571.859,1083.906c-1.037,0.005-2.09-0.191-3.11-0.604
						c-8.433-3.428-16.822-7.258-24.931-11.383c-4.019-2.045-5.62-6.96-3.575-10.979c2.045-4.022,6.958-5.625,10.98-3.576
						c7.7,3.916,15.665,7.554,23.674,10.808c4.179,1.696,6.188,6.463,4.49,10.64
						C2578.106,1081.969,2575.07,1083.891,2571.859,1083.906z M2819.009,1080.708c-3.158,0.015-6.175-1.815-7.523-4.893
						c-1.809-4.132,0.074-8.948,4.207-10.757c7.9-3.456,15.762-7.302,23.372-11.427c3.965-2.15,8.922-0.68,11.072,3.288
						c2.148,3.965,0.677,8.919-3.288,11.068c-8.01,4.344-16.289,8.393-24.607,12.033
						C2821.189,1080.481,2820.09,1080.703,2819.009,1080.708z M2879.636,1045.759c-2.525,0.012-5.02-1.144-6.628-3.334
						c-2.668-3.637-1.883-8.748,1.754-11.416c6.973-5.118,13.813-10.589,20.327-16.259c3.398-2.967,8.555-2.611,11.521,0.795
						c2.962,3.403,2.605,8.559-0.796,11.523c-6.856,5.969-14.052,11.725-21.391,17.109
						C2882.978,1045.236,2881.301,1045.751,2879.636,1045.759z M2931.202,998.423c-1.92,0.009-3.85-0.655-5.41-2.019
						c-3.396-2.967-3.742-8.127-0.773-11.522c5.699-6.518,11.184-13.345,16.303-20.298c2.674-3.63,7.782-4.41,11.418-1.732
						c3.63,2.676,4.407,7.785,1.732,11.419c-5.389,7.314-11.161,14.503-17.156,21.361
						C2935.71,997.468,2933.463,998.413,2931.202,998.423z M2971.214,940.973c-1.331,0.006-2.68-0.313-3.932-0.993
						c-3.963-2.154-5.428-7.111-3.274-11.073c4.134-7.602,7.987-15.464,11.456-23.373c1.812-4.13,6.634-6.009,10.758-4.201
						c4.132,1.812,6.011,6.629,4.199,10.759c-3.653,8.33-7.712,16.611-12.063,24.613
						C2976.883,939.418,2974.096,940.959,2971.214,940.973z M2997.648,876.114c-0.748,0.003-1.509-0.098-2.265-0.312
						c-4.339-1.227-6.863-5.742-5.634-10.079c2.349-8.305,4.374-16.819,6.019-25.312c0.858-4.428,5.156-7.317,9.57-6.463
						c4.428,0.857,7.323,5.143,6.465,9.572c-1.732,8.94-3.864,17.904-6.338,26.647
						C3004.451,873.75,3001.195,876.098,2997.648,876.114z M3009.18,807.08c-0.167,0.001-0.336-0.005-0.506-0.014
						c-4.502-0.253-7.948-4.11-7.693-8.612c0.358-6.356,0.524-12.797,0.494-19.152c-0.011-2.3-0.049-4.596-0.109-6.883
						c-0.118-4.51,3.44-8.262,7.948-8.379c4.562-0.21,8.259,3.439,8.379,7.945c0.064,2.408,0.102,4.82,0.114,7.241
						c0.031,6.683-0.144,13.462-0.521,20.147C3017.043,803.706,3013.462,807.06,3009.18,807.08z"/>
					<path style="fill:#91B3FA;" d="M2510.147,1050.404c-1.624,0.008-3.264-0.466-4.696-1.461
						c-3.629-2.525-7.273-5.175-10.832-7.876c-3.594-2.727-4.296-7.85-1.569-11.442c2.728-3.592,7.846-4.299,11.442-1.569
						c3.381,2.565,6.843,5.082,10.287,7.48c3.701,2.573,4.615,7.663,2.04,11.366
						C2515.238,1049.171,2512.715,1050.392,2510.147,1050.404z"/>
				</g>
				<g>
					<path style="fill:#91B3FA;" d="M2520.722,955.633c1.035,1.256,2.754,1.718,4.28,1.149l43.524-16.237
						c17.25,13.156,36.721,23.657,57.868,30.815l10.845,45.139c0.38,1.584,1.724,2.751,3.344,2.908l55.463,5.356
						c1.621,0.156,3.163-0.733,3.839-2.213l19.282-42.23c22.126-2.98,43.247-9.56,62.695-19.173l39.613,24.266
						c1.388,0.85,3.163,0.726,4.42-0.309l43.005-35.431c1.257-1.036,1.719-2.755,1.149-4.28l-16.237-43.523
						c13.156-17.249,23.657-36.722,30.814-57.868l45.14-10.846c1.583-0.38,2.75-1.723,2.907-3.344l5.356-55.464
						c0.157-1.621-0.732-3.162-2.214-3.838l-42.23-19.282c-2.979-22.126-9.559-43.247-19.173-62.695l24.266-39.614
						c0.85-1.388,0.726-3.163-0.309-4.42l-35.432-43.005c-1.035-1.258-2.754-1.718-4.28-1.149l-43.524,16.238
						c-17.249-13.157-36.721-23.658-57.868-30.815l-10.845-45.14c-0.381-1.583-1.723-2.751-3.344-2.908l-55.464-5.355
						c-1.621-0.157-3.162,0.732-3.838,2.214l-19.282,42.23c-22.126,2.978-43.247,9.56-62.695,19.173l-39.612-24.265
						c-1.388-0.851-3.165-0.727-4.421,0.308l-43.005,35.432c-1.257,1.035-1.718,2.754-1.149,4.28l16.237,43.523
						c-13.157,17.249-23.657,36.722-30.814,57.868l-45.14,10.846c-1.583,0.38-2.751,1.723-2.907,3.345l-5.355,55.462
						c-0.156,1.621,0.732,3.163,2.213,3.839l42.23,19.282c2.979,22.126,9.56,43.246,19.173,62.695l-24.265,39.613
						c-0.851,1.389-0.727,3.163,0.309,4.421L2520.722,955.633z"/>
					<g>
						<path style="fill:#BDD0FB;" d="M2692.056,834.575c-27.302,0.128-51.37-19.808-55.598-47.586
							c-4.646-30.535,16.414-59.152,46.946-63.799c14.792-2.255,29.574,1.392,41.621,10.258
							c12.05,8.866,19.927,21.895,22.176,36.686c4.646,30.535-16.414,59.152-46.946,63.799
							C2697.503,834.352,2694.762,834.562,2692.056,834.575z M2691.719,735.611c-2.108,0.01-4.227,0.173-6.35,0.496
							c-23.409,3.562-39.556,25.508-35.995,48.915c3.563,23.41,25.501,39.567,48.917,35.996
							c23.409-3.561,39.556-25.507,35.994-48.915c-1.726-11.342-7.764-21.33-17.003-28.13
							C2709.772,738.448,2700.876,735.568,2691.719,735.611z"/>
					</g>
					<path style="fill:#BDD0FB;" d="M2693.581,915.466c-4.689,0.022-9.407-0.192-14.138-0.648l0,0
						c-1.489-0.143-2.976-0.311-4.46-0.502c-7.318-0.945-14.548-2.471-21.581-4.553c-0.096-0.028-0.192-0.057-0.288-0.085
						c-0.272-0.082-0.543-0.163-0.815-0.248c-0.529-0.16-1.055-0.327-1.581-0.493c-1.383-0.44-2.268-1.715-2.276-3.093
						c-0.002-0.335,0.049-0.676,0.156-1.012c0.547-1.719,2.386-2.662,4.104-2.118c8.845,2.82,18.052,4.704,27.367,5.601
						c46.271,4.476,89.329-15.785,116.042-49.941c14.861-18.996,24.663-42.294,27.147-68.029c0.437-4.513,0.642-9.015,0.62-13.487
						c-0.145-30.1-10.55-58.994-29.949-82.537c-22.281-27.045-53.762-43.795-88.639-47.163
						c-72.033-6.948-136.237,45.971-143.189,117.97c-0.429,4.439-0.631,8.884-0.609,13.315c0.093,19.2,4.386,38.167,12.639,55.523
						c0.213,0.449,0.315,0.92,0.316,1.386c0.006,1.225-0.683,2.405-1.864,2.966c-1.633,0.77-3.579,0.087-4.354-1.549
						c-8.663-18.222-13.173-38.135-13.271-58.292c-0.023-4.651,0.189-9.315,0.638-13.975
						c7.298-75.592,74.755-131.143,150.32-123.848c36.617,3.535,69.663,21.12,93.054,49.512
						c20.366,24.716,31.289,55.05,31.442,86.649c0.022,4.695-0.194,9.421-0.65,14.157c-3.537,36.618-21.12,69.666-49.511,93.057
						C2755.529,904.396,2725.186,915.317,2693.581,915.466z"/>
				</g>
			</g>
			<g>
				<g style="opacity:0.3;">
					<path style="fill:#91B3FA;" d="M2097.865,1040.751c-2.182,0.01-4.199-1.404-4.854-3.602c-1.226-4.103-2.344-8.299-3.322-12.471
						c-0.636-2.711,1.046-5.423,3.76-6.062c2.714-0.648,5.426,1.048,6.062,3.759c0.932,3.976,1.998,7.975,3.167,11.891
						c0.798,2.666-0.721,5.475-3.389,6.276C2098.813,1040.683,2098.336,1040.749,2097.865,1040.751z"/>
					<path style="fill:#91B3FA;" d="M2090.222,1002.712c-2.556,0.012-4.757-1.914-5.033-4.508
						c-0.783-7.331-1.198-14.786-1.232-22.155c-0.007-1.551,0.003-3.108,0.028-4.67c0.048-2.788,2.491-4.903,5.126-4.964
						c2.785,0.046,5.005,2.341,4.962,5.124c-0.025,1.493-0.035,2.981-0.029,4.463c0.033,7.029,0.428,14.14,1.173,21.13
						c0.297,2.772-1.709,5.254-4.478,5.553C2090.564,1002.7,2090.392,1002.711,2090.222,1002.712z M2091.084,950.348
						c-0.239,0.001-0.483-0.012-0.724-0.045c-2.76-0.386-4.686-2.934-4.302-5.694c1.229-8.853,3.021-17.707,5.322-26.314
						c0.719-2.693,3.497-4.282,6.175-3.57c2.693,0.721,4.289,3.482,3.57,6.175c-2.196,8.212-3.902,16.657-5.076,25.1
						C2095.698,948.514,2093.552,950.336,2091.084,950.348z M2104.619,899.758c-0.64,0.003-1.291-0.118-1.92-0.37
						c-2.581-1.047-3.822-3.992-2.774-6.573c3.36-8.267,7.272-16.417,11.634-24.215c1.361-2.435,4.425-3.301,6.865-1.939
						c2.43,1.358,3.299,4.433,1.941,6.862c-4.159,7.438-7.891,15.203-11.093,23.089
						C2108.478,898.562,2106.602,899.748,2104.619,899.758z M2130.179,854.041c-1.044,0.005-2.097-0.315-3.004-0.976
						c-2.244-1.649-2.73-4.809-1.08-7.053c5.293-7.206,11.078-14.144,17.2-20.625c1.914-2.023,5.108-2.108,7.129-0.201
						c2.026,1.911,2.117,5.103,0.203,7.131c-5.835,6.175-11.355,12.796-16.401,19.666
						C2133.242,853.322,2131.723,854.033,2130.179,854.041z M2166.127,815.954c-1.458,0.007-2.909-0.617-3.913-1.829
						c-1.775-2.144-1.475-5.322,0.669-7.101c6.879-5.692,14.174-11.016,21.682-15.819c2.347-1.508,5.466-0.818,6.967,1.529
						c1.501,2.347,0.816,5.468-1.529,6.967c-7.165,4.585-14.123,9.662-20.686,15.096
						C2168.384,815.57,2167.253,815.949,2166.127,815.954z M2210.225,787.751c-1.889,0.009-3.707-1.052-4.577-2.87
						c-1.201-2.511-0.136-5.521,2.375-6.724c8.055-3.85,16.427-7.234,24.882-10.052c2.653-0.874,5.499,0.551,6.381,3.192
						c0.881,2.641-0.548,5.499-3.189,6.379c-8.063,2.688-16.042,5.912-23.721,9.583
						C2211.68,787.591,2210.947,787.747,2210.225,787.751z M2259.866,771.189c-2.364,0.011-4.483-1.648-4.964-4.05
						c-0.548-2.731,1.223-5.39,3.954-5.939c8.725-1.75,17.675-2.974,26.602-3.642c2.787-0.161,5.2,1.882,5.405,4.659
						c0.208,2.777-1.876,5.196-4.654,5.406c-8.516,0.631-17.052,1.799-25.371,3.469
						C2260.512,771.157,2260.187,771.187,2259.866,771.189z M2338.172,770.182c-0.291,0.001-0.589-0.022-0.887-0.074
						c-7.246-1.252-14.688-2.128-22.121-2.605c-1.125-0.078-2.232-0.142-3.335-0.192c-2.784-0.135-4.932-2.494-4.8-5.277
						c0.128-2.789,2.511-5.016,5.275-4.803c1.177,0.058,2.353,0.122,3.533,0.205c7.765,0.501,15.567,1.419,23.166,2.734
						c2.746,0.475,4.585,3.082,4.111,5.828C2342.691,768.442,2340.574,770.17,2338.172,770.182z"/>
				</g>
				<g style="opacity:0.3;">
					<path style="fill:#91B3FA;" d="M2305.789,1192.634c-2.753,0.013-5.015-2.193-5.064-4.956c-0.05-2.783,2.168-5.084,4.953-5.131
						c8.385-0.148,16.832-0.808,25.107-1.965c2.745-0.358,5.31,1.536,5.694,4.298c0.385,2.761-1.541,5.307-4.298,5.694
						c-8.678,1.208-17.534,1.905-26.323,2.059C2305.836,1192.634,2305.812,1192.634,2305.789,1192.634z M2280.009,1191.538
						c-0.183,0.001-0.362-0.008-0.547-0.027c-8.735-0.895-17.505-2.331-26.064-4.266c-2.717-0.618-4.421-3.314-3.806-6.031
						c0.613-2.722,3.328-4.414,6.031-3.811c8.168,1.848,16.536,3.218,24.871,4.075c2.77,0.283,4.786,2.761,4.501,5.53
						C2284.728,1189.6,2282.55,1191.526,2280.009,1191.538z M2356.793,1185.499c-2.236,0.01-4.287-1.477-4.894-3.74
						c-0.72-2.686,0.876-5.452,3.567-6.174c8.105-2.176,16.143-4.858,23.896-7.984c2.593-1.031,5.523,0.211,6.562,2.797
						c1.042,2.581-0.21,5.523-2.794,6.564c-8.127,3.274-16.556,6.087-25.052,8.363
						C2357.647,1185.441,2357.217,1185.497,2356.793,1185.499z M2229.755,1180.139c-0.573,0.003-1.157-0.093-1.73-0.297
						c-8.269-2.971-16.438-6.484-24.276-10.442c-2.488-1.254-3.485-4.289-2.231-6.777c1.254-2.478,4.289-3.478,6.775-2.228
						c7.475,3.772,15.261,7.12,23.146,9.954c2.62,0.943,3.983,3.833,3.04,6.453
						C2233.741,1178.85,2231.814,1180.13,2229.755,1180.139z M2404.556,1166.247c-1.785,0.008-3.521-0.934-4.443-2.604
						c-1.349-2.441-0.462-5.509,1.975-6.856c7.328-4.044,14.483-8.579,21.27-13.488c2.261-1.636,5.413-1.124,7.044,1.135
						c1.631,2.258,1.124,5.413-1.134,7.044c-7.118,5.141-14.62,9.9-22.301,14.143
						C2406.2,1166.042,2405.371,1166.243,2404.556,1166.247z M2446.307,1136.099c-1.367,0.006-2.729-0.539-3.729-1.618
						c-1.891-2.045-1.768-5.237,0.277-7.128c6.159-5.699,12.027-11.819,17.438-18.189c1.805-2.126,4.991-2.383,7.11-0.58
						c2.124,1.803,2.383,4.983,0.58,7.105c-5.673,6.681-11.822,13.098-18.276,19.069
						C2448.743,1135.648,2447.524,1136.093,2446.307,1136.099z M2479.637,1096.813c-0.96,0.005-1.932-0.262-2.794-0.834
						c-2.327-1.531-2.97-4.661-1.437-6.988c4.62-7.001,8.846-14.351,12.562-21.84c1.239-2.488,4.266-3.512,6.76-2.273
						c2.495,1.239,3.514,4.264,2.275,6.762c-3.899,7.85-8.33,15.56-13.172,22.907
						C2482.864,1096.01,2481.267,1096.805,2479.637,1096.813z"/>
					<path style="fill:#91B3FA;" d="M2183.552,1156.807c-0.973,0.005-1.957-0.272-2.826-0.854c-3.587-2.402-7.118-4.922-10.5-7.487
						c-2.217-1.684-2.653-4.849-0.969-7.069c1.687-2.21,4.847-2.648,7.069-0.969c3.223,2.448,6.594,4.85,10.015,7.145
						c2.315,1.55,2.933,4.685,1.383,6.997C2186.754,1156.013,2185.17,1156.799,2183.552,1156.807z"/>
				</g>
				<g>
					<path style="fill:#91B3FA;" d="M2187.439,1091.629c0.692,0.841,1.843,1.15,2.863,0.769l29.125-10.865
						c11.542,8.803,24.572,15.83,38.722,20.62l7.258,30.205c0.254,1.059,1.153,1.841,2.238,1.945l37.113,3.584
						c1.085,0.104,2.116-0.491,2.569-1.481l12.902-28.259c14.806-1.994,28.939-6.397,41.953-12.829l26.507,16.237
						c0.929,0.569,2.117,0.486,2.958-0.207l28.777-23.709c0.841-0.694,1.15-1.844,0.769-2.864l-10.865-29.124
						c8.804-11.542,15.83-24.572,20.62-38.723l30.206-7.257c1.06-0.255,1.841-1.153,1.946-2.237l3.583-37.114
						c0.105-1.085-0.49-2.117-1.481-2.569l-28.259-12.903c-1.993-14.806-6.397-28.939-12.83-41.952l16.238-26.508
						c0.569-0.929,0.486-2.117-0.207-2.957l-23.709-28.778c-0.692-0.841-1.843-1.149-2.864-0.769l-29.124,10.866
						c-11.542-8.804-24.572-15.83-38.722-20.62l-7.258-30.206c-0.255-1.059-1.153-1.841-2.238-1.945l-37.114-3.584
						c-1.084-0.105-2.115,0.49-2.568,1.481l-12.902,28.259c-14.806,1.993-28.939,6.397-41.953,12.83l-26.507-16.237
						c-0.929-0.57-2.118-0.486-2.958,0.206l-28.777,23.709c-0.841,0.693-1.15,1.843-0.769,2.864l10.865,29.124
						c-8.804,11.542-15.83,24.572-20.619,38.723l-30.206,7.257c-1.059,0.254-1.841,1.153-1.945,2.238l-3.584,37.113
						c-0.104,1.085,0.49,2.116,1.481,2.569l28.259,12.903c1.994,14.805,6.396,28.938,12.829,41.952l-16.237,26.508
						c-0.569,0.929-0.486,2.117,0.207,2.958L2187.439,1091.629z"/>
					<g>
						<path style="fill:#BDD0FB;" d="M2302.035,1011.299c-8.137,0.038-16.04-2.52-22.712-7.43
							c-8.207-6.04-13.571-14.916-15.104-24.991c-3.166-20.791,11.177-40.285,31.975-43.456
							c20.831-3.132,40.295,11.185,43.459,31.98c1.535,10.076-0.948,20.146-6.988,28.351c-6.039,8.21-14.915,13.576-24.993,15.106
							C2305.791,1011.144,2303.905,1011.29,2302.035,1011.299z M2301.821,945.075c-1.357,0.006-2.728,0.112-4.109,0.32
							c-15.298,2.332-25.848,16.671-23.52,31.969c1.128,7.408,5.073,13.941,11.11,18.38c6.04,4.444,13.445,6.261,20.857,5.143l0,0
							c7.41-1.128,13.941-5.075,18.382-11.11c4.444-6.04,6.269-13.447,5.141-20.86
							C2327.565,955.002,2315.502,945.01,2301.821,945.075z"/>
					</g>
					<path style="fill:#BDD0FB;" d="M2303.024,1067.604c-3.192,0.015-6.409-0.133-9.651-0.443c-6.438-0.62-12.82-1.895-18.984-3.797
						c-0.276-0.087-0.553-0.175-0.829-0.262c-2.136-0.679-3.502-2.648-3.515-4.776c-0.002-0.517,0.076-1.044,0.241-1.562
						c0.845-2.654,3.685-4.106,6.336-3.271c5.737,1.83,11.698,3.048,17.715,3.626h0.002c0.33,0.033,0.663,0.061,0.99,0.089
						c14.253,1.239,28.275-1.123,41.049-6.699c6.933-3.027,13.5-7.009,19.533-11.889c0.049-0.04,0.098-0.079,0.147-0.119
						c0.15-0.124,0.3-0.243,0.447-0.367c17.507-14.426,28.351-34.804,30.531-57.384c0.284-2.922,0.416-5.834,0.402-8.73
						c-0.094-19.485-6.831-38.191-19.389-53.436c-14.426-17.507-34.805-28.347-57.382-30.526
						c-22.565-2.17-44.657,4.564-62.167,18.984c-17.507,14.425-28.351,34.805-30.531,57.384c-0.28,2.873-0.409,5.75-0.396,8.617
						c0.061,12.432,2.84,24.709,8.182,35.943c0.329,0.693,0.487,1.421,0.488,2.14c0.009,1.891-1.054,3.714-2.877,4.58
						c-2.519,1.189-5.524,0.129-6.723-2.392c-5.977-12.572-9.088-26.31-9.158-40.214c-0.015-3.211,0.13-6.429,0.44-9.642
						c2.44-25.265,14.571-48.064,34.161-64.203c19.587-16.135,44.274-23.698,69.547-21.24c25.262,2.438,48.061,14.566,64.199,34.159
						c14.052,17.051,21.587,37.979,21.692,59.78c0.015,3.236-0.132,6.498-0.447,9.764
						C2392.354,1030.627,2351.141,1067.379,2303.024,1067.604z"/>
				</g>
			</g>
		</g>
		<g>
			
				<linearGradient id="SVGID_00000135673357154953744180000000262872074583955638_" gradientUnits="userSpaceOnUse" x1="1948.3616" y1="415.049" x2="1897.5674" y2="2649.9099">
				<stop  offset="0" style="stop-color:#4F52FF"/>
				<stop  offset="1" style="stop-color:#4042E2"/>
			</linearGradient>
			<polygon style="fill:url(#SVGID_00000135673357154953744180000000262872074583955638_);" points="2006.712,3202.528 
				1763.303,3202.528 1872.635,526.919 1887.743,528.797 			"/>
			
				<linearGradient id="SVGID_00000155145005416492626680000011419848068028900481_" gradientUnits="userSpaceOnUse" x1="1889.575" y1="2834.6189" x2="1878.2872" y2="2983.6169">
				<stop  offset="0" style="stop-color:#4F52FF"/>
				<stop  offset="1" style="stop-color:#4042E2"/>
			</linearGradient>
			
				<rect x="1313.358" y="2859.769" style="fill:url(#SVGID_00000155145005416492626680000011419848068028900481_);" width="1139.968" height="114.253"/>
			
				<linearGradient id="SVGID_00000165917154316902870500000017432040734880473277_" gradientUnits="userSpaceOnUse" x1="1890.2347" y1="2927.7554" x2="1885.7195" y2="3115.1328">
				<stop  offset="0" style="stop-color:#4F52FF"/>
				<stop  offset="1" style="stop-color:#4042E2"/>
			</linearGradient>
			
				<rect x="1216.526" y="2974.022" style="fill:url(#SVGID_00000165917154316902870500000017432040734880473277_);" width="1342.434" height="114.253"/>
			
				<linearGradient id="SVGID_00000076565773277053828940000015233862430467078324_" gradientUnits="userSpaceOnUse" x1="1887.1082" y1="3063.7954" x2="1880.3357" y2="3210.5352">
				<stop  offset="0" style="stop-color:#4F52FF"/>
				<stop  offset="1" style="stop-color:#4042E2"/>
			</linearGradient>
			
				<rect x="1110.892" y="3088.275" style="fill:url(#SVGID_00000076565773277053828940000015233862430467078324_);" width="1544.899" height="114.253"/>
			
				<linearGradient id="SVGID_00000111151216319089145210000006298364297635559075_" gradientUnits="userSpaceOnUse" x1="1026.2949" y1="1141.3011" x2="2832.052" y2="1141.3011">
				<stop  offset="0" style="stop-color:#4F52FF"/>
				<stop  offset="1" style="stop-color:#4042E2"/>
			</linearGradient>
			
				<rect x="1026.295" y="1118.653" style="fill:url(#SVGID_00000111151216319089145210000006298364297635559075_);" width="1805.757" height="45.297"/>
			
				<linearGradient id="SVGID_00000099624003187587610460000007148005264274466475_" gradientUnits="userSpaceOnUse" x1="536.5498" y1="1390.5098" x2="1448.8896" y2="1390.5098">
				<stop  offset="0" style="stop-color:#4F52FF"/>
				<stop  offset="1" style="stop-color:#4042E2"/>
			</linearGradient>
			<polygon style="fill:url(#SVGID_00000099624003187587610460000007148005264274466475_);" points="548.62,1660.601 
				536.55,1648.726 1056.344,1120.418 1448.89,1649.62 1435.291,1659.707 1054.532,1146.398 			"/>
			
				<linearGradient id="SVGID_00000035529602003428753590000005461109228678712203_" gradientUnits="userSpaceOnUse" x1="995.9991" y1="1133.0763" x2="1116.1324" y2="1133.0763">
				<stop  offset="0" style="stop-color:#4F52FF"/>
				<stop  offset="1" style="stop-color:#4042E2"/>
			</linearGradient>
			
				<circle style="fill:url(#SVGID_00000035529602003428753590000005461109228678712203_);" cx="1056.066" cy="1133.076" r="60.067"/>
			
				<linearGradient id="SVGID_00000011011722612230430470000009839036988009880458_" gradientUnits="userSpaceOnUse" x1="3098.5466" y1="1232.4391" x2="2664.0498" y2="2257.4072">
				<stop  offset="0" style="stop-color:#4F52FF"/>
				<stop  offset="1" style="stop-color:#4042E2"/>
			</linearGradient>
			<polygon style="fill:url(#SVGID_00000011011722612230430470000009839036988009880458_);" points="2304.525,2105 
				2289.538,2097.116 2809.024,1109.707 3180.601,2082.632 3164.78,2088.674 2806.571,1150.736 			"/>
			
				<linearGradient id="SVGID_00000034055369245113306210000006991002887771078550_" gradientUnits="userSpaceOnUse" x1="1987.6885" y1="976.4466" x2="1759.1228" y2="1392.9446">
				<stop  offset="0" style="stop-color:#4F52FF"/>
				<stop  offset="1" style="stop-color:#4042E2"/>
			</linearGradient>
			
				<circle style="fill:url(#SVGID_00000034055369245113306210000006991002887771078550_);" cx="1882.248" cy="1168.582" r="173.762"/>
			
				<linearGradient id="SVGID_00000048476031373227649740000003846118418609455744_" gradientUnits="userSpaceOnUse" x1="2733.1592" y1="1136.5647" x2="2853.2925" y2="1136.5647">
				<stop  offset="0" style="stop-color:#4F52FF"/>
				<stop  offset="1" style="stop-color:#4042E2"/>
			</linearGradient>
			
				<circle style="fill:url(#SVGID_00000048476031373227649740000003846118418609455744_);" cx="2793.226" cy="1136.565" r="60.067"/>
			
				<linearGradient id="SVGID_00000183230683923005360230000009274577136128177795_" gradientUnits="userSpaceOnUse" x1="2775.9929" y1="2806.0247" x2="2735.3586" y2="2115.251">
				<stop  offset="0" style="stop-color:#4F52FF"/>
				<stop  offset="1" style="stop-color:#4042E2"/>
			</linearGradient>
			<path style="fill:url(#SVGID_00000183230683923005360230000009274577136128177795_);" d="M2735.727,2603.495
				c270.233,0,489.301-219.067,489.301-489.301h-978.602C2246.426,2384.427,2465.493,2603.495,2735.727,2603.495z"/>
			
				<linearGradient id="SVGID_00000143591708783052393620000016206238745189392301_" gradientUnits="userSpaceOnUse" x1="2729.7388" y1="1821.3668" x2="2729.7388" y2="1049.3237">
				<stop  offset="0" style="stop-color:#4F52FF"/>
				<stop  offset="1" style="stop-color:#4042E2"/>
			</linearGradient>
			<path style="fill:url(#SVGID_00000143591708783052393620000016206238745189392301_);" d="M3252.343,2138.315H2207.134
				c-5.99,0-10.892-4.901-10.892-10.892v-52.729c0-5.991,4.901-10.892,10.892-10.892h1045.209c5.99,0,10.892,4.901,10.892,10.892
				v52.729C3263.235,2133.414,3258.334,2138.315,3252.343,2138.315z"/>
			
				<linearGradient id="SVGID_00000026880940034491419810000016142499736602578317_" gradientUnits="userSpaceOnUse" x1="1031.7537" y1="2278.5857" x2="986.0404" y2="1643.6812">
				<stop  offset="0" style="stop-color:#4F52FF"/>
				<stop  offset="1" style="stop-color:#4042E2"/>
			</linearGradient>
			<path style="fill:url(#SVGID_00000026880940034491419810000016142499736602578317_);" d="M990.838,2190.67
				c270.234,0,489.301-219.067,489.301-489.301H501.537C501.537,1971.602,720.604,2190.67,990.838,2190.67z"/>
			
				<linearGradient id="SVGID_00000023250479119001146090000000874136330186097296_" gradientUnits="userSpaceOnUse" x1="451.3532" y1="1688.2335" x2="1518.3461" y2="1688.2335">
				<stop  offset="0" style="stop-color:#4F52FF"/>
				<stop  offset="1" style="stop-color:#4042E2"/>
			</linearGradient>
			<path style="fill:url(#SVGID_00000023250479119001146090000000874136330186097296_);" d="M1507.454,1725.49H462.245
				c-5.991,0-10.892-4.901-10.892-10.892v-52.729c0-5.991,4.901-10.892,10.892-10.892h1045.209c5.991,0,10.892,4.901,10.892,10.892
				v52.729C1518.346,1720.589,1513.445,1725.49,1507.454,1725.49z"/>
		</g>
		<g>
			
				<linearGradient id="SVGID_00000038396438224784867050000000460739193170225081_" gradientUnits="userSpaceOnUse" x1="-3150.6946" y1="2302.6685" x2="-3314.9258" y2="2302.6685" gradientTransform="matrix(-1 0 0 1 -1519.9521 0)">
				<stop  offset="0" style="stop-color:#C4421B"/>
				<stop  offset="1" style="stop-color:#5C0E16"/>
			</linearGradient>
			<path style="fill:url(#SVGID_00000038396438224784867050000000460739193170225081_);" d="M1794.974,2269.025
				c0,0-61,140.77-98.539,122c-37.539-18.77-65.693-173.616-65.693-173.616S1748.051,2189.255,1794.974,2269.025z"/>
			
				<linearGradient id="SVGID_00000106839458769924160690000004668120949932515509_" gradientUnits="userSpaceOnUse" x1="5557.1055" y1="2891.4993" x2="5560.6172" y2="3277.7373" gradientTransform="matrix(1 0 0 1 -3898.2502 0)">
				<stop  offset="0" style="stop-color:#09005D"/>
				<stop  offset="1" style="stop-color:#1A0F91"/>
			</linearGradient>
			<path style="fill:url(#SVGID_00000106839458769924160690000004668120949932515509_);" d="M1582.586,3142.578
				c0,0-5.1,28.87-7.599,57.447c-0.978,11.169,7.633,20.866,18.835,21.333c38.057,1.585,119.462,4.667,148.673,3.364
				c4.391-0.196,7.262-4.692,5.637-8.776l0,0c-1.362-3.423-3.989-6.19-7.335-7.728l-134.467-61.8L1582.586,3142.578z"/>
			
				<linearGradient id="SVGID_00000075164517578634041810000011907063984783806351_" gradientUnits="userSpaceOnUse" x1="5476.6587" y1="3142.4592" x2="5520.3975" y2="3142.4592" gradientTransform="matrix(1 0 0 1 -3898.2502 0)">
				<stop  offset="0" style="stop-color:#C4421B"/>
				<stop  offset="1" style="stop-color:#5C0E16"/>
			</linearGradient>
			<path style="fill:url(#SVGID_00000075164517578634041810000011907063984783806351_);" d="M1578.408,3125.616l4.098,34.531
				c0,0,23.555,10.965,39.641-1.382l-9.755-38.483L1578.408,3125.616z"/>
			
				<linearGradient id="SVGID_00000176721580666375304720000017652096445013936059_" gradientUnits="userSpaceOnUse" x1="5124.7007" y1="4825.3193" x2="5231.3633" y2="4159.9424" gradientTransform="matrix(1 0 0 1 -3898.2502 0)">
				<stop  offset="0" style="stop-color:#09005D"/>
				<stop  offset="1" style="stop-color:#1A0F91"/>
			</linearGradient>
			<path style="fill:url(#SVGID_00000176721580666375304720000017652096445013936059_);" d="M1581.488,2476.413
				c-1.77,9.017-9.499,450.004,37.639,647.626c0.769,3.225-0.865,6.548-3.935,7.802c-7.229,2.954-21.403,7.231-38.39,7.802
				c-5.26,0.177-9.977-3.242-11.461-8.292c-13.474-45.85-78.041-275.578-86.464-495.03c-9.412-245.216,0-8.349,0-8.349
				l5.519-151.577L1581.488,2476.413z"/>
			
				<linearGradient id="SVGID_00000008129629512242946750000014367141055622933405_" gradientUnits="userSpaceOnUse" x1="5342.0977" y1="2893.4558" x2="5345.6094" y2="3279.6919" gradientTransform="matrix(1 0 0 1 -3898.2502 0)">
				<stop  offset="0" style="stop-color:#09005D"/>
				<stop  offset="1" style="stop-color:#1A0F91"/>
			</linearGradient>
			<path style="fill:url(#SVGID_00000008129629512242946750000014367141055622933405_);" d="M1427.906,3157.639
				c0,0-8.118,14.575-15.977,53.302c-1.419,6.994,3.468,13.688,10.57,14.386c12.567,1.236,31.912,2.825,47.408,2.718
				c7.144-0.049,12.718-6.269,11.858-13.36c-1.717-14.135-7.064-37.328-23.583-55.405L1427.906,3157.639z"/>
			
				<linearGradient id="SVGID_00000035520823659376529680000013218988598554415275_" gradientUnits="userSpaceOnUse" x1="5319.0264" y1="3140.2166" x2="5356.7905" y2="3140.2166" gradientTransform="matrix(1 0 0 1 -3898.2502 0)">
				<stop  offset="0" style="stop-color:#C4421B"/>
				<stop  offset="1" style="stop-color:#5C0E16"/>
			</linearGradient>
			<path style="fill:url(#SVGID_00000035520823659376529680000013218988598554415275_);" d="M1420.776,3113.224l9.573,52.221
				c0,0,9.467,7.041,28.191,1.936l-4.569-56.186L1420.776,3113.224z"/>
			
				<linearGradient id="SVGID_00000148621398885371919480000003953000397378642331_" gradientUnits="userSpaceOnUse" x1="5018.5439" y1="4808.3062" x2="5125.2075" y2="4142.9268" gradientTransform="matrix(1 0 0 1 -3898.2502 0)">
				<stop  offset="0" style="stop-color:#09005D"/>
				<stop  offset="1" style="stop-color:#1A0F91"/>
			</linearGradient>
			<path style="fill:url(#SVGID_00000148621398885371919480000003953000397378642331_);" d="M1394.914,2489.945
				c-38.553,232.668,8.363,575.06,24.186,642.073c0.969,4.103,4.28,7.247,8.438,7.936c7.063,1.171,18.69,2.126,30.155-1.203
				c3.949-1.147,6.725-4.709,6.886-8.82c2.123-54.179-1.698-386.785,34.224-518.232c1.821-6.662,5.889-12.471,11.517-16.473
				l69.723-49.567l5.345-80.121L1394.914,2489.945z"/>
			<g>
				
					<linearGradient id="SVGID_00000137108995459407465270000009350790758766321565_" gradientUnits="userSpaceOnUse" x1="1339.2822" y1="2580.636" x2="1684.6707" y2="1910.1752">
					<stop  offset="0" style="stop-color:#FF928E"/>
					<stop  offset="1" style="stop-color:#FE7062"/>
				</linearGradient>
				<path style="fill:url(#SVGID_00000137108995459407465270000009350790758766321565_);" d="M1644.819,2057.87
					c-140.77-14.077-247.261,21.549-247.261,21.549c-34.44,200.948-6.023,432.728-6.023,432.728
					c89.444,23.456,190.343-14.341,190.343-14.341c14.866-83.991,84.228-320.371,84.228-320.371
					C1722.557,2170.428,1680.282,2061.417,1644.819,2057.87z"/>
			</g>
			
				<linearGradient id="SVGID_00000109738414267021723680000001180453714552242354_" gradientUnits="userSpaceOnUse" x1="1202.7886" y1="2510.3213" x2="1548.1759" y2="1839.8628">
				<stop  offset="0" style="stop-color:#FF928E"/>
				<stop  offset="1" style="stop-color:#FE7062"/>
			</linearGradient>
			<path style="fill:url(#SVGID_00000109738414267021723680000001180453714552242354_);" d="M1441.873,2191.291l-44.314-111.872
				c0,0-107.917,73.324-125.664,166.291c20.391,1.502,57.495,6.806,93.814,25.144
				C1373.689,2226.957,1441.873,2191.291,1441.873,2191.291z"/>
			
				<linearGradient id="SVGID_00000022542346503030194530000002522338595307632051_" gradientUnits="userSpaceOnUse" x1="5166.9097" y1="2317.8926" x2="5449.689" y2="2317.8926" gradientTransform="matrix(1 0 0 1 -3898.2502 0)">
				<stop  offset="0" style="stop-color:#C4421B"/>
				<stop  offset="1" style="stop-color:#5C0E16"/>
			</linearGradient>
			<path style="fill:url(#SVGID_00000022542346503030194530000002522338595307632051_);" d="M1544.479,2288.243
				c0,0-130.237,76.792-171.119,18.322c-8.488-12.141-10.517-24.207-8.426-35.71c-36.319-18.338-73.423-23.642-93.814-25.144
				c-5.351,28.028-2.522,57.835,13.947,87.962c71.612,130.998,266.372-7.24,266.372-7.24L1544.479,2288.243z"/>
			<g>
				
					<linearGradient id="SVGID_00000168110485954813401990000004486078815627638710_" gradientUnits="userSpaceOnUse" x1="-3106.5154" y1="2038.5405" x2="-3230.3154" y2="2328.9946" gradientTransform="matrix(-1 0 0 1 -1519.9521 0)">
					<stop  offset="0" style="stop-color:#09005D"/>
					<stop  offset="1" style="stop-color:#1A0F91"/>
				</linearGradient>
				<path style="fill:url(#SVGID_00000168110485954813401990000004486078815627638710_);" d="M1531.005,2383.188l66.127-230.927
					c0.751-2.621,2.987-4.533,5.696-4.849c11.981-1.398,46.697-5.322,86.78-8.712c48.282-4.084,104.351-7.393,137.856-4.579
					c4.763,0.4,7.642,5.438,5.523,9.723c-19.053,38.547-97.426,195.346-136.672,246.711c-1.301,1.702-3.311,2.697-5.451,2.677
					l-153.424-1.427C1532.974,2391.763,1529.776,2387.479,1531.005,2383.188z"/>
				<path style="fill:#91B3FA;" d="M1696.467,2118.678l47.943-7.988c2.553-0.425,4.644,2.014,3.833,4.472l-4.746,14.382
					c-0.413,1.251-1.505,2.157-2.812,2.332l-46.135,6.163c-2.387,0.319-4.355-1.85-3.806-4.195l2.938-12.556
					C1693.998,2119.936,1695.096,2118.906,1696.467,2118.678z"/>
				<path style="fill:#7D97F4;" d="M1660.568,2159.266l3.949-20.572c0.396-2.064,2.099-3.623,4.19-3.835l96.833-9.826
					c3.26-0.33,5.87,2.656,5.105,5.842l-6.157,25.635c-0.492,2.051-2.278,3.532-4.385,3.638l-94.625,4.764
					C1662.398,2165.067,1659.987,2162.294,1660.568,2159.266z"/>
				
					<linearGradient id="SVGID_00000111886325268807691410000003148834589068743825_" gradientUnits="userSpaceOnUse" x1="5438.853" y1="2288.2434" x2="5526.9512" y2="2288.2434" gradientTransform="matrix(1 0 0 1 -3898.2502 0)">
					<stop  offset="0" style="stop-color:#C4421B"/>
					<stop  offset="1" style="stop-color:#5C0E16"/>
				</linearGradient>
				<path style="fill:url(#SVGID_00000111886325268807691410000003148834589068743825_);" d="M1546.982,2327.395
					c0,0-9.211-37.877-5.496-51.315c3.716-13.438,10.915-30.715,34.912-26.876c23.996,3.84,52.304,13.948,52.304,13.948
					s-1.43,17.504-19.668,11.856l11.309,8.751c0,0-1.617,14.015-17.022,6.528l10.519,11.605c0,0-6.616,11.511-17.949,4.128
					S1579.123,2331.957,1546.982,2327.395z"/>
				
					<linearGradient id="SVGID_00000132046468661960622770000001569823508884286892_" gradientUnits="userSpaceOnUse" x1="-3008.5554" y1="-241.9633" x2="-2920.4541" y2="-241.9633" gradientTransform="matrix(-0.8472 -0.5312 -0.5312 0.8472 -858.3301 848.1048)">
					<stop  offset="0" style="stop-color:#C4421B"/>
					<stop  offset="1" style="stop-color:#5C0E16"/>
				</linearGradient>
				<path style="fill:url(#SVGID_00000132046468661960622770000001569823508884286892_);" d="M1792.846,2271.041
					c0,0,27.925-27.198,31.916-40.556c3.99-13.36,7.069-31.822-15.301-41.317c-22.37-9.494-51.723-15.967-51.723-15.967
					s-8.086,15.59,10.365,20.493l-14.23,1.406c0,0-6.075,12.733,10.954,14.573l-15.076,4.244c0,0-0.51,13.267,13.014,13.032
					C1776.288,2226.715,1763.192,2257.831,1792.846,2271.041z"/>
			</g>
			
				<linearGradient id="SVGID_00000122705599466190828340000009826765371433227692_" gradientUnits="userSpaceOnUse" x1="5398.897" y1="2024.3214" x2="5510.6982" y2="2024.3214" gradientTransform="matrix(1 0 0 1 -3898.2502 0)">
				<stop  offset="0" style="stop-color:#C4421B"/>
				<stop  offset="1" style="stop-color:#5C0E16"/>
			</linearGradient>
			<path style="fill:url(#SVGID_00000122705599466190828340000009826765371433227692_);" d="M1537.622,1964.024l-36.761,106.312
				c-0.609,1.76,0.115,3.711,1.745,4.613c10.021,5.54,46.124,21.555,89.631-6.03c4.533-2.873,7.618-7.56,8.307-12.882l11.904-92.013
				H1537.622z"/>
			<g>
				
					<linearGradient id="SVGID_00000063603919064367788550000015546100566045561263_" gradientUnits="userSpaceOnUse" x1="1646.3427" y1="1999.0513" x2="1519.3553" y2="1834.814">
					<stop  offset="0" style="stop-color:#C4421B"/>
					<stop  offset="1" style="stop-color:#5C0E16"/>
				</linearGradient>
				<path style="fill:url(#SVGID_00000063603919064367788550000015546100566045561263_);" d="M1617.61,1865.576
					c0,0,40.368,75.989,35.193,106.684c-5.175,30.695-55.205,28.492-98.892,3.562l-30.529-82.05L1617.61,1865.576z"/>
				
					<linearGradient id="SVGID_00000115497050240967250810000003474497486368373152_" gradientUnits="userSpaceOnUse" x1="-1566.6803" y1="2089.9551" x2="-1531.7323" y2="2289.2881" gradientTransform="matrix(0.746 -0.6659 0.6659 0.746 1228.0851 -803.1727)">
					<stop  offset="0" style="stop-color:#09005D"/>
					<stop  offset="1" style="stop-color:#1A0F91"/>
				</linearGradient>
				<path style="fill:url(#SVGID_00000115497050240967250810000003474497486368373152_);" d="M1555.843,1935.527
					c1.775-0.787,2.43-2.959,1.367-4.584c-3.234-4.941-9.297-15.021-11.231-23.846c0,0-7.258-4.648,18.47-10.806
					c25.728-6.158,64.094-15.716,72.158-37.614c7.863-21.351-12.795-75.045-45.754-32.263c-1.253,1.628-3.71,1.664-4.962,0.034
					c-5.403-7.032-19.608-21.628-39.329-12.779c-18.456,8.281-20.534,21.804-20.28,28.621c0.074,2.005-1.718,3.564-3.689,3.188
					c-9.331-1.779-31.722-3.309-42.173,19.661c-8.608,18.92-3.013,29.63,2.082,34.868c1.651,1.697,0.928,4.492-1.336,5.184
					c-6.133,1.877-14.051,7.077-13.258,21.444c1.096,19.862,23.302,18.112,29.624,17.207c1.036-0.148,2.08,0.207,2.782,0.983
					c5.421,5.999,29.847,31.473,56.282,34.544c2.289,0.265,4.063-1.995,3.313-4.173l-11.441-33.256
					c-0.531-1.544,0.208-3.239,1.701-3.901L1555.843,1935.527z"/>
				
					<linearGradient id="SVGID_00000170277439227389568750000016301272337731710132_" gradientUnits="userSpaceOnUse" x1="1610.6035" y1="2026.6848" x2="1483.6165" y2="1862.4479">
					<stop  offset="0" style="stop-color:#C4421B"/>
					<stop  offset="1" style="stop-color:#5C0E16"/>
				</linearGradient>
				<path style="fill:url(#SVGID_00000170277439227389568750000016301272337731710132_);" d="M1560.441,1940.247
					c0,0-28.742-19.72-30.842-3.113c-2.1,16.607,25.882,24.054,39.742,17.863L1560.441,1940.247z"/>
			</g>
		</g>
		<g>
			
				<linearGradient id="SVGID_00000062173330650111770610000002200917251976015258_" gradientUnits="userSpaceOnUse" x1="10897.3984" y1="2545.8186" x2="10613.9072" y2="2894.3323" gradientTransform="matrix(0.9922 -0.1247 0.1247 0.9922 -9784.4775 715.4178)">
				<stop  offset="0" style="stop-color:#FEBBBA"/>
				<stop  offset="1" style="stop-color:#FF928E"/>
			</linearGradient>
			<path style="fill:url(#SVGID_00000062173330650111770610000002200917251976015258_);" d="M1318.373,1981.156
				c-1.846-3.528-7.067-2.973-8.133,0.864c-3.946,14.202-13.495,38.984-33.533,47.784c-1.009,0.444-1.965,0.891-2.89,1.343
				c-0.909-2.725-0.922-5.888,1.255-9.216c6.23-9.521-5.016-22.523-5.016-22.523s-0.745,11.452-9.45,18.662
				c-7.498,6.212-11.098,20.033-5.974,31.371c10.845,42.124,27.085,97.838-36.174,138.541
				c-63.257,40.702-152.344-76.815-152.344-76.815l44.215,140.17c0,0,68.247,50.362,147.629-20.455
				c79.383-70.817,26.766-173.866,26.766-173.866S1345.274,2032.59,1318.373,1981.156z"/>
			
				<linearGradient id="SVGID_00000066514038389939932010000013014349826119852732_" gradientUnits="userSpaceOnUse" x1="-10372.1758" y1="4111.335" x2="-10558.0752" y2="4332.2275" gradientTransform="matrix(-0.9602 0.2794 0.2794 0.9602 -10422.8818 797.6744)">
				<stop  offset="0" style="stop-color:#09005D"/>
				<stop  offset="1" style="stop-color:#1A0F91"/>
			</linearGradient>
			<path style="fill:url(#SVGID_00000066514038389939932010000013014349826119852732_);" d="M1055.037,1905.216
				c0,0,18.327-82.208-75.841-60.446c0,0-45.71-7.469-48.034,35.674c0,0-29.465,19.416-7.891,56.753
				c0,0-87.566-33.823-125.719,42.93c-38.153,76.753-3.083,118.985,33.682,129.985c0,0-29.786,14.956-15.687,48.725
				c14.099,33.769,85.499,57.573,127.677,16.506c0,0,120.016,15.86,117.613-68.912c0,0,55.821-36.047-2.809-106.105
				C999.4,1930.269,1055.037,1905.216,1055.037,1905.216z"/>
			
				<linearGradient id="SVGID_00000056386158137300106620000005787822056477880763_" gradientUnits="userSpaceOnUse" x1="2015.2186" y1="1544.255" x2="1216.0458" y2="2126.7036">
				<stop  offset="0" style="stop-color:#FF928E"/>
				<stop  offset="1" style="stop-color:#FE7062"/>
			</linearGradient>
			<path style="fill:url(#SVGID_00000056386158137300106620000005787822056477880763_);" d="M1060.209,2095.768
				c-18.923-5.673-74.019-16.146-126.426,32.216c-8.888,8.203-12.52,20.666-9.351,32.338c14.076,51.821,51.215,204.925,18.65,271.17
				c0,0,57.385,63.26,119.99,12.273c0,0,28.089-122.423,64.88-176.167c25.401-37.103-40.503-139.331-57.177-164.028
				C1068.251,2099.831,1064.53,2097.064,1060.209,2095.768z"/>
			
				<linearGradient id="SVGID_00000029761802061681004970000004727754974945744522_" gradientUnits="userSpaceOnUse" x1="-10641.3691" y1="4500.7847" x2="-10626.2236" y2="4393.251" gradientTransform="matrix(-0.9602 0.2794 0.2794 0.9602 -10422.8818 797.6744)">
				<stop  offset="0" style="stop-color:#FEBBBA"/>
				<stop  offset="1" style="stop-color:#FF928E"/>
			</linearGradient>
			<path style="fill:url(#SVGID_00000029761802061681004970000004727754974945744522_);" d="M1007.962,1992.813
				c0,0-27.985,79.158-30.091,114.08c0,0,30.93,14.064,60.074-9.674c0,0,3.058-79.066,7.477-93.224L1007.962,1992.813z"/>
			
				<linearGradient id="SVGID_00000094609041502812543350000005163866676846032023_" gradientUnits="userSpaceOnUse" x1="-10710.8057" y1="4270.3706" x2="-10569.1904" y2="4433.1899" gradientTransform="matrix(-0.9602 0.2794 0.2794 0.9602 -10422.8818 797.6744)">
				<stop  offset="0" style="stop-color:#FEBBBA"/>
				<stop  offset="1" style="stop-color:#FF928E"/>
			</linearGradient>
			<path style="fill:url(#SVGID_00000094609041502812543350000005163866676846032023_);" d="M1046.834,1884.882
				c0,0,73.198,102.436,29.442,132.189c-43.755,29.754-95.861-43.042-95.861-43.042s-16.985-56.067,0.776-75.087
				C998.949,1879.923,1046.834,1884.882,1046.834,1884.882z"/>
			
				<linearGradient id="SVGID_00000138553206603750207190000013525564433230601878_" gradientUnits="userSpaceOnUse" x1="-10461.2119" y1="4036.406" x2="-10647.1152" y2="4257.3032" gradientTransform="matrix(-0.9602 0.2794 0.2794 0.9602 -10422.8818 797.6744)">
				<stop  offset="0" style="stop-color:#09005D"/>
				<stop  offset="1" style="stop-color:#1A0F91"/>
			</linearGradient>
			<path style="fill:url(#SVGID_00000138553206603750207190000013525564433230601878_);" d="M1012.954,1860.403
				c0,0,33.626,7.968,38.339,23.182c4.713,15.215-47.686,29.324-62.367,30.014l-11.83,61.396c0,0-34.971-57.756-21.118-91.112
				C969.83,1850.526,1012.954,1860.403,1012.954,1860.403z"/>
			
				<linearGradient id="SVGID_00000089553100297828123840000012811027801078852530_" gradientUnits="userSpaceOnUse" x1="-10675.4238" y1="4239.5942" x2="-10533.8105" y2="4402.4111" gradientTransform="matrix(-0.9602 0.2794 0.2794 0.9602 -10422.8818 797.6744)">
				<stop  offset="0" style="stop-color:#FEBBBA"/>
				<stop  offset="1" style="stop-color:#FF928E"/>
			</linearGradient>
			<path style="fill:url(#SVGID_00000089553100297828123840000012811027801078852530_);" d="M994.604,1966.492
				c0,0-28.49-32.995-39.823-11.485c-11.333,21.51,25.645,37.66,38.445,27.099L994.604,1966.492z"/>
			
				<linearGradient id="SVGID_00000178913207463046595470000011456359525757877406_" gradientUnits="userSpaceOnUse" x1="10298.1572" y1="3420.1633" x2="10636.0195" y2="2823.7642" gradientTransform="matrix(1 -0.0095 0.0095 1 -9528.3711 56.9446)">
				<stop  offset="0" style="stop-color:#FEBBBA"/>
				<stop  offset="1" style="stop-color:#FF928E"/>
			</linearGradient>
			<path style="fill:url(#SVGID_00000178913207463046595470000011456359525757877406_);" d="M1136.157,2700.803
				c-0.214,5.558,9.543,49.641,14.854,73.156c2.138,9.461,0.649,19.362-4.168,27.781l-183.913,309.535
				c-2.225,3.744-3.845,7.8-4.829,12.042c-3.37,14.526-10.361,50.125-6.711,82.511l9.514,19.76l-41.148-9.342l-8.952-110.5
				l11.649-7.103c10.063-6.135,17.899-15.309,22.385-26.208c16.63-40.395,57.927-143.223,68.573-193.335
				c12.098-56.953,75.342-103.211,75.342-103.211l-11.111-26.269L1136.157,2700.803z"/>
			
				<linearGradient id="SVGID_00000168805455364467811820000002452301813019994768_" gradientUnits="userSpaceOnUse" x1="919.3163" y1="3209.7729" x2="1093.1478" y2="2859.8521">
				<stop  offset="0" style="stop-color:#09005D"/>
				<stop  offset="1" style="stop-color:#1A0F91"/>
			</linearGradient>
			<path style="fill:url(#SVGID_00000168805455364467811820000002452301813019994768_);" d="M874.026,3178.222
				c0,0,22.22-35.229,24.834-48.942c2.614-13.713,9.892-37.928,23.592-30.638c0,0,6.455,66.613,4.23,92.642
				c-2.225,26.029,29.424,25.191,29.424,25.191s8.723,1.226,15.111,7.612c4.411,4.41,1.256,12.062-4.967,12.462
				c-10.357,0.668-26.808,0.842-44.082-2.496c-6.037-1.166-10.512-6.303-10.878-12.441l-4.56-76.667l-28.029,35.392
				L874.026,3178.222z"/>
			
				<linearGradient id="SVGID_00000157990553431045318800000017242301710540377754_" gradientUnits="userSpaceOnUse" x1="10681.0381" y1="2978.9622" x2="10175.752" y2="3140.5361" gradientTransform="matrix(1 -0.0095 0.0095 1 -9528.3711 56.9446)">
				<stop  offset="0" style="stop-color:#FEBBBA"/>
				<stop  offset="1" style="stop-color:#FF928E"/>
			</linearGradient>
			<path style="fill:url(#SVGID_00000157990553431045318800000017242301710540377754_);" d="M1026.29,2750.109
				c0,0-6.487,276.878-7.365,316.201c-0.879,39.324,6.209,126.469,45.63,152.517l-17.154,12.699c0,0-21.437-18.22-42.381-53.285
				c-23.527-39.392-30.641-46.589-30.641-46.589l7.807-15.988c3.419-7,4.423-14.918,2.849-22.546
				c-8.507-41.231-36.926-178.369-44.678-207.902c-9.151-34.862-9.802-81.417,22.034-120.387
				C994.228,2725.86,1026.29,2750.109,1026.29,2750.109z"/>
			
				<linearGradient id="SVGID_00000126319452701019281120000003775759469477732287_" gradientUnits="userSpaceOnUse" x1="1497.6505" y1="2828.2229" x2="1285.4404" y2="2988.509">
				<stop  offset="0" style="stop-color:#09005D"/>
				<stop  offset="1" style="stop-color:#1A0F91"/>
			</linearGradient>
			<path style="fill:url(#SVGID_00000126319452701019281120000003775759469477732287_);" d="M989.887,3244.006
				c-1.223,0.011-2.262-0.864-2.435-2.075c-1.313-9.23-6.773-46.237-11.242-55.82c-5.12-10.974-21.841-57.163,0.009-61.085
				c0,0,54.321,79.364,64.748,90.063c10.428,10.701,23.588,3.739,23.588,3.739s10.159,3.001,17.821,12.793
				c3.647,4.66,0.25,11.501-5.667,11.557l-36.589,0.349c-10.626,0.101-20.184-6.354-24.133-16.219
				c-6.441-16.087-17.504-39.682-30.398-50.15l6.7,64.156C992.439,3242.744,991.325,3243.992,989.887,3244.006L989.887,3244.006z"/>
			
				<linearGradient id="SVGID_00000140693246917640359200000011371588049110615683_" gradientUnits="userSpaceOnUse" x1="10624.124" y1="2435.3665" x2="10342.083" y2="3064.0852" gradientTransform="matrix(1 -0.0095 0.0095 1 -9528.3711 56.9446)">
				<stop  offset="0" style="stop-color:#09005D"/>
				<stop  offset="1" style="stop-color:#1A0F91"/>
			</linearGradient>
			<path style="fill:url(#SVGID_00000140693246917640359200000011371588049110615683_);" d="M1071.733,2413.912
				c0,0-8.245,26.28,4.422,69.566l78.576,274.393c1.234,4.312-1.092,8.824-5.314,10.339
				c-23.503,8.436-100.768,32.278-206.241,25.007c-5.31-0.366-9.763-4.126-10.917-9.323c-6.95-31.281-30.661-138.011-35.544-159.941
				c-18.603-83.562-39.375-173.676,52.003-228.166C990.833,2413.825,1030.111,2424.457,1071.733,2413.912z"/>
			
				<linearGradient id="SVGID_00000034091000445311920320000005753495939333136303_" gradientUnits="userSpaceOnUse" x1="10318.8926" y1="3049.3374" x2="10879.3652" y2="2408.2393" gradientTransform="matrix(0.9922 -0.1247 0.1247 0.9922 -9784.4775 715.4178)">
				<stop  offset="0" style="stop-color:#FEBBBA"/>
				<stop  offset="1" style="stop-color:#FF928E"/>
			</linearGradient>
			<path style="fill:url(#SVGID_00000034091000445311920320000005753495939333136303_);" d="M926.285,2138.325
				c0,0-89.403,74.298-111.589,175.824c-22.187,101.525,130.64,112.315,130.64,112.315s20.747-23.167,45.378-14.905
				c24.63,8.263,1.907-40.433-26.912-40.306c-28.818,0.128-15.468,22.915-56.236,4.448c-39.713-17.988-64.26-73.623,37.066-157.957
				c5.874-4.888,10.56-11.121,13.382-18.223C977.698,2149.972,962.085,2117.491,926.285,2138.325z"/>
		</g>
		<g>
			
				<linearGradient id="SVGID_00000134222658945499237030000000034594819001334670_" gradientUnits="userSpaceOnUse" x1="2197.0085" y1="2232.9463" x2="2102.3909" y2="2374.8723">
				<stop  offset="0" style="stop-color:#FEBBBA"/>
				<stop  offset="1" style="stop-color:#FF928E"/>
			</linearGradient>
			<path style="fill:url(#SVGID_00000134222658945499237030000000034594819001334670_);" d="M2064.92,2461.161l104.524,1.293
				l-36.582-34.435c-9.093-8.559-22.971-9.945-33.467-3.138c-6.146,3.987-12.81,9.397-18.584,16.562c0,0-65.202-23.828-96.81-77.141
				c-9.844,14.624-21.355,34.528-31.329,59.29C1981.006,2440.226,2017.737,2453.306,2064.92,2461.161z"/>
			
				<linearGradient id="SVGID_00000027583397669855901980000006122171801305947047_" gradientUnits="userSpaceOnUse" x1="2042.9993" y1="3214.4258" x2="2205.4343" y2="3214.4258">
				<stop  offset="0" style="stop-color:#4F52FF"/>
				<stop  offset="1" style="stop-color:#4042E2"/>
			</linearGradient>
			<path style="fill:url(#SVGID_00000027583397669855901980000006122171801305947047_);" d="M2200.847,3206.569
				c-27.827,2.406-76.122,6.313-114.196,7.989c-22.887,1.007-36.063-1.234-43.652-4.272c0.013,0.855,0.037,1.664,0.071,2.415
				c0.18,4.006,3.436,7.211,7.482,7.437c71.942,4.016,129.158,1.39,149.527,0.15c4.211-0.257,6.722-4.834,4.568-8.425
				C2203.57,3210.068,2202.265,3208.308,2200.847,3206.569z"/>
			
				<linearGradient id="SVGID_00000117667387433555870900000005084850754549338011_" gradientUnits="userSpaceOnUse" x1="2165.5896" y1="2945.5503" x2="2111.4087" y2="3266.1223">
				<stop  offset="0" style="stop-color:#09005D"/>
				<stop  offset="1" style="stop-color:#1A0F91"/>
			</linearGradient>
			<path style="fill:url(#SVGID_00000117667387433555870900000005084850754549338011_);" d="M2086.652,3214.558
				c38.074-1.676,86.369-5.583,114.196-7.989c-27.358-33.566-114.196-56.189-114.196-56.189h-24.526
				c-16.868,24.315-19.311,47.465-19.126,59.906C2050.588,3213.324,2063.764,3215.565,2086.652,3214.558z"/>
			
				<linearGradient id="SVGID_00000158004834481344563860000014732447515084479665_" gradientUnits="userSpaceOnUse" x1="2057.9958" y1="3138.1448" x2="2103.7505" y2="3138.1448">
				<stop  offset="0" style="stop-color:#FEBBBA"/>
				<stop  offset="1" style="stop-color:#FF928E"/>
			</linearGradient>
			<path style="fill:url(#SVGID_00000158004834481344563860000014732447515084479665_);" d="M2057.996,3110.341l2.295,45.417
				c0.249,4.918,3.93,9.051,8.856,9.755c4.9,0.701,11.464,0.79,18.424-1.527c4.281-1.425,7.46-5.033,8.249-9.434l7.931-44.212
				H2057.996z"/>
			<g>
				
					<linearGradient id="SVGID_00000169535412396359255140000002368986198886457742_" gradientUnits="userSpaceOnUse" x1="1753.0752" y1="3241.7747" x2="1815.323" y2="3241.7747">
					<stop  offset="0" style="stop-color:#4F52FF"/>
					<stop  offset="1" style="stop-color:#4042E2"/>
				</linearGradient>
				<path style="fill:url(#SVGID_00000169535412396359255140000002368986198886457742_);" d="M1773.345,3245.61
					c-12.068-1.959-17.528-9.258-19.817-17.06c-0.015,0.07-0.03,0.14-0.045,0.21c-1.775,8.23,2.34,16.761,10.569,20.817
					c9.945,4.903,20.82,5.739,29.262,5.333c9.057-0.434,17.371-4.798,21.941-11.782l0.069-0.105
					C1806.231,3248.261,1793.47,3248.877,1773.345,3245.61z"/>
				
					<linearGradient id="SVGID_00000181777209840505161510000009145032225115395992_" gradientUnits="userSpaceOnUse" x1="1849.7808" y1="2892.1748" x2="1795.5999" y2="3212.7466">
					<stop  offset="0" style="stop-color:#09005D"/>
					<stop  offset="1" style="stop-color:#1A0F91"/>
				</linearGradient>
				<path style="fill:url(#SVGID_00000181777209840505161510000009145032225115395992_);" d="M1830.241,3124.333h-20.225
					c-30.808-0.733-50.155,74.919-56.487,104.216c2.289,7.803,7.75,15.101,19.817,17.06c20.125,3.268,32.886,2.651,41.978-2.586
					c16.644-25.5,24.896-62.846,28.862-84.642C1848.697,3133.593,1830.241,3124.333,1830.241,3124.333z"/>
			</g>
			
				<linearGradient id="SVGID_00000153670429635324254000000001081876435333821359_" gradientUnits="userSpaceOnUse" x1="1801.0194" y1="3114.2854" x2="1855.7006" y2="3114.2854">
				<stop  offset="0" style="stop-color:#FEBBBA"/>
				<stop  offset="1" style="stop-color:#FF928E"/>
			</linearGradient>
			<path style="fill:url(#SVGID_00000153670429635324254000000001081876435333821359_);" d="M1812.615,3082.179l-11.231,44.67
				c-1.377,5.477,1.245,11.142,6.308,13.74c6.283,3.225,15.128,6.612,23.258,5.632c3.823-0.461,7-3.154,8.262-6.754l16.489-46.997
				L1812.615,3082.179z"/>
			
				<linearGradient id="SVGID_00000077291382242903835230000017104220340202878599_" gradientUnits="userSpaceOnUse" x1="2481.2991" y1="2267.635" x2="1887.5626" y2="3046.4895">
				<stop  offset="0" style="stop-color:#09005D"/>
				<stop  offset="1" style="stop-color:#1A0F91"/>
			</linearGradient>
			<path style="fill:url(#SVGID_00000077291382242903835230000017104220340202878599_);" d="M2207.698,2493.853
				c0,0-100.366,627.376-98.713,630.824c0,0-27.72,12.599-57.94,1.605c0,0,9.076-335.378,30.343-463.969
				c0,0-171.292,299.761-225.688,449.126c0,0-28.371-3.383-51.855-18.839c0,0,184.433-539.556,233.638-611.423L2207.698,2493.853z"
				/>
			
				<linearGradient id="SVGID_00000160191914592704377550000006704023847288655253_" gradientUnits="userSpaceOnUse" x1="2126.9148" y1="2580.5115" x2="2219.4744" y2="2138.0322">
				<stop  offset="0" style="stop-color:#09005D"/>
				<stop  offset="1" style="stop-color:#1A0F91"/>
			</linearGradient>
			<path style="fill:url(#SVGID_00000160191914592704377550000006704023847288655253_);" d="M2085.393,2661.248
				c-0.935,0-1.884-0.252-2.736-0.787c-2.416-1.513-3.15-4.7-1.636-7.116l37.507-59.909c0.754-1.205,1.967-2.042,3.359-2.325
				l27.602-5.553c2.791-0.58,5.517,1.251,6.082,4.045c0.563,2.794-1.248,5.517-4.045,6.082l-25.423,5.114l-36.327,58.023
				C2088.795,2660.391,2087.113,2661.248,2085.393,2661.248z"/>
			
				<linearGradient id="SVGID_00000047747618842814267860000002517649442795163583_" gradientUnits="userSpaceOnUse" x1="2553.1353" y1="1962.4827" x2="2336.5669" y2="2244.2319">
				<stop  offset="0" style="stop-color:#FEBBBA"/>
				<stop  offset="1" style="stop-color:#FF928E"/>
			</linearGradient>
			<path style="fill:url(#SVGID_00000047747618842814267860000002517649442795163583_);" d="M2668.275,1879.516
				c0,0-67.726,14.937-108.918,33.956c-8.181,3.777-14.707,10.382-18.424,18.523c-12.32,26.987-49.179,94.659-120.661,126.954
				c10.294,13.664,26.869,42.084,34.09,89.854c42.933-31.955,79.998-85.32,97.792-172.84c0,0,13.55,7.366,30.454-0.843
				c8.931-4.337,19.242-10.49,26.983-15.328c7.712-4.821,13.457-12.315,15.688-21.068c2.946-11.558,1.211-21.721,1.211-32.623
				l34.812-10.786C2661.303,1895.314,2671.768,1891.364,2668.275,1879.516z"/>
			
				<linearGradient id="SVGID_00000029024774912408388200000001598553721106325424_" gradientUnits="userSpaceOnUse" x1="2103.8738" y1="84.1941" x2="2124.1904" y2="851.1563">
				<stop  offset="0" style="stop-color:#FF928E"/>
				<stop  offset="1" style="stop-color:#FE7062"/>
			</linearGradient>
			<path style="fill:url(#SVGID_00000029024774912408388200000001598553721106325424_);" d="M2454.362,2148.803
				c-7.221-47.769-23.796-76.19-34.09-89.854c-44.406,20.063-102.169,26.476-175.726,0.988c-6.78-2.349-13.853-3.725-21.024-4.146
				c-39.158-2.296-168.196-6.485-274.97,28.792c-22.472,7.424-40.673,24.036-50.052,45.562
				c-28.884,66.284-75.647,217.238,54.171,293.448c9.974-24.762,21.486-44.667,31.329-59.29
				c-20.906-35.263-27.098-83.426,10.001-146.145c27.051,73.044,39.742,179.625,42.394,226.793
				c0.873,15.53-1.851,31.029-7.945,45.367l-0.665,1.564c-1.304,3.068,0.491,6.594,3.771,7.33
				c73.083,16.417,149.094,11.956,171.803,10.081c4.054-0.335,7.422-3.236,8.352-7.154
				c35.538-149.742,35.619-251.887,26.918-316.458C2271.875,2193.112,2373.53,2208.965,2454.362,2148.803z"/>
			
				<linearGradient id="SVGID_00000155130502856191652430000001294617472674929029_" gradientUnits="userSpaceOnUse" x1="2207.6748" y1="2140.7314" x2="2243.9436" y2="2140.7314">
				<stop  offset="0" style="stop-color:#E1473D"/>
				<stop  offset="1" style="stop-color:#E9605A"/>
			</linearGradient>
			<path style="fill:url(#SVGID_00000155130502856191652430000001294617472674929029_);" d="M2238.771,2191.907
				c-2.549,0-4.768-1.891-5.111-4.489c-8.266-62.42-25.025-89.679-25.194-89.947c-1.513-2.411-0.794-5.598,1.614-7.121
				c2.411-1.513,5.591-0.807,7.114,1.594c0.736,1.16,18.098,29.11,26.704,94.122c0.376,2.824-1.614,5.422-4.44,5.795
				C2239.228,2191.892,2238.999,2191.907,2238.771,2191.907z"/>
			
				<linearGradient id="SVGID_00000023973206103212574980000003174447217093527473_" gradientUnits="userSpaceOnUse" x1="2070.4094" y1="2144.5818" x2="2094.1023" y2="2020.1937">
				<stop  offset="0" style="stop-color:#FEBBBA"/>
				<stop  offset="1" style="stop-color:#FF928E"/>
			</linearGradient>
			<path style="fill:url(#SVGID_00000023973206103212574980000003174447217093527473_);" d="M2058.42,1968.561
				c0,0-7.393,78.172-13.903,101.294c-0.988,3.508,0.536,7.207,3.723,9.028c11.048,6.313,37.547,16.61,73.792-1.154
				c5.872-2.878,9.402-8.999,9.128-15.476l-3.194-75.539L2058.42,1968.561z"/>
			<g>
				
					<linearGradient id="SVGID_00000122696852156558913460000001806052802947123358_" gradientUnits="userSpaceOnUse" x1="2134.519" y1="1916.3695" x2="1999.3361" y2="2019.8051">
					<stop  offset="0" style="stop-color:#FEBBBA"/>
					<stop  offset="1" style="stop-color:#FF928E"/>
				</linearGradient>
				<path style="fill:url(#SVGID_00000122696852156558913460000001806052802947123358_);" d="M2129.562,1868.555
					c0,0,23.647,54.321,25.235,82.833c1.588,28.511,7.732,47.012-25.235,52.753c-32.967,5.741-60.739-10.681-75.784-39.082
					c0,0-23.573-43.763-18.285-61.684C2040.781,1885.453,2129.562,1868.555,2129.562,1868.555z"/>
				
					<linearGradient id="SVGID_00000096056824377734108630000009318762123288180112_" gradientUnits="userSpaceOnUse" x1="2039.3564" y1="1834.4713" x2="2165.2576" y2="1996.5688">
					<stop  offset="0" style="stop-color:#09005D"/>
					<stop  offset="1" style="stop-color:#1A0F91"/>
				</linearGradient>
				<path style="fill:url(#SVGID_00000096056824377734108630000009318762123288180112_);" d="M2065.044,1944.639l1.877-0.827
					c2.389-1.053,3.411-3.897,2.211-6.216c-4.648-8.982-13.711-29.565-2.004-34.366c15.088-6.188,74.854-18.376,87.749-39.583
					c12.393-20.381,1.412-46.691-15.091-54.175c-1.104-0.5-2.406-0.103-2.972,0.969l-1.375,2.602
					c-0.942,1.782-3.573,1.512-4.133-0.424l0,0c-0.538-1.858-3.009-2.218-4.034-0.578c-3.964,6.345-14.665,16.63-43.282,21.912
					c-40.67,7.506-67.559,23.964-68.228,52.068c-0.042,1.785-1.942,2.778-3.467,1.849c-3.003-1.83-7.808-2.689-14.231,2.711
					c-11.169,9.392-6.599,33.754,17.887,53.795c1.163,0.952,1.154,2.767-0.106,3.588c-4.439,2.889-11.056,9.765,6.09,18.931
					c17.735,9.48,30.978,8.702,36.077,7.86c1.269-0.21,2.086-1.438,1.81-2.693l-5.443-24.701c-0.308-1.398,0.756-2.722,2.188-2.722
					H2065.044z"/>
				
					<linearGradient id="SVGID_00000059282823647919969070000006678212905925477512_" gradientUnits="userSpaceOnUse" x1="2117.7512" y1="1894.455" x2="1982.5685" y2="1997.8904">
					<stop  offset="0" style="stop-color:#FEBBBA"/>
					<stop  offset="1" style="stop-color:#FF928E"/>
				</linearGradient>
				<path style="fill:url(#SVGID_00000059282823647919969070000006678212905925477512_);" d="M2066.068,1949.851
					c0,0-9.021-34.699-24.579-24.97c-15.557,9.729,8.073,38.879,20.581,40.178L2066.068,1949.851z"/>
			</g>
			<path style="fill:#F8A570;" d="M2570.217,1970.09c-1.145,0-2.297-0.378-3.255-1.155c-2.214-1.801-2.55-5.053-0.749-7.267
				c2.59-3.187,25.562-31.268,34.67-36.412c2.6-1.468,3.893-2.779,4.307-3.626l-23.842,4.771l-14.691,12.613
				c-2.166,1.856-5.427,1.604-7.282-0.555c-1.859-2.163-1.609-5.427,0.555-7.282l15.717-13.491c0.673-0.575,1.48-0.973,2.35-1.145
				l29.564-5.921c2.052-0.429,4.13,0.449,5.298,2.179c2.491,3.702,3.336,7.353,2.507,10.863c-0.963,4.095-4.04,7.555-9.401,10.586
				c-5.59,3.157-22.432,22.493-31.737,33.936C2573.205,1969.439,2571.717,1970.09,2570.217,1970.09z"/>
			
				<linearGradient id="SVGID_00000124851511084584349560000000975247857240649146_" gradientUnits="userSpaceOnUse" x1="2101.6187" y1="2365.7869" x2="2039.2495" y2="2459.3406">
				<stop  offset="0" style="stop-color:#FEBBBA"/>
				<stop  offset="1" style="stop-color:#FF928E"/>
			</linearGradient>
			<path style="fill:url(#SVGID_00000124851511084584349560000000975247857240649146_);" d="M2021.143,2419.068
				c0,0,8.893-14.822,29.643-14.822c20.75,0,44.465,38.536,44.465,38.536s-32.607,14.822-44.465,26.679
				C2038.929,2481.318,2021.143,2442.782,2021.143,2419.068z"/>
		</g>
	</g>
</g>
</svg>
