<?xml version="1.0" standalone="no"?>
<!DOCTYPE svg PUBLIC "-//W3C//DTD SVG 20010904//EN"
 "http://www.w3.org/TR/2001/REC-SVG-20010904/DTD/svg10.dtd">
<svg version="1.0" xmlns="http://www.w3.org/2000/svg"
 width="499.000000pt" height="350.000000pt" viewBox="0 0 499.000000 350.000000"
 preserveAspectRatio="xMidYMid meet">

<g transform="translate(0.000000,350.000000) scale(0.100000,-0.100000)"
fill="#000000" stroke="none">
<path d="M4020 3071 c0 -94 3 -171 8 -173 4 -2 78 -2 165 0 l157 4 0 169 0
169 -165 0 -165 0 0 -169z"/>
<path d="M2570 2670 l0 -320 715 0 715 0 0 -330 0 -330 -715 0 -715 0 0 -740
0 -740 38 -2 c20 -2 155 -3 299 -3 l263 0 0 408 0 407 365 0 365 0 0 165 0
165 275 0 275 0 0 165 0 165 164 0 c140 0 165 2 170 16 3 9 6 162 6 340 l0
324 -170 0 -170 0 0 160 0 160 -275 0 -275 0 0 155 0 155 -665 0 -665 0 0
-320z m430 5 l0 -125 -120 0 -120 0 0 125 0 125 120 0 120 0 0 -125z"/>
<path d="M1503 2931 c-81 -30 -166 -79 -224 -128 -125 -106 -227 -273 -269
-438 -23 -88 -37 -237 -26 -280 l7 -27 48 46 c100 92 242 164 375 187 104 18
263 7 359 -25 100 -33 139 -54 213 -110 l59 -45 15 22 c71 104 155 203 272
322 76 76 138 142 138 146 0 10 -127 112 -190 151 -89 57 -177 98 -284 133
-115 37 -197 52 -341 59 -83 5 -109 3 -152 -13z m-8 -293 c7 -23 21 -38 45
-50 27 -13 30 -17 14 -18 -24 0 -60 -36 -66 -65 -4 -18 -6 -17 -16 7 -6 16
-26 37 -43 47 l-31 19 23 13 c30 15 48 39 49 62 0 28 15 19 25 -15z"/>
<path d="M1166 2899 c-210 -60 -402 -169 -559 -319 -104 -98 -153 -160 -230
-288 -183 -305 -239 -688 -151 -1040 100 -402 395 -746 769 -898 83 -34 221
-76 289 -88 l40 -8 -50 40 c-115 90 -222 236 -281 382 -47 119 -65 207 -66
335 0 143 7 166 96 309 68 108 172 296 166 299 -71 46 -230 219 -266 292 -33
65 -47 143 -45 260 2 232 95 455 262 625 47 48 96 94 110 103 22 14 23 16 5
16 -11 0 -51 -9 -89 -20z m-445 -1085 c26 -70 86 -137 152 -171 53 -26 157
-52 222 -54 l40 -1 -40 -8 c-22 -5 -69 -13 -105 -20 -170 -29 -262 -127 -295
-313 l-12 -72 -8 50 c-31 218 -135 321 -342 341 -79 8 -119 23 -61 24 59 0
174 28 226 54 94 48 158 152 169 276 7 85 16 91 25 18 4 -37 17 -92 29 -124z"/>
<path d="M3020 2075 l0 -115 115 0 115 0 0 115 0 115 -115 0 -115 0 0 -115z"/>
<path d="M1030 1017 c0 -153 63 -345 158 -484 107 -156 297 -283 422 -283 93
0 285 31 372 60 104 35 250 106 333 162 76 52 155 117 155 129 0 5 -37 44 -81
86 -99 94 -225 242 -289 339 l-46 71 -58 -43 c-128 -97 -273 -144 -441 -144
-183 0 -331 47 -467 148 l-58 43 0 -84z m1128 -288 l27 -11 -32 -13 c-17 -7
-38 -26 -46 -41 l-14 -27 -6 25 c-4 15 -20 32 -37 40 l-31 15 26 17 c14 9 31
28 37 42 l11 24 19 -30 c10 -17 30 -35 46 -41z"/>
</g>
</svg>
