<?xml version="1.0" encoding="utf-8"?>
<!-- Generator: Adobe Illustrator 27.5.0, SVG Export Plug-In . SVG Version: 6.00 Build 0)  -->
<svg version="1.1" id="_x2018_лой_x5F_1" xmlns="http://www.w3.org/2000/svg" xmlns:xlink="http://www.w3.org/1999/xlink"
	 x="0px" y="0px" viewBox="0 0 3200 2000" style="enable-background:new 0 0 3200 2000;" xml:space="preserve">
<rect style="fill:#FFFFFF;" width="3200" height="2000"/>
<g>
	<path style="fill:#EBF3FA;" d="M299.358,1765.334c0,0-307.638-366.327-36.731-686.843
		c218.584-258.611,427.018-41.654,538.347-371.938c128.738-381.93,617.354-648.395,1021.856-413.021
		c404.503,235.375,325.303,323.296,679.303,307.917c354.001-15.379,367.805,297.602,373.895,455.512
		c6.089,157.909,367.91,242.306,82.091,710.287L299.358,1765.334z"/>
	<path style="fill:#DFEBFD;" d="M330.141,1465.279c-34.974-112.244,145.635-185.103,145.635-185.103s216.298,97.772,250.752,81.46
		s-168.606-119.703-168.606-119.703c58.031-45.319,263.835-69.76,263.835-69.76s114.376,201.831,143.755,177.54
		c29.378-24.292-110.393-173.545-110.393-173.545c71.263-20.113,171.527,14.175,171.527,14.175
		c142.143,69.291,45.828,248.236,45.828,248.236s41.147,69.091,132.523,120.24l0.004,0.001c0,0,18.59,8.351,43.731,26.651
		l-16.315,10.378c-4.116-3.527-8.274-6.821-12.483-9.847c-0.02-0.032-0.044-0.046-0.078-0.054c-0.062-0.045-0.123-0.086-0.184-0.13
		c-2.721-1.811-6.609-4.376-11.391-7.473c-0.006-0.004-0.013-0.008-0.019-0.012c-0.007-0.01-0.017-0.003-0.024-0.014
		c-11.19-6.588-19.144-11.653-24.583-15.502c-0.019-0.012-0.034-0.024-0.047-0.039c-34.418-21.129-81.319-47.351-100.994-46.594
		c0,0,0.189-3.688-1.268-9.704c0.404,3.095,0.826,6.321,1.268,9.704c10.14,77.607-123.15,176.402-211.097,209.931
		s-67.994-9.985-48.757-72.244c19.237-62.259,112.978-108.702,130.028-139.161c17.05-30.458-29.733-20.313-79.059,16.667
		c-49.326,36.98-42.268,105.34-120.972,166.612c-78.705,61.271-242.779-55.711-242.779-55.711
		c69.269-18.845,152.694-116.742,143.995-139.228c-8.699-22.485-161.027,77.213-188.771,86.455
		C437.458,1598.751,365.115,1577.523,330.141,1465.279z"/>
	<path style="fill:#DFEBFD;" d="M2540.227,776.102c-46.9-94.523-209.277-29.816-209.277-29.816s-79.736,197.562-112.209,208.339
		c-32.473,10.778,35.19-182.222,35.19-182.222c-65.758,6.573-214.463,118.322-214.463,118.322s50.925,201.892,16.798,204.344
		c-34.126,2.453-35.97-181.065-35.97-181.065c-58.716,31.134-102.519,115.554-102.519,115.554
		c-49.276,133.1,124.18,189.502,124.18,189.502s16.139,70.347-11.441,160.196l-0.003,0.003c0,0-6.886,16.945-11.853,44.41
		l17.022-3.382c0.483-4.841,1.14-9.557,1.994-14.13c-0.006-0.033,0-0.057,0.018-0.083c0.013-0.066,0.026-0.132,0.039-0.198
		c0.643-2.862,1.575-6.938,2.758-11.912c0.002-0.006,0.004-0.013,0.005-0.019c-0.002-0.011,0.01-0.013,0.007-0.024
		c3.178-11.213,5.197-19.432,6.341-25.303c0.005-0.019,0.007-0.036,0.007-0.054c9.234-35.052,23.41-81.149,36.647-92.857
		c0,0-2.41-2.275-5.195-7.083c1.657,2.259,3.384,4.614,5.195,7.083c41.54,56.648,189.292,38.113,267.152,5.339
		c77.859-32.774,37.931-48.639-13.156-77.112s-140.715-0.487-170.664-9.682c-29.95-9.193,6.699-31.617,61.637-38.204
		c54.938-6.588,92.744,42.149,181.809,33.109c89.065-9.04,123.002-186.687,123.002-186.687
		c-56.635,30.721-171.473,18.921-179.77-1.064c-8.297-19.985,152.369-49.739,176.104-60.944
		C2553.346,929.257,2587.129,870.625,2540.227,776.102z"/>
	<path style="fill:#DFEBFD;" d="M2872.937,1524.064c23.913-76.242-98.747-125.988-98.747-125.988s-147.131,66.178-170.526,55.047
		c-23.396-11.131,114.745-81.144,114.745-81.144c-39.384-30.875-179.228-47.745-179.228-47.745s-77.991,137.03-97.928,120.483
		s75.247-117.811,75.247-117.811c-48.408-13.76-116.596,9.417-116.596,9.417c-96.695,46.914-59.515,215.563-121.683,250.21
		l-0.003,0.001c0,0-12.645,5.652-29.755,18.059l11.075,7.074c2.802-2.393,5.632-4.626,8.496-6.677
		c0.014-0.021,0.03-0.031,0.054-0.036c0.042-0.03,0.083-0.059,0.125-0.089c1.852-1.227,4.497-2.965,7.751-5.064
		c0.004-0.002,0.008-0.005,0.013-0.007c0.005-0.008,0.012-0.003,0.017-0.01c7.613-4.463,13.025-7.896,16.728-10.505
		c0.013-0.008,0.022-0.017,0.032-0.026c23.419-14.316,69.004-33.839,68.699-31.54c-6.989,52.733,83.477,120.048,143.207,142.946
		s46.225-6.7,33.229-49.039c-12.995-42.339-76.648-74.022-88.197-94.745s20.233-13.769,53.711,11.428
		c33.479,25.196,28.595,71.647,82.009,113.391s165.075-37.557,165.075-37.557c-47.055-12.896-103.631-79.537-97.69-94.809
		c5.941-15.271,109.345,52.682,128.189,58.998S2849.024,1600.308,2872.937,1524.064z"/>
	<path style="fill:#FFB27D;" d="M964.423,1213.941c0,0,27.515,113.832,54.526,136.589c16.234,13.678,64.507,45.066,64.507,45.066
		l-20.079,7.286c0,0-66.955-22.611-81.945-40.235c-14.99-17.624-56.031-105.937-56.031-105.937L964.423,1213.941z"/>
	<g>
		<path style="opacity:0.5;fill:#C5DDFF;" d="M1849.387,986.634c0,0,9.739-194.436,100.629-316.328
			c12.079-16.199,37.885-8.194,38.851,11.99c0.017,0.336,0.029,0.677,0.04,1.022C1989.998,717.807,1889.354,870.54,1849.387,986.634
			z"/>
		<path style="opacity:0.5;fill:#C5DDFF;" d="M1841.181,1042.671c0,0,81.866-247.827,242.716-366.017
			c9.808-7.207,23.859-5.807,31.426,3.727c4.927,6.209,7.641,16.253,3.71,32.498C2108.552,756.2,1930.799,911.831,1841.181,1042.671
			z"/>
	</g>
	<path style="fill:#CCE1FF;" d="M1040.325,606.511c31.231-75.297,159.753-33.873,159.753-33.873s71.741,148.125,97.331,154.742
		c25.59,6.617-36.607-138.62-36.607-138.62c51.026,1.645,171.459,80.038,171.459,80.038s-28.744,158.262-2.312,158.377
		c26.431,0.114,18.301-141.432,18.301-141.432c46.877,20.942,85.032,83.729,85.032,83.729
		c44.908,100.025-85.852,152.525-85.852,152.525s-8.777,55.062,17.157,122.879l0.001,0.002c0,0,6.189,12.703,11.447,33.613
		l-13.296-1.721c-0.625-3.706-1.376-7.307-2.273-10.787c0.003-0.025-0.003-0.044-0.018-0.063c-0.013-0.051-0.027-0.1-0.04-0.15
		c-0.645-2.173-1.576-5.265-2.746-9.038c-0.001-0.004-0.003-0.009-0.005-0.014c0.001-0.009-0.007-0.01-0.006-0.019
		c-3.033-8.478-5.018-14.707-6.204-19.172c-0.005-0.015-0.007-0.028-0.008-0.042c-8.942-26.536-22.267-61.329-33.079-69.664
		c0,0,1.739-1.879,3.635-5.73c-1.159,1.827-2.368,3.732-3.635,5.73c-29.07,45.825-143.918,39.228-205.636,18.018
		c-61.718-21.209-31.768-35.515,6.127-60.121c37.894-24.605,108.433-7.699,131.039-16.344c22.606-8.644-6.809-24.021-49.497-26.239
		c-42.688-2.218-69.291,37.314-138.41,34.982c-69.119-2.333-104.521-137.491-104.521-137.491
		c45.251,20.731,133.15,5.659,138.505-10.177c5.355-15.836-120.031-30.408-138.908-37.809
		C1038.185,725.241,1009.095,681.808,1040.325,606.511z"/>
	<path style="fill:#F8FCFF;" d="M1381.379,399.371c0,0,21.545-47.976,73.066-42.645c0,0,74.799-79.963,154.563-10.662
		c0,0,84.788-17.171,147.58,14.868c41.866,21.361,55.693,43.77,55.693,43.77L1381.379,399.371z"/>
	<path style="fill:#F8FCFF;" d="M1701.867,531.009c0,0,12.514-29.253,42.438-26.002c0,0,43.444-48.757,89.771-6.501
		c0,0,49.246-10.47,85.716,9.065c24.316,13.025,32.348,26.688,32.348,26.688L1701.867,531.009z"/>
	<path style="fill:#F8FCFF;" d="M773.805,929.889c0,0,14.61-39.223,49.547-34.864c0,0,50.722-65.374,104.81-8.716
		c0,0,57.496-14.039,100.075,12.155c28.39,17.464,37.766,35.784,37.766,35.784L773.805,929.889z"/>
	<path style="fill:#F99746;" d="M1982.929,1041.456h-716.851c-15.864,0-25.148-17.872-16.028-30.852l151.208-215.186
		c3.668-5.22,9.648-8.327,16.028-8.327h405.51c6.191,0,12.019,2.927,15.715,7.894l160.133,215.186
		C2008.261,1023.095,1999.037,1041.456,1982.929,1041.456z"/>
	<path style="fill:#B0D0FF;" d="M2323.705,1515.222H929.595c-18.307,0-29.021-20.623-18.497-35.603l142.45-202.732
		c4.233-6.024,11.134-9.609,18.496-9.609h1100.796c7.146,0,13.87,3.378,18.136,9.11l150.864,202.732
		C2352.938,1494.033,2342.295,1515.222,2323.705,1515.222z"/>
	<path style="fill:#C7DCFC;" d="M731.133,1708.962l125.723-178.924c6.526-9.288,17.167-14.816,28.52-14.816h1447.006
		c11.017,0,21.386,5.209,27.963,14.047l133.149,178.924c17.112,22.995,0.7,55.666-27.963,55.666H759.653
		C731.425,1763.858,714.905,1732.059,731.133,1708.962z"/>
	<g>
		<polygon style="fill:#EBF3FA;" points="973.24,1547.939 987.743,1731.141 1084.687,1731.141 1098.426,1547.939 		"/>
		<path style="fill:#7C9AF2;" d="M982.908,1577.965l13.231,144.016h79.387l13.231-144.016c0,0-20.865-4.58-58.014,0
			C993.595,1582.544,998.175,1573.385,982.908,1577.965z"/>
		<path style="fill:#FFFFFF;" d="M1010.207,1646.84c0-14.153,25.626-46.331,25.626-46.331s25.625,32.178,25.625,46.331
			c0,14.152-11.473,25.625-25.625,25.625S1010.207,1660.992,1010.207,1646.84z"/>
	</g>
	<g>
		<path style="fill:#F99746;" d="M2183.768,1628.946c0-28.436-23.136-51.571-51.573-51.571c-28.437,0-51.572,23.136-51.572,51.571
			c0,25.626,18.79,46.939,43.314,50.904v6.494h-16.787c-4.554,0-8.257,3.704-8.257,8.257c0,4.554,3.703,8.259,8.257,8.259h16.787
			v14.081c0,4.554,3.705,8.257,8.258,8.257c4.554,0,8.258-3.703,8.258-8.257v-14.081h16.371c4.554,0,8.257-3.705,8.257-8.259
			c0-4.553-3.703-8.257-8.257-8.257h-16.371v-6.494C2164.977,1675.887,2183.768,1654.573,2183.768,1628.946z M2097.138,1628.946
			c0-19.33,15.727-35.058,35.057-35.058c19.331,0,35.058,15.728,35.058,35.058c0,19.332-15.727,35.059-35.058,35.059
			C2112.864,1664.005,2097.138,1648.278,2097.138,1628.946z"/>
		<path style="fill:#8FB2FF;" d="M2321.974,1577.365l-2.923-24.211c-0.266-2.199-1.428-4.23-3.186-5.571
			c-1.752-1.341-4.012-1.919-6.219-1.608l-28.833,4.259c-2.181,0.322-4.106,1.475-5.421,3.246c-1.316,1.771-1.863,3.948-1.539,6.13
			c0.664,4.5,4.862,7.624,9.374,6.962l5.624-0.831l-13.955,16.438c-9.205-5.582-19.899-8.139-30.85-7.252
			c-13.729,1.12-26.2,7.521-35.117,18.023c-8.916,10.501-13.21,23.846-12.09,37.574c1.122,13.73,7.522,26.202,18.023,35.117
			c9.313,7.908,21.139,12.263,33.3,12.263c1.413,0,2.852-0.059,4.275-0.174c13.729-1.121,26.201-7.521,35.118-18.022
			c8.914-10.503,13.207-23.848,12.089-37.574c-0.895-10.946-5.153-21.085-12.159-29.267l17.27-20.34l0.823,6.817
			c0.499,4.145,4.019,7.268,8.188,7.268c0.001,0,0.001,0,0.001,0c0.334,0,0.669-0.019,0.996-0.059
			c2.19-0.265,4.146-1.365,5.507-3.102C2321.633,1581.717,2322.237,1579.555,2321.974,1577.365z M2283.185,1623.475
			c0.762,9.334-2.158,18.406-8.218,25.545c-6.062,7.138-14.539,11.488-23.873,12.25c-9.323,0.752-18.402-2.155-25.542-8.217
			c-7.138-6.061-11.488-14.539-12.251-23.873c-0.763-9.335,2.155-18.405,8.217-25.543c6.063-7.139,14.54-11.489,23.87-12.251
			c0.972-0.079,1.954-0.119,2.917-0.119c8.38,0,16.205,2.883,22.629,8.338C2278.071,1605.664,2282.422,1614.142,2283.185,1623.475z"
			/>
	</g>
	<g>
		<polygon style="fill:#F78248;" points="2015.082,1317.933 2135.38,1317.933 2066.335,1387.688 1946.037,1387.688 
			2015.082,1317.933 		"/>
		<polygon style="fill:#FFDAA4;" points="2021.652,1324.729 1959.403,1387.688 1959.403,1462.916 2188.605,1462.916 
			2188.605,1370.969 2021.652,1324.729 		"/>
		<polygon style="fill:#F2C78F;" points="2188.605,1462.916 2083.968,1462.916 2083.968,1373.055 2188.605,1373.055 
			2188.605,1462.916 		"/>
		<polygon style="fill:#F78248;" points="2135.221,1317.933 2014.923,1317.933 2083.968,1387.688 2204.266,1387.688 
			2135.221,1317.933 		"/>
		<polygon style="fill:#FFDAA4;" points="2099.275,1323.411 2112.703,1336.841 2127.272,1336.841 2127.272,1309.032 
			2099.904,1309.032 2099.275,1323.411 		"/>
		<polygon style="fill:#F2C78F;" points="2129.762,1306.307 2098.128,1306.307 2098.128,1311.289 2129.762,1311.289 
			2129.762,1306.307 		"/>
		<g>
			<path style="fill:#F2C78F;" d="M2016.846,1374.105h-2.751c-9.345,0-16.92,7.575-16.92,16.919v42.996h36.041v-43.545
				C2033.216,1381.435,2025.887,1374.105,2016.846,1374.105z"/>
			<path style="fill:#F99746;" d="M2016.846,1373.055h-2.751c-9.909,0-17.97,8.062-17.97,17.97v44.046h38.141v-44.595
				C2034.266,1380.87,2026.451,1373.055,2016.846,1373.055z M2014.095,1375.155h2.751c8.447,0,15.32,6.872,15.32,15.32v0.562
				h-33.941v-0.013C1998.225,1382.274,2005.344,1375.155,2014.095,1375.155z M1998.225,1393.682h15.25v39.288h-15.25V1393.682z
				 M2016.176,1432.97v-39.288h15.99v39.288H2016.176z"/>
		</g>
	</g>
	<g>
		<path style="fill:#F99746;" d="M1406.693,1322.307c-3.559,1.331-5.854,4.409-5.854,7.801v75.281
			c0,15.402,7.312,29.826,19.566,38.606l44.223,28.341c2.939,1.885,6.935,1.885,9.886,0l44.223-28.341
			c12.255-8.78,19.567-23.204,19.567-38.606v-75.08c0-3.492-2.441-6.636-6.146-7.906
			C1478.438,1304.012,1456.903,1303.52,1406.693,1322.307L1406.693,1322.307z"/>
		<path style="fill:#F78248;" d="M1532.158,1322.402c-26.149-8.952-44.672-13.65-62.587-13.96v165.308
			c1.737,0,3.462-0.472,4.943-1.414l44.223-28.341c12.255-8.78,19.567-23.204,19.567-38.606v-75.082
			C1538.304,1326.816,1535.863,1323.673,1532.158,1322.402L1532.158,1322.402z"/>
		<g>
			<g>
				<path style="fill:#FFDAA4;" d="M1473.769,1376.377h-10.058c-9.02,0-16.359-7.339-16.359-16.359v-1.955
					c0-9.022,7.339-16.361,16.359-16.361h10.058c9.022,0,16.361,7.339,16.361,16.361v1.955
					C1490.13,1369.038,1482.791,1376.377,1473.769,1376.377z M1463.711,1348.242c-5.414,0-9.818,4.404-9.818,9.82v1.955
					c0,5.414,4.404,9.818,9.818,9.818h10.058c5.416,0,9.82-4.404,9.82-9.818v-1.955c0-5.416-4.404-9.82-9.82-9.82H1463.711z"/>
			</g>
			<path style="fill:#FFDAA4;" d="M1478.025,1422.072h-15.888c-14.863,0-26.912-12.049-26.912-26.912v-26.257
				c0-3.325,2.695-6.02,6.02-6.02h54.351c4.258,0,7.71,3.452,7.71,7.711v26.195
				C1503.307,1410.753,1491.988,1422.072,1478.025,1422.072z"/>
			<g>
				<path style="fill:#F78248;" d="M1478.144,1380.645c0,4.902-3.975,8.877-8.877,8.877c-4.903,0-8.877-3.975-8.877-8.877
					s3.975-8.877,8.877-8.877C1474.169,1371.768,1478.144,1375.742,1478.144,1380.645z"/>
				<path style="fill:#F78248;" d="M1469.267,1384.787L1469.267,1384.787c1.058,0,1.923,0.865,1.923,1.924v14.795
					c0,1.058-0.865,1.923-1.923,1.923l0,0c-1.058,0-1.924-0.865-1.924-1.923v-14.795
					C1467.343,1385.652,1468.208,1384.787,1469.267,1384.787z"/>
			</g>
		</g>
	</g>
	<g>
		<path style="fill:#8FB2FF;" d="M1170.565,1245.616l134.494-191.411c5.616-7.992,14.771-12.749,24.54-12.749h762.905
			c9.48,0,18.401,4.481,24.062,12.086l135.54,182.133c10.484,14.088,0.43,34.104-17.131,34.104H1183.118
			C1170.694,1269.778,1163.423,1255.782,1170.565,1245.616z"/>
		<g>
			<path style="fill:#F78248;" d="M1752.902,1084.606c-38.095-33.022-68.42,22.893-68.42,22.893s-49.53-39.912-71.958,5.241
				c-22.428,45.151,93.1,100.253,93.1,100.253S1790.998,1117.629,1752.902,1084.606z"/>
			<path style="fill:#FFDAA4;" d="M1822.006,1167.934c-8.502-37.49-52.379-16.82-52.379-16.82s-12.418-46.885-46.583-29.264
				c-34.165,17.62,11.951,103.633,11.951,103.633S1830.507,1205.422,1822.006,1167.934z"/>
		</g>
		<g>
			<g>
				<circle style="fill:#F78248;" cx="1463.95" cy="1141.346" r="29.109"/>
				<path style="fill:#F78248;" d="M1422.367,1215.99h83.167c0,0-2.091-45.535-41.585-45.535S1422.367,1215.99,1422.367,1215.99z"/>
			</g>
			<g>
				<path style="fill:#F99746;" d="M1390.387,1129.12c0-18.71-15.167-33.876-33.876-33.876c-18.709,0-33.876,15.166-33.876,33.876
					s15.167,33.877,33.876,33.877C1375.22,1162.997,1390.387,1147.83,1390.387,1129.12z"/>
				<path style="fill:#F99746;" d="M1308.117,1215.99h96.789c0,0-2.434-52.993-48.396-52.993S1308.117,1215.99,1308.117,1215.99z"/>
			</g>
			<g>
				<path style="fill:#FFDAA4;" d="M1431.359,1163.88c0-11.223-9.098-20.321-20.321-20.321s-20.321,9.099-20.321,20.321
					c0,11.224,9.098,20.321,20.321,20.321S1431.359,1175.104,1431.359,1163.88z"/>
				<path style="fill:#FFDAA4;" d="M1382.009,1215.99h58.06c0,0-1.46-31.789-29.031-31.789S1382.009,1215.99,1382.009,1215.99z"/>
			</g>
		</g>
		<g>
			<g>
				<path style="fill:#F78248;" d="M2089.508,1129.12c0-18.71-15.167-33.876-33.876-33.876s-33.876,15.166-33.876,33.876
					s15.167,33.877,33.876,33.877S2089.508,1147.83,2089.508,1129.12z"/>
				<path style="fill:#F78248;" d="M2007.238,1215.99h96.788c0,0-2.434-52.993-48.396-52.993S2007.238,1215.99,2007.238,1215.99z"/>
			</g>
			<g>
				<path style="fill:#FFDAA4;" d="M2007.238,1129.12c0-18.71-15.168-33.876-33.877-33.876s-33.876,15.166-33.876,33.876
					s15.167,33.877,33.876,33.877S2007.238,1147.83,2007.238,1129.12z"/>
				<path style="fill:#FFDAA4;" d="M1924.968,1215.99h96.788c0,0-2.434-52.993-48.396-52.993S1924.968,1215.99,1924.968,1215.99z"/>
			</g>
		</g>
	</g>
	<g>
		<path style="fill:#F78248;" d="M1466.11,770.348l186.444-265.346c4.163-5.926,12.904-6.044,17.228-0.234l197.456,265.346
			c5.219,7.013,0.213,16.979-8.529,16.979h-383.9C1466.199,787.092,1461.16,777.393,1466.11,770.348z"/>
		<g>
			<path style="fill:#FFDAA4;" d="M1628.403,640.687c0-19.401,15.728-35.128,35.128-35.128c19.401,0,35.129,15.727,35.129,35.128
				c0,19.401-15.728,35.129-35.129,35.129C1644.131,675.816,1628.403,660.088,1628.403,640.687z"/>
			<path style="fill:#FFDAA4;" d="M1663.531,675.816c-33.951,0-61.475,27.523-61.475,61.475h122.95
				C1725.007,703.339,1697.483,675.816,1663.531,675.816z"/>
		</g>
	</g>
	<g>
		<path style="opacity:0.7;fill:#EA6C34;" d="M1754.571,919.801c0,0-51.57,16.079-60.731,68.134l20.551-9.311l9.423,18.7
			c0,0,22.661-49.148,43.949-50.396L1754.571,919.801z"/>
		<path style="opacity:0.7;fill:#EA6C34;" d="M1776.694,920.468c0,0,52.188,13.941,63.485,65.575l-20.916-8.457l-8.646,19.072
			c0,0-24.667-48.172-45.987-48.543L1776.694,920.468z"/>
		<circle style="fill:#FFDAA4;" cx="1764.919" cy="898.612" r="59.95"/>
		<g>
			<path style="fill:#F99746;" d="M1764.918,951.471c-29.147,0-52.859-23.712-52.859-52.86c0-29.147,23.712-52.859,52.859-52.859
				c29.148,0,52.86,23.712,52.86,52.859C1817.778,927.759,1794.066,951.471,1764.918,951.471z M1764.918,852.164
				c-25.61,0-46.447,20.836-46.447,46.447c0,25.611,20.837,46.448,46.447,46.448c25.611,0,46.448-20.836,46.448-46.448
				C1811.366,873,1790.529,852.164,1764.918,852.164z"/>
		</g>
		<polygon style="fill:#F99746;" points="1775.528,883.618 1799.348,886.873 1782.275,903.799 1786.541,927.458 1765.168,916.453 
			1743.984,927.82 1747.847,904.092 1730.489,887.458 1754.25,883.799 1764.705,862.151 		"/>
	</g>
	<g>
		<path style="fill:#FFDAA4;" d="M1531.236,994.846l-46.982,0c0-3.447,1.397-6.569,3.657-8.83c2.264-2.26,5.383-3.657,8.833-3.657
			c3.038,0,5.5-2.467,5.5-5.504v-21.024h11l0,21.024c0,1.518,0.616,2.896,1.612,3.892c0.997,0.996,2.374,1.612,3.893,1.612
			c3.446,0,6.569,1.397,8.829,3.657C1529.838,988.277,1531.235,991.399,1531.236,994.846z"/>
		<path style="fill:#FFDAA4;" d="M1571.217,833.701l-6.617,51.932c0,21.854-12.093,39.651-27.739,49.992
			c-0.004,0-0.004,0.004-0.008,0.004c-5.33,3.524-11.069,6.181-16.885,7.837c-4.804,1.369-8.21,6.46-8.214,12.349v1.231
			c-0.004,3.646-0.004,6.703-0.004,6.703h-8.007c0,0-0.004-3.09-0.004-6.76c-0.008-6.472-3.662-12.163-8.919-13.775
			c-22.462-6.885-42.486-28.642-42.487-57.581l-5.659-51.931L1571.217,833.701z"/>
		<g>
			<path style="fill:#FFDAA4;" d="M1463.146,917.993c-5.677-14.525-16.369-17.843-27.688-21.357
				c-9.051-2.809-18.41-5.714-25.252-14.324c-7.589-9.55-9.16-23.031-3.908-33.546c3.995-7.998,11.057-12.446,19.382-12.229
				c11.826,0.321,21.396,8.995,27.674,25.084c4.497,11.525,5.771,22.783,5.823,23.256l-6.844,0.753
				c-0.046-0.416-4.867-41.615-26.839-42.211c-7.581-0.21-11.42,5.189-13.036,8.422c-4.016,8.039-2.725,18.807,3.139,26.186
				c5.521,6.947,13.478,9.417,21.902,12.031c11.8,3.663,25.175,7.814,32.06,25.425L1463.146,917.993z"/>
		</g>
		<g>
			<path style="fill:#FFDAA4;" d="M1553.789,917.992c5.678-14.525,16.369-17.844,27.688-21.357
				c9.051-2.81,18.41-5.714,25.252-14.324c7.589-9.551,9.159-23.032,3.907-33.546c-3.995-7.997-11.058-12.446-19.383-12.228
				c-11.826,0.321-21.396,8.996-27.673,25.085c-4.497,11.524-5.77,22.783-5.822,23.256l6.844,0.753
				c0.046-0.416,4.866-41.615,26.838-42.212c7.581-0.21,11.42,5.188,13.036,8.422c4.016,8.039,2.726,18.807-3.138,26.186
				c-5.521,6.947-13.478,9.417-21.902,12.032c-11.8,3.663-25.175,7.814-32.06,25.426L1553.789,917.992z"/>
		</g>
		<path style="fill:#FFDAA4;" d="M1517.607,965.077l-20.511,0c-2.785,0-5.063-2.278-5.063-5.063l0,0
			c0-2.784,2.278-5.063,5.063-5.063h20.511c2.784,0,5.063,2.278,5.063,5.063l0,0C1522.67,962.799,1520.392,965.077,1517.607,965.077
			z"/>
		<g>
			<path style="fill:#F99746;" d="M1491.68,911.823v-3.64c10.134-0.492,10.823-1.574,10.822-8.658v-35.617
				c0-5.018-1.771-5.411-5.805-5.903l-2.952-0.492v-3.247c7.576-0.886,16.037-2.854,21.842-4.919l0,50.178
				c0,7.28,0.59,8.166,10.626,8.658v3.641H1491.68z"/>
		</g>
	</g>
	<g>
		<g>
			<path style="fill:#F99746;" d="M1189.147,1319.813c0,0-12.238,20.69-23.458,20.979c-11.22,0.287-28.289-9.59-28.289-9.59
				s-10.301-27.571-3.314-38.36c0,0,7.007-3.691,14.334,2.829c1.258,1.127,2.536,2.542,3.793,4.363
				c1.777,2.565,3.773,4.028,5.889,4.796c8.006,2.924,17.509-3.956,21.062,2.685c2.076,3.86,4.333,6.761,6.189,8.799
				C1187.551,1318.663,1189.147,1319.813,1189.147,1319.813z"/>
			<path style="fill:#F99746;" d="M1065.969,1398.367c20.336-29.145,48.867-56.471,84.748-57.575c0,0,46.368,6.187,66.686,70.12
				c8.917,28.057-8.434,58.145-33.44,58.145h-90.238C1063.31,1469.057,1046.435,1426.363,1065.969,1398.367z"/>
			<path style="fill:#FFDAA4;" d="M1129.387,1344.636c0,0,31.208,8.334,40.837,3.436c0,0,1.455-15.671-11.688-13.474
				c-8.995,1.505-14.854-3.688-18.3-5.793C1135.359,1325.823,1128.091,1338.08,1129.387,1344.636z"/>
		</g>
		<g>
			
				<ellipse transform="matrix(0.0709 -0.9975 0.9975 0.0709 -324.8365 2516.2197)" style="fill:#FFDAA4;" cx="1188.276" cy="1432.48" rx="57.881" ry="57.881"/>
			<g>
				<path style="fill:#F99746;" d="M1196.441,1449.653c0.152-1.279,0.104-2.428-0.14-3.445c-0.245-1.018-0.731-1.972-1.457-2.86
					c-0.726-0.89-1.697-1.746-2.913-2.57c-1.216-0.824-2.72-1.667-4.514-2.528c-3.081-1.509-5.859-3.036-8.336-4.581
					c-2.478-1.545-4.555-3.235-6.233-5.072s-2.905-3.897-3.681-6.183c-0.777-2.286-0.988-4.921-0.634-7.907
					c0.308-2.589,1.046-4.896,2.218-6.92c1.171-2.022,2.704-3.726,4.597-5.107c1.893-1.382,4.087-2.427,6.583-3.135
					c2.495-0.708,5.235-1.024,8.219-0.948l1.161-9.779l7.871,0.935l-1.177,9.916c2.776,0.7,5.246,1.751,7.409,3.149
					c2.161,1.399,3.939,3.094,5.333,5.081c1.393,1.989,2.379,4.261,2.958,6.816c0.578,2.556,0.687,5.357,0.325,8.402l-14.217-1.687
					c0.434-3.655-0.053-6.486-1.461-8.492c-1.409-2.004-3.474-3.169-6.196-3.492c-1.476-0.175-2.771-0.12-3.885,0.165
					c-1.115,0.284-2.059,0.745-2.833,1.378c-0.774,0.635-1.383,1.42-1.826,2.356c-0.444,0.936-0.732,1.967-0.866,3.095
					c-0.134,1.127-0.091,2.167,0.129,3.119c0.219,0.953,0.685,1.865,1.396,2.738c0.711,0.872,1.69,1.729,2.938,2.572
					c1.247,0.844,2.811,1.747,4.692,2.712c3.04,1.565,5.79,3.128,8.249,4.686c2.459,1.56,4.527,3.264,6.203,5.115
					s2.902,3.921,3.679,6.206c0.776,2.286,0.989,4.906,0.638,7.861c-0.318,2.681-1.07,5.033-2.258,7.054
					c-1.188,2.021-2.727,3.708-4.616,5.06c-1.89,1.352-4.096,2.356-6.619,3.015s-5.276,0.949-8.26,0.873l-1.079,9.094l-7.822-0.928
					l1.074-9.048c-2.69-0.597-5.251-1.504-7.684-2.719c-2.433-1.216-4.532-2.801-6.295-4.756c-1.763-1.954-3.08-4.312-3.95-7.072
					c-0.87-2.76-1.088-5.968-0.654-9.624l14.217,1.688c-0.256,2.163-0.168,4.004,0.268,5.522c0.435,1.52,1.109,2.773,2.023,3.763
					c0.913,0.988,1.997,1.735,3.251,2.239s2.553,0.835,3.898,0.995c1.541,0.183,2.917,0.146,4.128-0.112s2.252-0.69,3.123-1.298
					c0.87-0.607,1.559-1.368,2.066-2.281C1195.987,1451.801,1196.308,1450.781,1196.441,1449.653z"/>
			</g>
		</g>
	</g>
	<g>
		<g>
			<path style="fill:#F78248;" d="M1823.471,1335.158c-2.123-2.251-4.386-4.387-6.75-6.396
				c-14.221-12.034-32.601-19.303-52.662-19.303c-20.668,0-39.553,7.724-53.951,20.428l-0.013,0.013
				c-2.124,1.87-4.134,3.854-6.055,5.929c-13.412,14.549-21.604,33.966-21.604,55.253v0.101c0.025,21.25,8.217,40.628,21.604,55.152
				c14.916,16.206,36.305,26.369,60.019,26.369c23.386,0,44.521-9.885,59.412-25.712c13.754-14.587,22.197-34.231,22.223-55.81
				v-0.101C1845.693,1369.465,1837.236,1349.783,1823.471,1335.158z M1764.059,1441.101c-14.6,0-27.759-6.282-36.898-16.294
				c-8.128-8.874-13.096-20.681-13.121-33.625v-0.101c0-12.982,4.968-24.827,13.121-33.726c1.289-1.429,2.667-2.769,4.121-4.033
				c8.785-7.635,20.25-12.262,32.777-12.262c12.148,0,23.298,4.349,31.969,11.579c1.517,1.265,2.958,2.617,4.311,4.046
				c8.521,8.962,13.754,21.085,13.754,34.396v0.101c-0.025,13.273-5.259,25.346-13.741,34.295
				C1791.224,1435.097,1778.317,1441.101,1764.059,1441.101z"/>
		</g>
		<path style="fill:#FFDAA4;" d="M1704.04,1446.334c-13.387-14.524-21.578-33.902-21.604-55.152h31.603
			c0.025,12.944,4.993,24.751,13.121,33.625L1704.04,1446.334z"/>
		<path style="fill:#FFDAA4;" d="M1823.991,1335.624c13.446,14.44,21.675,33.706,21.7,54.831h-31.743
			c-0.025-12.868-5.016-24.606-13.181-33.429L1823.991,1335.624z"/>
		<path style="fill:#FFDAA4;" d="M1819.536,1450.9c-14.44,13.447-33.706,21.777-54.831,21.803v-31.743
			c12.868-0.025,24.514-5.036,33.336-13.2L1819.536,1450.9z"/>
		<path style="fill:#FFDAA4;" d="M1704.81,1335.021c13.576-14.318,32.24-24.011,53.323-25.349l2.169,31.528
			c-12.843,0.825-24.303,6.884-32.601,15.581L1704.81,1335.021z"/>
	</g>
	<g>
		<path style="fill:#ED7D2B;" d="M1520.09,1701.947h-279.82c12.968-62.891,67.251-110.66,133.233-113.695
			c2.209-0.1,4.432-0.157,6.669-0.157C1449.134,1588.095,1506.68,1636.947,1520.09,1701.947z"/>
		<path style="fill:#F99746;" d="M1520.09,1701.947h-215.22c8.366-48.597,33.889-89.654,68.633-113.695
			c2.209-0.1,4.432-0.157,6.669-0.157C1449.134,1588.095,1506.68,1636.947,1520.09,1701.947z"/>
		<path style="fill:#ED7D2B;" d="M1530.66,1712.904h-307.154c-3.015,0-5.481-2.467-5.481-5.481l0,0c0-3.015,2.467-5.481,5.481-5.481
			h307.154c3.015,0,5.482,2.467,5.482,5.481l0,0C1536.142,1710.438,1533.675,1712.904,1530.66,1712.904z"/>
		<path style="fill:#ED7D2B;" d="M1376.428,1593.853L1376.428,1593.853c-3.038,0-5.523-2.485-5.523-5.522v-10.604
			c0-3.038,2.485-5.523,5.523-5.523l0,0c3.038,0,5.523,2.485,5.523,5.523v10.604
			C1381.951,1591.367,1379.466,1593.853,1376.428,1593.853z"/>
	</g>
	<g>
		<g>
			<g>
				<path style="fill:#F99746;" d="M1900.637,1638.174c0,0-8.406,12.05-26.051,24.586c-17.755,12.639-44.887,25.764-82.184,27.564
					c-6.048,0.29-12.369,0.287-18.951-0.065c0,0-47.921-68.802-106.691-74.441c0,0,56.618-61.669,148.374-55.521
					C1815.134,1560.297,1893.111,1583.607,1900.637,1638.174z"/>
				<path style="fill:#ED7D2B;" d="M1666.76,1615.82c0,0,47.006,66.209,106.694,74.442
					C1773.454,1690.263,1726.331,1618.432,1666.76,1615.82z"/>
				<path style="fill:#F99746;" d="M1666.76,1615.82c0,0-4.171-6.173-18.846-8.146c0,0,8.425,11.908,6.943,15.162
					C1654.857,1622.836,1662.343,1622.705,1666.76,1615.82z"/>
				<path style="fill:#CE631B;" d="M1647.914,1607.674c0,0,8.357,3.788,8.859,8.939c0.502,5.15-1.365,8.431-6.479,4.476
					C1645.181,1617.133,1645.47,1607.289,1647.914,1607.674z"/>
				<path style="fill:#F99746;" d="M1775.998,1689.201c0,0,7.915,3.523,9.609,14.681c0,0-15.248-7.082-19.652-6.173
					C1765.955,1697.709,1766.599,1692.09,1775.998,1689.201z"/>
				<path style="fill:#CE631B;" d="M1785.607,1703.882c0,0-4.494-6.521-11.287-7.222c-6.793-0.701-11.256,0.497-6.337,4.59
					S1785.963,1705.743,1785.607,1703.882z"/>
				<path style="fill:#F99746;" d="M1817.279,1560.985c0,0-2.493-6.325,2.198-6.613c4.69-0.288,10.698,3.575,12.063,6.703
					c1.364,3.128-5.557,3.243-5.557,3.243L1817.279,1560.985z"/>
				<path style="fill:#F99746;" d="M1898.965,1636.169c0,0,6.79-4.167,8.949-1.017c2.158,3.151-0.265,8.815-3.572,10.968
					s-7.391-7.174-7.391-7.174L1898.965,1636.169z"/>
			</g>
			<g>
				<path style="fill:#FFDAA4;" d="M1808.333,1700.012c0,0,9.998,8.338,27.48,15.614c17.599,7.343,42.79,13.602,72.96,9.188
					c4.892-0.717,9.92-1.712,15.061-3.027c0,0,19.229-62.67,64.441-76.419c0,0-61.986-40.537-133.303-21.201
					C1854.973,1624.167,1799.334,1655.095,1808.333,1700.012z"/>
				<path style="fill:#F2C78F;" d="M1988.276,1645.37c0,0-19.215,60.448-64.444,76.42
					C1923.832,1721.79,1941.596,1656.818,1988.276,1645.37z"/>
				<path style="fill:#FFDAA4;" d="M1988.276,1645.37c0,0,1.622-5.602,12.757-9.488c0,0-3.433,10.867-1.36,13.243
					C1999.673,1649.125,1993.682,1650.195,1988.276,1645.37z"/>
				<path style="fill:#F2C78F;" d="M2001.033,1635.882c0,0-5.609,4.349-4.594,8.556c1.016,4.208,3.402,6.544,6.384,2.57
					C2005.806,1643.035,2002.872,1635.19,2001.033,1635.882z"/>
				<path style="fill:#FFDAA4;" d="M1921.518,1721.339c0,0-5.33,4.066-3.613,13.275c0,0,10.186-8.07,13.94-8.033
					C1931.845,1726.581,1929.789,1722.178,1921.518,1721.339z"/>
				<path style="fill:#F2C78F;" d="M1917.904,1734.614c0,0,1.784-5.933,6.996-7.561c5.213-1.629,9.093-1.369,6.303,2.684
					S1918.133,1736.162,1917.904,1734.614z"/>
				<path style="fill:#FFDAA4;" d="M1853.455,1625.056c0,0,0.246-5.461-3.565-4.956c-3.812,0.506-7.53,4.546-7.757,7.268
					c-0.227,2.721,5.312,1.727,5.312,1.727L1853.455,1625.056z"/>
				<path style="fill:#FFDAA4;" d="M1809.113,1698.142c0,0-6.548-2.273-7.399,0.591s2.632,7.023,5.854,8.229s3.91-6.91,3.91-6.91
					L1809.113,1698.142z"/>
			</g>
		</g>
		<g>
			<path style="fill:#F99746;" d="M1858.853,1681.794l9.753-21.331l-14.229,4.108l-1.487-5.151l21.784-6.287l1.289,4.463
				l-9.754,21.331l14.688-4.24l1.486,5.15l-22.242,6.421L1858.853,1681.794z"/>
		</g>
		<g>
			<path style="fill:#F99746;" d="M1887.813,1653.618l13.628-12.498l-11.593-1.383l0.5-4.194l17.748,2.117l-0.435,3.637
				l-13.627,12.496l11.966,1.428l-0.501,4.195l-18.121-2.161L1887.813,1653.618z"/>
		</g>
		<g>
			<path style="fill:#F99746;" d="M1904.223,1610.728l3.202-14.918l-8.462,4.606l-1.666-3.062l12.954-7.05l1.444,2.653
				l-3.202,14.917l8.733-4.754l1.667,3.063l-13.227,7.198L1904.223,1610.728z"/>
		</g>
	</g>
	<g>
		<path style="fill:#F99746;" d="M669.901,1403.195c0.231,0.416,0.477,0.847,0.724,1.277c5.758,10.008,18.968,34.535,33.518,61.371
			c6.882,12.732,14.088,25.989,20.924,38.461c11.778,21.523,22.494,40.692,28.745,50.823c6.359,10.3,11.04,17.536,12.933,20.432
			c0.016,0.015,0.016,0.015,0.016,0.015c0.569,0.894,0.693,1.94,0.616,2.987c-0.662,9.084-0.477,18.106,0.416,26.99
			c8.776,87.313,67.652,134.104,67.652,134.104l17.506,2.587c0,0-24.773-91.779-32.071-143.665c-1.232-8.792-1.771-15.92-1.34-20.57
			c1.293-13.518-1.108-33.364-5.65-56.15c-8.083-40.493-22.91-90.193-35.797-129.978c-0.816-2.54-25.435-91.594-25.435-91.594
			c-20.662,18.061-96.028,25.512-96.028,25.512S643.851,1356.867,669.901,1403.195z"/>
		<path style="fill:#233862;" d="M889.691,1764.392h-73.063c0,0-1.751-11.135,2.065-19.583c3.656-8.106,8.868-8.364,0.666-21.071
			c4.642,4.78,19.566,6.758,30.129,5.337c1.294,2.098,8.344,16.175,12.667,19.281
			C866.931,1751.786,888.221,1750.563,889.691,1764.392z"/>
		<path style="fill:#ED7D2B;" d="M669.901,1403.195c0.231,0.416,0.477,0.847,0.724,1.277c5.758,10.008,36.9,67.529,51.45,94.365
			c-16.859-69.361-5.133-138.724-5.133-138.724L669.901,1403.195z"/>
		<path style="fill:#2C3A64;" d="M941.931,1056.143c0.478-1.92-41.729,19.075-43.87,21.449
			c-19.794,21.957-14.15,50.611-2.824,50.886c7.264,0.177,5.856,12.254,5.856,12.254l80.925-34.234
			C982.019,1106.497,972.276,1049.678,941.931,1056.143z"/>
		<path style="fill:#F9DDBF;" d="M914.736,1195.589c0,0,12.315,24.601,10.777,44.565c0,0-14.849,23.44-53.361,29.375
			C872.152,1269.529,905.264,1195.57,914.736,1195.589z"/>
		<path style="fill:#F99746;" d="M726.858,1331.237l0.247-13.665c-27.225,3.434-93.874-32.534-93.874-32.534
			s-28.483,18.944-32.382,73.046c-1.903,26.406-13.943,138.082-15.275,171.43c-0.485,12.086-0.646,20.712-0.702,24.158
			c0.006,0.018,0.005,0.026,0.004,0.034c-0.017,1.052-0.51,1.98-1.158,2.813c-5.633,7.159-10.521,14.745-14.753,22.613
			c-41.544,77.295-19.819,182.324-19.819,182.324l9.647-2.453c0,0,35.128-108.879,58.086-155.975
			c3.896-7.988,7.437-14.2,10.398-17.799c8.632-10.484,17.735-28.29,26.707-49.718C670.945,1495,726.858,1331.237,726.858,1331.237z
			"/>
		<path style="fill:#233862;" d="M607.248,1764.392h-73.062c0,0-1.751-11.135,2.065-19.583c3.657-8.106,9.384-11.791,8.013-21.599
			c4.643,4.78,12.209,10.133,22.772,8.712c1.294,2.099,8.354,13.327,12.677,16.434
			C584.487,1751.786,605.777,1750.563,607.248,1764.392z"/>
		<path style="fill:#F9DDBF;" d="M867.22,1285.219c-9.814,1.674,1.603,9.476-11.896,10.942c-19.211,2.098-39.046,3.532-49.437,7.676
			c-3.79,1.512-6.324,3.378-7.116,5.765c-4.504,13.543-33.028,36.814-33.028,36.814c-127.222-5.79-135.416-62.492-135.416-62.492
			c82.569-80.191,152.813-123.902,210.867-129.313c14.129-1.316,33.174,0.451,42.109,4.43c20.305,9.039,31.432,36.548,31.432,36.548
			S904.509,1278.858,867.22,1285.219z"/>
		<path style="fill:#F2CCAA;" d="M855.324,1296.161c-19.211,2.098-39.046,3.532-49.437,7.676
			c-4.246-63.45,25.697-111.177,25.697-111.177S851.117,1272.15,855.324,1296.161z"/>
		<path style="fill:#FFB27D;" d="M871.899,1181.92c0,0-48.312-2.639-56.896,27.692c-8.584,30.332,16.105,151.403,21.426,163.899
			c9.686,22.75,56.846,87.68,56.846,87.68l17.341-5.281c0,0-31.444-99.192-38.464-109.008
			C861.132,1331.493,886.36,1195.116,871.899,1181.92z"/>
		<path style="fill:#FFB27D;" d="M910.617,1455.91c0,0,0.893,7.691,4.143,11.662c3.25,3.97,12.706,13.578,12.871,19.203
			c0,0-0.477,2.497-2.504,2.041c-2.028-0.456-9.069-7.429-12.683-6.929c0,0,1.928,11.274,3.84,14.447s4.331,13.787,3.183,16.526
			c-1.148,2.739-19.572-9.248-24.978-19.65c-4.477-8.616-0.092-39.413-0.092-39.413L910.617,1455.91z"/>
		<path style="fill:#F9DDBF;" d="M805.475,1250.174c0.126,0.711,45.719,8.389,74.235-6.086c0,0,23.823-74.631-10.221-71.061
			c-34.044,3.57-54.203,14.293-55.061,30.592C813.569,1219.918,805.475,1250.174,805.475,1250.174z"/>
		<path style="fill:#FFB27D;" d="M881.876,1163.184c3.149,10.195,15.506,45.306,32.86,32.405c-0.57-2.417,2.956-9.453,7.113-16.597
			c5.311-9.131,11.64-18.461,11.64-18.461l-27.344-23.957l-1.632-1.432c-7.495,13.087-14.859,19.061-21.223,23.746
			C881.953,1159.873,881.386,1161.597,881.876,1163.184z"/>
		<path style="fill:#ED985F;" d="M933.486,1160.541c0,0-6.321,9.311-11.635,18.451c-16.995-10.478-17.014-31.519-15.705-42.418
			L933.486,1160.541z"/>
		<path style="fill:#FFB27D;" d="M934.244,1172.545c0,0-41.267-22.963-26.571-48.442c14.696-25.479,19.267-45.602,46.236-32.019
			c26.969,13.584,26.436,26.233,23.599,35.931C974.671,1137.712,945.357,1177.861,934.244,1172.545z"/>
		<path style="fill:#2C3A64;" d="M984.479,1113.154c-1.89-11.313-7.637-12.393-11.644-11.638
			c-15.24-25.203-40.139-15.367-40.139-15.367c-13.298,16.689-32.525,19.537-32.525,19.537s4.789,8.91,24.519,14.426
			c6.027,1.685,12.868,0.664,19.464-1.557c-13.688,7.633-28.004,10.557-28.004,10.557c26.001,2.38,50.74-21.392,53.306-23.935
			c1.2,3.684,3.304,11.396,2.044,17.034c-1.712,7.663-8.514,21.541-4.36,23.336C967.141,1145.548,987.313,1130.12,984.479,1113.154z
			"/>
		<path style="fill:#2C3A64;" d="M941.931,1056.143c0,0,1.289-16.71-16.284-21.837c-33.942-9.903-35.713,21.324-47.998,30.295
			c-14.98,10.938-19.829,31.347,8.19,36.717c28.019,5.37,28.897-13.606,28.897-13.606L941.931,1056.143z"/>
	</g>
	<path style="fill:#2E3552;" d="M3057.219,1775.325H199.43c-2.193,0-3.988-1.795-3.988-3.988v-3.491
		c0-2.193,1.794-3.987,3.988-3.987h2857.789c2.193,0,3.988,1.794,3.988,3.987v3.491
		C3061.207,1773.53,3059.412,1775.325,3057.219,1775.325z"/>
	<g>
		<path style="fill:#FFB27D;" d="M2214.781,1173.014c-1.96-1.384-3.484-4.464-5.496-6.763c-1.494-1.707-12.021-3.962-12.021-3.962
			s1.966,3.446,4.966,7.104c-5.941-2.219-12.747-3.525-27.011-0.786c-2.855,0.549-5.445,2.172-7.017,4.619
			c-1.454,2.265-1.997,5.095,1.642,7.358c7.278,4.526,5.168,1.814,15.284,8.405c10.116,6.59,22.501,8.272,29.9,3.647l9.93-1.655
			l1.231-16.334C2226.189,1174.648,2220.53,1173.974,2214.781,1173.014z"/>
		<path style="fill:#FFB27D;" d="M2474.998,1036.017c0,0-23.411,27.773-53.224,16.155c0,0-6.413-15.512-6.504-26.945
			c-0.011-1.408-0.028-2.771-0.05-4.068c-0.16-12.876-0.594-20.101-0.594-20.101s0.008-0.003,0.03-0.006
			c1.356-0.566,45.574-18.72,45.537-17.212C2459.436,1018.664,2474.998,1036.017,2474.998,1036.017z"/>
		<path style="fill:#ED975D;" d="M2455.755,992.144c-4.265,7.903-18.895,23.366-40.534,29.015
			c-0.16-12.876-0.594-20.101-0.594-20.101s0.008-0.003,0.03-0.006C2415.881,1000.723,2457.023,989.814,2455.755,992.144z"/>
		<path style="fill:#FFB27D;" d="M2405.367,999.72c0,0,49.727,11.69,56.53-19.389c6.804-31.08,17.804-50.503-13.657-59.281
			c-31.463-8.778-40.248,1.726-45.042,11.547C2398.404,942.419,2392.606,995.877,2405.367,999.72z"/>
		<path style="fill:#A9453D;" d="M2460.196,988.799c0.679,0.435,11.379,3.722,31.643-36.646c3.181-6.337,5.348-20.045-2.066-32.158
			c-7.415-12.113-33.707-21.636-55.551-25.781c-21.845-4.144-27.089,8.147-32.232,20.5c-5.4,12.968-20.995,23.644-20.995,23.644
			c18.837,10.523,41.524-4.527,49.385-2.052c7.859,2.475,10.636,14.862,11.226,18.832c0.59,3.971,1.495,7.271,11.38,3.725
			c9.883-3.546,4.469,14.006,2.886,17.363C2455.87,976.226,2454.527,985.167,2460.196,988.799z"/>
		<g>
			<path style="fill:#2C3A64;" d="M2588.296,1763.858h30.11c6.313,0,13.326-6.321,15.082-17.891
				c1.756-11.579,14.73-17.892,17.539-27.363c2.81-9.473-11.578-22.808-11.578-22.808l-2.406-3.09l-2.502-3.222l-23.852,5.609
				c0,0-0.588,5.68-0.956,12.914c-0.255,5.223-0.396,11.263-0.097,16.556c0.702,12.633-3.538,26.231-14.757,28.689
				C2583.652,1755.712,2588.296,1763.858,2588.296,1763.858z"/>
			<path style="fill:#2C3A64;" d="M2378.68,1763.858h79.814c0.764-0.149,1.344-0.316,1.694-0.492
				c5.329-2.668,3.661-23.07,3.021-29.373c-0.123-1.167-0.211-1.853-0.211-1.853s-28.065-22.447-31.928-5.258
				c-0.123,0.535-0.264,1.063-0.413,1.58v0.009c-4.872,16.082-26.651,23.386-39.231,25.423
				C2381.813,1755.457,2379.32,1761.058,2378.68,1763.858z"/>
			<path style="fill:#F99746;" d="M2394.767,1303.589c0,0,4.262,53.18,9.271,117.104c6.81,86.837,14.997,193.501,15.808,213.708
				c1.4,35.088,7.02,91.215,7.02,91.215s13.324,13.334,39.992,7.714c0,0,23.765-80.122,30.553-164.896
				c0.105-1.39,0.211-2.789,0.315-4.188c6.315-86.3,16.134-268.024,16.134-268.024L2394.767,1303.589z"/>
			<path style="fill:#ED7D2B;" d="M2394.767,1303.589c0,0,4.262,53.18,9.271,117.104l93.372,147.741
				c0.105-1.39,0.211-2.789,0.315-4.188c6.315-86.3,16.134-268.024,16.134-268.024L2394.767,1303.589z"/>
			<path style="fill:#F99746;" d="M2414.231,1309.904c0,0,76.827,192.596,127.345,283.105
				c50.517,90.51,66.304,115.768,66.304,115.768s28.941-11.576,31.573-19.47c0,0-19.318-174.733-53.148-217.328
				c-19.116-24.068-41.571-96.298-42.624-121.557c-1.052-25.259-6.841-75.249-6.841-75.249L2414.231,1309.904z"/>
		</g>
		<path style="fill:#FFB27D;" d="M2589.439,1274.912l0.812,12.387c0,0-8.169,22.004,14.72,33.292c0,0,9.798,3.951,10.195-3.676
			s-0.856-4.759-0.061-15.499c0.797-10.742-3.426-20.892-10.53-24.311l-5.829-6.726L2589.439,1274.912z"/>
		<path style="fill:#94B0ED;" d="M2598.379,1283.93c-8.504,2.73-9.865,2.113-9.865,2.113s-41.391-75.354-45.582-82.253
			c-4.192-6.897-87.878-84.501-87.878-84.501l21.507-80.195c0,0,95.181,123.255,105.459,140.941
			c16.985,29.227,26.938,97.104,26.938,97.104S2605.059,1281.785,2598.379,1283.93z"/>
		<path style="fill:#AEC3FF;" d="M2378.547,1150.774c0.299,16.469,1.256,34.983,2.547,53.787c0.078,1.115,0.157,2.229,0.236,3.345
			c0.825,11.649,1.721,23.325,2.748,34.711c0.412,4.564,0.852,9.077,1.309,13.51l0.069,0.598c0.035,1.659,0.237,3.459,0.421,5.101
			c4.197,42.646,8.595,76.339,9.411,76.856c0.975,0.649,2.071,0.975,3.274,0.834c11.185-1.404,44.552,1.133,71.871-4.811
			c23.053-4.863,42.901-14.081,63.935-26.512c2.792-1.65,9.156-6.021,8.639-9.287c-0.509-3.591-1.449-8.779-2.643-15.302
			c-4.144-22.684-11.298-61.705-13.739-107.372c-0.474-8.506-1.167-16.907-2.063-25.168c-2.344-21.517-6.102-41.953-11.14-60.107
			c-9.367-33.728-23.132-59.555-40.399-69.658c-2.256-1.265-14.397,6.461-25.546,13.615c-10.298,6.602-21.14,8.428-31.683,7.506
			l-9.279,10.262c-11.236,13.063-23.201,30.453-26.467,55.175c-0.246,1.825-0.457,3.766-0.633,5.829
			C2378.512,1123.754,2378.293,1136.501,2378.547,1150.774z"/>
		<path style="fill:#94B0ED;" d="M2378.547,1150.774c0.299,16.469,1.256,34.983,2.547,53.787c0.078,1.115,0.157,2.229,0.236,3.345
			c63.883-39.986,73.723-113.156,73.723-113.156c-31.427,1.378-56.394,8.603-75.637,18.936
			C2378.512,1123.754,2378.293,1136.501,2378.547,1150.774z"/>
		<path style="fill:#AEC3FF;" d="M2217.139,1182.272c-0.659-9.475,4.247-11.052,4.247-11.052s96.319-17.455,104.507-20.031
			c8.188-2.576,78.202-75.408,78.202-75.408s26.837-30.266,48.811-23.582c19.096,5.808,26.56,20.702,29.101,34.892
			c3.028,16.91-4.766,33.924-19.409,42.905c-32.87,20.161-98.676,59.885-114.173,64.428c-34.494,10.113-127.169,0.811-127.169,0.811
			S2217.655,1189.714,2217.139,1182.272z"/>
	</g>
</g>
</svg>
