<?xml version="1.0" encoding="UTF-8"?>
<svg version="1.1" xmlns="http://www.w3.org/2000/svg" width="512" height="512">
<path d="M0 0 C1.15219025 0.41284241 2.30438049 0.82568481 3.4914856 1.2510376 C6.62110189 2.37442537 9.74736249 3.50636869 12.87245941 4.64221954 C16.18074344 5.84217315 19.49313984 7.0306652 22.80517578 8.22021484 C28.25719439 10.17974802 33.70700989 12.14528616 39.15527344 14.11523438 C46.39815084 16.73361425 53.64690814 19.33535723 60.8984375 21.9296875 C63.09041441 22.71402716 65.28239033 23.49836959 67.47436523 24.28271484 C68.54451874 24.66562683 69.61467224 25.04853882 70.71725464 25.4430542 C76.14459816 27.38615507 81.57035983 29.33366002 86.99609375 31.28125 C97.03232208 34.88356359 107.0686094 38.48571196 117.10650635 42.08337402 C122.69364426 44.08594175 128.27983195 46.09106319 133.86376953 48.10253906 C143.4280386 51.54433604 152.99651018 54.96609133 162.61103821 58.26538086 C166.58647328 59.63000612 170.5571483 61.0081988 174.52774048 62.38684082 C176.37895712 63.02457782 178.23276549 63.65484579 180.08920288 64.27722168 C182.61816796 65.12514205 185.1375436 65.99716598 187.65625 66.875 C188.40133316 67.11691071 189.14641632 67.35882141 189.91407776 67.60806274 C191.95019531 68.33349609 191.95019531 68.33349609 195.078125 69.9765625 C196.15351491 73.40995692 196.11543407 76.36256893 195.70700359 79.90664005 C195.59875938 80.87902907 195.49051517 81.8514181 195.37899083 82.85327345 C195.25293188 83.91377344 195.12687293 84.97427343 194.99699402 86.06690979 C194.8685859 87.19950365 194.74017778 88.33209752 194.60787851 89.49901241 C194.17463473 93.30304695 193.73024457 97.10569594 193.28588867 100.90844727 C192.97250996 103.63155229 192.66145194 106.35492129 192.3502655 109.07827759 C191.59071792 115.71253503 190.8227542 122.34579229 190.05178495 128.9787311 C189.42544616 134.36870744 188.80215868 139.75902847 188.18105507 145.14961052 C188.09268547 145.91655324 188.00431586 146.68349596 187.91326839 147.47367937 C187.73376709 149.03165695 187.55427305 150.58963536 187.37478618 152.14761459 C185.69109994 166.75919353 183.99789931 181.36965787 182.30142985 195.97975736 C180.84555326 208.51976301 179.39773025 221.06067704 177.95581055 233.60229492 C176.28178574 248.16269282 174.60285564 262.72251106 172.91602689 277.28143162 C172.73622591 278.83339712 172.556431 280.38536333 172.37664223 281.93733025 C172.28817714 282.700951 172.19971204 283.46457176 172.10856619 284.25133254 C171.48506168 289.63630186 170.86506915 295.0216689 170.24641991 300.40719795 C169.49260195 306.96854471 168.73338365 313.52923952 167.96720763 320.08915514 C167.57632374 323.43703646 167.18870533 326.78520987 166.80600739 330.13404274 C166.39106918 333.76128338 165.96686187 337.38732057 165.54020691 341.01319885 C165.42084013 342.07592957 165.30147334 343.13866028 165.17848939 344.23359495 C165.00438821 345.68826687 165.00438821 345.68826687 164.82676983 347.17232609 C164.72977879 348.0095571 164.63278776 348.8467881 164.5328576 349.70938975 C163.80087975 353.35883174 162.87257701 355.42077829 159.80102539 357.56958008 C158.85219482 358.08157959 157.90336426 358.5935791 156.92578125 359.12109375 C155.85312012 359.70769775 154.78045898 360.29430176 153.67529297 360.89868164 C152.49711472 361.52889161 151.31889079 362.15901621 150.140625 362.7890625 C148.9200919 363.45251168 147.70021222 364.11716423 146.48095703 364.78295898 C143.9447447 366.16665776 141.40578969 367.54511673 138.86474609 368.91992188 C133.03487509 372.079403 127.24587118 375.31212854 121.453125 378.5390625 C119.20053626 379.79039236 116.94793215 381.04169454 114.6953125 382.29296875 C108.31566583 385.84126214 101.94562896 389.4065354 95.578125 392.9765625 C83.56508932 399.71183322 71.5276833 406.40273036 59.48535156 413.08544922 C53.84860532 416.21401302 48.21344078 419.34542306 42.578125 422.4765625 C40.33985143 423.72006591 38.10157017 424.96355547 35.86328125 426.20703125 C34.75098145 426.82497559 33.63868164 427.44291992 32.49267578 428.07958984 C25.55810547 431.93212891 25.55810547 431.93212891 23.78495789 432.91714478 C22.60553117 433.57242582 21.426179 434.22784105 20.24690247 434.88339233 C17.37182292 436.48141659 14.49527421 438.07668871 11.61645508 439.66796875 C6.57889042 442.45532441 1.55973725 445.26251169 -3.40625 448.17578125 C-4.64362915 448.89254028 -4.64362915 448.89254028 -5.90600586 449.6237793 C-7.40192827 450.49291069 -8.89050004 451.37488929 -10.36938477 452.27270508 C-14.77996212 454.81737361 -17.03598685 455.20106361 -21.921875 453.9765625 C-24.83666992 452.63232422 -24.83666992 452.63232422 -27.90234375 450.90625 C-29.62759277 449.94404541 -29.62759277 449.94404541 -31.38769531 448.96240234 C-32.62832938 448.25891984 -33.86888729 447.55530304 -35.109375 446.8515625 C-36.40543653 446.12494277 -37.70199431 445.39920754 -38.99902344 444.67431641 C-41.66957591 443.1803709 -44.3374896 441.68186841 -47.00341797 440.1796875 C-51.76818965 437.49704153 -56.55156823 434.84856339 -61.33520508 432.19970703 C-72.08017936 426.24818473 -82.7990995 420.2503015 -93.51318359 414.2434082 C-104.49695018 408.08804113 -115.50530919 401.97715031 -126.51464844 395.86767578 C-133.26703188 392.11989976 -140.01738616 388.36846962 -146.76782227 384.6171875 C-153.15255896 381.0694401 -159.53896514 377.52473304 -165.92735291 373.98356628 C-170.97321908 371.18579726 -176.01307729 368.37729677 -181.05273438 365.56835938 C-183.58068268 364.16585572 -186.11603857 362.77855237 -188.65625 361.3984375 C-189.93238771 360.69548684 -191.20844002 359.99238108 -192.484375 359.2890625 C-194.03318359 358.44794922 -194.03318359 358.44794922 -195.61328125 357.58984375 C-198.70611995 355.42851992 -199.63973092 353.38325598 -200.3766076 349.70938975 C-200.47359863 348.87215874 -200.57058967 348.03492773 -200.67051983 347.17232609 C-200.78658728 346.20254481 -200.90265474 345.23276354 -201.02223939 344.23359495 C-201.14160617 343.17086424 -201.26097295 342.10813353 -201.38395691 341.01319885 C-201.517045 339.88216498 -201.65013309 338.7511311 -201.78725415 337.58582348 C-202.23284681 333.78271302 -202.66753984 329.97843574 -203.10229492 326.17407227 C-203.41801466 323.4523943 -203.73599448 320.73098145 -204.05384827 318.009552 C-204.82706074 311.37700182 -205.59204486 304.74352731 -206.35409089 298.10968585 C-206.97352626 292.71859053 -207.59590401 287.32784253 -208.22039223 281.93733025 C-208.30922153 281.17054076 -208.39805083 280.40375127 -208.48957193 279.61372573 C-208.67003206 278.05607077 -208.85049875 276.49841656 -209.03097192 274.94076311 C-210.72357169 260.32895096 -212.40682979 245.7160742 -214.08692715 231.10281997 C-215.52904462 218.56142464 -216.97923064 206.02098374 -218.43530273 193.48120117 C-220.12566742 178.92364662 -221.81097324 164.36552102 -223.4882496 149.80645221 C-223.66709461 148.25417086 -223.84594641 146.7018903 -224.02480507 145.14961052 C-224.15680847 144.00394797 -224.15680847 144.00394797 -224.2914786 142.83514072 C-224.91225405 137.45049771 -225.53665825 132.0662826 -226.16246605 126.68222237 C-226.92498338 120.12116576 -227.68196525 113.55949891 -228.43183609 106.99698443 C-228.81464218 103.64809195 -229.20077459 100.29967349 -229.5919838 96.95174599 C-230.01542678 93.32424869 -230.42931916 89.69578684 -230.84074402 86.06690979 C-231.02983244 84.4761598 -231.02983244 84.4761598 -231.22274083 82.85327345 C-231.33098504 81.88088443 -231.43922925 80.90849541 -231.55075359 79.90664005 C-231.64725757 79.06924669 -231.74376155 78.23185333 -231.8431899 77.36908442 C-231.93018708 74.72382307 -231.63027983 72.52481437 -230.921875 69.9765625 C-229.22210693 68.8197937 -229.22210693 68.8197937 -226.96777344 68.05810547 C-226.1157132 67.75866531 -225.26365295 67.45922516 -224.38577271 67.15071106 C-223.44378021 66.84316391 -222.50178772 66.53561676 -221.53125 66.21875 C-220.54567108 65.87829147 -219.56009216 65.53783295 -218.54464722 65.1870575 C-215.25979802 64.05655 -211.96599975 62.95471879 -208.671875 61.8515625 C-206.35513641 61.0583008 -204.03922962 60.26260607 -201.72412109 59.46459961 C-198.10986352 58.21928986 -194.49508806 56.97572891 -190.87765503 55.7396698 C-179.48270191 51.84578695 -168.14503693 47.80052372 -156.81677246 43.71734619 C-152.40528693 42.12769957 -147.99178815 40.54368065 -143.57836914 38.95941162 C-140.24506886 37.76275316 -136.91206001 36.56528595 -133.57910156 35.36767578 C-126.94176216 32.98319159 -120.30308248 30.60245663 -113.6640625 28.22265625 C-112.02212418 27.63385429 -112.02212418 27.63385429 -110.34701538 27.03315735 C-104.86392291 25.06722378 -99.37990903 23.10393346 -93.89404297 21.14575195 C-83.53074352 17.4433855 -73.17911314 13.71440538 -62.85620117 9.90063477 C-57.97457833 8.0988135 -53.08797843 6.31072015 -48.20092773 4.52368164 C-45.87043257 3.6670977 -43.54240084 2.80377792 -41.21704102 1.93334961 C-37.9944444 0.72754282 -34.76412039 -0.45488157 -31.53125 -1.6328125 C-30.58679016 -1.99320618 -29.64233032 -2.35359985 -28.66925049 -2.72491455 C-18.02599561 -6.54423217 -10.32436527 -3.77977876 0 0 Z M-17.921875 47.9765625 C-24.11109873 60.02094459 -29.71523892 72.27312987 -35.171875 84.6640625 C-36.04646887 86.6421067 -36.9214781 88.6199673 -37.796875 90.59765625 C-39.60901827 94.69249319 -41.41940126 98.78810137 -43.22851562 102.88427734 C-47.03277176 111.49413469 -50.85886818 120.0942704 -54.68450928 128.69464111 C-56.76185976 133.36506768 -58.83799136 138.03603589 -60.9140625 142.70703125 C-61.32621002 143.63427002 -61.73835754 144.56150879 -62.16299438 145.5168457 C-64.68489188 151.19119202 -67.20477261 156.86642956 -69.72317505 162.54232788 C-71.83043255 167.2915247 -73.93845022 172.0403838 -76.046875 176.7890625 C-76.66946198 178.19134094 -76.66946198 178.19134094 -77.30462646 179.62194824 C-83.54288508 193.66828193 -89.8383087 207.68801261 -96.16168213 221.69619751 C-102.21050767 235.10282864 -108.14696693 248.55626506 -114.03936768 262.0322876 C-119.75176904 275.09282199 -125.55602257 288.10926118 -131.421875 301.1015625 C-136.33976929 311.99951148 -141.25666129 322.89669044 -146.046875 333.8515625 C-146.45486328 334.77855957 -146.86285156 335.70555664 -147.28320312 336.66064453 C-147.64091797 337.48419434 -147.99863281 338.30774414 -148.3671875 339.15625 C-148.67156738 339.85476074 -148.97594727 340.55327148 -149.28955078 341.27294922 C-150.03786521 342.98620148 -150.03786521 342.98620148 -149.921875 344.9765625 C-134.081875 344.9765625 -118.241875 344.9765625 -101.921875 344.9765625 C-99.51745361 340.16771973 -97.30840349 335.68910135 -95.35644531 330.74414062 C-94.88996582 329.56754883 -94.42348633 328.39095703 -93.94287109 327.17871094 C-93.46672363 325.96731445 -92.99057617 324.75591797 -92.5 323.5078125 C-92.05188965 322.37569336 -91.6037793 321.24357422 -91.14208984 320.07714844 C-89.48141653 315.8785074 -87.82701012 311.67738981 -86.171875 307.4765625 C-82.459375 298.0715625 -78.746875 288.6665625 -74.921875 278.9765625 C-37.301875 278.9765625 0.318125 278.9765625 39.078125 278.9765625 C52.015625 311.4140625 52.015625 311.4140625 56.10131836 321.66967773 C57.3091114 324.69417602 57.3091114 324.69417602 58.51759338 327.71839905 C59.05683411 329.06880894 59.5950481 330.41962909 60.13246155 331.77076721 C60.945207 333.81355685 61.76116916 335.85503368 62.57788086 337.89624023 C63.03754745 339.04873764 63.49721405 340.20123505 63.97080994 341.38865662 C64.83911247 343.86152748 64.83911247 343.86152748 66.078125 344.9765625 C67.58231239 345.06968139 69.09083856 345.09402278 70.59790039 345.09008789 C71.55882095 345.09001236 72.51974152 345.08993683 73.50978088 345.08985901 C74.554561 345.08469772 75.59934113 345.07953644 76.67578125 345.07421875 C77.73977646 345.0728038 78.80377167 345.07138885 79.90000916 345.06993103 C83.31357583 345.06431314 86.727078 345.05175761 90.140625 345.0390625 C92.44856676 345.03404981 94.75650955 345.0294865 97.06445312 345.02539062 C102.73569926 345.0143379 108.40690753 344.99758237 114.078125 344.9765625 C112.1218627 338.74133375 109.79843108 332.79055249 107.11328125 326.8359375 C106.72819901 325.97266342 106.34311676 325.10938934 105.94636536 324.21995544 C104.68167797 321.38706641 103.41115023 318.5568375 102.140625 315.7265625 C101.2438669 313.72065406 100.34755324 311.71454688 99.45166016 309.70825195 C97.58970472 305.53929829 95.72583825 301.37120646 93.86083984 297.20361328 C91.21041705 291.27715414 88.57333455 285.34484836 85.94140625 279.41015625 C85.52755173 278.47708649 85.1136972 277.54401672 84.68730164 276.58267212 C83.856924 274.71047382 83.02655591 272.83827128 82.19619751 270.96606445 C75.12993006 255.03803529 68.00702834 239.13661325 60.83731079 223.25491333 C54.80614048 209.88880842 48.89252151 196.47391 43.0199585 183.03747559 C37.30602754 169.97093425 31.47829982 156.95998914 25.578125 143.9765625 C17.34316063 125.85235499 9.30291863 107.64787458 1.33023071 89.40699768 C-2.60777318 80.40007396 -6.57603615 71.40654744 -10.546875 62.4140625 C-11.19955465 60.93555146 -11.85222428 59.45703599 -12.50488281 57.97851562 C-13.97680484 54.64435068 -15.44918076 51.31038644 -16.921875 47.9765625 C-17.251875 47.9765625 -17.581875 47.9765625 -17.921875 47.9765625 Z " fill="#DD0030" transform="translate(273.921875,31.0234375)"/>
<path d="M0 0 C0.66 0 1.32 0 2 0 C11.85640851 23.6146061 21.70248379 47.23353699 31.48446655 70.87908936 C32.32893283 72.91990831 33.17400645 74.96047606 34.01968384 77.00079346 C35.19717356 79.84225299 36.3723708 82.68464911 37.546875 85.52734375 C38.07510109 86.80047173 38.07510109 86.80047173 38.61399841 88.09931946 C41 93.8855014 41 93.8855014 41 95 C14.6 95 -11.8 95 -39 95 C-32.11797963 76.64794568 -32.11797963 76.64794568 -29.51171875 70.56640625 C-29.06038322 69.50076195 -29.06038322 69.50076195 -28.59992981 68.41358948 C-27.96072808 66.90496803 -27.32014883 65.39692953 -26.67822266 63.88946533 C-24.93840932 59.80306911 -23.20984517 55.71191533 -21.48046875 51.62109375 C-21.11996429 50.76890259 -20.75945984 49.91671143 -20.38803101 49.03869629 C-16.04261065 38.75468223 -11.77030061 28.44037926 -7.5 18.125 C-6.93181046 16.75288864 -6.93181046 16.75288864 -6.35214233 15.35305786 C-4.23331729 10.23596855 -2.115946 5.11828045 0 0 Z " fill="#DD0030" transform="translate(255,174)"/>
</svg>
