<?xml version="1.0" encoding="utf-8"?>
<!-- Generator: Adobe Illustrator 19.2.0, SVG Export Plug-In . SVG Version: 6.00 Build 0)  -->
<svg version="1.1" id="Layer_1" xmlns="http://www.w3.org/2000/svg" xmlns:xlink="http://www.w3.org/1999/xlink" x="0px" y="0px"
	 viewBox="0 0 500 500" style="enable-background:new 0 0 500 500;" xml:space="preserve">
<style type="text/css">
	.st0{fill:#ECF4F7;}
	.st1{fill:#1C1D21;}
	.st2{fill:#83E1E5;}
	.st3{fill:#AAB1BA;}
	.st4{fill:none;stroke:#1C1D21;stroke-width:10;stroke-linecap:round;stroke-linejoin:round;stroke-miterlimit:10;}
	.st5{fill:#FDDF7F;}
	.st6{fill:#FFFFFF;}
</style>
<g>
	<g>
		<g>
			<path class="st2" d="M40,333.5V60c0-11,9-20,20-20h380c11,0,20,9,20,20v273.5c0,11-9,20-20,20H60C49,353.5,40,344.5,40,333.5z"/>
		</g>
	</g>
	<g>
		<g>
			<path class="st1" d="M370.8,500H129.2c-2.8,0-5-2.2-5-5v-10c0-22.1,17.9-40,40-40h24.9c9.4,0,17.1-7.7,17.1-17.1v-13.5
				c0-11.5-9.4-20.9-20.9-20.9H35c-19.3,0-35-15.7-35-35V35C0,15.7,15.7,0,35,0h430c19.3,0,35,15.7,35,35v323.5
				c0,19.3-15.7,35-35,35H314.6c-11.5,0-20.9,9.4-20.9,20.9v13.5c0,9.4,7.7,17.1,17.1,17.1h24.9c22.1,0,40,17.9,40,40v10
				C375.8,497.8,373.5,500,370.8,500z M134.2,490h231.5v-5c0-16.5-13.5-30-30-30h-24.9c-15,0-27.1-12.2-27.1-27.1v-13.5
				c0-17,13.9-30.9,30.9-30.9H465c13.8,0,25-11.2,25-25V35c0-13.8-11.2-25-25-25H35c-13.8,0-25,11.2-25,25v323.5
				c0,13.8,11.2,25,25,25h150.4c17,0,30.9,13.9,30.9,30.9v13.5c0,15-12.2,27.1-27.1,27.1h-24.9c-16.5,0-30,13.5-30,30V490z"/>
		</g>
	</g>
	<g>
		<g>
			<path class="st1" d="M224.6,393.5H179c-2.8,0-5-2.2-5-5s2.2-5,5-5h45.6c2.8,0,5,2.2,5,5S227.3,393.5,224.6,393.5z"/>
		</g>
	</g>
	<g>
		<g>
			<path class="st1" d="M259.5,393.5H250c-2.8,0-5-2.2-5-5s2.2-5,5-5h9.5c2.8,0,5,2.2,5,5S262.3,393.5,259.5,393.5z"/>
		</g>
	</g>
	<g>
		<g>
			<path class="st1" d="M317.7,455h-55.3c-2.8,0-5-2.2-5-5s2.2-5,5-5h55.3c2.8,0,5,2.2,5,5S320.4,455,317.7,455z"/>
		</g>
	</g>
	<g>
		<g>
			<g>
				<path class="st1" d="M440,358.5h-17.3c-2.8,0-5-2.2-5-5s2.2-5,5-5H440c8.3,0,15-6.7,15-15c0-2.8,2.2-5,5-5s5,2.2,5,5
					C465,347.3,453.8,358.5,440,358.5z"/>
			</g>
		</g>
		<g>
			<g>
				<path class="st1" d="M460,311.8c-2.8,0-5-2.2-5-5v-74c0-2.8,2.2-5,5-5s5,2.2,5,5v74C465,309.6,462.8,311.8,460,311.8z"/>
			</g>
		</g>
		<g>
			<g>
				<path class="st1" d="M400.5,358.5H393c-2.8,0-5-2.2-5-5s2.2-5,5-5h7.5c2.8,0,5,2.2,5,5S403.3,358.5,400.5,358.5z"/>
			</g>
		</g>
	</g>
	<g>
		<g>
			<path class="st1" d="M40,65c-2.8,0-5-2.2-5-5c0-13.8,11.2-25,25-25h17.3c2.8,0,5,2.2,5,5s-2.2,5-5,5H60c-8.3,0-15,6.7-15,15
				C45,62.8,42.8,65,40,65z"/>
		</g>
	</g>
	<g>
		<g>
			<path class="st1" d="M40,165.7c-2.8,0-5-2.2-5-5v-74c0-2.8,2.2-5,5-5s5,2.2,5,5v74C45,163.4,42.8,165.7,40,165.7z"/>
		</g>
	</g>
	<g>
		<g>
			<path class="st1" d="M107,45h-7.5c-2.8,0-5-2.2-5-5s2.2-5,5-5h7.5c2.8,0,5,2.2,5,5S109.8,45,107,45z"/>
		</g>
	</g>
	<g>
		<g>
			<g>
				<path class="st0" d="M195.4,172c0-4.7-2.3-9.1-6.1-11.8c-3.8-2.7-8.8-3.3-13.2-1.7l-57.3,21.1c-7.4,2.7-12.4,9.8-12.4,17.7
					c0,7.9,5,15,12.4,17.7l57.3,21.1c1.6,0.6,3.3,0.9,4.9,0.9c2.9,0,5.8-0.9,8.2-2.6c3.8-2.7,6.1-7.1,6.1-11.8
					c0-6-3.8-11.5-9.5-13.5l-33.2-11.9l33.2-11.9C191.5,183.5,195.4,178.1,195.4,172z"/>
			</g>
		</g>
		<g>
			<g>
				<path class="st0" d="M278.8,108.2c-6.6,0-12.5,4-14.9,10.2l-57.7,146.3c-2,5-1.3,10.5,1.7,14.9c3,4.4,8,7,13.3,7
					c6.6,0,12.5-4,14.9-10.2l57.7-146.3c2-5,1.3-10.5-1.7-14.9C289.1,110.8,284.2,108.2,278.8,108.2z"/>
			</g>
		</g>
		<g>
			<g>
				<path class="st0" d="M381.2,179.7l-57.3-21.1c-4.4-1.6-9.3-1-13.2,1.7c-3.8,2.7-6.1,7.1-6.1,11.8c0,6,3.8,11.5,9.5,13.5
					l33.2,11.9l-33.2,11.9c-5.7,2-9.5,7.5-9.5,13.5c0,4.7,2.3,9.1,6.1,11.8c2.4,1.7,5.3,2.6,8.2,2.6c1.7,0,3.3-0.3,4.9-0.9
					l57.3-21.1c7.4-2.7,12.4-9.8,12.4-17.7C393.6,189.5,388.6,182.4,381.2,179.7z"/>
			</g>
		</g>
	</g>
	<g>
		<g>
			<g>
				<path class="st1" d="M181,241.4c-2.3,0-4.5-0.4-6.7-1.2L117,219.2c-9.3-3.4-15.6-12.4-15.6-22.4c0-10,6.3-19,15.6-22.4
					l57.3-21.1c5.9-2.2,12.6-1.3,17.7,2.3c5.2,3.6,8.3,9.5,8.3,15.9c0,8.2-5.2,15.5-12.8,18.2l-20,7.2l20,7.1
					c7.7,2.7,12.8,10.1,12.8,18.2c0,6.3-3.1,12.2-8.3,15.9C188.8,240.2,185,241.4,181,241.4z M181,162.1c-1.1,0-2.2,0.2-3.2,0.6
					l-57.3,21.1c-5.4,2-9.1,7.2-9.1,13c0,5.8,3.6,11,9.1,13l57.3,21.1c2.8,1,6.1,0.6,8.6-1.1c2.5-1.7,4-4.6,4-7.7
					c0-3.9-2.5-7.5-6.2-8.8L151,201.5c-2-0.7-3.3-2.6-3.3-4.7s1.3-4,3.3-4.7l33.2-11.9c3.7-1.3,6.2-4.9,6.2-8.8c0-3-1.5-5.9-4-7.7
					C184.8,162.6,182.9,162.1,181,162.1z"/>
			</g>
		</g>
		<g>
			<g>
				<path class="st1" d="M221.2,291c-7,0-13.5-3.4-17.4-9.2c-3.9-5.8-4.7-13.1-2.2-19.6l57.7-146.3c3.2-8.1,10.9-13.3,19.6-13.3
					c7,0,13.5,3.4,17.4,9.2c3.9,5.8,4.7,13.1,2.2,19.6l-57.7,146.3C237.6,285.7,229.9,291,221.2,291z M278.8,112.5
					c-4.6,0-8.6,2.8-10.3,7l-57.7,146.3c-1.3,3.4-0.9,7.3,1.1,10.3c2.1,3,5.5,4.8,9.2,4.8c4.6,0,8.6-2.8,10.3-7l57.7-146.3
					c1.3-3.4,0.9-7.3-1.1-10.3C285.9,114.3,282.5,112.5,278.8,112.5z"/>
			</g>
		</g>
		<g>
			<g>
				<path class="st1" d="M319,241.4c-4,0-7.8-1.2-11.1-3.5c-5.2-3.6-8.3-9.5-8.3-15.9c0-8.2,5.2-15.5,12.8-18.2l20-7.1l-20-7.2
					c-7.7-2.7-12.8-10.1-12.8-18.2c0-6.3,3.1-12.2,8.3-15.9c5.2-3.6,11.8-4.5,17.7-2.3l57.3,21.1l0,0c9.3,3.4,15.6,12.4,15.6,22.4
					c0,10-6.3,19-15.6,22.4l-57.3,21.1C323.5,241,321.3,241.4,319,241.4z M319,162.1c-1.9,0-3.8,0.6-5.3,1.7c-2.5,1.7-4,4.6-4,7.7
					c0,3.9,2.5,7.5,6.2,8.8L349,192c2,0.7,3.3,2.6,3.3,4.7c0,2.1-1.3,4-3.3,4.7l-33.2,11.9c-3.7,1.3-6.2,4.9-6.2,8.8
					c0,3,1.5,5.9,4,7.7c2.5,1.7,5.7,2.2,8.6,1.1l57.3-21.1c5.4-2,9.1-7.2,9.1-13c0-5.8-3.6-11-9.1-13l-57.3-21.1
					C321.1,162.2,320.1,162.1,319,162.1z"/>
			</g>
		</g>
	</g>
</g>
</svg>
