<?xml version="1.0" encoding="utf-8"?>
<!-- Generator: Adobe Illustrator 19.2.0, SVG Export Plug-In . SVG Version: 6.00 Build 0)  -->
<svg version="1.1" id="Layer_1" xmlns="http://www.w3.org/2000/svg" xmlns:xlink="http://www.w3.org/1999/xlink" x="0px" y="0px"
	 viewBox="0 0 500 500" style="enable-background:new 0 0 500 500;" xml:space="preserve">
<style type="text/css">
	.st0{fill:#ECF4F7;}
	.st1{fill:#1C1D21;}
	.st2{fill:#83E1E5;}
	.st3{fill:#AAB1BA;}
	.st4{fill:none;stroke:#1C1D21;stroke-width:10;stroke-linecap:round;stroke-linejoin:round;stroke-miterlimit:10;}
	.st5{fill:#FDDF7F;}
	.st6{fill:#FFFFFF;}
</style>
<g>
	<g>
		<g>
			<g>
				<g>
					<path class="st0" d="M403.8,105.1H96.2c-11,0-20-9-20-20V25c0-11,9-20,20-20h307.7c11,0,20,9,20,20v60.1
						C423.8,96.1,414.9,105.1,403.8,105.1z"/>
				</g>
			</g>
			<g>
				<g>
					<path class="st1" d="M403.8,110.1H96.2c-13.8,0-25-11.2-25-25V25c0-13.8,11.2-25,25-25h307.7c13.8,0,25,11.2,25,25v60.1
						C428.8,98.9,417.6,110.1,403.8,110.1z M96.2,10c-8.3,0-15,6.7-15,15v60.1c0,8.3,6.7,15,15,15h307.7c8.3,0,15-6.7,15-15V25
						c0-8.3-6.7-15-15-15H96.2z"/>
				</g>
			</g>
			<g>
				<g>
					<path class="st1" d="M149.8,60.1h-41.6c-2.8,0-5-2.2-5-5c0-2.8,2.2-5,5-5h41.6c2.8,0,5,2.2,5,5
						C154.8,57.8,152.5,60.1,149.8,60.1z"/>
				</g>
			</g>
			<g>
				<g>
					<path class="st1" d="M191.4,60.1H184c-2.8,0-5-2.2-5-5c0-2.8,2.2-5,5-5h7.4c2.8,0,5,2.2,5,5C196.4,57.8,194.2,60.1,191.4,60.1z
						"/>
				</g>
			</g>
			<g>
				<g>
					<circle class="st5" cx="360.2" cy="55.1" r="19.8"/>
				</g>
			</g>
			<g>
				<g>
					<path class="st1" d="M360.2,79.9c-13.7,0-24.8-11.1-24.8-24.8s11.1-24.8,24.8-24.8c13.7,0,24.8,11.1,24.8,24.8
						S373.9,79.9,360.2,79.9z M360.2,40.2c-8.2,0-14.8,6.6-14.8,14.8c0,8.2,6.6,14.8,14.8,14.8c8.2,0,14.8-6.6,14.8-14.8
						C375.1,46.9,368.4,40.2,360.2,40.2z"/>
				</g>
			</g>
		</g>
		<g>
			<g>
				<g>
					<path class="st0" d="M403.8,205.2H96.2c-11,0-20-9-20-20v-60.1c0-11,9-20,20-20h307.7c11,0,20,9,20,20v60.1
						C423.8,196.3,414.9,205.2,403.8,205.2z"/>
				</g>
			</g>
			<g>
				<g>
					<path class="st1" d="M403.8,210.2H96.2c-13.8,0-25-11.2-25-25v-60.1c0-13.8,11.2-25,25-25h307.7c13.8,0,25,11.2,25,25v60.1
						C428.8,199,417.6,210.2,403.8,210.2z M96.2,110.1c-8.3,0-15,6.7-15,15v60.1c0,8.3,6.7,15,15,15h307.7c8.3,0,15-6.7,15-15v-60.1
						c0-8.3-6.7-15-15-15H96.2z"/>
				</g>
			</g>
			<g>
				<g>
					<path class="st1" d="M149.8,160.2h-41.6c-2.8,0-5-2.2-5-5s2.2-5,5-5h41.6c2.8,0,5,2.2,5,5S152.5,160.2,149.8,160.2z"/>
				</g>
			</g>
			<g>
				<g>
					<path class="st1" d="M191.4,160.2H184c-2.8,0-5-2.2-5-5s2.2-5,5-5h7.4c2.8,0,5,2.2,5,5S194.2,160.2,191.4,160.2z"/>
				</g>
			</g>
			<g>
				<g>
					<circle class="st5" cx="360.2" cy="155.2" r="19.8"/>
				</g>
			</g>
			<g>
				<g>
					<path class="st1" d="M360.2,180c-13.7,0-24.8-11.1-24.8-24.8s11.1-24.8,24.8-24.8c13.7,0,24.8,11.1,24.8,24.8
						S373.9,180,360.2,180z M360.2,140.3c-8.2,0-14.8,6.6-14.8,14.8c0,8.2,6.6,14.8,14.8,14.8c8.2,0,14.8-6.6,14.8-14.8
						C375.1,147,368.4,140.3,360.2,140.3z"/>
				</g>
			</g>
		</g>
		<g>
			<g>
				<g>
					<path class="st0" d="M403.8,305.3H96.2c-11,0-20-9-20-20v-60.1c0-11,9-20,20-20h307.7c11,0,20,9,20,20v60.1
						C423.8,296.4,414.9,305.3,403.8,305.3z"/>
				</g>
			</g>
			<g>
				<g>
					<path class="st1" d="M403.8,310.3H96.2c-13.8,0-25-11.2-25-25v-60.1c0-13.8,11.2-25,25-25h307.7c13.8,0,25,11.2,25,25v60.1
						C428.8,299.1,417.6,310.3,403.8,310.3z M96.2,210.2c-8.3,0-15,6.7-15,15v60.1c0,8.3,6.7,15,15,15h307.7c8.3,0,15-6.7,15-15
						v-60.1c0-8.3-6.7-15-15-15H96.2z"/>
				</g>
			</g>
			<g>
				<g>
					<path class="st1" d="M149.8,260.3h-41.6c-2.8,0-5-2.2-5-5c0-2.8,2.2-5,5-5h41.6c2.8,0,5,2.2,5,5
						C154.8,258,152.5,260.3,149.8,260.3z"/>
				</g>
			</g>
			<g>
				<g>
					<path class="st1" d="M191.4,260.3H184c-2.8,0-5-2.2-5-5c0-2.8,2.2-5,5-5h7.4c2.8,0,5,2.2,5,5
						C196.4,258,194.2,260.3,191.4,260.3z"/>
				</g>
			</g>
			<g>
				<g>
					<circle class="st5" cx="360.2" cy="255.3" r="19.8"/>
				</g>
			</g>
			<g>
				<g>
					<path class="st1" d="M360.2,280.1c-13.7,0-24.8-11.1-24.8-24.8s11.1-24.8,24.8-24.8c13.7,0,24.8,11.1,24.8,24.8
						S373.9,280.1,360.2,280.1z M360.2,240.4c-8.2,0-14.8,6.6-14.8,14.8c0,8.2,6.6,14.8,14.8,14.8c8.2,0,14.8-6.6,14.8-14.8
						C375.1,247.1,368.4,240.4,360.2,240.4z"/>
				</g>
			</g>
		</g>
	</g>
	<g>
		<g>
			<path class="st1" d="M143.8,460.6H76.2c-2.8,0-5-2.2-5-5c0-2.8,2.2-5,5-5h67.6c15.5,0,29.2-9.2,35-23.5
				c11.7-29.3,39.7-48.2,71.3-48.2c2.8,0,5,2.2,5,5c0,2.8-2.2,5-5,5c-27.5,0-51.8,16.5-62,41.9C180.8,448.9,163.4,460.6,143.8,460.6
				z"/>
		</g>
	</g>
	<g>
		<g>
			<path class="st1" d="M423.8,460.6h-67.6c-19.6,0-37-11.7-44.2-29.8c-10.2-25.5-34.5-41.9-62-41.9c-2.8,0-5-2.2-5-5
				c0-2.8,2.2-5,5-5c31.6,0,59.5,18.9,71.3,48.2c5.7,14.3,19.4,23.5,35,23.5h67.6c2.8,0,5,2.2,5,5
				C428.8,458.4,426.6,460.6,423.8,460.6z"/>
		</g>
	</g>
	<g>
		<g>
			<circle class="st2" cx="250" cy="455.6" r="39.4"/>
		</g>
	</g>
	<g>
		<g>
			<path class="st1" d="M250,500c-24.5,0-44.4-19.9-44.4-44.4s19.9-44.4,44.4-44.4s44.4,19.9,44.4,44.4S274.5,500,250,500z
				 M250,421.2c-19,0-34.4,15.4-34.4,34.4c0,19,15.4,34.4,34.4,34.4s34.4-15.4,34.4-34.4C284.4,436.6,269,421.2,250,421.2z"/>
		</g>
	</g>
	<g>
		<g>
			<path class="st1" d="M250,388.9c-2.8,0-5-2.2-5-5v-49.1c0-2.8,2.2-5,5-5s5,2.2,5,5v49.1C255,386.6,252.8,388.9,250,388.9z"/>
		</g>
	</g>
</g>
</svg>
