<?xml version="1.0" encoding="utf-8"?>
<!-- Generator: Adobe Illustrator 22.0.1, SVG Export Plug-In . SVG Version: 6.00 Build 0)  -->
<svg version="1.1" id="Layer_1" xmlns="http://www.w3.org/2000/svg" xmlns:xlink="http://www.w3.org/1999/xlink" x="0px" y="0px"
	 viewBox="0 0 256 256" style="enable-background:new 0 0 256 256;" xml:space="preserve">
<style type="text/css">
	.st0{fill:#3A312A;}
	.st1{fill:#D6DF58;}
	.st2{fill:#87796F;}
	.st3{fill:#B9C239;}
	.st4{fill:#EF6D7A;}
	.st5{fill:#FCE8CB;}
	.st6{fill:#D5DE58;}
	.st7{fill:#D34E5C;}
	.st8{fill:#695B51;}
	.st9{fill:#8AC6DD;}
	.st10{fill:#D7E057;}
	.st11{fill:#B8C136;}
	.st12{fill:#F16C7A;}
	.st13{fill:#8AC2D9;}
	.st14{fill:#F7E3C7;}
	.st15{fill:#8AC3DA;}
	.st16{fill:#6DA3BC;}
	.st17{fill:#6A5C52;}
	.st18{fill:#D5DC57;}
	.st19{fill:#F6E2C6;}
	.st20{fill:#DBC7AA;}
	.st21{fill:#CE4E61;}
	.st22{fill:#FAE6CA;}
	.st23{fill:#8AC5DC;}
	.st24{fill:#DDC9AC;}
	.st25{fill:#DECAAD;}
	.st26{fill:#6CA6BE;}
	.st27{fill:#F8E4C8;}
	.st28{fill:#89C4DB;}
	.st29{fill:#ED6E7A;}
	.st30{fill:#D24E5C;}
	.st31{fill:#6DA4BD;}
	.st32{fill:#EB6E7A;}
	.st33{fill:#68A7BB;}
	.st34{fill:#B9BC37;}
	.st35{fill:#CC4E61;}
	.st36{fill:#6CA8BF;}
	.st37{fill-rule:evenodd;clip-rule:evenodd;fill:#D5DE58;}
	.st38{fill:#EA6D7A;}
	.st39{fill:#F4E0C4;}
	.st40{fill-rule:evenodd;clip-rule:evenodd;fill:#D6DF58;}
	.st41{fill-rule:evenodd;clip-rule:evenodd;fill:#F16C7A;}
	.st42{fill:#F3DEC3;}
	.st43{fill-rule:evenodd;clip-rule:evenodd;fill:#FAE6CA;}
	.st44{fill:#F59689;}
	.st45{fill-rule:evenodd;clip-rule:evenodd;fill:#F8E4C8;}
	.st46{fill-rule:evenodd;clip-rule:evenodd;fill:#FCE8CB;}
	.st47{fill:#F5978A;}
	.st48{fill:#D4DB56;}
	.st49{fill-rule:evenodd;clip-rule:evenodd;fill:#D4DA55;}
	.st50{fill-rule:evenodd;clip-rule:evenodd;fill:#EB6E7A;}
	.st51{fill:#68A6B9;}
	.st52{fill-rule:evenodd;clip-rule:evenodd;fill:#D5DC57;}
	.st53{fill:#8AC1D8;}
	.st54{fill:#F5E1C5;}
	.st55{fill:#D4D752;}
	.st56{fill:#D3D751;}
	.st57{fill:#D4D853;}
	.st58{fill:#E96C7A;}
	.st59{fill:#D4DA55;}
	.st60{fill:#8BC0D7;}
	.st61{fill:#87796F;stroke:#3A312A;stroke-width:3;stroke-linecap:round;stroke-linejoin:round;stroke-miterlimit:10;}
</style>
<g>
	<g>
		<g>
			<path class="st18" d="M59.968,25.997c-0.974,11.564-13.025,13.389-13.025,13.389c10.346,0.487,12.925,14.059,12.925,14.059
				c0.221-9.677,13.321-14.202,13.321-14.202C63.376,38.656,59.968,25.997,59.968,25.997z"/>
		</g>
	</g>
	<g>
		<g>
			<path class="st0" d="M73.279,37.747c-8.605-0.516-11.832-12.025-11.864-12.142c-0.191-0.703-0.866-1.166-1.583-1.102
				c-0.725,0.066-1.298,0.642-1.359,1.367c-0.86,10.215-11.313,11.964-11.754,12.032c-0.763,0.116-1.313,0.791-1.273,1.561
				c0.04,0.771,0.657,1.385,1.427,1.421c9.028,0.426,11.499,12.719,11.523,12.844c0.137,0.711,0.759,1.217,1.472,1.217
				c0.042,0,0.084-0.002,0.126-0.005c0.764-0.064,1.357-0.693,1.375-1.46c0.194-8.509,12.191-12.777,12.313-12.819
				c0.675-0.234,1.092-0.914,0.994-1.622C74.577,38.331,73.993,37.79,73.279,37.747z M59.713,48.092
				c-1.357-3.131-3.708-6.907-7.587-8.876c2.931-1.405,6.409-3.913,8.202-8.273c1.551,3.071,4.2,6.881,8.334,8.723
				C65.655,41.306,61.74,44.07,59.713,48.092z"/>
		</g>
	</g>
	<g>
		<g>
			<path class="st18" d="M38.269,42.978c-0.689,8.179-9.212,9.471-9.212,9.471c7.318,0.344,9.142,9.944,9.142,9.944
				c0.156-6.844,9.422-10.045,9.422-10.045C40.68,51.932,38.269,42.978,38.269,42.978z"/>
		</g>
	</g>
	<g>
		<g>
			<path class="st0" d="M47.71,50.851c-5.766-0.346-7.972-8.187-7.994-8.266c-0.19-0.702-0.856-1.161-1.582-1.102
				c-0.726,0.065-1.299,0.643-1.36,1.368c-0.579,6.871-7.646,8.066-7.942,8.113c-0.763,0.116-1.313,0.791-1.273,1.561
				c0.04,0.771,0.657,1.385,1.427,1.421c6.035,0.284,7.724,8.645,7.739,8.727c0.135,0.713,0.759,1.22,1.472,1.22
				c0.042,0,0.083-0.002,0.125-0.005c0.765-0.063,1.358-0.693,1.376-1.461c0.13-5.709,8.331-8.633,8.412-8.661
				c0.676-0.233,1.094-0.913,0.996-1.622C49.009,51.435,48.425,50.894,47.71,50.851z M38.126,57.645
				c-0.924-1.885-2.34-3.947-4.447-5.279c1.856-1.041,3.697-2.63,4.871-4.917c1.057,1.874,2.654,3.955,4.941,5.225
				C41.641,53.773,39.502,55.412,38.126,57.645z"/>
		</g>
	</g>
	<g>
		<g>
			<path class="st18" d="M38.269,16.32c-0.689,8.179-9.212,9.471-9.212,9.471c7.318,0.344,9.142,9.944,9.142,9.944
				c0.156-6.844,9.422-10.045,9.422-10.045C40.68,25.274,38.269,16.32,38.269,16.32z"/>
		</g>
	</g>
	<g>
		<g>
			<path class="st0" d="M47.71,24.192c-5.766-0.345-7.972-8.186-7.993-8.265c-0.19-0.701-0.856-1.17-1.582-1.102
				c-0.726,0.065-1.299,0.643-1.36,1.368c-0.579,6.871-7.646,8.066-7.942,8.113c-0.763,0.116-1.313,0.791-1.273,1.561
				c0.04,0.771,0.657,1.385,1.427,1.421c6.035,0.284,7.724,8.645,7.739,8.727c0.135,0.713,0.759,1.22,1.473,1.22
				c0.041,0,0.083-0.002,0.125-0.005c0.765-0.063,1.358-0.693,1.376-1.461c0.13-5.709,8.332-8.634,8.412-8.662
				c0.677-0.234,1.094-0.913,0.996-1.622C49.009,24.776,48.425,24.234,47.71,24.192z M38.126,30.987
				c-0.924-1.886-2.34-3.947-4.447-5.279c1.856-1.041,3.697-2.63,4.871-4.917c1.057,1.874,2.654,3.954,4.941,5.224
				C41.641,27.115,39.502,28.755,38.126,30.987z"/>
		</g>
	</g>
	<g>
		<g>
			<path class="st38" d="M214.23,17.359H95.682c-7.022,0-12.714,5.692-12.714,12.714v132.733c0.002,0,0.004,0,0.007,0v15.32
				c-0.002,0-0.004,0-0.007,0v15.345v15.51v17.983c0,7.022,5.692,12.714,12.714,12.714H214.23c7.022,0,12.714-5.692,12.714-12.714
				V30.073C226.943,23.052,221.251,17.359,214.23,17.359z"/>
		</g>
	</g>
	<g>
		<g>
			<path class="st0" d="M214.229,15.859H95.682c-7.838,0-14.214,6.376-14.214,14.214v132.733c0,0.048,0.002,0.096,0.007,0.144
				v15.032c-0.004,0.047-0.007,0.095-0.007,0.144v15.346c0,0.828,0.671,1.5,1.5,1.5c0.829,0,1.5-0.672,1.5-1.5v-15.201
				c0.004-0.047,0.007-0.095,0.007-0.144v-15.32c0-0.048-0.002-0.096-0.007-0.144V30.073c0-6.184,5.031-11.214,11.214-11.214
				h118.547c6.184,0,11.214,5.03,11.214,11.214v196.893c0,6.184-5.03,11.214-11.214,11.214H95.682
				c-6.184,0-11.214-5.03-11.214-11.214v-17.983c0-0.828-0.671-1.5-1.5-1.5c-0.829,0-1.5,0.672-1.5,1.5v17.983
				c0,7.838,6.376,14.214,14.214,14.214h118.547c7.837,0,14.214-6.376,14.214-14.214V30.073
				C228.443,22.235,222.067,15.859,214.229,15.859z"/>
		</g>
	</g>
	<g>
		<g>
			<path class="st19" d="M205.059,32.09H104.852c-3.763,0-6.813,3.051-6.813,6.813v163.922c0,3.763,3.05,6.813,6.813,6.813h100.207
				c3.763,0,6.813-3.05,6.813-6.813V38.903C211.872,35.14,208.822,32.09,205.059,32.09z"/>
		</g>
	</g>
	<g>
		<g>
			<path class="st0" d="M205.059,30.59h-18.047c-0.829,0-1.5,0.672-1.5,1.5s0.671,1.5,1.5,1.5h18.047
				c2.93,0,5.314,2.384,5.314,5.313v163.922c0,2.93-2.384,5.313-5.314,5.313H104.852c-2.93,0-5.313-2.384-5.313-5.313V38.903
				c0-2.93,2.383-5.313,5.313-5.313h67.418c0.829,0,1.5-0.672,1.5-1.5s-0.671-1.5-1.5-1.5h-67.418c-4.584,0-8.313,3.729-8.313,8.313
				v163.922c0,4.584,3.729,8.313,8.313,8.313h100.207c4.584,0,8.314-3.729,8.314-8.313V38.903
				C213.373,34.319,209.643,30.59,205.059,30.59z"/>
		</g>
	</g>
	<g>
		<g>
			<path class="st32" d="M154.956,215.8c-4.617,0-8.36,3.743-8.36,8.36s3.743,8.36,8.36,8.36c4.617,0,8.36-3.743,8.36-8.36
				S159.573,215.8,154.956,215.8z"/>
		</g>
	</g>
	<g>
		<g>
			<path class="st0" d="M154.956,214.3c-5.437,0-9.86,4.423-9.86,9.86c0,5.437,4.423,9.859,9.86,9.859
				c5.437,0,9.86-4.423,9.86-9.859C164.816,218.723,160.393,214.3,154.956,214.3z M154.956,231.02c-3.783,0-6.86-3.077-6.86-6.859
				c0-3.783,3.077-6.86,6.86-6.86c3.783,0,6.86,3.077,6.86,6.86C161.816,227.942,158.738,231.02,154.956,231.02z"/>
		</g>
	</g>
	<g>
		<g>
			<path class="st20" d="M205.06,33.59h-14c2.93,0,5.31,2.38,5.31,5.31v163.93c0,2.92-2.38,5.31-5.31,5.31h14
				c2.93,0,5.31-2.39,5.31-5.31V38.9C210.37,35.97,207.99,33.59,205.06,33.59z"/>
		</g>
	</g>
	<g>
		<g>
			
				<ellipse transform="matrix(0.9975 -0.0709 0.0709 0.9975 -10.0845 11.4839)" class="st2" cx="156.751" cy="147.819" rx="6.951" ry="6.951"/>
		</g>
	</g>
	<g>
		<g>
			<path class="st0" d="M156.75,139.369c-4.66,0-8.451,3.791-8.451,8.45s3.791,8.45,8.451,8.45c4.66,0,8.451-3.791,8.451-8.45
				S161.41,139.369,156.75,139.369z M156.75,153.27c-3.005,0-5.451-2.445-5.451-5.45s2.445-5.45,5.451-5.45
				c3.005,0,5.451,2.445,5.451,5.45S159.756,153.27,156.75,153.27z"/>
		</g>
	</g>
	<g>
		<g>
			
				<ellipse transform="matrix(0.3827 -0.9239 0.9239 0.3827 -26.3963 256.1338)" class="st2" cx="178.467" cy="147.819" rx="6.951" ry="6.951"/>
		</g>
	</g>
	<g>
		<g>
			<path class="st0" d="M178.467,139.369c-4.66,0-8.451,3.791-8.451,8.45s3.791,8.45,8.451,8.45c4.66,0,8.451-3.791,8.451-8.45
				S183.127,139.369,178.467,139.369z M178.467,153.27c-3.005,0-5.451-2.445-5.451-5.45s2.445-5.45,5.451-5.45
				c3.005,0,5.451,2.445,5.451,5.45S181.473,153.27,178.467,153.27z"/>
		</g>
	</g>
	<g>
		<g>
			<path class="st53" d="M188.844,101.034h-50.501l7.989,31.609h33.647c0.933,0,1.76-0.601,2.049-1.489l8.865-27.301
				C191.345,102.462,190.308,101.034,188.844,101.034z"/>
		</g>
	</g>
	<g>
		<g>
			<path class="st0" d="M191.801,101.04c-0.696-0.957-1.773-1.506-2.957-1.506h-50.5c-0.463,0-0.9,0.214-1.184,0.578
				c-0.284,0.365-0.384,0.841-0.271,1.289l7.989,31.608c0.168,0.666,0.767,1.133,1.454,1.133h33.646
				c1.589,0,2.985-1.015,3.476-2.525l8.865-27.3C192.685,103.192,192.496,101.998,191.801,101.04z M189.466,103.391l-8.865,27.301
				c-0.087,0.27-0.337,0.451-0.622,0.451h-32.479l-7.231-28.608h48.574c0.29,0,0.456,0.169,0.529,0.27
				C189.447,102.904,189.556,103.114,189.466,103.391z"/>
		</g>
	</g>
	<g>
		<g>
			<path class="st0" d="M188.041,137.998h-38.317L136.766,86.74c-0.225-0.888-1.023-1.51-1.939-1.51H120c-1.104,0-2,0.896-2,2
				s0.896,2,2,2h13.269l12.958,51.258c0.225,0.888,1.023,1.51,1.939,1.51h39.875c1.104,0,2-0.896,2-2
				S189.146,137.998,188.041,137.998z"/>
		</g>
	</g>
</g>
</svg>
