<?xml version="1.0" encoding="utf-8"?>
<!-- Generator: Adobe Illustrator 24.0.0, SVG Export Plug-In . SVG Version: 6.00 Build 0)  -->
<svg version="1.1" id="Layer_1" xmlns="http://www.w3.org/2000/svg" xmlns:xlink="http://www.w3.org/1999/xlink" x="0px" y="0px"
	 viewBox="0 0 256 256" enable-background="new 0 0 256 256" xml:space="preserve">
<g>
	<path fill="#CECECE" d="M32.035,206.267c-7.535,0-13.665-6.13-13.665-13.665V68.826c0-7.535,6.13-13.665,13.665-13.665h191.931
		c7.535,0,13.665,6.13,13.665,13.665v123.776c0,7.535-6.13,13.665-13.665,13.665H32.035z"/>
	<g>
		<path fill="#E2E2E2" d="M223.965,55.161h-14.667c7.534,0,13.665,6.13,13.665,13.665v123.776c0,7.534-6.13,13.665-13.665,13.665
			h14.667c7.535,0,13.665-6.13,13.665-13.665V68.826C237.63,61.291,231.5,55.161,223.965,55.161z"/>
	</g>
	<g>
		<path fill="#AFAFAF" d="M32.035,55.161h14.667c-7.534,0-13.665,6.13-13.665,13.665v123.776c0,7.534,6.13,13.665,13.665,13.665
			H32.035c-7.535,0-13.665-6.13-13.665-13.665V68.826C18.37,61.291,24.5,55.161,32.035,55.161z"/>
	</g>
	<path fill="#63BCE7" d="M229.221,68.85v123.728c0,2.916-2.364,5.28-5.28,5.28H32.059c-2.916,0-5.28-2.364-5.28-5.28V68.85
		c0-2.916,2.364-5.28,5.28-5.28h191.882C226.857,63.57,229.221,65.934,229.221,68.85z"/>
	<g>
		<path fill="#63E2E7" d="M223.941,63.57h-14.667c2.916,0,5.28,2.364,5.28,5.28v123.728c0,2.916-2.364,5.28-5.28,5.28h14.667
			c2.916,0,5.28-2.364,5.28-5.28V68.85C229.221,65.934,226.857,63.57,223.941,63.57z"/>
	</g>
	<g>
		<path fill="#6377E7" d="M32.059,63.57h14.667c-2.916,0-5.28,2.364-5.28,5.28v123.728c0,2.916,2.364,5.28,5.28,5.28H32.059
			c-2.916,0-5.28-2.364-5.28-5.28V68.85C26.779,65.934,29.143,63.57,32.059,63.57z"/>
	</g>
	<path fill="#CECECE" d="M128,206.267H8.667l3.053,7.024c2.751,6.329,8.995,10.423,15.896,10.423H128h100.385
		c6.901,0,13.145-4.094,15.896-10.423l3.053-7.024H128z"/>
	<g>
		<path fill="#E2E2E2" d="M232.667,206.267l-3.053,7.024c-2.751,6.329-8.995,10.423-15.896,10.423h14.667
			c6.901,0,13.145-4.094,15.896-10.423l3.053-7.024H232.667z"/>
	</g>
	<g>
		<path fill="#AFAFAF" d="M23.333,206.267l3.053,7.024c2.751,6.329,8.995,10.423,15.896,10.423H27.615
			c-6.901,0-13.145-4.094-15.896-10.423l-3.053-7.024H23.333z"/>
	</g>
	<path fill="#707070" d="M82.442,206.267l4.22,5.388c1.649,2.106,4.175,3.336,6.85,3.336h68.975c2.675,0,5.201-1.23,6.85-3.336
		l4.221-5.388H82.442z"/>
	<g>
		<circle fill="#F8AF23" cx="181.696" cy="125.45" r="19.822"/>
		<polygon fill="#F46275" points="163.16,172.042 116.796,147.712 116.796,103.169 163.16,78.839 		"/>
		<rect x="163.16" y="78.839" fill="#CECECE" width="18.536" height="93.203"/>
		<rect x="77.803" y="103.169" fill="#F8AF23" width="38.993" height="44.562"/>
		<rect x="54.482" y="114.295" fill="#CECECE" width="23.321" height="22.29"/>
		<rect x="88.699" y="147.731" fill="#F8AF23" width="17.2" height="34.859"/>
	</g>
	<path fill="#F8AF23" d="M193.308,164.687L193.308,164.687c-4.044,0-7.323,3.279-7.323,7.323v-3.33c0-4.032-3.154-7.491-7.186-7.565
		c-4.107-0.075-7.46,3.232-7.46,7.322v-3.193c0-4.044-3.279-7.323-7.323-7.323h0c-4.044,0-7.323,3.279-7.323,7.323v-28.189
		c0-4.044-3.279-7.323-7.323-7.323h0c-4.044,0-7.323,3.279-7.323,7.323v52.698l-9.025-9.025c-2.851-2.851-7.527-3.066-10.43-0.268
		c-2.957,2.851-2.99,7.56-0.098,10.452l16.693,16.693c1.831,1.831,2.86,4.315,2.86,6.904v9.204h51.742v-7.906l3.711-6.349
		c2.05-3.508,3.131-7.499,3.131-11.562V172.01C200.631,167.966,197.352,164.687,193.308,164.687z"/>
	<g>
		<g>
			<path fill="#CECECE" d="M81.013,72.665H44.239c-4.026,0-7.289-3.263-7.289-7.289V28.602c0-4.026,3.263-7.289,7.289-7.289h36.774
				c4.026,0,7.289,3.263,7.289,7.289v36.774C88.302,69.401,85.038,72.665,81.013,72.665z"/>
			<g>
				<path fill="#AFAFAF" d="M51.617,65.376V28.602c0-4.025,3.263-7.289,7.289-7.289H44.239c-4.026,0-7.289,3.263-7.289,7.289v36.774
					c0,4.026,3.263,7.289,7.289,7.289h14.667C54.88,72.665,51.617,69.401,51.617,65.376z"/>
			</g>
		</g>
		<g>
			<path fill="#F8AF23" d="M211.761,72.665h-36.774c-4.026,0-7.289-3.263-7.289-7.289V28.602c0-4.026,3.263-7.289,7.289-7.289
				h36.774c4.026,0,7.289,3.263,7.289,7.289v36.774C219.05,69.401,215.787,72.665,211.761,72.665z"/>
			<g>
				<path fill="#F8D323" d="M204.383,65.376V28.602c0-4.026-3.263-7.289-7.289-7.289h14.667c4.026,0,7.289,3.263,7.289,7.289v36.774
					c0,4.025-3.263,7.289-7.289,7.289h-14.667C201.12,72.664,204.383,69.401,204.383,65.376z"/>
			</g>
			<path fill="#F46275" d="M183.941,61.868l19.543-12.842c1.465-0.963,1.465-3.111,0-4.074l-19.543-12.842
				c-1.621-1.065-3.776,0.098-3.776,2.037v25.685C180.164,61.771,182.32,62.934,183.941,61.868z"/>
		</g>
	</g>
	<g>
		<path fill="#F46275" d="M146.387,72.665h-36.774c-4.026,0-7.289-3.263-7.289-7.289V28.602c0-4.026,3.263-7.289,7.289-7.289h36.774
			c4.026,0,7.289,3.263,7.289,7.289v36.774C153.676,69.401,150.413,72.665,146.387,72.665z"/>
		<g>
			<path fill="#F8AF23" d="M139.5,65.062c2.546,0,4.631-2.085,4.631-4.63v-1.315V43.473c0-2.548-2.085-4.63-4.631-4.63h-19.96
				v-7.587c0-2.547-1.727-4.632-3.835-4.632c-2.109,0-3.835,2.085-3.835,4.632v10.188v23.618H139.5z"/>
			<g>
				<path fill="#3F3679" d="M245.656,213.889l3.053-7.023c0.201-0.464,0.155-0.997-0.122-1.42c-0.276-0.423-0.748-0.678-1.254-0.678
					h-14.351c3.722-2.766,6.148-7.182,6.148-12.165V68.826c0-8.362-6.803-15.165-15.164-15.165h-3.416v-25.06
					c0-4.847-3.942-8.789-8.789-8.789h-36.773c-4.847,0-8.789,3.942-8.789,8.789v25.06h-11.022v-25.06
					c0-4.847-3.942-8.789-8.789-8.789h-36.773c-4.847,0-8.789,3.942-8.789,8.789v25.06H89.802v-25.06
					c0-4.847-3.942-8.789-8.789-8.789H44.239c-4.847,0-8.789,3.942-8.789,8.789v25.06h-3.416c-8.361,0-15.164,6.803-15.164,15.165
					v123.776c0,4.983,2.426,9.399,6.148,12.165H8.667c-0.506,0-0.978,0.255-1.254,0.678c-0.277,0.423-0.323,0.956-0.122,1.42
					l3.053,7.023c1.517,3.491,4.013,6.351,7.08,8.325H9.32c-0.828,0-1.5,0.672-1.5,1.5s0.672,1.5,1.5,1.5h18.295h114.433h51.741
					h34.596h18.295c0.828,0,1.5-0.672,1.5-1.5s-0.672-1.5-1.5-1.5h-8.104C241.644,220.239,244.139,217.379,245.656,213.889z
					 M223.966,56.661c6.707,0,12.164,5.457,12.164,12.165v123.776c0,6.708-5.457,12.165-12.164,12.165h-22.834
					c0.516-1.759,0.84-3.572,0.951-5.409h21.859c3.738,0,6.779-3.042,6.779-6.78V68.85c0-3.738-3.041-6.779-6.779-6.779h-3.392
					v-5.409H223.966z M169.198,28.602c0-3.192,2.597-5.789,5.789-5.789h36.773c3.192,0,5.789,2.597,5.789,5.789v36.774
					c0,3.192-2.597,5.789-5.789,5.789h-36.773c-3.192,0-5.789-2.597-5.789-5.789V28.602z M166.198,56.661v5.409h-11.022v-5.409
					H166.198z M103.824,28.602c0-3.192,2.597-5.789,5.789-5.789h36.773c3.192,0,5.789,2.597,5.789,5.789v36.774
					c0,3.192-2.597,5.789-5.789,5.789h-36.773c-3.192,0-5.789-2.597-5.789-5.789V28.602z M100.824,56.661v5.409H89.802v-5.409
					H100.824z M38.45,28.602c0-3.192,2.597-5.789,5.789-5.789h36.773c3.192,0,5.789,2.597,5.789,5.789v36.774
					c0,3.192-2.597,5.789-5.789,5.789H44.239c-3.192,0-5.789-2.597-5.789-5.789V28.602z M44.239,74.165h36.773
					c4.847,0,8.789-3.942,8.789-8.789V65.07h11.022v0.306c0,4.847,3.942,8.789,8.789,8.789h36.773c4.847,0,8.789-3.942,8.789-8.789
					V65.07h11.022v0.306c0,4.847,3.942,8.789,8.789,8.789h36.773c4.847,0,8.789-3.942,8.789-8.789V65.07h3.392
					c2.084,0,3.779,1.695,3.779,3.779v123.729c0,2.084-1.695,3.78-3.779,3.78h-21.811V172.01c0-4.864-3.958-8.822-8.823-8.822
					c-2.454,0-4.678,1.007-6.278,2.63c-0.674-2.055-2.052-3.787-3.833-4.896v-14.226c11.057-0.775,19.822-9.996,19.822-21.247
					c0-11.25-8.765-20.471-19.822-21.246V78.839c0-0.828-0.672-1.5-1.5-1.5h-18.537c-0.25,0-0.483,0.067-0.691,0.176l-0.007-0.004
					l-46.036,24.158H77.803c-0.828,0-1.5,0.672-1.5,1.5v9.626H54.481c-0.828,0-1.5,0.672-1.5,1.5v22.29c0,0.828,0.672,1.5,1.5,1.5
					h21.821v9.646c0,0.828,0.672,1.5,1.5,1.5h9.396v33.359c0,0.828,0.672,1.5,1.5,1.5h17.2c0.828,0,1.5-0.672,1.5-1.5V149.23h9.062
					l24.086,12.64v24.262l-6.465-6.464c-3.472-3.474-9.095-3.602-12.531-0.287c-1.72,1.658-2.68,3.886-2.701,6.272
					c-0.022,2.388,0.896,4.632,2.584,6.32l4.385,4.385H32.059c-2.084,0-3.779-1.696-3.779-3.78V68.85
					c0-2.084,1.695-3.779,3.779-3.779h3.392v0.306C35.45,70.223,39.393,74.165,44.239,74.165z M172.331,162.293
					c-1.148-3.225-4.123-5.588-7.672-5.846V80.339h15.537v79.415c-0.446-0.081-0.903-0.129-1.369-0.137
					c-2.379-0.035-4.643,0.854-6.347,2.526C172.43,162.192,172.38,162.242,172.331,162.293z M149.37,128.232
					c-4.864,0-8.822,3.958-8.822,8.823v21.426l-22.252-11.677v-42.729l43.363-22.756v75.424c-1.3,0.361-2.48,1.01-3.466,1.878
					v-21.566C158.193,132.19,154.235,128.232,149.37,128.232z M183.196,107.203c9.402,0.768,16.822,8.65,16.822,18.246
					c0,9.597-7.42,17.479-16.822,18.247V107.203z M90.199,149.23h14.2v31.859h-14.2V149.23z M105.899,146.23h-17.2h-9.396v-9.646
					v-22.29v-9.626h35.993v41.562H105.899z M76.303,135.085H55.981v-19.29h20.321V135.085z M19.87,192.603V68.826
					c0-6.708,5.457-12.165,12.164-12.165h3.416v5.409h-3.392c-3.738,0-6.779,3.041-6.779,6.779v123.729
					c0,3.738,3.041,6.78,6.779,6.78h96.761l5.409,5.409H82.442H32.034C25.327,204.768,19.87,199.311,19.87,192.603z
					 M138.127,208.666c1.318,1.318,2.129,3.004,2.352,4.824H93.513c-2.229,0-4.296-1.006-5.67-2.76l-2.32-2.963h51.706
					L138.127,208.666z M15.435,216.49h29.141c0.828,0,1.5-0.672,1.5-1.5s-0.672-1.5-1.5-1.5H13.478
					c-0.132-0.263-0.264-0.525-0.382-0.797l-2.142-4.926h21.08h49.678l3.769,4.813c1.946,2.485,4.874,3.91,8.031,3.91h47.035v5.724
					H27.615C22.828,222.214,18.395,220.057,15.435,216.49z M143.548,222.214v-7.704c0-3.009-1.172-5.837-3.3-7.965l-16.692-16.692
					c-1.114-1.114-1.72-2.596-1.705-4.172c0.014-1.574,0.647-3.045,1.783-4.14c2.268-2.188,6.004-2.076,8.328,0.248l9.025,9.024
					c0.43,0.43,1.076,0.559,1.635,0.325c0.561-0.232,0.926-0.779,0.926-1.386v-52.697c0-3.211,2.612-5.823,5.822-5.823
					c3.211,0,5.823,2.612,5.823,5.823v28.189v9.96c0,0.828,0.672,1.5,1.5,1.5s1.5-0.672,1.5-1.5v-9.96
					c0-3.211,2.612-5.823,5.823-5.823c3.21,0,5.822,2.612,5.822,5.823v3.192v9.358c0,0.828,0.672,1.5,1.5,1.5s1.5-0.672,1.5-1.5
					v-9.358c0-1.575,0.619-3.051,1.743-4.154c1.099-1.078,2.543-1.668,4.08-1.668c0.037,0,0.074,0,0.11,0.001
					c3.15,0.057,5.713,2.777,5.713,6.064v3.329v9.189c0,0.828,0.672,1.5,1.5,1.5s1.5-0.672,1.5-1.5v-9.189
					c0-3.21,2.612-5.822,5.822-5.822c3.211,0,5.823,2.612,5.823,5.822v25.888c0,3.794-1.012,7.53-2.926,10.805l-3.711,6.35
					c-0.135,0.229-0.205,0.491-0.205,0.757v6.405H143.548z M228.385,222.214h-33.096v-5.724h5.866c0.828,0,1.5-0.672,1.5-1.5
					s-0.672-1.5-1.5-1.5h-4.274l1.914-3.274c0.463-0.792,0.87-1.613,1.239-2.448h23.932h21.08l-2.142,4.926
					c-0.118,0.271-0.25,0.534-0.382,0.797h-31.099c-0.828,0-1.5,0.672-1.5,1.5s0.672,1.5,1.5,1.5h29.141
					C237.605,220.057,233.172,222.214,228.385,222.214z"/>
				<path fill="#3F3679" d="M65.22,213.49H54.845c-0.828,0-1.5,0.672-1.5,1.5s0.672,1.5,1.5,1.5H65.22c0.828,0,1.5-0.672,1.5-1.5
					S66.048,213.49,65.22,213.49z"/>
				<path fill="#3F3679" d="M27.323,233.188H9.32c-0.828,0-1.5,0.672-1.5,1.5s0.672,1.5,1.5,1.5h18.003c0.828,0,1.5-0.672,1.5-1.5
					S28.151,233.188,27.323,233.188z"/>
				<path fill="#3F3679" d="M246.68,233.188h-18.003c-0.828,0-1.5,0.672-1.5,1.5s0.672,1.5,1.5,1.5h18.003
					c0.828,0,1.5-0.672,1.5-1.5S247.508,233.188,246.68,233.188z"/>
				<path fill="#3F3679" d="M218.479,233.188H37.521c-0.828,0-1.5,0.672-1.5,1.5s0.672,1.5,1.5,1.5h180.959
					c0.828,0,1.5-0.672,1.5-1.5S219.308,233.188,218.479,233.188z"/>
				<path fill="#3F3679" d="M54.171,64.015H71.08c4.727,0,8.572-3.845,8.572-8.571V38.534c0-4.727-3.846-8.571-8.572-8.571H54.171
					c-4.727,0-8.571,3.845-8.571,8.571v16.909C45.6,60.17,49.444,64.015,54.171,64.015z M48.6,38.534
					c0-3.072,2.499-5.571,5.571-5.571H71.08c3.072,0,5.572,2.499,5.572,5.571v16.909c0,3.072-2.5,5.571-5.572,5.571H54.171
					c-3.072,0-5.571-2.499-5.571-5.571V38.534z"/>
				<path fill="#3F3679" d="M62.626,56.462c5.224,0,9.473-4.25,9.473-9.474s-4.249-9.473-9.473-9.473s-9.473,4.249-9.473,9.473
					S57.402,56.462,62.626,56.462z M62.626,40.516c3.569,0,6.473,2.903,6.473,6.473s-2.903,6.474-6.473,6.474
					s-6.473-2.904-6.473-6.474S59.057,40.516,62.626,40.516z"/>
				<path fill="#3F3679" d="M180.732,63.297c0.586,0.315,1.229,0.473,1.869,0.473c0.755,0,1.508-0.218,2.163-0.647l19.542-12.842
					c1.112-0.73,1.776-1.961,1.776-3.291c0-1.331-0.664-2.562-1.775-3.292l-19.543-12.842c-1.211-0.795-2.756-0.862-4.032-0.175
					c-1.275,0.688-2.068,2.017-2.068,3.466v25.685C178.664,61.28,179.457,62.608,180.732,63.297z M181.664,34.146
					c0-0.505,0.345-0.745,0.492-0.825c0.085-0.046,0.249-0.116,0.453-0.116c0.152,0,0.327,0.039,0.507,0.158l19.544,12.842
					c0.382,0.251,0.423,0.632,0.423,0.784c0,0.151-0.041,0.532-0.424,0.783l-19.543,12.842c-0.422,0.277-0.812,0.121-0.96,0.042
					c-0.147-0.08-0.492-0.32-0.492-0.825V34.146z"/>
				<path fill="#3F3679" d="M111.869,66.562H139.5c3.381,0,6.131-2.75,6.131-6.13V43.473c0-3.38-2.75-6.13-6.131-6.13h-18.46v-6.087
					c0-3.382-2.394-6.133-5.336-6.133c-2.941,0-5.335,2.751-5.335,6.133v33.806C110.369,65.89,111.041,66.562,111.869,66.562z
					 M113.369,31.256c0-1.698,1.069-3.133,2.335-3.133c1.267,0,2.336,1.435,2.336,3.133v7.587c0,0.828,0.672,1.5,1.5,1.5h19.96
					c1.727,0,3.131,1.404,3.131,3.13V44.1h-16.662c-0.828,0-1.5,0.672-1.5,1.5s0.672,1.5,1.5,1.5h16.662v3.759h-16.662
					c-0.828,0-1.5,0.672-1.5,1.5s0.672,1.5,1.5,1.5h16.662v3.758h-16.662c-0.828,0-1.5,0.672-1.5,1.5s0.672,1.5,1.5,1.5h16.643
					c-0.098,1.638-1.449,2.945-3.112,2.945h-26.131V31.256z"/>
			</g>
		</g>
	</g>
</g>
</svg>
